<svg id="fd2f084d-9673-4055-b0ae-f7d20db9dd86" data-name="Layer 1" xmlns="http://www.w3.org/2000/svg" xmlns:xlink="http://www.w3.org/1999/xlink" viewBox="0 0 1440.00037 648.31323"><defs><linearGradient id="dee920f4-ed03-407b-bf3a-e1e0bfd2768c" x1="900.00018" y1="1764.31323" x2="900.00018" y2="1116" gradientUnits="userSpaceOnUse"><stop offset="0.18764" stop-color="#fec15f"/><stop offset="0.54221" stop-color="#fd927b"/><stop offset="0.99872" stop-color="#fda3d2"/></linearGradient></defs><title>bg</title><path d="M1620,1117.30127q-.57624-.65038-1.17517-1.30127H1005.76105c-38.13819.55591-70.42438.14392-70.4245.14392q-4.95483-.06317-9.71967-.14392H518.25751q-14.47092.09485-30.10266.14392-.21425.00056-191.499,0-58.328-.00018-116.65588,0v648.16931Q899.5,1759.65668,1619,1755q.97431-32.77589,1-66,.00073-1.30444,0-2.60669V1479.23975c-.19214-6.63245-.36133-13.5083-.5-20.67188-.72485-37.45093-.42493-70.43262.5-99.571Z" transform="translate(-180 -1116)" style="fill:url(#dee920f4-ed03-407b-bf3a-e1e0bfd2768c)"/></svg>