<svg id="bc198b59-ec83-4be5-8fdc-19ed17569d60" data-name="Layer 1" xmlns="http://www.w3.org/2000/svg" viewBox="0 0 358.77971 270.26954"><title>brain</title><g id="650bed8e-cb78-4a4f-8732-7c95115f3e3c" data-name="brain"><path d="M1150.76956,692.95c-7.45112,5.744-7.50771,11.90105-12.05964,19.33965-6.13484,10.02533-15.49519,14.02881-34.21588,22.03576a154.01314,154.01314,0,0,1-39.71653,10.94411c-11.93048-.21816-18.85871-3.91219-23.04591-7.45769-12.7218-10.77223-10.26875-28.74978-22.96158-33.29609a26.5718,26.5718,0,0,0-11.07059-.95894c-7.88847,1.07978-8.75985,5.20491-14.78287,5.48861-8.07977.38063-14.93043-6.64639-17.50308-9.28522-4.30316-4.41395-3.07481-5.54779-6.4325-8.32628-6.08434-5.03482-11.20859-2.2144-22.2623-5.32508-6.18983-1.7419-14.19679-3.99519-18.2897-10.495-5.01684-7.96716.0892-15.57742-4.55075-19.39386-4.082-3.35749-9.83982,1.04717-18.462,1.78537-14.24383,1.21945-25.61307-8.48282-39.61415-20.4311-12.469-10.64084-24.66412-21.04783-24.80116-35.14771-.01674-1.72165.1617-1.91381,3.74843-17.52115,4.52259-19.68,4.84974-22.03259,5.61811-24.89753,4.46157-16.635,17.70071-27.79888,30.57888-38.65822,21.87267-18.44395,43.3739-26.22465,60.08741-32.10224,12.80325-4.50254,25.77415-6.9442,51.716-11.82775.00011,0,29.48748-5.551,49.83119.16263a24.76748,24.76748,0,0,1,6.45057,2.78948c3.34107,2.22758,3.36614,3.779,5.52174,4.63207,3.54023,1.40106,6.15236-1.723,11.08263-2.73226,4.26432-.87285,7.09382.48489,14.59456,3.23375,13.89121,5.09072,13.44154,3.82534,21.643,7.1047a170.70818,170.70818,0,0,1,44.84836,26.83857c22.73914,20.25189,32.88214,43.3683,37.65711,54.56867,9.1642,21.49594,15.35536,31.50934,15.40065,47.5227.00937,3.30635-.24028,27.11317-15.71085,47.5257-4.13309,5.4533-8.96264,11.8232-17.5874,16.55318C1159.43159,689.485,1156.17081,688.78628,1150.76956,692.95Z" transform="translate(-841 -475)" style="fill:#8000ff"/><path d="M1142.88391,548.84561c-1.84173-1.9758,2.74649-6.50924,1.77434-12.75251-.64338-4.13178-3.44637-7.24166-6.03622-9.37609a15.52331,15.52331,0,0,1-6.05266-4.2728c-5.44148-6.4521-2.88614-15.64115-4.82142-16.0668-1.77353-.39013-2.79319,7.57508-9.03359,12.61877-7.8106,6.31277-19.10287,4.25267-19.12394,5.19464-.02646,1.18448,17.97745-2.17475,26.01857,6.736,5.67516,6.28892,1.32125,13.07516,8.903,28.29845.778,1.56217,5.30444,10.65065,8.3561,9.96686,2.41058-.54014.55748-6.42874,4.31605-10.12557,6.71031-6.60007,24.88938.09908,26.019-2.89334.00789-.02095.014-.03972.01949-.05943.64022-2.28968-8.8143-8.90445-18.20055-8.92914C1148.241,547.16677,1144.51606,550.59656,1142.88391,548.84561Z" transform="translate(-841 -475)" style="fill:#00dcbe"/><path d="M1091.7147,612.92129a88.00471,88.00471,0,0,0,13.39683-18.6327c6.52951-12.61619,7.363-21.43063,11.54917-22.2189,3.79529-.71476,4.97587,6.17908,11.40928,12.31008a24.13993,24.13993,0,0,0,4.78482,3.66067c1.71587.97561,2.49,1.06386,3.21138,1.47727,4.92745,2.82394,2.96839,17.44406,1.14146,17.56674-1.42829.09593-.67783-8.81025-6.42044-12.01748-4.71411-2.63287-10.78147.26254-11.99942.88365-7.57024,3.8604-9.62359,12.57859-10.308,15.48447-1.78063,7.56029.31277,13.09643.61013,17.92266,1.3938,22.62285-8.34864,41.70827-10.84766,41.27341-3.21776-.56,5.03132-33.57782-7.59961-40.57617-6.25859-3.46767-21.96288-3.11755-22.72987-4.28168a.13046.13046,0,0,1-.02024-.06461C1067.81625,624.52441,1079.81012,624.97629,1091.7147,612.92129Z" transform="translate(-841 -475)" style="fill:#00dcbe"/><path d="M1000.95248,508.82193a61.93068,61.93068,0,0,0-14.0359,15.53315,71.23027,71.23027,0,0,0-3.74088,6.32152c-6.52951,12.61618-7.363,21.43062-11.54917,22.21889-3.79535.71476-4.97593-6.17908-11.40928-12.31008-9.19072-8.75873-18.43475-5.79506-18.4487-7.21492-.02258-2.29549,32.28009-4.34716,38.0389-19.8404,3.89708-10.48447-6.06655-23.08351-.92989-26.92763,1.54287-1.15468,4.41319-1.06634,10.15381-.88968a43.46883,43.46883,0,0,1,8.30219.94991c7.026,1.54457,7.58959,3.7596,11.98134,4.65315,7.42756,1.5113,9.61869-4.05029,17.54525-3.634,8.16482.4288,15.46872,6.83548,14.73468,9.27619-.83437,2.77426-11.49781-1.42366-25.85044,3.60687A51.93956,51.93956,0,0,0,1000.95248,508.82193Z" transform="translate(-841 -475)" style="fill:#00dcbe"/><path d="M979.58654,552.12426a20.61214,20.61214,0,0,0,4.65014-11.05854,132.73323,132.73323,0,0,1,13.91427-22.102c6.46548-8.32,12.89039-14.5315,13.88718-13.79683.8857.65276-3.56713,6.01434-1.87271,8.29918,2.60013,3.5062,15.35821-6.05392,23.99581-.8445,2.92652,1.76505,5.37,5.21937,4.58991,7.39746-1.10631,3.089-7.794,1.09146-15.69965,3.64-10.11169,3.25969-20.1229,13.28207-21.40871,23.75354-.91815,7.47737,3.256,9.94548.97159,17.7062-1.50977,5.12911-5.42776,11.16764-9.3285,10.97073-3.65217-.18438-3.62425-5.64984-9.48022-10.057-7.57093-5.69787-16.96264-3.59554-17.16542-5.64515C966.45659,558.53162,974.29094,558.17475,979.58654,552.12426Z" transform="translate(-841 -475)" style="fill:#00dcbe"/><path d="M1129.982,716.601c-.91257-.1464,1.87738-11.40368-1.8993-13.61227-3.41084-1.99466-8.79087,5.37181-21.89363,8.18938-3.40647.73252-8.54714,1.7837-10.20287-.51923-1.79133-2.49156,2.49463-6.13024,1.71325-12.99687a19.64491,19.64491,0,0,0-3.57752-8.80557c-3.52339-5.22553-7.91394-6.8983-7.34816-7.71821,1.34821-1.95377,34.064,14.8555,42.52315,5.69018,3.49332-3.785.59938-9.67251,6.66685-16.37136,3.70339-4.08877,7.32494-4.70343,8.27661-4.83231,2.58847-.35051,6.98609-.02682,8.25281,2.45659,1.46559,2.87328-2.70741,5.7996-1.48632,8.74192,1.79864,4.334,12.83,2.74937,13.10415,4.90208.12047.946-2.19209,2.081-6.81724,4.35113a53.63625,53.63625,0,0,1-6.81248,2.89336,65.604,65.604,0,0,1-7.29524,1.91991C1133.77675,693.55193,1131.27941,716.80916,1129.982,716.601Z" transform="translate(-841 -475)" style="fill:#00dcbe"/><path d="M1161.05589,651.45715c3.43495-7.48538-3.89284-14.06089.06324-19.3788,2.57686-3.464,6.44368-1.69268,10.17188-6.42647,2.06008-2.61572,1.16488-3.51892,4.02052-7.94285,2.1312-3.30151,3.88765-5.93838,7.10127-6.78581.64467-.17,4.28559-1.04277,6.45658.94388,3.25549,2.979-.22394,9.24933,2.74731,11.47807,2.13856,1.6041,5.01151-.84111,6.44154.54844,2.47306,2.40308-1.99,13.72864-6.50477,13.82092-5.10824.10431-9.3195-14.19158-10.10563-13.87513-.89294.35936,8.56338,17.18554,2.68709,24.92464-3.96223,5.2182-12.30115,2.88869-13.86609,7.33722-1.72123,4.89276,7.76174,9.42973,6.4084,15.70868-1.07957,5.00885-8.59863,9.01023-13.00766,7.26749-3.73058-1.47457-2.64548-6.03833-6.3621-10.09913-7.68227-8.39367-25.79515-3.61986-25.848-4.23948-.03477-.40767,7.97281-.50241,16.64709-4.09584C1153.81522,658.2781,1158.89066,656.17554,1161.05589,651.45715Z" transform="translate(-841 -475)" style="fill:#00dcbe"/><path d="M1182.24976,601.28545c-3.02976-2.95247-11.15233-11.10054-12.88-23.48345a35.59978,35.59978,0,0,1,1.83115-16.93094,32.76221,32.76221,0,0,0-10.72034-2.33221c-4.29417-.19459-7.30338-.33114-9.91631,1.29214-4.31747,2.68225-2.26533,6.88383-7.50413,12.16523a17.35044,17.35044,0,0,1-6.11951,4.17143c-6.08283,2.38945-11.55364.28931-11.93668,1.353-.35933.998,4.16431,3.65808,9.614,5.69744,9.84038,3.68257,12.89288,1.67119,19.42927,5.03466,2.40583,1.238,8.50453,4.51158,10.42922,10.64083,2.18536,6.9593-3.10442,11.034-.54371,19.35177.94395,3.0662,3.20479,7.52125,5.51271,7.40047,3.56078-.18641,2.64524-11.02509,9.27619-14.73468,6.6108-3.69828,15.97113,2.34721,16.60738.977C1195.85713,610.7507,1188.87176,607.73857,1182.24976,601.28545Z" transform="translate(-841 -475)" style="fill:#00dcbe"/><path d="M1060.31409,699.11448a48.31556,48.31556,0,0,0,3.77251-24.90355c5.33575-4.821,12.08742-12.54319,12.06868-22.108-.02245-11.43122-9.70623-20.90124-7.30711-23.09409,1.11985-1.02358,3.2262,1.04317,10.14176,2.80152,8.14792,2.07171,10.30346.49425,12.91017,2.81057,2.85792,2.5395,2.84965,6.73065,2.72021,14.77383-.13042,8.104-.19719,12.25317-1.89981,16.60438-5.5314,14.13613-24.08136,19.55195-23.47024,20.80963.44831.92259,9.08262-4.76622,16.0246-1.45493,4.2946,2.04855,6.29231,6.75484,7.35228,9.2521,1.35795,3.19912,3.636,8.566,1.5353,11.79719-3.50307,5.38833-14.86326-1.80547-30.07233,2.30294-12.61183,3.40688-20.27034,12.53237-20.87859,11.79355C1042.55322,719.69988,1054.24312,712.31275,1060.31409,699.11448Z" transform="translate(-841 -475)" style="fill:#00dcbe"/><path d="M1113.06728,652.22334c1.73824-7.3964,3.4947-14.87,2.70762-24.4784-.24462-2.98607-.64576-5.09063-.89319-10.16306-.22516-4.61636-.72167-14.795,1.11659-15.1807,2.03942-.42794,5.39128,11.52478,7.34626,11.09769,2.06191-.45039-.6198-13.97529,1.89379-14.75877,2.26974-.70746,9.31319,8.80677,11.00734,20.33774,2.26224,15.39742-6.10435,26.96708-4.70434,27.66894,1.44105.72238,12.30379-10.53431,14.85213-26.713,2.74769-17.44432-5.96146-29.24274-3.59182-30.46444,3.23889-1.66991,22.70243,18.69745,18.34457,34.20383-1.26576,4.50391-3.9455,6.35735-4.65616,12.90414-.93022,8.56945,2.97376,11.72653.59744,16.40818-2.35375,4.63724-8.50054,6.10379-14.51774,7.53944-9.5917,2.28857-17.19459.94735-17.54223,2.71118-.27044,1.37207,4.36892,1.98672,5.51873,5.55487,1.22207,3.79256-2.23975,8.61982-5.57294,11.05553-4.41652,3.22736-9.48182,2.89486-12.00544,2.72925-4.54019-.298-5.04442-1.65515-12.90715-3.73336-6.50407-1.71917-10.16889-2.08473-10.14176-2.80153.04124-1.09131,8.53289.7934,14.77684-3.643C1109.02545,669.42159,1110.37273,663.68884,1113.06728,652.22334Z" transform="translate(-841 -475)" style="fill:#00dcbe"/><path d="M1105.94483,557.03038c-.71955-.54857,3.892-6.01609,5.63222-13.70345a30.7755,30.7755,0,0,0,.04216-12.9192c-12.00769-2.77709-21.38443-5.76132-21.1973-8.37447.26356-3.68047,19.27529-3.4962,19.39988-6.39636.12119-2.82165-17.562-10.27615-31.36616-2.87079-8.79414,4.71771-15.6714,15.28268-12.98545,20.25944,3.03014,5.61444,15.33973-1.24077,23.19969,6.086,5.6408,5.25821,2.08716,11.45395,8.903,28.29844,1.25463,3.10066,5.7817,14.28874,9.26668,13.73665,3.57982-.56711,3.0541-13.046,7.42757-13.81791,3.507-.619,5.97245,7.02967,11.05252,6.49574,2.55409-.26844,3.3963-2.35587,7.39144-2.74431,2.82345-.27454,4.02268.6105,4.614.01506.91076-.917-.28545-4.67649-10.09358-17.56633-1.84625-2.06894-4.71706-4.57469-8.29014-4.6411C1112.08628,548.76035,1106.80883,557.689,1105.94483,557.03038Z" transform="translate(-841 -475)" style="fill:#00dcbe"/><path d="M1048.77145,525.46826c5.84934-1.95033,8.38526-9.71474,9.38258-12.76841,2.845-8.71054.03845-13.00662,3.74842-17.52115,2.72626-3.31748,6.79846-4.10883,9.24306-4.58388,20.1667-3.919,49.74149,18.81375,47.91332,22.3038-1.59308,3.04124-24.68427-13.009-41.517-2.90392-4.59613,2.75917-8.10219,7.094-12.03555,11.95725-9.14011,11.30083-11.676,20.75012-15.75386,20.2504-2.40226-.29442-1.72613-3.59865-5.34783-6.54145-7.84741-6.37646-25.98433-3.02175-25.99962-3.06314-.00776-.021-.01373-.03981-.01907-.05954-.62526-2.29386,8.87222-8.84678,18.25841-8.81018C1043.2755,523.75385,1044.54385,526.87777,1048.77145,525.46826Z" transform="translate(-841 -475)" style="fill:#00dcbe"/><path d="M1087.53907,557.09062c.1849-10.12721-2.2496-13.55469-4.56581-14.77985-4.25451-2.25051-8.8803,2.52147-13.842-.04518-5.10952-2.64305-4.38432-9.866-7.34927-10.17489-3.30734-.34457-4.24782,8.36566-11.4452,14.36657-8.5608,7.13758-20.04874,5.46726-19.99927,6.75543.05083,1.32243,12.05593.45479,26.89391,5.17528,8.20412,2.61,12.38465,3.95312,15.51273,7.88246,8.44633,10.60991.90358,30.22463,1.74641,30.38283.46911.088.3776-6.25184,4.316-10.12555,6.71033-6.6001,24.8894.099,26.01906-2.89338.0088-.02329.01438-.04186.01438-.042.50865-1.67082-6.15146-4.954-8.13921-6.17C1093.02744,575.17519,1088.98721,570.00263,1087.53907,557.09062Z" transform="translate(-841 -475)" style="fill:#00dcbe"/><path d="M1044.23575,501.46041c2.21408-2.3443,1.38818-8.91278-1.691-12.76389-5.32491-6.65976-18.53844-6.77768-33.21776-1.07188a75.37045,75.37045,0,0,0-17.52115-3.74842c-7.85519-.71425-11.9716.17834-11.9964-.03915-.09145-.80168,55.2792-17.605,70.12677,2.07448,5.066,6.71468,5.642,17.97851,2.6036,25.98291-1.899,5.00268-5.88473,10.49781-8.421,9.9121-2.407-.55589-.51549-6.43229-4.24984-10.15351-6.66711-6.64376-24.88952-.06343-25.99962-3.06315-.00776-.021-.01373-.03981-.01907-.05954-.62526-2.29385,8.87222-8.84678,18.25841-8.81017C1038.88979,499.7466,1042.59223,503.20063,1044.23575,501.46041Z" transform="translate(-841 -475)" style="fill:#00dcbe"/><path d="M1027.35831,617.79967c1.19246,1.92532-7.84934,7.21087-7.42988,14.55889.2381,4.17122,3.47936,7.38279,6.03621,9.3761a15.5229,15.5229,0,0,1,6.05264,4.27277c5.1506,6.10733,1.36624,13.54967,4.82144,16.06679,4.23281,3.08369,16.79949-2.83177,17.16635-9.12082.338-5.79473-10.01355-6.20746-15.02737-15.4286-8.23323-15.14217,6.36817-38.51194,3.21166-39.97855-1.53154-.71164-3.90308,5.28531-9.24606,5.50669-3.16617.13115-5.87242-.93826-11.22474-3.79344-15.06282-8.0352-16.94271-9.21873-18.26571-8.29934-2.46593,1.71366-1.59856,9.76123,2.72322,13.851,3.511,3.32262,7.464,2.29376,8.29015,4.6411,1.49655,4.25216-10.20871,11.20329-9.27017,12.88909C1006.34844,624.41122,1025.65779,615.05407,1027.35831,617.79967Z" transform="translate(-841 -475)" style="fill:#00dcbe"/><path d="M1024.78566,557.80863c-.84848-.99418.05675-3.25195.86226-4.60706,4.6346-7.797,18.08451-5.93339,18.56172-9.17169.20252-1.37432-1.61226-3.62722-11.04951-7.41854-5.00488,3.67716-10.6785,4.28372-13.848,1.80042a7.59375,7.59375,0,0,1-2.75334-4.623c-.47953-3.49071,2.25716-6.13959,1.86668-6.45358-.46-.36986-4.54181,3.0777-8.65711,8.825-.36993.51663-8.48174,11.95645-6.183,14.19686,1.70659,1.66318,6.75286-4.08082,10.38725-2.281,4.40793,2.18285.60321,12.48254,5.40148,28.27924,1.8849,6.20538,4.61253,10.12957,5.105,9.94892.674-.24732-3.60376-7.887-.67048-11.8881,3.36625-4.5918,12.575.59346,17.54825-4.55678,3.18959-3.30312,3.45989-9.63833.962-11.99339-1.62641-1.53337-4.33839-1.29631-8.30218-.9499C1028.5534,557.39343,1025.80932,559.00818,1024.78566,557.80863Z" transform="translate(-841 -475)" style="fill:#00dcbe"/><path d="M1067.96849,600.27851c-2.00239-1.9621.89042-6.64466,1.77431-12.75258.53411-3.69118.53479-9.28628-2.5505-16.65956-2.70306,2.0426-6.23908,3.96331-9.53835,3.01069-7.15129-2.06485-8.71468-16.337-10.72109-15.99615-1.47.24979.6687,7.6905-3.134,12.54808-5.34641,6.82961-19.0577,4.23576-19.12392,5.19474-.0963,1.39528,29.42587-.34082,35.08072,11.82894,2.60784,5.61229-2.06107,9.44566-.15915,23.20547.99881,7.226,3.47025,14.73314,5.57248,14.6474,2.35-.09585.84918-9.54108,7.09967-14.80611,5.22019-4.39717,10.12518-1.059,17.87917-4.49137,10.50617-4.65073,15.43633-16.94771,13.90223-18.41083-1.765-1.68342-15.0348,8.16148-30.49456,12.81982C1072.20767,600.82314,1069.35593,601.638,1067.96849,600.27851Z" transform="translate(-841 -475)" style="fill:#00dcbe"/><path d="M1048.51741,622.36246c-1.95266-3.77286,4.77511-7.51852,6.56706-17.39165.291-1.60349,2.09659-12.44129-4.55075-19.39385-3.22592-3.37408-7.14349-4.47425-11.05553-5.57294-2.03155-.57055-10.1729-2.857-11.9964-.03915-1.30185,2.0118,3.08783,5.04238,1.81849,8.31122-.81566,2.10047-3.3787,2.95206-5.54884,3.67313-5.83168,1.93766-9.99557.29338-10.15382.88967-.32618,1.22905,17.11026,9.17129,23.058,3.76649a5.7711,5.7711,0,0,1,2.77442-1.83656c3.018-.66548,6.79894,2.16328,8.29014,4.6411,4.956,8.23495-11.86216,19.57933-7.57467,33.33217,1.7353,5.56629,6.08792,10.5646,8.35612,9.96686,2.78766-.73461,2.00374-9.81,4.316-10.12556,1.33716-.18252,2.35167,2.75,4.92383,6.54006,3.08674,4.54831,8.96431,11.13879,11.04047,10.18694,2.67782-1.22769,1.96679-16.34789-6.38732-22.16828C1056.5502,623.07031,1050.35393,625.911,1048.51741,622.36246Z" transform="translate(-841 -475)" style="fill:#00dcbe"/><path d="M981.14805,604.60921c1.85462-1.96382-2.70393-6.52707-1.691-12.76388.67032-4.12748,3.49356-7.219,6.09728-9.33651a23.36155,23.36155,0,0,0,10.5553-3.56915c12.54648-8.217,12.75631-27.899,14.85515-27.63581,1.40566.17626-.36439,8.794,2.70515,19.38783,3.43063,11.84,10.80549,18.73084,9.16175,20.33172-1.13165,1.10217-4.56655-2.21435-12.90716-3.73336-3.62679-.66058-8.03467-1.40853-10.15381.88967-1.45882,1.58211-.89968,3.59548-.94388,6.45659-.08455,5.47417-3.18126,10.45177-9.37473,20.407-4.25619,6.84128-6.48621,10.359-8.421,9.9121-2.407-.55589-.51549-6.43229-4.24984-10.15352-6.66711-6.64375-24.88952-.06343-25.99962-3.06314-.00776-.021-.01372-.03981-.01907-.05954-.62525-2.29386,8.87222-8.84678,18.25842-8.81018C975.80209,602.8954,979.50453,606.34944,981.14805,604.60921Z" transform="translate(-841 -475)" style="fill:#00dcbe"/><path d="M1050.20608,670.45355c-1.16538,1.66777,6.60631,6.56605,6.468,12.96128-.1001,4.62927-4.30925,8.39577-8.34133,11.0465-2.45071-.11986-5.9187.12544-8.61331,2.32577-7.79092,6.36181-3.166,24.20813-4.39323,24.39326-1.069.16132-.83483-13.94433-9.484-21.0358-7.58725-6.22072-17.5625-1.435-19.0896-5.31934-1.482-3.76952,5.92383-12.50348,14.86415-14.29323,7.96044-1.59367,11.28994,3.48871,16.60739.977,5.09288-2.40564,3.75378-7.87782,10.211-18.42287,5.2672-8.6016,11.98593-14.47813,12.96437-13.79984,1.18.81807-6.69646,12.10219-4.65917,13.82694,1.342,1.136,6.6724-2.14038,10.17188-6.42647,3.90539-4.78323,4.28618-9.30006,4.64412-9.21294.77806.18954-.14205,21.74583-9.22316,24.71995C1057.16371,673.88678,1051.27152,668.92873,1050.20608,670.45355Z" transform="translate(-841 -475)" style="fill:#00dcbe"/><path d="M963.86882,561.30107c-1.35195-3.20676,1.10334-4.85377.03012-9.228-.73049-2.97719-2.94771-5.10941-7.35229-9.2521-5.41227-5.09052-8.11838-7.63573-11.0495-7.41853-3.56954.26445-4.19081,3.63351-8.65271,6.9932-8.36346,6.29731-19.1,4.18809-19.12391,5.19474-.02905,1.22191,15.93908-1.94995,26.01855,6.736,7.37756,6.35747,10.70519,18.29614,12.68711,25.40662,1.6966,6.08694,1.69243,8.90289,4.572,12.85867,5.11442,7.02575,14.22775,10.64388,16.5831,8.435,2.36755-2.22033-3.37663-9.12467.05421-16.6104a8.84234,8.84234,0,0,1,2.78045-3.68217c3.87767-2.84893,8.71513-.59821,9.234-1.81548.65011-1.525-6.07844-7.08544-14.72866-11.12178C968.62772,564.86016,965.24391,564.56265,963.86882,561.30107Z" transform="translate(-841 -475)" style="fill:#00dcbe"/><path d="M1009.63634,660.07077c-1.17485-.86638,11.21165-15.86138,7.5019-21.07983-1.93059-2.71571-7.63657-1.96247-11.76381-1.04884,12.40643-10.38292,15.35243-14.36238,14.58642-15.55253-1.81843-2.82528-18.92926,4.62752-20.30762,1.77935-.94041-1.94332,5.65809-8.39395,6.48972-9.20692,2.32955-2.27734,3.97767-3.34088,3.70625-4.60195-.37866-1.75922-3.90515-1.17336-6.44755-3.71229-3.14726-3.143-1.87164-8.16371-2.74129-8.31423-1.82657-.31608-1.94251,22.78521-15.19362,31.88772-8.35218,5.73738-19.0976,4.01687-19.12392,5.19474-.02256,1.00993,13.15144-.1363,26.01856,6.736,4.085,2.1818,8.61073,4.67685,10.8927,9.713,2.00058,4.41511,1.13835,8.27116-.983,18.453-4.23132,20.30907-4.85227,24.41316-3.77251,24.90355,2.35653,1.0703,7.82156-17.34013,20.36484-19.31254,7.90353-1.24285,14.54821,4.68045,18.453.983,2.18835-2.07211,1.10106-4.87912,4.64411-9.21294,2.3938-2.92813,4.8836-4.085,4.62906-4.59894-.55351-1.1177-11.41752,6.196-16.61943,2.71419-5.34023-3.57439-.78049-15.89376-4.55678-17.54826C1021.05463,646.33641,1010.76207,660.90094,1009.63634,660.07077Z" transform="translate(-841 -475)" style="fill:#00dcbe"/><path d="M1077.66705,717.46555c-2.01083.72992.43611,9.70252-1.59594,10.51045-.99326.39485-2.95223-1.20246-6.6013-6.68421,3.40813,12.29423,2.84736,15.19871,1.7944,15.69363-2.62855,1.2355-8.99-12.23089-15.65146-11.1248-6.02316,1.00014-7.03291,13.041-11.11576,12.88306-3.05913-.11835-5.83515-7.00748-6.41744-12.94028-1.6107-16.41036,13.11974-30.01215,13.93837-29.48442.95645.6166-14.24855,22.34166-10.23512,25.80527,1.63768,1.41332,5.93633-.67927,10.15983-2.73528,6.41466-3.12261,6.90432-5.13324,11.09769-7.34626,9.47823-5.00205,20.70665-1.97641,24.91861-.84148,7.037,1.89618,6.569,3.66626,11.98135,4.65315,12.80706,2.33519,21.60637-6.44942,23.085-4.53871,1.96368,2.53737-10.71618,21.696-24.059,20.2233-4.4285-.48882-10.28434-3.39982-14.54278-7.46712C1080.83138,720.64093,1078.99866,716.98213,1077.66705,717.46555Z" transform="translate(-841 -475)" style="fill:#00dcbe"/><path d="M944.472,566.77462c-5.71856-7.109-8.59015-10.67234-9.19186-11.10371-9.03809-6.47993-17.56959-1.97021-20.28052-6.52586-3.75927-6.31738,10.21923-19.06933,7.45468-22.1231-1.58717-1.75325-8.47965-.0742-12.01145,4.57485-5.74488,7.56221,1.93206,17.01993-3.17012,23.62167-5.25722,6.80231-19.09858,4.12816-19.12391,5.19474-.03,1.26426,11.63711,2.10743,26.01855,6.736,10.499,3.379,15.7485,5.0685,17.35532,8.81128,3.28266,7.64654-6.453,16.6517-1.44922,27.1312a17.70232,17.70232,0,0,0,1.353,2.32281c5.66765,8.52306,16.11213,12.05576,17.49988,10.28361,1.311-1.67406-6.27312-7.04485-4.57786-11.08866,2.02818-4.838,15.2498-2.83232,15.70567-5.4856.43577-2.53642-11.58528-4.80754-11.96328-10.19-.22847-3.25367,4.05384-3.99771,4.64111-8.29014C953.13259,577.71552,951.49044,575.49956,944.472,566.77462Z" transform="translate(-841 -475)" style="fill:#00dcbe"/><path d="M950.66352,648.9249c-2.01883-5.07089,3.25612-11.78325,5.585-14.74673,7.39664-9.41224,16.10075-10.01455,15.72977-12.868-.5683-4.371-21.63545-7.90695-25.83539-1.00713-1.8447,3.03051.89429,5.88966-.94991,8.30219-4.40813,5.76669-24.34064-4.96575-27.684-.09035-1.89157,2.75832,3.68579,7.36443,1.80946,11.07963-3.19053,6.31745-23.21662.72121-24.00485,3.61289-.46027,1.68844,5.80764,5.65134,12.89511,7.42457,9.1998,2.30167,11.7521-1.09466,16.60739.977,11.10725,4.7394,7.74432,26.7783,15.59423,28.658,5.32256,1.27452,8.08925-8.56524,15.71772-9.1768,14.20155-1.13848,28.61479,31.03905,29.43022,30.54877.45322-.27248-4.26645-10.05264-6.38733-22.16828-.40784-2.32987-.84947-5.488.9469-7.37939,2.77876-2.92552,8.62983-.41646,9.234-1.81548.66923-1.54977-5.584-6.773-14.72866-11.12179C960.46356,652.42035,952.74005,654.14084,950.66352,648.9249Z" transform="translate(-841 -475)" style="fill:#00dcbe"/><path d="M876.25621,541.63613c1.37286-3.19786-1.07163-4.86086.03012-9.228.74991-2.97235,2.981-5.09005,7.41251-9.2039a45.18307,45.18307,0,0,1,11.0977-7.34626c9.205-4.7718,21.58142-10.30071,22.18717-9.15569.56471,1.06749-10.77887,4.76519-13.89019,14.71962-.97557,3.12133-.66445,6.38732-.04216,12.9192,1.21442,12.74768,3.81887,16.51591,1.78537,18.462-4.0891,3.91344-18.4473-7.66178-22.13515-3.76347-1.63074,1.72382-.538,5.7996.8768,11.07657a40.36284,40.36284,0,0,0,2.75416,7.39147c5.66427,11.33654,14.55672,17.40055,13.78177,18.50117-.72017,1.02286-8.48817-4.089-25.79322-13.92632-10.23258-5.81684-13.05413-7.17748-14.73852-11.12182-4.02618-9.42789,3.6245-21.487,4.69312-21.20931.75517.19622-1.62956,6.59178.88584,8.30818C867.6486,549.75664,874.1889,546.45161,876.25621,541.63613Z" transform="translate(-841 -475)" style="fill:#00dcbe"/><path d="M931.73263,508.596c1.5094-3.51588-.85654-5.49978.03011-9.228,1.50182-6.31486,10.79108-9.14309,20.35061-11.93011,10.96869-3.19787,24.153-5.09339,24.92463-2.68709.55266,1.7234-6.09318,3.05979-7.4095,8.28111-1.77978,7.05979,8.60372,11.62257,7.32217,18.48009-1.44562,7.73564-16.43345,11.42821-18.49515,11.93617-10.36855,2.55447-15.51179-.55979-19.4007,3.62792-3.60275,3.87966-.70418,8.1846-4.65586,12.82856-4.24553,4.98928-12.89514,6.25357-14.7673,3.71863-2.91455-3.94643,11.292-16.16019,8.37146-20.27449-3.02678-4.264-21.27145,4.649-22.16609,2.69609-.58537-1.27776,6.295-7.12391,14.80094-11.02542C926.9506,512.124,930.33628,511.84857,931.73263,508.596Z" transform="translate(-841 -475)" style="fill:#00dcbe"/><path d="M896.12235,605.37484c-2.05929-2.526,1.87525-6.98986.03012-9.228-2.37165-2.87687-10.12391,2.97973-14.52729-.04741-4.08984-2.81151-.16038-9.75964-3.8745-16.62322-5.246-9.69446-21.20926-11.008-22.12694-9.30031-.57167,1.06378,10.74753,4.83544,13.79381,14.81.95519,3.12763.62276,6.39153-.04216,12.9192-1.2976,12.73949-3.92659,16.49064-1.90583,18.45,4.06346,3.94005,18.49691-7.54121,22.15924-3.61892,1.61945,1.73443.50009,5.803-.94908,11.07062-.30478,1.10791-.53756,1.58838-2.80235,7.37333-2.71832,6.94352-2.98991,7.70379-2.54813,8.297,1.477,1.98314,8.89245-.63436,14.52947-3.64382,10.84767-5.79141,10.75908-10.71215,17.82575-13.784,11.83138-5.14307,24.98259,3.04135,25.83538,1.00713.9992-2.38341-19.33082-8.189-21.15814-20.37087-1.44641-9.64241,9.80017-15.94439,6.53489-23.04892-1.59911-3.47938-5.672-4.79545-13.81791-7.42757-2.94837-.95271-14.98065-4.8407-16.60437-1.89981-1.37641,2.49291,6.70889,6.30234,10.09659,16.64353,1.92785,5.88492,2.73975,15.12243-1.90583,18.45C902.05353,607.27339,897.689,607.29666,896.12235,605.37484Z" transform="translate(-841 -475)" style="fill:#00dcbe"/><path d="M985.58235,694.25654c1.26092,6.93825,11.04872,11.818,12.88607,10.193,1.66625-1.47374-4.7902-6.8966-3.64-15.69964.6802-5.20582,3.316-6.20136,2.80454-11.06457-.4762-4.52785-3.091-6.802-1.74762-9.40694,1.07646-2.08734,3.24614-1.57886,4.55818-3.50322,2.07572-3.04452-.37283-8.69109-2.72925-12.00544-6.00438-8.4453-17.64208-10.51286-21.18826-11.14286-7.38073-1.3112-11.38239-.151-12.91016-2.81057-2.206-3.84,3.81055-10.30868,2.80454-11.06456-.91033-.68393-6.59959,4.03975-9.76131,10.97258-1.11128,2.43677-3.25481,7.1371-1.37855,9.29288,1.64693,1.89233,4.64556-.18141,10.14779.95593,2.23686.46239,4.75349,1.97085,9.69548,4.9691,5.96707,3.62014,8.95061,5.43021,11.48675,8.01936,2.26153,2.30878,5.19686,5.37775,6.42648,10.17188,1.10437,4.30573.74378,9.65566-.95593,10.14779-2.31744.67092-6.37749-7.90491-7.35831-7.40649-.67921.34519,1.65424,4.2619,1.81247,10.15682C986.673,690.16276,985.0099,691.10662,985.58235,694.25654Z" transform="translate(-841 -475)" style="fill:#00dcbe"/><path d="M886.06752,648.71409c1.22178.44737,12.09557,4.42924,12.91017,2.81056.65314-1.29782-6.05147-4.42551-5.5097-8.32327.37606-2.7057,3.99051-3.95972,3.70626-4.60195-.61771-1.39558-16.98008,6.11542-19.38783,2.70515-1.3413-1.89978,3.45407-4.88833,2.80453-11.06456-.47619-4.52785-3.091-6.802-1.74761-9.40694,1.295-2.5112,4.69212-3.05659,4.55818-3.50323-.26-.867-12.3207,4.53-17.5332-.05722-2.35613-2.07353-2.6113-5.56948-2.74431-7.39143-.33928-4.64794,1.78526-6.0126,2.80755-11.98737.92014-5.3775.32435-10.84837-.88666-11.07661-1.03217-.19453-1.63748,3.58429-5.56089,7.36433-2.576,2.4819-5.87266,4.28049-6.47165,3.67012-1.15654-1.17857,9.54064-9.50854,7.43661-16.5863-.96549-3.24786-3.774-3.36427-5.50969-8.32327-1.27556-3.64438-1.23552-7.80083.0271-8.3052.77738-.31051,1.50254.96928,4.605,2.78345,1.62146.94816,4.30145,2.28142,4.608,1.86066.33211-.45581-2.585-2.33371-5.51572-6.47767-2.54468-3.59816-2.764-5.60231-3.67313-5.54884-1.44115.08474-1.8944,5.17955-3.73938,14.75275a163.73057,163.73057,0,0,1-3.74541,16.59835c-2.60256,8.80191-3.89573,9.05374-3.73336,12.90716.18307,4.34361,1.97511,7.5562,5.49162,13.86006,3.02469,5.42226,4.537,8.13333,6.42949,9.24909,7.36841,4.34419,16.43645-3.80657,20.30159.06625,2.71332,2.71871,1.10861,9.55006-.95592,10.14779-2.31744.67091-6.37749-7.90491-7.35831-7.40649-1.04541.53121-.77222,5.78847,1.81247,10.15682,2.17792,3.68077,5.34764,5.61739,8.28111,7.4095A41.74773,41.74773,0,0,0,886.06752,648.71409Z" transform="translate(-841 -475)" style="fill:#00dcbe"/><circle cx="102.43649" cy="32.28668" r="2.18752" style="fill:#ffd4ff"/><circle cx="295.56303" cy="62.91193" r="2.18752" style="fill:#ffd4ff"/><circle cx="151.18688" cy="111.03731" r="2.18752" style="fill:#ffd4ff"/><circle cx="284.93794" cy="176.66283" r="2.18752" style="fill:#ffd4ff"/><circle cx="69.93623" cy="135.4125" r="2.18752" style="fill:#ffd4ff"/><circle cx="239.31258" cy="50.41183" r="2.18752" style="fill:#ffd4ff"/><circle cx="186.81216" cy="194.78798" r="2.18752" style="fill:#ffd4ff"/><circle cx="181.81212" cy="44.16178" r="2.18752" style="fill:#ffd4ff"/><circle cx="314.31318" cy="104.16226" r="2.18752" style="fill:#ffd4ff"/><circle cx="59.93615" cy="74.16202" r="2.18752" style="fill:#ffd4ff"/></g></svg>