<svg id="59fa42f4-d10b-4196-8bb4-044f3992011a" data-name="Layer 1" xmlns="http://www.w3.org/2000/svg" xmlns:xlink="http://www.w3.org/1999/xlink" viewBox="0 0 1440 691"><defs><linearGradient id="6f93d2a5-2e19-4b1d-8999-c2dca3dd7adc" x1="1440" y1="1224.31329" x2="1440" y2="576" gradientUnits="userSpaceOnUse"><stop offset="0.18764" stop-color="#fec15f"/><stop offset="0.54221" stop-color="#fd927b"/><stop offset="0.99872" stop-color="#fda3d2"/></linearGradient></defs><title>herobg</title><path d="M2160,577.30133q-.57624-.65048-1.17517-1.30133H1545.76105c-38.13819.55591-70.42438.14392-70.4245.14392q-4.95483-.06325-9.71967-.14392H1058.25751q-14.47092.09484-30.10266.14392-.21425.00065-191.499,0-58.328-.00009-116.65588,0v648.16937l1439.5-76.7962c.153-.35327.33008-.74432.5-1.12384V939.23975c-.19214-6.63245-.36133-13.50824-.5-20.67188-.72485-37.45093-.42493-70.43268.5-99.571Z" transform="translate(-720 -576)" style="fill:url(#6f93d2a5-2e19-4b1d-8999-c2dca3dd7adc)"/><polygon points="251.946 249.12 251.185 248.657 250.409 249.087 250.573 248.145 249.963 247.461 250.825 247.342 251.224 246.49 251.593 247.359 252.449 247.515 251.816 248.172 251.946 249.12" style="fill:#fff"/><polygon points="317.723 275.665 316.963 275.202 316.186 275.632 316.35 274.689 315.74 274.006 316.602 273.887 317.001 273.035 317.37 273.904 318.226 274.06 317.593 274.717 317.723 275.665" style="fill:#fff"/><polygon points="449.823 247.914 449.063 247.451 448.287 247.88 448.45 246.938 447.841 246.255 448.702 246.136 449.101 245.284 449.47 246.152 450.327 246.309 449.693 246.965 449.823 247.914" style="fill:#fff"/><polygon points="679.036 246.13 678.61 245.87 678.175 246.111 678.266 245.582 677.924 245.199 678.408 245.132 678.632 244.655 678.838 245.142 679.319 245.23 678.964 245.597 679.036 246.13" style="fill:#fff"/><polygon points="550.997 223.631 550.324 223.221 549.637 223.601 549.782 222.767 549.242 222.162 550.004 222.057 550.358 221.303 550.685 222.072 551.443 222.21 550.882 222.791 550.997 223.631" style="fill:#fff"/><polygon points="786.189 282.616 785.596 282.255 784.99 282.59 785.118 281.855 784.642 281.321 785.314 281.228 785.626 280.563 785.914 281.241 786.582 281.364 786.088 281.876 786.189 282.616" style="fill:#fff"/><polygon points="589.182 256.648 588.255 256.084 587.308 256.608 587.508 255.459 586.764 254.625 587.815 254.48 588.302 253.441 588.752 254.5 589.796 254.691 589.024 255.491 589.182 256.648" style="fill:#fff"/><polygon points="711.184 281.384 710.257 280.819 709.31 281.343 709.509 280.194 708.766 279.361 709.817 279.215 710.304 278.176 710.753 279.235 711.798 279.426 711.025 280.227 711.184 281.384" style="fill:#fff"/><polygon points="757.856 258.157 756.928 257.592 755.982 258.116 756.181 256.967 755.438 256.134 756.488 255.988 756.975 254.949 757.425 256.009 758.47 256.2 757.697 257 757.856 258.157" style="fill:#fff"/><polygon points="421.571 279.705 420.393 278.988 419.191 279.653 419.444 278.194 418.5 277.136 419.834 276.951 420.453 275.632 421.024 276.977 422.351 277.219 421.37 278.236 421.571 279.705" style="fill:#fff"/><polygon points="522.011 258.59 520.833 257.872 519.631 258.538 519.884 257.079 518.94 256.02 520.274 255.836 520.893 254.516 521.464 255.862 522.791 256.104 521.81 257.12 522.011 258.59" style="fill:#fff"/><polygon points="552.342 272.248 551.58 271.856 550.805 272.214 550.966 271.422 550.355 270.846 551.216 270.749 551.613 270.034 551.984 270.765 552.841 270.9 552.209 271.449 552.342 272.248" style="fill:#fff"/><polygon points="662.248 254.193 661.486 253.801 660.711 254.16 660.872 253.368 660.261 252.791 661.122 252.694 661.519 251.979 661.89 252.711 662.747 252.845 662.115 253.395 662.248 254.193" style="fill:#fff"/><polygon points="785.454 229.296 784.78 228.949 784.094 229.266 784.236 228.565 783.695 228.055 784.457 227.969 784.809 227.336 785.138 227.983 785.896 228.103 785.337 228.589 785.454 229.296" style="fill:#fff"/><polygon points="805.99 279.516 805.061 279.037 804.116 279.475 804.312 278.509 803.566 277.806 804.616 277.687 805.101 276.815 805.553 277.708 806.598 277.872 805.828 278.542 805.99 279.516" style="fill:#fff"/><polygon points="656.195 276.004 655.015 275.397 653.815 275.952 654.064 274.726 653.117 273.833 654.451 273.682 655.065 272.574 655.641 273.708 656.968 273.916 655.99 274.768 656.195 276.004" style="fill:#fff"/><polygon points="138.272 273.289 137.768 272.831 137.248 273.266 137.363 272.323 136.961 271.644 137.535 271.519 137.806 270.664 138.047 271.53 138.617 271.68 138.191 272.341 138.272 273.289" style="fill:#fff"/><polygon points="205.818 248.275 205.372 247.87 204.912 248.256 205.014 247.421 204.658 246.82 205.166 246.709 205.406 245.952 205.619 246.718 206.124 246.852 205.747 247.436 205.818 248.275" style="fill:#fff"/><polygon points="231.061 281.012 230.447 280.454 229.813 280.984 229.953 279.834 229.462 279.006 230.163 278.853 230.494 277.811 230.787 278.867 231.482 279.05 230.962 279.856 231.061 281.012" style="fill:#fff"/><polygon points="279.752 278.027 279.247 277.64 278.729 278.004 278.841 277.211 278.437 276.639 279.011 276.536 279.28 275.818 279.522 276.547 280.093 276.675 279.669 277.229 279.752 278.027" style="fill:#fff"/><polygon points="708.859 192.826 709.62 193.289 710.396 192.86 710.232 193.802 710.842 194.485 709.981 194.604 709.581 195.456 709.212 194.588 708.356 194.431 708.989 193.775 708.859 192.826" style="fill:#fff"/><polygon points="643.082 166.281 643.843 166.744 644.619 166.315 644.455 167.257 645.065 167.94 644.203 168.059 643.804 168.911 643.435 168.043 642.579 167.886 643.212 167.23 643.082 166.281" style="fill:#fff"/><polygon points="510.982 194.033 511.742 194.496 512.519 194.066 512.355 195.009 512.965 195.692 512.103 195.811 511.704 196.663 511.335 195.794 510.478 195.638 511.112 194.982 510.982 194.033" style="fill:#fff"/><polygon points="281.769 195.817 282.195 196.077 282.631 195.836 282.539 196.364 282.881 196.747 282.398 196.814 282.174 197.292 281.967 196.805 281.486 196.717 281.842 196.349 281.769 195.817" style="fill:#fff"/><polygon points="409.808 218.315 410.481 218.725 411.168 218.345 411.024 219.179 411.563 219.784 410.801 219.89 410.447 220.644 410.121 219.875 409.362 219.736 409.923 219.155 409.808 218.315" style="fill:#fff"/><polygon points="174.616 159.331 175.21 159.692 175.815 159.357 175.688 160.092 176.163 160.625 175.491 160.718 175.179 161.383 174.892 160.705 174.223 160.583 174.718 160.071 174.616 159.331" style="fill:#fff"/><polygon points="371.623 185.298 372.55 185.863 373.497 185.339 373.297 186.488 374.041 187.321 372.99 187.467 372.503 188.505 372.053 187.446 371.009 187.255 371.781 186.455 371.623 185.298" style="fill:#fff"/><polygon points="249.621 160.563 250.549 161.128 251.495 160.604 251.296 161.753 252.039 162.586 250.989 162.731 250.502 163.77 250.052 162.711 249.007 162.52 249.78 161.72 249.621 160.563" style="fill:#fff"/><polygon points="202.95 183.79 203.877 184.355 204.823 183.831 204.624 184.98 205.367 185.813 204.317 185.958 203.83 186.997 203.38 185.938 202.335 185.747 203.108 184.947 202.95 183.79" style="fill:#fff"/><polygon points="539.234 162.241 540.412 162.959 541.614 162.293 541.361 163.753 542.305 164.811 540.971 164.995 540.352 166.315 539.781 164.97 538.454 164.727 539.435 163.711 539.234 162.241" style="fill:#fff"/><polygon points="128.741 184.865 129.918 185.582 131.121 184.917 130.867 186.376 131.812 187.434 130.477 187.619 129.859 188.939 129.287 187.593 127.961 187.351 128.942 186.334 128.741 184.865" style="fill:#fff"/><polygon points="438.794 183.357 439.972 184.074 441.174 183.408 440.921 184.868 441.865 185.926 440.531 186.111 439.912 187.43 439.341 186.085 438.014 185.842 438.995 184.826 438.794 183.357" style="fill:#fff"/><polygon points="408.463 169.699 409.225 170.091 410 169.732 409.839 170.524 410.451 171.101 409.59 171.198 409.193 171.913 408.821 171.181 407.964 171.047 408.596 170.497 408.463 169.699" style="fill:#fff"/><polygon points="298.557 187.754 299.319 188.146 300.094 187.787 299.933 188.579 300.545 189.155 299.684 189.253 299.287 189.968 298.915 189.236 298.059 189.101 298.69 188.552 298.557 187.754" style="fill:#fff"/><polygon points="175.351 212.651 176.025 212.998 176.711 212.68 176.569 213.381 177.11 213.892 176.348 213.978 175.996 214.611 175.668 213.963 174.909 213.844 175.468 213.357 175.351 212.651" style="fill:#fff"/><polygon points="154.815 162.431 155.744 162.909 156.689 162.472 156.493 163.437 157.239 164.14 156.189 164.259 155.705 165.131 155.252 164.239 154.207 164.075 154.977 163.404 154.815 162.431" style="fill:#fff"/><polygon points="304.61 165.943 305.79 166.55 306.99 165.994 306.741 167.221 307.688 168.114 306.355 168.265 305.74 169.372 305.165 168.239 303.837 168.03 304.816 167.179 304.61 165.943" style="fill:#fff"/><polygon points="822.533 168.658 823.037 169.115 823.557 168.68 823.442 169.624 823.844 170.302 823.27 170.428 822.999 171.282 822.758 170.417 822.188 170.266 822.614 169.606 822.533 168.658" style="fill:#fff"/><polygon points="754.987 193.671 755.433 194.076 755.893 193.691 755.792 194.526 756.148 195.127 755.639 195.238 755.399 195.995 755.186 195.228 754.682 195.095 755.059 194.51 754.987 193.671" style="fill:#fff"/><polygon points="729.744 160.935 730.358 161.493 730.992 160.962 730.853 162.113 731.343 162.94 730.642 163.093 730.311 164.135 730.018 163.08 729.323 162.896 729.843 162.091 729.744 160.935" style="fill:#fff"/><polygon points="754.38 145.07 754.885 145.457 755.403 145.093 755.291 145.886 755.695 146.458 755.121 146.561 754.853 147.279 754.61 146.55 754.039 146.422 754.463 145.868 754.38 145.07" style="fill:#fff"/><polygon points="681.053 163.92 681.558 164.306 682.077 163.942 681.965 164.735 682.369 165.307 681.794 165.411 681.526 166.129 681.283 165.4 680.713 165.271 681.137 164.717 681.053 163.92" style="fill:#fff"/><polyline points="686.627 143.331 687.253 144.217 686.363 144.377 685.947 145.489 685.571 144.36 684.688 144.161 685.344 143.303" style="fill:#fff"/><circle cx="920.5" cy="589.5" r="101.5" style="fill:#ffd4ff;opacity:0.25"/><circle cx="919" cy="590" r="66" style="fill:#ffd4ff;opacity:0.5"/><circle cx="919.5" cy="590.5" r="29.5" style="fill:#fff"/></svg>