<svg id="ad95a125-cb53-4c53-b5d4-114f1d32f409" data-name="Layer 1" xmlns="http://www.w3.org/2000/svg" xmlns:xlink="http://www.w3.org/1999/xlink" viewBox="0 0 695.88371 527.21542"><defs><linearGradient id="2375917b-18ce-4012-bc50-59fc2ec9762f" x1="685.27575" y1="609.95746" x2="778.07348" y2="609.95746" gradientUnits="userSpaceOnUse"><stop offset="0.18764" stop-color="#a644a3"/><stop offset="0.54113" stop-color="#cb65a2"/></linearGradient><linearGradient id="519cbe83-5589-4b0b-867b-aca20a680893" x1="127.01471" y1="335.32022" x2="163.315" y2="335.32022" gradientUnits="userSpaceOnUse"><stop offset="0" stop-color="#e9bed2"/><stop offset="0.5" stop-color="#df9dbb"/><stop offset="1" stop-color="#d98caf"/></linearGradient><linearGradient id="a4bb966f-2482-4a79-8ba8-d2abec8c2a06" x1="138.20503" y1="484.18323" x2="310.69962" y2="484.18323" xlink:href="#519cbe83-5589-4b0b-867b-aca20a680893"/><linearGradient id="850b0a7a-34a6-40ca-8d77-afd319373f92" x1="859.13502" y1="701.35663" x2="1010.6706" y2="701.35663" gradientUnits="userSpaceOnUse"><stop offset="0" stop-color="#e17da3"/><stop offset="1" stop-color="#d46da3"/></linearGradient><linearGradient id="9982f8c0-0917-4ee5-817c-53120b7c2ad4" x1="703.0165" y1="699.30786" x2="760.60567" y2="699.30786" xlink:href="#519cbe83-5589-4b0b-867b-aca20a680893"/><linearGradient id="d0fa8e62-481f-4fe2-87f9-04fd7ecdfc1f" x1="731.81109" y1="683.49479" x2="749.87477" y2="683.49479" xlink:href="#519cbe83-5589-4b0b-867b-aca20a680893"/><linearGradient id="2c79f528-2793-44d0-ba25-e6086c060cb0" x1="759.51394" y1="708.44534" x2="759.51394" y2="708.44534" xlink:href="#519cbe83-5589-4b0b-867b-aca20a680893"/><linearGradient id="ed1c3c96-52f1-423e-87ea-713bc06b0e28" x1="302.78452" y1="445.87754" x2="302.79389" y2="445.87753" xlink:href="#2375917b-18ce-4012-bc50-59fc2ec9762f"/><linearGradient id="bb0adc62-c945-4b0c-a139-715972fcae99" x1="824.75335" y1="711.31366" x2="832.32858" y2="711.31026" xlink:href="#2375917b-18ce-4012-bc50-59fc2ec9762f"/><linearGradient id="d9a31a9f-3c9c-4a87-9d0a-fb703fbe64f5" x1="1296.26345" y1="714.17942" x2="1296.27281" y2="714.17942" gradientTransform="matrix(-1, 0, 0, 1, 1623.82831, -268.30264)" xlink:href="#2375917b-18ce-4012-bc50-59fc2ec9762f"/><linearGradient id="24a9baf3-45a4-4628-975f-01b08f28f597" x1="1296.27153" y1="711.31291" x2="1303.84676" y2="711.3095" gradientTransform="matrix(-1, 0, 0, 1, 2145.78906, 0)" xlink:href="#2375917b-18ce-4012-bc50-59fc2ec9762f"/><linearGradient id="2e058265-7842-48f4-8fca-7465ae4738b2" x1="1457.18081" y1="714.17942" x2="1457.19018" y2="714.17942" gradientTransform="matrix(-1, 0, 0, 1, 1773.82831, -268.30264)" xlink:href="#2375917b-18ce-4012-bc50-59fc2ec9762f"/><linearGradient id="736a5535-6948-449c-9596-efa46dab2bc8" x1="1457.18889" y1="711.31291" x2="1464.76412" y2="711.3095" gradientTransform="matrix(-1, 0, 0, 1, 2295.78906, 0)" xlink:href="#2375917b-18ce-4012-bc50-59fc2ec9762f"/><linearGradient id="78385da5-a69f-4522-9ca7-0796c3bbc864" x1="314.79364" y1="445.87754" x2="314.80301" y2="445.87753" xlink:href="#2375917b-18ce-4012-bc50-59fc2ec9762f"/><linearGradient id="adc9437c-ef79-4cb1-9abf-3bfe446cb88e" x1="836.76247" y1="711.31366" x2="844.3377" y2="711.31026" xlink:href="#2375917b-18ce-4012-bc50-59fc2ec9762f"/><linearGradient id="803492ed-d640-4fa3-b369-c13e3f31ac09" x1="318.88766" y1="445.87754" x2="318.89702" y2="445.87753" xlink:href="#2375917b-18ce-4012-bc50-59fc2ec9762f"/><linearGradient id="d244fcc5-3f6e-45db-93e5-d1eecebb741a" x1="840.85649" y1="711.31366" x2="848.43172" y2="711.31026" xlink:href="#2375917b-18ce-4012-bc50-59fc2ec9762f"/><linearGradient id="5ce05105-4950-4dc1-9ac3-9d4872a934ff" x1="823.69278" y1="714.90563" x2="823.70215" y2="714.90562" gradientTransform="translate(-516.75777 -270.98076) rotate(0.13564)" xlink:href="#2375917b-18ce-4012-bc50-59fc2ec9762f"/><linearGradient id="df4ddc0f-3636-4723-aaa2-873eae38cea2" x1="823.70086" y1="712.0407" x2="831.27608" y2="712.03729" gradientTransform="translate(5.20299 -2.67812) rotate(0.13564)" xlink:href="#2375917b-18ce-4012-bc50-59fc2ec9762f"/><linearGradient id="451acaa8-a089-457b-af4c-123d0296ef7a" x1="325.16515" y1="445.87754" x2="325.17452" y2="445.87753" xlink:href="#2375917b-18ce-4012-bc50-59fc2ec9762f"/><linearGradient id="f70d6d40-4f22-4d40-82b1-7f86fb0fad9e" x1="847.13398" y1="711.31366" x2="854.70921" y2="711.31026" xlink:href="#2375917b-18ce-4012-bc50-59fc2ec9762f"/><linearGradient id="045ada71-f571-433f-a26a-c1c4ff2fde17" x1="328.44036" y1="445.87754" x2="328.44973" y2="445.87753" xlink:href="#2375917b-18ce-4012-bc50-59fc2ec9762f"/><linearGradient id="50262698-f0a3-4448-abbe-efa56996f0b6" x1="850.4092" y1="711.31366" x2="857.98443" y2="711.31026" xlink:href="#2375917b-18ce-4012-bc50-59fc2ec9762f"/><linearGradient id="968c9773-af1b-46a8-8ce7-f0951e73d150" x1="1270.60761" y1="714.17942" x2="1270.61698" y2="714.17942" gradientTransform="matrix(-1, 0, 0, 1, 1623.82831, -268.30264)" xlink:href="#2375917b-18ce-4012-bc50-59fc2ec9762f"/><linearGradient id="e69f3e4a-7acd-4513-aa6d-dabdb7d04b0e" x1="1270.61569" y1="711.31291" x2="1278.19092" y2="711.3095" gradientTransform="matrix(-1, 0, 0, 1, 2145.78906, 0)" xlink:href="#2375917b-18ce-4012-bc50-59fc2ec9762f"/><linearGradient id="b0a80d44-ed0b-41dc-8b25-c537b78a7afd" x1="1431.52497" y1="714.17942" x2="1431.53434" y2="714.17942" gradientTransform="matrix(-1, 0, 0, 1, 1773.82831, -268.30264)" xlink:href="#2375917b-18ce-4012-bc50-59fc2ec9762f"/><linearGradient id="146c1555-d628-4b2c-b627-16f0f81f560f" x1="1431.53305" y1="711.31291" x2="1439.10828" y2="711.3095" gradientTransform="matrix(-1, 0, 0, 1, 2295.78906, 0)" xlink:href="#2375917b-18ce-4012-bc50-59fc2ec9762f"/><linearGradient id="b1f0a6b4-7f19-4652-8c44-a5eca7e0914d" x1="340.44948" y1="445.87754" x2="340.45885" y2="445.87753" xlink:href="#2375917b-18ce-4012-bc50-59fc2ec9762f"/><linearGradient id="9ef8204d-4586-449a-b87e-d9cdebef39d1" x1="862.41831" y1="711.31366" x2="869.99354" y2="711.31026" xlink:href="#2375917b-18ce-4012-bc50-59fc2ec9762f"/><linearGradient id="47b2e614-7dd2-436a-acce-36141712efe1" x1="344.5435" y1="445.87754" x2="344.55286" y2="445.87753" xlink:href="#2375917b-18ce-4012-bc50-59fc2ec9762f"/><linearGradient id="6b2e8323-0a07-4f92-9367-48bbb2523067" x1="866.51233" y1="711.31366" x2="874.08756" y2="711.31026" xlink:href="#2375917b-18ce-4012-bc50-59fc2ec9762f"/><linearGradient id="6b557838-894b-45b8-a821-8c46a1a6af8f" x1="849.3485" y1="714.84489" x2="849.35787" y2="714.84489" gradientTransform="translate(-516.75777 -270.98076) rotate(0.13564)" xlink:href="#2375917b-18ce-4012-bc50-59fc2ec9762f"/><linearGradient id="7d2f6c0b-d44c-425d-b5c4-926d5bb242ae" x1="849.35658" y1="711.97996" x2="856.9318" y2="711.97656" gradientTransform="translate(5.20299 -2.67812) rotate(0.13564)" xlink:href="#2375917b-18ce-4012-bc50-59fc2ec9762f"/><linearGradient id="e8f98705-ac43-42dd-9b68-a5c3bee80766" x1="350.82099" y1="445.87754" x2="350.83036" y2="445.87753" xlink:href="#2375917b-18ce-4012-bc50-59fc2ec9762f"/><linearGradient id="760b948a-c035-4784-a18a-4212c51f6e83" x1="872.78982" y1="711.31366" x2="880.36505" y2="711.31026" xlink:href="#2375917b-18ce-4012-bc50-59fc2ec9762f"/><linearGradient id="69dcdf32-aaad-489c-8d3c-f2fd0ee732b8" x1="1324.10276" y1="714.17942" x2="1324.11213" y2="714.17942" gradientTransform="matrix(-1, 0, 0, 1, 1623.82831, -268.30264)" xlink:href="#2375917b-18ce-4012-bc50-59fc2ec9762f"/><linearGradient id="f3ebb951-4209-4a14-9d58-127a4c478884" x1="1324.11084" y1="711.31291" x2="1331.68607" y2="711.3095" gradientTransform="matrix(-1, 0, 0, 1, 2145.78906, 0)" xlink:href="#2375917b-18ce-4012-bc50-59fc2ec9762f"/><linearGradient id="7fb30f21-2256-411b-be2a-4ccc726021cc" x1="1485.02013" y1="714.17942" x2="1485.02949" y2="714.17942" gradientTransform="matrix(-1, 0, 0, 1, 1773.82831, -268.30264)" xlink:href="#2375917b-18ce-4012-bc50-59fc2ec9762f"/><linearGradient id="e1cd96de-1268-478b-962d-97f8edcc0e6c" x1="1485.0282" y1="711.31291" x2="1492.60343" y2="711.3095" gradientTransform="matrix(-1, 0, 0, 1, 2295.78906, 0)" xlink:href="#2375917b-18ce-4012-bc50-59fc2ec9762f"/><linearGradient id="58258844-435b-4f6c-8330-32fd6bf6d3ca" x1="286.95432" y1="445.87754" x2="286.96369" y2="445.87753" xlink:href="#2375917b-18ce-4012-bc50-59fc2ec9762f"/><linearGradient id="b15679fc-8f4a-4efb-a302-9a726b6a6ef0" x1="808.92315" y1="711.31366" x2="816.49838" y2="711.31026" xlink:href="#2375917b-18ce-4012-bc50-59fc2ec9762f"/><linearGradient id="04cf04ac-fd9a-45c7-b85e-70214f5f6bbd" x1="291.04834" y1="445.87754" x2="291.0577" y2="445.87753" xlink:href="#2375917b-18ce-4012-bc50-59fc2ec9762f"/><linearGradient id="2f280409-ef74-4ba1-9fb6-dfec895cb4bb" x1="813.01717" y1="711.31366" x2="820.5924" y2="711.31026" xlink:href="#2375917b-18ce-4012-bc50-59fc2ec9762f"/><linearGradient id="1ee31c1c-f5f0-4bf4-abd8-bbaf03c69af6" x1="297.32583" y1="445.87754" x2="297.3352" y2="445.87753" xlink:href="#2375917b-18ce-4012-bc50-59fc2ec9762f"/><linearGradient id="d83598d0-fb86-4805-8b6c-7adf3388e178" x1="819.29466" y1="711.31366" x2="826.86989" y2="711.31026" xlink:href="#2375917b-18ce-4012-bc50-59fc2ec9762f"/><linearGradient id="9314e807-fb65-4706-aafa-3c270df93523" x1="1250.68339" y1="714.17942" x2="1250.69276" y2="714.17942" gradientTransform="matrix(-1, 0, 0, 1, 1623.82831, -268.30264)" xlink:href="#2375917b-18ce-4012-bc50-59fc2ec9762f"/><linearGradient id="3810a722-98d4-4ad1-8ce5-bddafc6d6b9a" x1="1250.69147" y1="711.31291" x2="1258.2667" y2="711.3095" gradientTransform="matrix(-1, 0, 0, 1, 2145.78906, 0)" xlink:href="#2375917b-18ce-4012-bc50-59fc2ec9762f"/><linearGradient id="9004728f-f2d8-4123-bf8e-5368355d5f76" x1="1411.60076" y1="714.17942" x2="1411.61012" y2="714.17942" gradientTransform="matrix(-1, 0, 0, 1, 1773.82831, -268.30264)" xlink:href="#2375917b-18ce-4012-bc50-59fc2ec9762f"/><linearGradient id="3f0e4a10-397a-4d4a-94f6-3aac7ac1a7e1" x1="1411.60883" y1="711.31291" x2="1419.18406" y2="711.3095" gradientTransform="matrix(-1, 0, 0, 1, 2295.78906, 0)" xlink:href="#2375917b-18ce-4012-bc50-59fc2ec9762f"/><linearGradient id="737df22f-2213-4e97-9b26-bb05fce52fe8" x1="360.3737" y1="445.87754" x2="360.38306" y2="445.87753" xlink:href="#2375917b-18ce-4012-bc50-59fc2ec9762f"/><linearGradient id="6e95d5f6-a464-403b-9185-a3617f8e915a" x1="882.34253" y1="711.31366" x2="889.91776" y2="711.31026" xlink:href="#2375917b-18ce-4012-bc50-59fc2ec9762f"/><linearGradient id="54ebed8c-572a-47c5-a5d4-76591c7fcb3f" x1="364.46772" y1="445.87754" x2="364.47708" y2="445.87753" xlink:href="#2375917b-18ce-4012-bc50-59fc2ec9762f"/><linearGradient id="59c52058-bbf6-4992-99df-02dcacfe5173" x1="886.43655" y1="711.31366" x2="894.01178" y2="711.31026" xlink:href="#2375917b-18ce-4012-bc50-59fc2ec9762f"/><linearGradient id="71a3ad8f-44da-44dd-9076-4ef619e84331" x1="370.74521" y1="445.87754" x2="370.75458" y2="445.87753" xlink:href="#2375917b-18ce-4012-bc50-59fc2ec9762f"/><linearGradient id="14679031-0764-4022-a6d6-8e3755b6cce5" x1="892.71404" y1="711.31366" x2="900.28927" y2="711.31026" xlink:href="#2375917b-18ce-4012-bc50-59fc2ec9762f"/><linearGradient id="24af2a64-3553-4730-a92f-fb13f0335f4f" x1="1350.03154" y1="714.17942" x2="1350.0409" y2="714.17942" gradientTransform="matrix(-1, 0, 0, 1, 1623.82831, -268.30264)" xlink:href="#2375917b-18ce-4012-bc50-59fc2ec9762f"/><linearGradient id="01de8439-1f9e-4422-a00d-38feeb252a94" x1="1350.03961" y1="711.31291" x2="1357.61484" y2="711.3095" gradientTransform="matrix(-1, 0, 0, 1, 2145.78906, 0)" xlink:href="#2375917b-18ce-4012-bc50-59fc2ec9762f"/><linearGradient id="cb04ece0-89d6-4adf-903d-4f4137d0db8d" x1="1510.9489" y1="714.17942" x2="1510.95827" y2="714.17942" gradientTransform="matrix(-1, 0, 0, 1, 1773.82831, -268.30264)" xlink:href="#2375917b-18ce-4012-bc50-59fc2ec9762f"/><linearGradient id="d517c47a-c595-4305-b89d-aa2b9928fad6" x1="1510.95698" y1="711.31291" x2="1518.53221" y2="711.3095" gradientTransform="matrix(-1, 0, 0, 1, 2295.78906, 0)" xlink:href="#2375917b-18ce-4012-bc50-59fc2ec9762f"/><linearGradient id="af66fb74-b3fa-449c-bc85-9da9716fd5f3" x1="261.02555" y1="445.87754" x2="261.03491" y2="445.87753" xlink:href="#2375917b-18ce-4012-bc50-59fc2ec9762f"/><linearGradient id="06ef9b7e-4805-4cec-ae13-568ef1b53b1c" x1="782.99438" y1="711.31366" x2="790.56961" y2="711.31026" xlink:href="#2375917b-18ce-4012-bc50-59fc2ec9762f"/><linearGradient id="8c0128fa-6a68-4ee5-a37c-790eaea0e249" x1="265.11956" y1="445.87754" x2="265.12893" y2="445.87753" xlink:href="#2375917b-18ce-4012-bc50-59fc2ec9762f"/><linearGradient id="e411cd45-9fff-4691-ac68-e7c468b6a356" x1="787.08839" y1="711.31366" x2="794.66362" y2="711.31026" xlink:href="#2375917b-18ce-4012-bc50-59fc2ec9762f"/><linearGradient id="ed0d6079-2cd6-41dc-a9ff-c53b5ae79207" x1="271.39706" y1="445.87754" x2="271.40642" y2="445.87753" xlink:href="#2375917b-18ce-4012-bc50-59fc2ec9762f"/><linearGradient id="6f5ed460-c9ca-4059-817b-38775ae88ece" x1="793.36589" y1="711.31366" x2="800.94112" y2="711.31026" xlink:href="#2375917b-18ce-4012-bc50-59fc2ec9762f"/><linearGradient id="aaa8f356-dedc-4fa8-bf75-d272b0d28abf" x1="1374.86857" y1="714.17942" x2="1374.87794" y2="714.17942" gradientTransform="matrix(-1, 0, 0, 1, 1623.82831, -268.30264)" xlink:href="#2375917b-18ce-4012-bc50-59fc2ec9762f"/><linearGradient id="f06fb934-bee2-4c2a-92a7-a5808afe82ad" x1="1374.87665" y1="711.31291" x2="1382.45188" y2="711.3095" gradientTransform="matrix(-1, 0, 0, 1, 2145.78906, 0)" xlink:href="#2375917b-18ce-4012-bc50-59fc2ec9762f"/><linearGradient id="7c25c23c-5a93-4521-9dd0-5d22ea5566cb" x1="1535.78594" y1="714.17942" x2="1535.7953" y2="714.17942" gradientTransform="matrix(-1, 0, 0, 1, 1773.82831, -268.30264)" xlink:href="#2375917b-18ce-4012-bc50-59fc2ec9762f"/><linearGradient id="9bfdad1e-0b5b-4436-859c-5938c894a10b" x1="1535.79401" y1="711.31291" x2="1543.36924" y2="711.3095" gradientTransform="matrix(-1, 0, 0, 1, 2295.78906, 0)" xlink:href="#2375917b-18ce-4012-bc50-59fc2ec9762f"/><linearGradient id="bb2a1f6e-dd85-4fea-9099-63dca9758a09" x1="236.18851" y1="445.87754" x2="236.19787" y2="445.87753" xlink:href="#2375917b-18ce-4012-bc50-59fc2ec9762f"/><linearGradient id="d32bf4d2-e44b-4dba-ab4d-20a84a306297" x1="758.15734" y1="711.31366" x2="765.73257" y2="711.31026" xlink:href="#2375917b-18ce-4012-bc50-59fc2ec9762f"/><linearGradient id="687c912c-bc8e-4d71-a845-bb259d936bf9" x1="240.28252" y1="445.87754" x2="240.29189" y2="445.87753" xlink:href="#2375917b-18ce-4012-bc50-59fc2ec9762f"/><linearGradient id="e78ccac8-e738-4312-bae4-293b979419c3" x1="762.25136" y1="711.31366" x2="769.82659" y2="711.31026" xlink:href="#2375917b-18ce-4012-bc50-59fc2ec9762f"/><linearGradient id="d9d556bd-aba8-4a99-ab38-6e45fc92e039" x1="246.56002" y1="445.87754" x2="246.56938" y2="445.87753" xlink:href="#2375917b-18ce-4012-bc50-59fc2ec9762f"/><linearGradient id="41e0e754-b22a-4ab7-ba9c-19d70bab4353" x1="768.52885" y1="711.31366" x2="776.10408" y2="711.31026" xlink:href="#2375917b-18ce-4012-bc50-59fc2ec9762f"/><linearGradient id="cd542370-9720-4699-ac89-8e7f934d0b46" x1="230.25461" y1="445.62778" x2="230.26397" y2="445.62777" xlink:href="#2375917b-18ce-4012-bc50-59fc2ec9762f"/><linearGradient id="d43aef47-7e0c-433c-871b-321363bf6286" x1="752.22344" y1="711.0639" x2="759.79867" y2="711.06049" xlink:href="#2375917b-18ce-4012-bc50-59fc2ec9762f"/><linearGradient id="a47159f3-564f-49df-b8d4-14dfef180a7f" x1="234.34863" y1="445.62778" x2="234.35799" y2="445.62777" xlink:href="#2375917b-18ce-4012-bc50-59fc2ec9762f"/><linearGradient id="29388fb9-c08a-40ec-8d06-19335f9bce5d" x1="756.31746" y1="711.0639" x2="763.89269" y2="711.06049" xlink:href="#2375917b-18ce-4012-bc50-59fc2ec9762f"/><linearGradient id="afdeca11-912d-488b-993b-d9f6b50d4326" x1="315.13724" y1="445.62778" x2="315.1466" y2="445.62777" xlink:href="#2375917b-18ce-4012-bc50-59fc2ec9762f"/><linearGradient id="330040aa-9cc1-4e53-970f-f41ee389d9dc" x1="837.10607" y1="711.0639" x2="844.6813" y2="711.06049" xlink:href="#2375917b-18ce-4012-bc50-59fc2ec9762f"/><linearGradient id="d1cb3433-5f02-4207-adb8-aa1284804e7c" x1="319.23125" y1="445.62778" x2="319.24062" y2="445.62777" xlink:href="#2375917b-18ce-4012-bc50-59fc2ec9762f"/><linearGradient id="174e4a67-e2d6-403a-b58f-850941b092ee" x1="841.20008" y1="711.0639" x2="848.77531" y2="711.06049" xlink:href="#2375917b-18ce-4012-bc50-59fc2ec9762f"/><linearGradient id="0a1fc0f3-68e3-4be0-af7c-54d709024985" x1="824.03578" y1="714.65505" x2="824.04515" y2="714.65505" gradientTransform="translate(-516.75777 -270.98076) rotate(0.13564)" xlink:href="#2375917b-18ce-4012-bc50-59fc2ec9762f"/><linearGradient id="57898aa5-5ae7-4b14-b29c-a888de61ace6" x1="824.04386" y1="711.79012" x2="831.61908" y2="711.78672" gradientTransform="translate(5.20299 -2.67812) rotate(0.13564)" xlink:href="#2375917b-18ce-4012-bc50-59fc2ec9762f"/><linearGradient id="5c3aed75-0ed9-4ed3-828c-1b8bc3b236ca" x1="325.50875" y1="445.62778" x2="325.51811" y2="445.62777" xlink:href="#2375917b-18ce-4012-bc50-59fc2ec9762f"/><linearGradient id="a0c171ee-21b6-42da-890d-71ec99e7455b" x1="847.47758" y1="711.0639" x2="855.05281" y2="711.06049" xlink:href="#2375917b-18ce-4012-bc50-59fc2ec9762f"/><linearGradient id="3a57e5d8-d6ed-4d56-9180-be6c991d365f" x1="340.79308" y1="445.62778" x2="340.80244" y2="445.62777" xlink:href="#2375917b-18ce-4012-bc50-59fc2ec9762f"/><linearGradient id="e0492ffc-b5f2-41c2-b17f-fca32c72bce4" x1="862.76191" y1="711.0639" x2="870.33714" y2="711.06049" xlink:href="#2375917b-18ce-4012-bc50-59fc2ec9762f"/><linearGradient id="01d10927-d11b-481e-8bd7-d9fa3398d071" x1="344.88709" y1="445.62778" x2="344.89646" y2="445.62777" xlink:href="#2375917b-18ce-4012-bc50-59fc2ec9762f"/><linearGradient id="d249966b-bd5a-45e9-ad57-a33096368980" x1="866.85593" y1="711.0639" x2="874.43116" y2="711.06049" xlink:href="#2375917b-18ce-4012-bc50-59fc2ec9762f"/><linearGradient id="0f67a618-ede3-4a38-ad36-2453a80b35d5" x1="849.69151" y1="714.59432" x2="849.70087" y2="714.59431" gradientTransform="translate(-516.75777 -270.98076) rotate(0.13564)" xlink:href="#2375917b-18ce-4012-bc50-59fc2ec9762f"/><linearGradient id="39da07a5-42a4-4730-9bd8-1127a6016c89" x1="849.69958" y1="711.72939" x2="857.2748" y2="711.72598" gradientTransform="translate(5.20299 -2.67812) rotate(0.13564)" xlink:href="#2375917b-18ce-4012-bc50-59fc2ec9762f"/><linearGradient id="ac1c4c77-6236-4d45-899d-9e837c6effbf" x1="351.16459" y1="445.62778" x2="351.17395" y2="445.62777" xlink:href="#2375917b-18ce-4012-bc50-59fc2ec9762f"/><linearGradient id="25baafbb-3ba5-4f29-95fe-3523531b486c" x1="873.13342" y1="711.0639" x2="880.70865" y2="711.06049" xlink:href="#2375917b-18ce-4012-bc50-59fc2ec9762f"/><linearGradient id="87097ab5-0ba3-413e-8800-1dfaeb99e440" x1="1484.67653" y1="713.92966" x2="1484.6859" y2="713.92966" gradientTransform="matrix(-1, 0, 0, 1, 1773.82831, -268.30264)" xlink:href="#2375917b-18ce-4012-bc50-59fc2ec9762f"/><linearGradient id="45a7318b-989f-4485-b108-e3fc7cb039f1" x1="1484.68461" y1="711.06314" x2="1492.25984" y2="711.05974" gradientTransform="matrix(-1, 0, 0, 1, 2295.78906, 0)" xlink:href="#2375917b-18ce-4012-bc50-59fc2ec9762f"/><linearGradient id="40d87b61-46db-4333-a119-581907cea481" x1="287.29792" y1="445.62778" x2="287.30728" y2="445.62777" xlink:href="#2375917b-18ce-4012-bc50-59fc2ec9762f"/><linearGradient id="62eab6bb-7417-44aa-8820-cb567c6b9ed0" x1="809.26675" y1="711.0639" x2="816.84198" y2="711.06049" xlink:href="#2375917b-18ce-4012-bc50-59fc2ec9762f"/><linearGradient id="8c476431-922a-43a2-b588-577ec48fe84b" x1="291.39193" y1="445.62778" x2="291.4013" y2="445.62777" xlink:href="#2375917b-18ce-4012-bc50-59fc2ec9762f"/><linearGradient id="c6de1017-c5b0-4c91-ac17-f97da3d4c865" x1="813.36077" y1="711.0639" x2="820.936" y2="711.06049" xlink:href="#2375917b-18ce-4012-bc50-59fc2ec9762f"/><linearGradient id="1ec37bc8-a5d9-433e-ab7a-c6be39f58e31" x1="297.66943" y1="445.62778" x2="297.67879" y2="445.62777" xlink:href="#2375917b-18ce-4012-bc50-59fc2ec9762f"/><linearGradient id="84fddb1b-8deb-4e9d-bd67-eae50418468b" x1="819.63826" y1="711.0639" x2="827.21349" y2="711.06049" xlink:href="#2375917b-18ce-4012-bc50-59fc2ec9762f"/><linearGradient id="922b4d58-dffd-47fa-aeca-674867e10ac4" x1="1411.25716" y1="713.92966" x2="1411.26653" y2="713.92966" gradientTransform="matrix(-1, 0, 0, 1, 1773.82831, -268.30264)" xlink:href="#2375917b-18ce-4012-bc50-59fc2ec9762f"/><linearGradient id="e6800067-82a8-4616-993b-a3b204c3a230" x1="1411.26524" y1="711.06314" x2="1418.84047" y2="711.05974" gradientTransform="matrix(-1, 0, 0, 1, 2295.78906, 0)" xlink:href="#2375917b-18ce-4012-bc50-59fc2ec9762f"/><linearGradient id="6bbf698c-45a4-41ff-8495-c14f55f5967e" x1="360.71729" y1="445.62778" x2="360.72666" y2="445.62777" xlink:href="#2375917b-18ce-4012-bc50-59fc2ec9762f"/><linearGradient id="73b262d1-4845-40dd-a04c-7c70e603c54d" x1="882.68613" y1="711.0639" x2="890.26136" y2="711.06049" xlink:href="#2375917b-18ce-4012-bc50-59fc2ec9762f"/><linearGradient id="fd19893b-ee37-4656-b2b0-b5cd03254462" x1="364.81131" y1="445.62778" x2="364.82068" y2="445.62777" xlink:href="#2375917b-18ce-4012-bc50-59fc2ec9762f"/><linearGradient id="b324c605-eb4a-43be-bf88-3b83d4dfa568" x1="886.78014" y1="711.0639" x2="894.35537" y2="711.06049" xlink:href="#2375917b-18ce-4012-bc50-59fc2ec9762f"/><linearGradient id="0cce0354-bc7e-4d2c-99c8-441161f4090c" x1="371.08881" y1="445.62778" x2="371.09817" y2="445.62777" xlink:href="#2375917b-18ce-4012-bc50-59fc2ec9762f"/><linearGradient id="e0c2d2ed-638d-4af0-88c3-bfca7351af97" x1="893.05764" y1="711.0639" x2="900.63287" y2="711.06049" xlink:href="#2375917b-18ce-4012-bc50-59fc2ec9762f"/><linearGradient id="37fd8420-c766-47c8-bd78-66b91bc095b3" x1="261.36914" y1="445.62778" x2="261.37851" y2="445.62777" xlink:href="#2375917b-18ce-4012-bc50-59fc2ec9762f"/><linearGradient id="ad0161a0-e538-4d54-9b65-6363cf90035e" x1="783.33797" y1="711.0639" x2="790.9132" y2="711.06049" xlink:href="#2375917b-18ce-4012-bc50-59fc2ec9762f"/><linearGradient id="681fa74d-1d46-43e9-85e4-4e867931eaec" x1="265.46316" y1="445.62778" x2="265.47252" y2="445.62777" xlink:href="#2375917b-18ce-4012-bc50-59fc2ec9762f"/><linearGradient id="1d503ac4-71e1-4c2c-8297-27818a448cb2" x1="787.43199" y1="711.0639" x2="795.00722" y2="711.06049" xlink:href="#2375917b-18ce-4012-bc50-59fc2ec9762f"/><linearGradient id="3bba293f-a0f4-4469-b646-3f5afb8ef2a4" x1="271.74065" y1="445.62778" x2="271.75002" y2="445.62777" xlink:href="#2375917b-18ce-4012-bc50-59fc2ec9762f"/><linearGradient id="26dce078-bf91-4d8f-b380-15290fbcb999" x1="793.70948" y1="711.0639" x2="801.28471" y2="711.06049" xlink:href="#2375917b-18ce-4012-bc50-59fc2ec9762f"/><linearGradient id="109a8ee5-68ad-425d-a076-df784ec429a8" x1="240.62612" y1="445.62778" x2="240.63549" y2="445.62777" xlink:href="#2375917b-18ce-4012-bc50-59fc2ec9762f"/><linearGradient id="ea532ff7-2c02-4759-b36f-c868bb915bcd" x1="762.59495" y1="711.0639" x2="770.17018" y2="711.06049" xlink:href="#2375917b-18ce-4012-bc50-59fc2ec9762f"/><linearGradient id="fa63fcb1-e3a4-4f7f-aabf-7afc7adc2a52" x1="1521.79562" y1="713.92966" x2="1521.80498" y2="713.92966" gradientTransform="matrix(-1, 0, 0, 1, 1773.82831, -268.30264)" xlink:href="#2375917b-18ce-4012-bc50-59fc2ec9762f"/><linearGradient id="1ed5e0ab-f503-4c7b-a693-c574cd6b7a7f" x1="1521.8037" y1="711.06314" x2="1529.37893" y2="711.05974" gradientTransform="matrix(-1, 0, 0, 1, 2295.78906, 0)" xlink:href="#2375917b-18ce-4012-bc50-59fc2ec9762f"/><linearGradient id="31dc53ab-7b9e-44df-b7b9-7bd6e0833cf4" x1="250.17883" y1="445.62778" x2="250.18819" y2="445.62777" xlink:href="#2375917b-18ce-4012-bc50-59fc2ec9762f"/><linearGradient id="9021cac2-9c39-4eb9-a2f7-29cfa0d353bd" x1="772.14766" y1="711.0639" x2="779.72289" y2="711.06049" xlink:href="#2375917b-18ce-4012-bc50-59fc2ec9762f"/><linearGradient id="10f449fb-4a61-4aed-b0a2-9d59f703e12e" x1="254.27284" y1="445.62778" x2="254.28221" y2="445.62777" xlink:href="#2375917b-18ce-4012-bc50-59fc2ec9762f"/><linearGradient id="8d0ff595-8075-49e0-ba3c-1fa40f88f264" x1="776.24168" y1="711.0639" x2="783.81691" y2="711.06049" xlink:href="#2375917b-18ce-4012-bc50-59fc2ec9762f"/><linearGradient id="a71b2d53-6b16-46fd-b104-97deecd69856" x1="260.55034" y1="445.62778" x2="260.5597" y2="445.62777" xlink:href="#2375917b-18ce-4012-bc50-59fc2ec9762f"/><linearGradient id="6578ec73-e44b-416a-b7f5-c622e8853b8b" x1="782.51917" y1="711.0639" x2="790.0944" y2="711.06049" xlink:href="#2375917b-18ce-4012-bc50-59fc2ec9762f"/><linearGradient id="7476f407-81d0-43ae-ae24-adb1eecd6105" x1="892" y1="673" x2="892" y2="673" gradientUnits="userSpaceOnUse"><stop offset="0" stop-color="#b76eff"/><stop offset="0.07808" stop-color="#a579f8"/><stop offset="0.23561" stop-color="#7496e7"/><stop offset="0.45619" stop-color="#28c4cc"/><stop offset="0.5639" stop-color="#00dcbe"/><stop offset="0.73862" stop-color="#00dcbe"/><stop offset="1" stop-color="#00dcbe"/></linearGradient><linearGradient id="e630b4f0-72f5-48ae-bd9b-0e4f7fc2c0b7" x1="249.97958" y1="2230.55511" x2="303.30176" y2="2261.34069" gradientTransform="matrix(0.78921, 0.61412, -0.47011, 0.60415, 1989.57678, -967.33405)" gradientUnits="userSpaceOnUse"><stop offset="0" stop-color="#d26ca3"/><stop offset="1" stop-color="#4f1974"/></linearGradient><linearGradient id="cd9ca1fe-c19e-49d5-b3c4-545d535c50f9" x1="3914.52562" y1="-261.5544" x2="3966.93104" y2="-231.29812" gradientTransform="matrix(-0.70448, -0.70972, 0.49432, -0.49066, 4006.87637, 3248.27739)" xlink:href="#e630b4f0-72f5-48ae-bd9b-0e4f7fc2c0b7"/><linearGradient id="623c5ad7-eda4-4f28-a98a-11d6666dec62" x1="-841.74097" y1="1813.55076" x2="-787.41929" y2="1844.9134" gradientTransform="matrix(0.5119, 0.25931, -0.23287, 0.45972, 1991.14238, -97.98086)" xlink:href="#e630b4f0-72f5-48ae-bd9b-0e4f7fc2c0b7"/><linearGradient id="dc80454c-692c-4819-913a-1da315faf81b" x1="492.25134" y1="2545.66762" x2="546.08174" y2="2576.74662" gradientTransform="matrix(0.8205, -0.57164, -0.4376, -0.6281, 1848.29309, 2471.2805)" xlink:href="#e630b4f0-72f5-48ae-bd9b-0e4f7fc2c0b7"/><linearGradient id="576b767c-87bb-46ac-9411-b33e988bc69f" x1="-20.61242" y1="811.91243" x2="83.65613" y2="872.11191" gradientTransform="matrix(0.9993, 0.03748, -0.03748, 0.9993, 1122.26205, -180.59236)" xlink:href="#e630b4f0-72f5-48ae-bd9b-0e4f7fc2c0b7"/><linearGradient id="8e83cc6e-f4d6-4875-aeb6-720a25fe4360" x1="127.30772" y1="486.48133" x2="172.86127" y2="512.78168" gradientTransform="translate(953.35969 43.62927) rotate(-4)" xlink:href="#e630b4f0-72f5-48ae-bd9b-0e4f7fc2c0b7"/><linearGradient id="d732c07d-cf1a-41a8-b75c-9551ee9b400f" x1="3647.5722" y1="-827.7265" x2="3701.41396" y2="-796.64094" gradientTransform="matrix(-0.77691, 0.41705, 0.31694, 0.59451, 4222.06458, -501.22407)" xlink:href="#e630b4f0-72f5-48ae-bd9b-0e4f7fc2c0b7"/><linearGradient id="a324ab04-b904-4abc-a2e8-88ec69e7475e" x1="113.88072" y1="1226.58566" x2="124.88971" y2="1232.9417" gradientTransform="matrix(0.97294, 0.23107, -0.17688, 0.74479, 1238.21758, -365.95691)" xlink:href="#e630b4f0-72f5-48ae-bd9b-0e4f7fc2c0b7"/><linearGradient id="4246ee5c-5847-473d-b446-f17385ada394" x1="-807.29737" y1="321.5573" x2="-796.42276" y2="327.83575" gradientTransform="matrix(0.57335, 0.0234, -0.02101, 0.5149, 1600.54264, 424.29492)" xlink:href="#e630b4f0-72f5-48ae-bd9b-0e4f7fc2c0b7"/><linearGradient id="05e363b5-d4d5-40f9-b839-317ec68e57fa" x1="1212.00586" y1="3062.02382" x2="1222.67881" y2="3068.18584" gradientTransform="matrix(0.50915, -0.86068, -0.65885, -0.38976, 2537.1799, 2821.00527)" xlink:href="#e630b4f0-72f5-48ae-bd9b-0e4f7fc2c0b7"/><linearGradient id="5706d68f-91d4-442a-be9b-58e78acd012f" x1="557.86287" y1="-163.81088" x2="566.4848" y2="-158.833" gradientTransform="translate(715.19826 983.94808) rotate(-28.52795)" xlink:href="#e630b4f0-72f5-48ae-bd9b-0e4f7fc2c0b7"/><linearGradient id="74d15d16-ed92-44b0-87cf-a099ad379f48" x1="2907.54329" y1="-1460.68694" x2="2918.3657" y2="-1454.43861" gradientTransform="matrix(-0.53367, 0.70194, 0.53514, 0.40929, 3462.7427, -868.69769)" xlink:href="#e630b4f0-72f5-48ae-bd9b-0e4f7fc2c0b7"/></defs><title>house</title><rect x="758.92508" y="327.36244" width="3.77059" height="313.46526" transform="translate(-245.24545 976.60281) rotate(-90)" style="fill:#b76eff"/><rect x="395.58225" y="178.0111" width="78.87807" height="213.86802" style="fill:#8000ff"/><rect x="533.96004" y="178.0111" width="19.92422" height="344.783" style="fill:#8000ff"/><rect x="554.02072" y="176.50286" width="3.41168" height="346.44206" style="fill:#b76eff"/><rect x="394.76345" y="176.50286" width="159.39374" height="1.50824" style="fill:#b76eff"/><polygon points="533.96 522.794 533.96 260.964 474.46 260.964 474.46 370.161 474.46 522.794 533.96 522.794" style="fill:#ffbdff"/><polygon points="533.96 522.794 533.96 260.964 474.46 260.964 474.46 370.161 474.46 522.794 533.96 522.794" style="fill:#8000dd;opacity:0.15"/><polygon points="554.157 178.011 533.96 260.964 474.46 260.964 394.763 178.011 554.157 178.011" style="fill:#8000dd"/><rect x="743.71505" y="617.26878" width="346.29124" height="1.36467" transform="translate(1012.85103 -567.21219) rotate(90)" style="fill:#b76eff"/><polygon points="81.981 217.527 173.414 368.351 394.218 368.351 394.218 217.678 81.981 217.527" style="fill:#8000dd"/><polygon points="163.315 237.737 255.108 326.12 256.113 445.572 185.761 445.572 163.315 445.572 163.315 237.737" style="fill:url(#2375917b-18ce-4012-bc50-59fc2ec9762f)"/><polygon points="394.218 456.733 394.218 327.025 227.182 327.025 227.182 381.12 227.182 456.733 394.218 456.733" style="fill:#ffc4ff;opacity:0.9"/><polygon points="138.189 445.622 337.159 445.523 337.19 522.745 256.892 522.785 138.189 445.622" style="fill:url(#2375917b-18ce-4012-bc50-59fc2ec9762f)"/><rect x="127.01471" y="237.73728" width="36.30029" height="195.16588" style="fill:url(#519cbe83-5589-4b0b-867b-aca20a680893)"/><polygon points="127.015 432.903 163.315 432.903 181.602 445.572 138.205 445.572 127.015 432.903" style="fill:#9338a3"/><rect x="201.25289" y="283.28604" width="193.23762" height="1.50824" style="fill:#b76eff"/><rect x="201.25289" y="301.83736" width="193.23762" height="3.01647" style="fill:#b76eff"/><rect x="641.53898" y="632.20033" width="161.98466" height="1.36467" transform="translate(833.45322 -357.95129) rotate(90)" style="fill:#b76eff"/><rect x="664.8749" y="631.51801" width="161.98466" height="2.72934" transform="translate(-408.97594 1110.4475) rotate(-90.00002)" style="fill:#b76eff"/><polygon points="138.205 445.572 138.205 522.794 310.7 522.794 138.205 445.572" style="fill:url(#a4bb966f-2482-4a79-8ba8-d2abec8c2a06)"/><polygon points="163.315 237.737 163.315 271.689 127.015 254.713 127.015 237.737 163.315 237.737" style="fill:#9338a3"/><polygon points="474.46 335.32 520.313 335.169 520.313 522.945 474.46 522.794 474.46 335.32" style="fill:#ffd4ff"/><polygon points="520.313 335.169 533.96 317.373 533.96 522.794 520.313 522.794 520.313 335.169" style="fill:#e8b4e9"/><polygon points="488.71 522.794 488.653 343.314 377.296 343.314 377.296 445.674 337.174 445.674 337.174 522.794 488.71 522.794" style="fill:url(#850b0a7a-34a6-40ca-8d77-afd319373f92)"/><polygon points="488.71 359.849 533.96 398.086 533.96 522.794 488.653 522.794 488.71 359.849" style="opacity:0.1"/><polygon points="163.315 237.737 163.315 271.689 127.015 254.713 127.015 237.737 163.315 237.737" style="opacity:0.1"/><path d="M747.0132,680.33218a55.4692,55.4692,0,0,0-8.08492,8.54218c-2.47571,3.23756-4.04755,3.44931-4.43447-1.22864a24.96663,24.96663,0,0,0-3.04042-10.08083,14.92322,14.92322,0,0,0-4.11351,5.9299c-2.94864,7.82054,1.68585,15.47363,2.14618,16.2084a25.41687,25.41687,0,0,0-4.65006-13.24345,21.51148,21.51148,0,0,0-9.65781-7.51121c.83124,4.13226,1.832,8.49446,3.04042,13.04579,1.13472,4.27379,2.34155,8.29621,3.577,12.05746a43.2134,43.2134,0,0,0-5.5443-7.51121,39.92677,39.92677,0,0,0-13.23478-9.48784,106.64029,106.64029,0,0,0,7.15393,13.63877,101.14,101.14,0,0,0,16.6329,20.35933h6.97509A99.65983,99.65983,0,0,0,754.346,700.09851a104.34519,104.34519,0,0,0,6.25969-9.6855,60.92593,60.92593,0,0,0-11.26744,4.34859c-7.10151,3.58038-11.08571,8.45556-11.804,7.70887-.37267-.38741.17468-2.208,4.65006-8.89485Z" transform="translate(-521.96075 -268.30264)" style="fill:url(#9982f8c0-0917-4ee5-817c-53120b7c2ad4)"/><path d="M749.87477,667.08873a116.00746,116.00746,0,0,1-6.08084,13.83644,111.22415,111.22415,0,0,1-11.98284,18.38269l.71539.593Z" transform="translate(-521.96075 -268.30264)" style="fill:url(#d0fa8e62-481f-4fe2-87f9-04fd7ecdfc1f)"/><ellipse cx="227.64574" cy="398.4896" rx="0.08942" ry="0.09883" style="fill:#f2f2f2"/><ellipse cx="227.64574" cy="398.00642" rx="0.14904" ry="0.14276" style="fill:#f2f2f2"/><ellipse cx="227.64574" cy="398.29193" rx="0.14904" ry="0.14276" style="fill:#f2f2f2"/><ellipse cx="227.34766" cy="397.72091" rx="0.14904" ry="0.14276" style="fill:#f2f2f2"/><ellipse cx="227.64574" cy="398.68726" rx="0.08942" ry="0.09883" style="fill:#f2f2f2"/><ellipse cx="227.94382" cy="397.72091" rx="0.14904" ry="0.14276" style="fill:#f2f2f2"/><ellipse cx="227.82459" cy="398.68726" rx="0.08942" ry="0.09883" style="fill:#f2f2f2"/><ellipse cx="227.34766" cy="398.00642" rx="0.14904" ry="0.14276" style="fill:#f2f2f2"/><ellipse cx="227.82459" cy="398.88492" rx="0.08942" ry="0.09883" style="fill:#f2f2f2"/><ellipse cx="227.64574" cy="398.88492" rx="0.08942" ry="0.09883" style="fill:#f2f2f2"/><ellipse cx="227.64574" cy="397.43539" rx="0.14904" ry="0.14276" style="fill:#f2f2f2"/><ellipse cx="227.82459" cy="398.4896" rx="0.08942" ry="0.09883" style="fill:#f2f2f2"/><ellipse cx="227.82459" cy="398.88492" rx="0.08942" ry="0.09883" style="fill:#f2f2f2"/><ellipse cx="227.94382" cy="398.57745" rx="0.14904" ry="0.14276" style="fill:#f2f2f2"/><ellipse cx="227.94382" cy="398.86296" rx="0.14904" ry="0.14276" style="fill:#f2f2f2"/><ellipse cx="227.64574" cy="398.29193" rx="0.14904" ry="0.14276" style="fill:#f2f2f2"/><ellipse cx="227.82459" cy="399.08259" rx="0.08942" ry="0.09883" style="fill:#f2f2f2"/><ellipse cx="228.24191" cy="398.29193" rx="0.14904" ry="0.14276" style="fill:#f2f2f2"/><ellipse cx="227.34766" cy="398.86296" rx="0.14904" ry="0.14276" style="fill:#f2f2f2"/><ellipse cx="227.64574" cy="398.57745" rx="0.14904" ry="0.14276" style="fill:#f2f2f2"/><ellipse cx="227.34766" cy="399.14847" rx="0.14904" ry="0.14276" style="fill:#f2f2f2"/><ellipse cx="227.82459" cy="399.28025" rx="0.08942" ry="0.09883" style="fill:#f2f2f2"/><ellipse cx="227.94382" cy="398.00642" rx="0.14904" ry="0.14276" style="fill:#f2f2f2"/><ellipse cx="227.34766" cy="398.57745" rx="0.14904" ry="0.14276" style="fill:#f2f2f2"/><ellipse cx="227.34766" cy="399.43399" rx="0.14904" ry="0.14276" style="fill:#f2f2f2"/><ellipse cx="228.24191" cy="399.43399" rx="0.14904" ry="0.14276" style="fill:#f2f2f2"/><ellipse cx="227.94382" cy="399.14847" rx="0.14904" ry="0.14276" style="fill:#f2f2f2"/><ellipse cx="228.53999" cy="399.14847" rx="0.14904" ry="0.14276" style="fill:#f2f2f2"/><ellipse cx="227.94383" cy="399.43399" rx="0.14904" ry="0.14276" style="fill:#f2f2f2"/><ellipse cx="228.24191" cy="398.86296" rx="0.14904" ry="0.14276" style="fill:#f2f2f2"/><ellipse cx="227.64574" cy="399.43399" rx="0.14904" ry="0.14276" style="fill:#f2f2f2"/><ellipse cx="228.53999" cy="399.43399" rx="0.14904" ry="0.14276" style="fill:#f2f2f2"/><ellipse cx="227.94382" cy="397.72091" rx="0.14904" ry="0.14276" style="fill:#f2f2f2"/><ellipse cx="227.94382" cy="398.00642" rx="0.14904" ry="0.14276" style="fill:#f2f2f2"/><ellipse cx="228.24191" cy="397.43539" rx="0.14904" ry="0.14276" style="fill:#f2f2f2"/><ellipse cx="227.94382" cy="397.14988" rx="0.14904" ry="0.14276" style="fill:#f2f2f2"/><ellipse cx="228.24191" cy="398.29193" rx="0.14904" ry="0.14276" style="fill:#f2f2f2"/><ellipse cx="228.24191" cy="398.57745" rx="0.14904" ry="0.14276" style="fill:#f2f2f2"/><ellipse cx="227.94382" cy="398.00642" rx="0.14904" ry="0.14276" style="fill:#f2f2f2"/><ellipse cx="228.53999" cy="398.00642" rx="0.14904" ry="0.14276" style="fill:#f2f2f2"/><ellipse cx="227.94383" cy="398.29193" rx="0.14904" ry="0.14276" style="fill:#f2f2f2"/><ellipse cx="228.24191" cy="397.72091" rx="0.14904" ry="0.14276" style="fill:#f2f2f2"/><ellipse cx="228.53999" cy="399.14847" rx="0.14904" ry="0.14276" style="fill:#f2f2f2"/><ellipse cx="228.24191" cy="398.86296" rx="0.14904" ry="0.14276" style="fill:#f2f2f2"/><ellipse cx="228.83807" cy="398.86296" rx="0.14904" ry="0.14276" style="fill:#f2f2f2"/><ellipse cx="228.24191" cy="399.14847" rx="0.14904" ry="0.14276" style="fill:#f2f2f2"/><ellipse cx="228.53999" cy="398.57745" rx="0.14904" ry="0.14276" style="fill:#f2f2f2"/><ellipse cx="227.94382" cy="399.14847" rx="0.14904" ry="0.14276" style="fill:#f2f2f2"/><ellipse cx="228.83807" cy="399.14847" rx="0.14904" ry="0.14276" style="fill:#f2f2f2"/><path d="M759.51394,708.44534Z" transform="translate(-521.96075 -268.30264)" style="fill:url(#2c79f528-2793-44d0-ba25-e6086c060cb0)"/><polygon points="302.785 445.881 302.794 445.874 302.785 445.874 302.785 445.881" style="fill:url(#ed1c3c96-52f1-423e-87ea-713bc06b0e28)"/><path d="M824.75464,714.17664h7.57523a3.41427,3.41427,0,0,1-1.22291-1.20659c-1.127-1.79884-1.07817-4.56116-1.26095-4.52471a8.24686,8.24686,0,0,0-.18008,3.61977,1.92272,1.92272,0,0,1,0,.90494c-.23745.64056-1.1136.39385-1.441.30165a2.7513,2.7513,0,0,1-1.441-.90494c-1.20955-1.37391-1.47442-3.69334-1.62118-3.61977-.17568.08808.44335,3.29264.36019,4.22306A1.69953,1.69953,0,0,1,824.75464,714.17664Z" transform="translate(-521.96075 -268.30264)" style="fill:url(#bb0adc62-c945-4b0c-a139-715972fcae99)"/><polygon points="327.564 445.881 327.555 445.874 327.564 445.874 327.564 445.881" style="fill:url(#d9a31a9f-3c9c-4a87-9d0a-fb703fbe64f5)"/><path d="M849.51538,714.17664h-7.57523a3.41427,3.41427,0,0,0,1.22291-1.20659c1.12705-1.79884,1.07818-4.56116,1.26095-4.52471a8.24686,8.24686,0,0,1,.18008,3.61977,1.92272,1.92272,0,0,0,0,.90494c.23746.64056,1.1136.39385,1.441.30165a2.75132,2.75132,0,0,0,1.441-.90494c1.20955-1.37391,1.47442-3.69334,1.62118-3.61977.17569.08808-.44335,3.29264-.36019,4.22306A1.69953,1.69953,0,0,0,849.51538,714.17664Z" transform="translate(-521.96075 -268.30264)" style="fill:url(#24a9baf3-45a4-4628-975f-01b08f28f597)"/><polygon points="316.647 445.881 316.637 445.874 316.647 445.874 316.647 445.881" style="fill:url(#2e058265-7842-48f4-8fca-7465ae4738b2)"/><path d="M838.598,714.17664h-7.57523a3.41419,3.41419,0,0,0,1.22291-1.20659c1.12705-1.79884,1.07818-4.56116,1.261-4.52471a8.2471,8.2471,0,0,1,.18007,3.61977,1.92285,1.92285,0,0,0,0,.90494c.23746.64056,1.1136.39385,1.441.30165a2.75129,2.75129,0,0,0,1.441-.90494c1.20955-1.37391,1.47442-3.69334,1.62118-3.61977.17569.08808-.44335,3.29264-.36019,4.22306A1.69953,1.69953,0,0,0,838.598,714.17664Z" transform="translate(-521.96075 -268.30264)" style="fill:url(#736a5535-6948-449c-9596-efa46dab2bc8)"/><polygon points="314.794 445.881 314.803 445.874 314.794 445.874 314.794 445.881" style="fill:url(#78385da5-a69f-4522-9ca7-0796c3bbc864)"/><path d="M836.76376,714.17664H844.339a3.41427,3.41427,0,0,1-1.22291-1.20659c-1.12705-1.79884-1.07818-4.56116-1.26095-4.52471a8.24686,8.24686,0,0,0-.18008,3.61977,1.92272,1.92272,0,0,1,0,.90494c-.23746.64056-1.1136.39385-1.441.30165a2.75132,2.75132,0,0,1-1.441-.90494c-1.20955-1.37391-1.47442-3.69334-1.62118-3.61977-.17568.08808.44335,3.29264.36019,4.22306A1.69953,1.69953,0,0,1,836.76376,714.17664Z" transform="translate(-521.96075 -268.30264)" style="fill:url(#adc9437c-ef79-4cb1-9abf-3bfe446cb88e)"/><polygon points="318.888 445.881 318.897 445.874 318.888 445.874 318.888 445.881" style="fill:url(#803492ed-d640-4fa3-b369-c13e3f31ac09)"/><path d="M840.85778,714.17664H848.433a3.41419,3.41419,0,0,1-1.22291-1.20659c-1.12706-1.79884-1.07818-4.56116-1.261-4.52471a8.247,8.247,0,0,0-.18008,3.61977,1.92272,1.92272,0,0,1,0,.90494c-.23745.64056-1.11359.39385-1.441.30165a2.75129,2.75129,0,0,1-1.441-.90494c-1.20955-1.37391-1.47442-3.69334-1.62119-3.61977-.17568.08808.44336,3.29264.3602,4.22306A1.69956,1.69956,0,0,1,840.85778,714.17664Z" transform="translate(-521.96075 -268.30264)" style="fill:url(#d244fcc5-3f6e-45db-93e5-d1eecebb741a)"/><polygon points="305.235 445.871 305.244 445.864 305.235 445.864 305.235 445.871" style="fill:url(#5ce05105-4950-4dc1-9ac3-9d4872a934ff)"/><path d="M827.20493,714.16674l7.57521.01982a3.41667,3.41667,0,0,1-1.22032-1.20979c-1.1232-1.80178-1.0684-4.564-1.25126-4.528a8.24612,8.24612,0,0,0-.18783,3.61929,1.92274,1.92274,0,0,1-.00194.90494c-.23882.63994-1.11444.39094-1.44164.29788a2.753,2.753,0,0,1-1.4391-.90871c-1.2066-1.37707-1.4665-3.69719-1.61342-3.624-.17587.08761.4363,3.29379.35114,4.224A1.6985,1.6985,0,0,1,827.20493,714.16674Z" transform="translate(-521.96075 -268.30264)" style="fill:url(#df4ddc0f-3636-4723-aaa2-873eae38cea2)"/><polygon points="325.165 445.881 325.175 445.874 325.165 445.874 325.165 445.881" style="fill:url(#451acaa8-a089-457b-af4c-123d0296ef7a)"/><path d="M847.13527,714.17664h7.57523a3.41427,3.41427,0,0,1-1.22291-1.20659c-1.127-1.79884-1.07818-4.56116-1.26095-4.52471a8.24686,8.24686,0,0,0-.18008,3.61977,1.92272,1.92272,0,0,1,0,.90494c-.23745.64056-1.1136.39385-1.441.30165a2.75132,2.75132,0,0,1-1.441-.90494c-1.20955-1.37391-1.47442-3.69334-1.62118-3.61977-.17568.08808.44335,3.29264.36019,4.22306A1.69953,1.69953,0,0,1,847.13527,714.17664Z" transform="translate(-521.96075 -268.30264)" style="fill:url(#f70d6d40-4f22-4d40-82b1-7f86fb0fad9e)"/><polygon points="328.44 445.881 328.45 445.874 328.44 445.874 328.44 445.881" style="fill:url(#045ada71-f571-433f-a26a-c1c4ff2fde17)"/><path d="M850.41048,714.17664h7.57523a3.41426,3.41426,0,0,1-1.2229-1.20659c-1.12706-1.79884-1.07818-4.56116-1.261-4.52471a8.247,8.247,0,0,0-.18008,3.61977,1.92272,1.92272,0,0,1,0,.90494c-.23745.64056-1.11359.39385-1.441.30165a2.75134,2.75134,0,0,1-1.441-.90494c-1.20954-1.37391-1.47442-3.69334-1.62118-3.61977-.17568.08808.44335,3.29264.36019,4.22306A1.69953,1.69953,0,0,1,850.41048,714.17664Z" transform="translate(-521.96075 -268.30264)" style="fill:url(#50262698-f0a3-4448-abbe-efa56996f0b6)"/><polygon points="353.22 445.881 353.21 445.874 353.22 445.874 353.22 445.881" style="fill:url(#968c9773-af1b-46a8-8ce7-f0951e73d150)"/><path d="M875.17122,714.17664H867.596a3.41419,3.41419,0,0,0,1.22291-1.20659c1.12705-1.79884,1.07818-4.56116,1.261-4.52471a8.247,8.247,0,0,1,.18008,3.61977,1.92272,1.92272,0,0,0,0,.90494c.23745.64056,1.11359.39385,1.441.30165a2.75129,2.75129,0,0,0,1.441-.90494c1.20955-1.37391,1.47442-3.69334,1.62119-3.61977.17568.08808-.44336,3.29264-.3602,4.22306A1.69956,1.69956,0,0,0,875.17122,714.17664Z" transform="translate(-521.96075 -268.30264)" style="fill:url(#e69f3e4a-7acd-4513-aa6d-dabdb7d04b0e)"/><polygon points="342.302 445.881 342.293 445.874 342.302 445.874 342.302 445.881" style="fill:url(#b0a80d44-ed0b-41dc-8b25-c537b78a7afd)"/><path d="M864.25384,714.17664h-7.57523a3.41419,3.41419,0,0,0,1.22291-1.20659c1.12706-1.79884,1.07818-4.56116,1.261-4.52471a8.247,8.247,0,0,1,.18008,3.61977,1.92272,1.92272,0,0,0,0,.90494c.23745.64056,1.11359.39385,1.441.30165a2.75129,2.75129,0,0,0,1.441-.90494c1.20955-1.37391,1.47442-3.69334,1.62119-3.61977.17568.08808-.44336,3.29264-.3602,4.22306A1.69956,1.69956,0,0,0,864.25384,714.17664Z" transform="translate(-521.96075 -268.30264)" style="fill:url(#146c1555-d628-4b2c-b627-16f0f81f560f)"/><polygon points="340.449 445.881 340.459 445.874 340.449 445.874 340.449 445.881" style="fill:url(#b1f0a6b4-7f19-4652-8c44-a5eca7e0914d)"/><path d="M862.4196,714.17664h7.57523a3.41427,3.41427,0,0,1-1.22291-1.20659c-1.12705-1.79884-1.07817-4.56116-1.26095-4.52471a8.24686,8.24686,0,0,0-.18008,3.61977,1.92272,1.92272,0,0,1,0,.90494c-.23745.64056-1.1136.39385-1.441.30165a2.7513,2.7513,0,0,1-1.441-.90494c-1.20955-1.37391-1.47442-3.69334-1.62118-3.61977-.17568.08808.44335,3.29264.36019,4.22306A1.69953,1.69953,0,0,1,862.4196,714.17664Z" transform="translate(-521.96075 -268.30264)" style="fill:url(#9ef8204d-4586-449a-b87e-d9cdebef39d1)"/><polygon points="344.544 445.881 344.553 445.874 344.544 445.874 344.544 445.881" style="fill:url(#47b2e614-7dd2-436a-acce-36141712efe1)"/><path d="M866.51362,714.17664h7.57523a3.41427,3.41427,0,0,1-1.22291-1.20659c-1.12705-1.79884-1.07818-4.56116-1.261-4.52471a8.2471,8.2471,0,0,0-.18007,3.61977,1.92285,1.92285,0,0,1,0,.90494c-.23746.64056-1.1136.39385-1.441.30165a2.75132,2.75132,0,0,1-1.441-.90494c-1.20955-1.37391-1.47442-3.69334-1.62118-3.61977-.17569.08808.44335,3.29264.36019,4.22306A1.69953,1.69953,0,0,1,866.51362,714.17664Z" transform="translate(-521.96075 -268.30264)" style="fill:url(#6b2e8323-0a07-4f92-9367-48bbb2523067)"/><polygon points="330.891 445.871 330.9 445.864 330.891 445.864 330.891 445.871" style="fill:url(#6b557838-894b-45b8-a821-8c46a1a6af8f)"/><path d="M852.86077,714.16674l7.57521.01982a3.41667,3.41667,0,0,1-1.22032-1.20979c-1.1232-1.80178-1.0684-4.564-1.25126-4.528a8.24612,8.24612,0,0,0-.18783,3.61929,1.92261,1.92261,0,0,1-.00194.90494c-.23882.63994-1.11443.39094-1.44164.29788a2.753,2.753,0,0,1-1.4391-.90871c-1.2066-1.37707-1.4665-3.69719-1.61342-3.624-.17587.08761.4363,3.29379.35115,4.224A1.69852,1.69852,0,0,1,852.86077,714.16674Z" transform="translate(-521.96075 -268.30264)" style="fill:url(#7d2f6c0b-d44c-425d-b5c4-926d5bb242ae)"/><polygon points="350.821 445.881 350.83 445.874 350.821 445.874 350.821 445.881" style="fill:url(#e8f98705-ac43-42dd-9b68-a5c3bee80766)"/><path d="M872.79111,714.17664h7.57523a3.41427,3.41427,0,0,1-1.22291-1.20659c-1.127-1.79884-1.07817-4.56116-1.26095-4.52471a8.24686,8.24686,0,0,0-.18008,3.61977,1.92272,1.92272,0,0,1,0,.90494c-.23745.64056-1.1136.39385-1.441.30165a2.7513,2.7513,0,0,1-1.441-.90494c-1.20955-1.37391-1.47442-3.69334-1.62118-3.61977-.17568.08808.44335,3.29264.36019,4.22306A1.69953,1.69953,0,0,1,872.79111,714.17664Z" transform="translate(-521.96075 -268.30264)" style="fill:url(#760b948a-c035-4784-a18a-4212c51f6e83)"/><polygon points="299.725 445.881 299.715 445.874 299.725 445.874 299.725 445.881" style="fill:url(#69dcdf32-aaad-489c-8d3c-f2fd0ee732b8)"/><path d="M821.67606,714.17664h-7.57523a3.41419,3.41419,0,0,0,1.22291-1.20659c1.12706-1.79884,1.07818-4.56116,1.261-4.52471a8.247,8.247,0,0,1,.18008,3.61977,1.92272,1.92272,0,0,0,0,.90494c.23745.64056,1.11359.39385,1.441.30165a2.75129,2.75129,0,0,0,1.441-.90494c1.20955-1.37391,1.47442-3.69334,1.62119-3.61977.17568.08808-.44336,3.29264-.3602,4.22306A1.69956,1.69956,0,0,0,821.67606,714.17664Z" transform="translate(-521.96075 -268.30264)" style="fill:url(#f3ebb951-4209-4a14-9d58-127a4c478884)"/><polygon points="288.807 445.881 288.798 445.874 288.807 445.874 288.807 445.881" style="fill:url(#7fb30f21-2256-411b-be2a-4ccc726021cc)"/><path d="M810.75869,714.17664h-7.57524a3.41419,3.41419,0,0,0,1.22291-1.20659c1.12706-1.79884,1.07818-4.56116,1.261-4.52471a8.247,8.247,0,0,1,.18008,3.61977,1.92272,1.92272,0,0,0,0,.90494c.23745.64056,1.11359.39385,1.441.30165a2.75129,2.75129,0,0,0,1.441-.90494c1.20955-1.37391,1.47442-3.69334,1.62119-3.61977.17568.08808-.44336,3.29264-.3602,4.22306A1.69954,1.69954,0,0,0,810.75869,714.17664Z" transform="translate(-521.96075 -268.30264)" style="fill:url(#e1cd96de-1268-478b-962d-97f8edcc0e6c)"/><polygon points="286.954 445.881 286.964 445.874 286.954 445.874 286.954 445.881" style="fill:url(#58258844-435b-4f6c-8330-32fd6bf6d3ca)"/><path d="M808.92444,714.17664h7.57523a3.41427,3.41427,0,0,1-1.22291-1.20659c-1.127-1.79884-1.07817-4.56116-1.26095-4.52471a8.24686,8.24686,0,0,0-.18008,3.61977,1.92272,1.92272,0,0,1,0,.90494c-.23745.64056-1.1136.39385-1.441.30165a2.7513,2.7513,0,0,1-1.441-.90494c-1.20955-1.37391-1.47442-3.69334-1.62118-3.61977-.17568.08808.44335,3.29264.36019,4.22306A1.69953,1.69953,0,0,1,808.92444,714.17664Z" transform="translate(-521.96075 -268.30264)" style="fill:url(#b15679fc-8f4a-4efb-a302-9a726b6a6ef0)"/><polygon points="291.048 445.881 291.058 445.874 291.048 445.874 291.048 445.881" style="fill:url(#04cf04ac-fd9a-45c7-b85e-70214f5f6bbd)"/><path d="M813.01846,714.17664h7.57523a3.41427,3.41427,0,0,1-1.22291-1.20659c-1.127-1.79884-1.07818-4.56116-1.26095-4.52471a8.24686,8.24686,0,0,0-.18008,3.61977,1.92272,1.92272,0,0,1,0,.90494c-.23746.64056-1.1136.39385-1.441.30165a2.75132,2.75132,0,0,1-1.441-.90494c-1.20955-1.37391-1.47442-3.69334-1.62118-3.61977-.17569.08808.44335,3.29264.36019,4.22306A1.69953,1.69953,0,0,1,813.01846,714.17664Z" transform="translate(-521.96075 -268.30264)" style="fill:url(#2f280409-ef74-4ba1-9fb6-dfec895cb4bb)"/><polygon points="297.326 445.881 297.335 445.874 297.326 445.874 297.326 445.881" style="fill:url(#1ee31c1c-f5f0-4bf4-abd8-bbaf03c69af6)"/><path d="M819.29595,714.17664h7.57523a3.41427,3.41427,0,0,1-1.22291-1.20659c-1.12705-1.79884-1.07817-4.56116-1.26095-4.52471a8.24686,8.24686,0,0,0-.18008,3.61977,1.92272,1.92272,0,0,1,0,.90494c-.23745.64056-1.1136.39385-1.441.30165a2.7513,2.7513,0,0,1-1.441-.90494c-1.20955-1.37391-1.47442-3.69334-1.62118-3.61977-.17568.08808.44335,3.29264.36019,4.22306A1.69953,1.69953,0,0,1,819.29595,714.17664Z" transform="translate(-521.96075 -268.30264)" style="fill:url(#d83598d0-fb86-4805-8b6c-7adf3388e178)"/><polygon points="373.144 445.881 373.135 445.874 373.144 445.874 373.144 445.881" style="fill:url(#9314e807-fb65-4706-aafa-3c270df93523)"/><path d="M895.09544,714.17664h-7.57523a3.41427,3.41427,0,0,0,1.22291-1.20659c1.12705-1.79884,1.07818-4.56116,1.26095-4.52471a8.24686,8.24686,0,0,1,.18008,3.61977,1.92272,1.92272,0,0,0,0,.90494c.23746.64056,1.1136.39385,1.441.30165a2.75132,2.75132,0,0,0,1.441-.90494c1.20955-1.37391,1.47442-3.69334,1.62118-3.61977.17568.08808-.44335,3.29264-.36019,4.22306A1.69953,1.69953,0,0,0,895.09544,714.17664Z" transform="translate(-521.96075 -268.30264)" style="fill:url(#3810a722-98d4-4ad1-8ce5-bddafc6d6b9a)"/><polygon points="362.227 445.881 362.217 445.874 362.227 445.874 362.227 445.881" style="fill:url(#9004728f-f2d8-4123-bf8e-5368355d5f76)"/><path d="M884.17806,714.17664h-7.57523a3.41427,3.41427,0,0,0,1.22291-1.20659c1.12705-1.79884,1.07818-4.56116,1.26095-4.52471a8.24686,8.24686,0,0,1,.18008,3.61977,1.92272,1.92272,0,0,0,0,.90494c.23746.64056,1.1136.39385,1.441.30165a2.75132,2.75132,0,0,0,1.441-.90494c1.20955-1.37391,1.47442-3.69334,1.62118-3.61977.17569.08808-.44335,3.29264-.36019,4.22306A1.69953,1.69953,0,0,0,884.17806,714.17664Z" transform="translate(-521.96075 -268.30264)" style="fill:url(#3f0e4a10-397a-4d4a-94f6-3aac7ac1a7e1)"/><polygon points="360.374 445.881 360.383 445.874 360.374 445.874 360.374 445.881" style="fill:url(#737df22f-2213-4e97-9b26-bb05fce52fe8)"/><path d="M882.34382,714.17664h7.57523a3.41427,3.41427,0,0,1-1.22291-1.20659c-1.12705-1.79884-1.07818-4.56116-1.26095-4.52471a8.24686,8.24686,0,0,0-.18008,3.61977,1.92272,1.92272,0,0,1,0,.90494c-.23746.64056-1.1136.39385-1.441.30165a2.75132,2.75132,0,0,1-1.441-.90494c-1.20955-1.37391-1.47442-3.69334-1.62118-3.61977-.17569.08808.44335,3.29264.36019,4.22306A1.69953,1.69953,0,0,1,882.34382,714.17664Z" transform="translate(-521.96075 -268.30264)" style="fill:url(#6e95d5f6-a464-403b-9185-a3617f8e915a)"/><polygon points="364.468 445.881 364.477 445.874 364.468 445.874 364.468 445.881" style="fill:url(#54ebed8c-572a-47c5-a5d4-76591c7fcb3f)"/><path d="M886.43783,714.17664h7.57524a3.41419,3.41419,0,0,1-1.22291-1.20659c-1.12706-1.79884-1.07818-4.56116-1.261-4.52471a8.247,8.247,0,0,0-.18008,3.61977,1.92272,1.92272,0,0,1,0,.90494c-.23745.64056-1.11359.39385-1.441.30165a2.75129,2.75129,0,0,1-1.441-.90494c-1.20955-1.37391-1.47442-3.69334-1.62119-3.61977-.17568.08808.44336,3.29264.3602,4.22306A1.69954,1.69954,0,0,1,886.43783,714.17664Z" transform="translate(-521.96075 -268.30264)" style="fill:url(#59c52058-bbf6-4992-99df-02dcacfe5173)"/><polygon points="370.745 445.881 370.755 445.874 370.745 445.874 370.745 445.881" style="fill:url(#71a3ad8f-44da-44dd-9076-4ef619e84331)"/><path d="M892.71533,714.17664h7.57523a3.41427,3.41427,0,0,1-1.22291-1.20659c-1.127-1.79884-1.07818-4.56116-1.26095-4.52471a8.24686,8.24686,0,0,0-.18008,3.61977,1.92272,1.92272,0,0,1,0,.90494c-.23746.64056-1.1136.39385-1.441.30165a2.75132,2.75132,0,0,1-1.441-.90494c-1.20955-1.37391-1.47442-3.69334-1.62118-3.61977-.17568.08808.44335,3.29264.36019,4.22306A1.69953,1.69953,0,0,1,892.71533,714.17664Z" transform="translate(-521.96075 -268.30264)" style="fill:url(#14679031-0764-4022-a6d6-8e3755b6cce5)"/><polygon points="273.796 445.881 273.787 445.874 273.796 445.874 273.796 445.881" style="fill:url(#24af2a64-3553-4730-a92f-fb13f0335f4f)"/><path d="M795.74729,714.17664h-7.57523a3.41426,3.41426,0,0,0,1.2229-1.20659c1.12706-1.79884,1.07818-4.56116,1.261-4.52471a8.247,8.247,0,0,1,.18008,3.61977,1.92272,1.92272,0,0,0,0,.90494c.23745.64056,1.11359.39385,1.441.30165a2.7513,2.7513,0,0,0,1.441-.90494c1.20955-1.37391,1.47442-3.69334,1.62118-3.61977.17568.08808-.44335,3.29264-.36019,4.22306A1.69953,1.69953,0,0,0,795.74729,714.17664Z" transform="translate(-521.96075 -268.30264)" style="fill:url(#01de8439-1f9e-4422-a00d-38feeb252a94)"/><polygon points="262.879 445.881 262.869 445.874 262.879 445.874 262.879 445.881" style="fill:url(#cb04ece0-89d6-4adf-903d-4f4137d0db8d)"/><path d="M784.82991,714.17664h-7.57523a3.41427,3.41427,0,0,0,1.22291-1.20659c1.12705-1.79884,1.07817-4.56116,1.26095-4.52471a8.24686,8.24686,0,0,1,.18008,3.61977,1.92272,1.92272,0,0,0,0,.90494c.23745.64056,1.11359.39385,1.441.30165a2.7513,2.7513,0,0,0,1.441-.90494c1.20955-1.37391,1.47442-3.69334,1.62118-3.61977.17568.08808-.44335,3.29264-.36019,4.22306A1.69953,1.69953,0,0,0,784.82991,714.17664Z" transform="translate(-521.96075 -268.30264)" style="fill:url(#d517c47a-c595-4305-b89d-aa2b9928fad6)"/><polygon points="261.026 445.881 261.035 445.874 261.026 445.874 261.026 445.881" style="fill:url(#af66fb74-b3fa-449c-bc85-9da9716fd5f3)"/><path d="M782.99566,714.17664h7.57524a3.41419,3.41419,0,0,1-1.22291-1.20659c-1.12706-1.79884-1.07818-4.56116-1.261-4.52471a8.247,8.247,0,0,0-.18008,3.61977,1.92272,1.92272,0,0,1,0,.90494c-.23745.64056-1.11359.39385-1.441.30165a2.75134,2.75134,0,0,1-1.441-.90494c-1.20954-1.37391-1.47441-3.69334-1.62118-3.61977-.17568.08808.44335,3.29264.3602,4.22306A1.69954,1.69954,0,0,1,782.99566,714.17664Z" transform="translate(-521.96075 -268.30264)" style="fill:url(#06ef9b7e-4805-4cec-ae13-568ef1b53b1c)"/><polygon points="265.12 445.881 265.129 445.874 265.12 445.874 265.12 445.881" style="fill:url(#8c0128fa-6a68-4ee5-a37c-790eaea0e249)"/><path d="M787.08968,714.17664h7.57523a3.41427,3.41427,0,0,1-1.22291-1.20659c-1.12705-1.79884-1.07817-4.56116-1.26095-4.52471a8.24686,8.24686,0,0,0-.18008,3.61977,1.92272,1.92272,0,0,1,0,.90494c-.23745.64056-1.11359.39385-1.441.30165a2.7513,2.7513,0,0,1-1.441-.90494c-1.20955-1.37391-1.47442-3.69334-1.62118-3.61977-.17568.08808.44335,3.29264.36019,4.22306A1.69953,1.69953,0,0,1,787.08968,714.17664Z" transform="translate(-521.96075 -268.30264)" style="fill:url(#e411cd45-9fff-4691-ac68-e7c468b6a356)"/><polygon points="271.397 445.881 271.406 445.874 271.397 445.874 271.397 445.881" style="fill:url(#ed0d6079-2cd6-41dc-a9ff-c53b5ae79207)"/><path d="M793.36717,714.17664h7.57524a3.41419,3.41419,0,0,1-1.22291-1.20659c-1.12706-1.79884-1.07818-4.56116-1.261-4.52471a8.247,8.247,0,0,0-.18008,3.61977,1.92272,1.92272,0,0,1,0,.90494c-.23745.64056-1.11359.39385-1.441.30165a2.75134,2.75134,0,0,1-1.441-.90494c-1.20954-1.37391-1.47441-3.69334-1.62118-3.61977-.17568.08808.44336,3.29264.3602,4.22306A1.69954,1.69954,0,0,1,793.36717,714.17664Z" transform="translate(-521.96075 -268.30264)" style="fill:url(#6f5ed460-c9ca-4059-817b-38775ae88ece)"/><polygon points="248.959 445.881 248.949 445.874 248.959 445.874 248.959 445.881" style="fill:url(#aaa8f356-dedc-4fa8-bf75-d272b0d28abf)"/><path d="M770.91025,714.17664H763.335a3.41427,3.41427,0,0,0,1.22291-1.20659c1.127-1.79884,1.07817-4.56116,1.26095-4.52471a8.24686,8.24686,0,0,1,.18008,3.61977,1.92272,1.92272,0,0,0,0,.90494c.23745.64056,1.1136.39385,1.441.30165a2.7513,2.7513,0,0,0,1.441-.90494c1.20955-1.37391,1.47442-3.69334,1.62118-3.61977.17568.08808-.44335,3.29264-.36019,4.22306A1.69953,1.69953,0,0,0,770.91025,714.17664Z" transform="translate(-521.96075 -268.30264)" style="fill:url(#f06fb934-bee2-4c2a-92a7-a5808afe82ad)"/><polygon points="238.041 445.881 238.032 445.874 238.041 445.874 238.041 445.881" style="fill:url(#7c25c23c-5a93-4521-9dd0-5d22ea5566cb)"/><path d="M759.99287,714.17664h-7.57523a3.41427,3.41427,0,0,0,1.22291-1.20659c1.12705-1.79884,1.07817-4.56116,1.261-4.52471a8.24686,8.24686,0,0,1,.18008,3.61977,1.92272,1.92272,0,0,0,0,.90494c.23745.64056,1.1136.39385,1.441.30165a2.7513,2.7513,0,0,0,1.441-.90494c1.20955-1.37391,1.47442-3.69334,1.62118-3.61977.17568.08808-.44335,3.29264-.36019,4.22306A1.69953,1.69953,0,0,0,759.99287,714.17664Z" transform="translate(-521.96075 -268.30264)" style="fill:url(#9bfdad1e-0b5b-4436-859c-5938c894a10b)"/><polygon points="236.189 445.881 236.198 445.874 236.189 445.874 236.189 445.881" style="fill:url(#bb2a1f6e-dd85-4fea-9099-63dca9758a09)"/><path d="M758.15863,714.17664h7.57523a3.41419,3.41419,0,0,1-1.22291-1.20659c-1.12706-1.79884-1.07818-4.56116-1.261-4.52471a8.247,8.247,0,0,0-.18008,3.61977,1.92272,1.92272,0,0,1,0,.90494c-.23745.64056-1.11359.39385-1.441.30165a2.75129,2.75129,0,0,1-1.441-.90494c-1.20955-1.37391-1.47442-3.69334-1.62119-3.61977-.17568.08808.44336,3.29264.3602,4.22306A1.69956,1.69956,0,0,1,758.15863,714.17664Z" transform="translate(-521.96075 -268.30264)" style="fill:url(#d32bf4d2-e44b-4dba-ab4d-20a84a306297)"/><polygon points="240.283 445.881 240.292 445.874 240.283 445.874 240.283 445.881" style="fill:url(#687c912c-bc8e-4d71-a845-bb259d936bf9)"/><path d="M762.25264,714.17664h7.57523a3.41426,3.41426,0,0,1-1.2229-1.20659c-1.12706-1.79884-1.07818-4.56116-1.261-4.52471a8.247,8.247,0,0,0-.18008,3.61977,1.92272,1.92272,0,0,1,0,.90494c-.23745.64056-1.11359.39385-1.441.30165a2.75134,2.75134,0,0,1-1.441-.90494c-1.20954-1.37391-1.47442-3.69334-1.62118-3.61977-.17568.08808.44335,3.29264.36019,4.22306A1.69953,1.69953,0,0,1,762.25264,714.17664Z" transform="translate(-521.96075 -268.30264)" style="fill:url(#e78ccac8-e738-4312-bae4-293b979419c3)"/><polygon points="246.56 445.881 246.569 445.874 246.56 445.874 246.56 445.881" style="fill:url(#d9d556bd-aba8-4a99-ab38-6e45fc92e039)"/><path d="M768.53014,714.17664h7.57523a3.41419,3.41419,0,0,1-1.22291-1.20659c-1.12705-1.79884-1.07818-4.56116-1.261-4.52471a8.247,8.247,0,0,0-.18008,3.61977,1.92272,1.92272,0,0,1,0,.90494c-.23745.64056-1.11359.39385-1.441.30165a2.75129,2.75129,0,0,1-1.441-.90494c-1.20955-1.37391-1.47442-3.69334-1.62119-3.61977-.17568.08808.44336,3.29264.3602,4.22306A1.69956,1.69956,0,0,1,768.53014,714.17664Z" transform="translate(-521.96075 -268.30264)" style="fill:url(#41e0e754-b22a-4ab7-ba9c-19d70bab4353)"/><polygon points="230.255 445.631 230.264 445.624 230.255 445.624 230.255 445.631" style="fill:url(#cd542370-9720-4699-ac89-8e7f934d0b46)"/><path d="M752.22473,713.92688H759.8a3.41427,3.41427,0,0,1-1.22291-1.20659c-1.127-1.79884-1.07818-4.56116-1.261-4.52471a8.24708,8.24708,0,0,0-.18007,3.61977,1.92285,1.92285,0,0,1,0,.90494c-.23746.64056-1.1136.39385-1.441.30165a2.75129,2.75129,0,0,1-1.441-.90494c-1.20955-1.37391-1.47442-3.69334-1.62118-3.61977-.17569.08808.44335,3.29264.36019,4.22306A1.69953,1.69953,0,0,1,752.22473,713.92688Z" transform="translate(-521.96075 -268.30264)" style="fill:url(#d43aef47-7e0c-433c-871b-321363bf6286)"/><polygon points="234.349 445.631 234.358 445.624 234.349 445.624 234.349 445.631" style="fill:url(#a47159f3-564f-49df-b8d4-14dfef180a7f)"/><path d="M756.31874,713.92688H763.894a3.41419,3.41419,0,0,1-1.22291-1.20659c-1.12706-1.79884-1.07818-4.56116-1.261-4.52471a8.247,8.247,0,0,0-.18008,3.61977,1.92272,1.92272,0,0,1,0,.90494c-.23745.64056-1.11359.39385-1.441.30165a2.75129,2.75129,0,0,1-1.441-.90494c-1.20955-1.37391-1.47442-3.69334-1.62119-3.61977-.17568.08808.44336,3.29264.3602,4.22306A1.69954,1.69954,0,0,1,756.31874,713.92688Z" transform="translate(-521.96075 -268.30264)" style="fill:url(#29388fb9-c08a-40ec-8d06-19335f9bce5d)"/><polygon points="315.137 445.631 315.147 445.624 315.137 445.624 315.137 445.631" style="fill:url(#afdeca11-912d-488b-993b-d9f6b50d4326)"/><path d="M837.10735,713.92688h7.57523a3.41426,3.41426,0,0,1-1.2229-1.20659c-1.12706-1.79884-1.07818-4.56116-1.261-4.52471a8.247,8.247,0,0,0-.18008,3.61977,1.92272,1.92272,0,0,1,0,.90494c-.23745.64056-1.11359.39385-1.441.30165a2.75134,2.75134,0,0,1-1.441-.90494c-1.20954-1.37391-1.47442-3.69334-1.62118-3.61977-.17568.08808.44335,3.29264.36019,4.22306A1.69953,1.69953,0,0,1,837.10735,713.92688Z" transform="translate(-521.96075 -268.30264)" style="fill:url(#330040aa-9cc1-4e53-970f-f41ee389d9dc)"/><polygon points="319.231 445.631 319.241 445.624 319.231 445.624 319.231 445.631" style="fill:url(#d1cb3433-5f02-4207-adb8-aa1284804e7c)"/><path d="M841.20137,713.92688h7.57523a3.41427,3.41427,0,0,1-1.22291-1.20659c-1.127-1.79884-1.07817-4.56116-1.26095-4.52471a8.24683,8.24683,0,0,0-.18008,3.61977,1.92272,1.92272,0,0,1,0,.90494c-.23745.64056-1.1136.39385-1.441.30165a2.7513,2.7513,0,0,1-1.441-.90494c-1.20955-1.37391-1.47442-3.69334-1.62118-3.61977-.17568.08808.44335,3.29264.36019,4.22306A1.69953,1.69953,0,0,1,841.20137,713.92688Z" transform="translate(-521.96075 -268.30264)" style="fill:url(#174e4a67-e2d6-403a-b58f-850941b092ee)"/><polygon points="305.578 445.621 305.588 445.614 305.578 445.614 305.578 445.621" style="fill:url(#0a1fc0f3-68e3-4be0-af7c-54d709024985)"/><path d="M827.54853,713.917l7.57521.01982a3.41646,3.41646,0,0,1-1.22032-1.20978c-1.1232-1.80178-1.06841-4.564-1.25126-4.528a8.24585,8.24585,0,0,0-.18784,3.61929,1.92261,1.92261,0,0,1-.00194.90494c-.23882.63993-1.11443.39093-1.44164.29787a2.75286,2.75286,0,0,1-1.43909-.90871c-1.2066-1.37707-1.46651-3.69718-1.61343-3.624-.17587.08762.4363,3.2938.35115,4.224A1.6985,1.6985,0,0,1,827.54853,713.917Z" transform="translate(-521.96075 -268.30264)" style="fill:url(#57898aa5-5ae7-4b14-b29c-a888de61ace6)"/><polygon points="325.509 445.631 325.518 445.624 325.509 445.624 325.509 445.631" style="fill:url(#5c3aed75-0ed9-4ed3-828c-1b8bc3b236ca)"/><path d="M847.47886,713.92688h7.57523a3.41426,3.41426,0,0,1-1.2229-1.20659c-1.12706-1.79884-1.07818-4.56116-1.261-4.52471a8.247,8.247,0,0,0-.18008,3.61977,1.92272,1.92272,0,0,1,0,.90494c-.23745.64056-1.11359.39385-1.441.30165a2.75134,2.75134,0,0,1-1.441-.90494c-1.20954-1.37391-1.47442-3.69334-1.62118-3.61977-.17568.08808.44335,3.29264.36019,4.22306A1.69953,1.69953,0,0,1,847.47886,713.92688Z" transform="translate(-521.96075 -268.30264)" style="fill:url(#a0c171ee-21b6-42da-890d-71ec99e7455b)"/><polygon points="340.793 445.631 340.802 445.624 340.793 445.624 340.793 445.631" style="fill:url(#3a57e5d8-d6ed-4d56-9180-be6c991d365f)"/><path d="M862.76319,713.92688h7.57524a3.41419,3.41419,0,0,1-1.22291-1.20659c-1.12706-1.79884-1.07818-4.56116-1.261-4.52471a8.247,8.247,0,0,0-.18008,3.61977,1.92272,1.92272,0,0,1,0,.90494c-.23745.64056-1.11359.39385-1.441.30165a2.75129,2.75129,0,0,1-1.441-.90494c-1.20955-1.37391-1.47442-3.69334-1.62119-3.61977-.17568.08808.44336,3.29264.3602,4.22306A1.69954,1.69954,0,0,1,862.76319,713.92688Z" transform="translate(-521.96075 -268.30264)" style="fill:url(#e0492ffc-b5f2-41c2-b17f-fca32c72bce4)"/><polygon points="344.887 445.631 344.896 445.624 344.887 445.624 344.887 445.631" style="fill:url(#01d10927-d11b-481e-8bd7-d9fa3398d071)"/><path d="M866.85721,713.92688h7.57523a3.41426,3.41426,0,0,1-1.2229-1.20659c-1.12706-1.79884-1.07818-4.56116-1.261-4.52471a8.247,8.247,0,0,0-.18008,3.61977,1.92272,1.92272,0,0,1,0,.90494c-.23745.64056-1.11359.39385-1.441.30165a2.75134,2.75134,0,0,1-1.441-.90494c-1.20954-1.37391-1.47442-3.69334-1.62118-3.61977-.17568.08808.44335,3.29264.36019,4.22306A1.69953,1.69953,0,0,1,866.85721,713.92688Z" transform="translate(-521.96075 -268.30264)" style="fill:url(#d249966b-bd5a-45e9-ad57-a33096368980)"/><polygon points="331.234 445.621 331.244 445.614 331.234 445.614 331.234 445.621" style="fill:url(#0f67a618-ede3-4a38-ad36-2453a80b35d5)"/><path d="M853.20437,713.917l7.57521.01982a3.41654,3.41654,0,0,1-1.22032-1.20978c-1.1232-1.80178-1.06841-4.564-1.25126-4.528a8.24619,8.24619,0,0,0-.18784,3.61929,1.92274,1.92274,0,0,1-.00193.90494c-.23883.63993-1.11444.39093-1.44165.29787a2.75286,2.75286,0,0,1-1.43909-.90871c-1.2066-1.37707-1.46651-3.69718-1.61342-3.624-.17587.08762.43629,3.2938.35114,4.224A1.6985,1.6985,0,0,1,853.20437,713.917Z" transform="translate(-521.96075 -268.30264)" style="fill:url(#39da07a5-42a4-4730-9bd8-1127a6016c89)"/><polygon points="351.165 445.631 351.174 445.624 351.165 445.624 351.165 445.631" style="fill:url(#ac1c4c77-6236-4d45-899d-9e837c6effbf)"/><path d="M873.13471,713.92688h7.57523a3.41419,3.41419,0,0,1-1.22291-1.20659c-1.12706-1.79884-1.07818-4.56116-1.261-4.52471a8.247,8.247,0,0,0-.18008,3.61977,1.92272,1.92272,0,0,1,0,.90494c-.23745.64056-1.11359.39385-1.441.30165a2.75129,2.75129,0,0,1-1.441-.90494c-1.20955-1.37391-1.47442-3.69334-1.62119-3.61977-.17568.08808.44336,3.29264.3602,4.22306A1.69956,1.69956,0,0,1,873.13471,713.92688Z" transform="translate(-521.96075 -268.30264)" style="fill:url(#25baafbb-3ba5-4f29-95fe-3523531b486c)"/><polygon points="289.151 445.631 289.142 445.624 289.151 445.624 289.151 445.631" style="fill:url(#87097ab5-0ba3-413e-8800-1dfaeb99e440)"/><path d="M811.10228,713.92688h-7.57523a3.41427,3.41427,0,0,0,1.22291-1.20659c1.12705-1.79884,1.07817-4.56116,1.26095-4.52471a8.24683,8.24683,0,0,1,.18008,3.61977,1.92272,1.92272,0,0,0,0,.90494c.23745.64056,1.1136.39385,1.441.30165a2.7513,2.7513,0,0,0,1.441-.90494c1.20955-1.37391,1.47442-3.69334,1.62118-3.61977.17568.08808-.44335,3.29264-.36019,4.22306A1.69953,1.69953,0,0,0,811.10228,713.92688Z" transform="translate(-521.96075 -268.30264)" style="fill:url(#45a7318b-989f-4485-b108-e3fc7cb039f1)"/><polygon points="287.298 445.631 287.307 445.624 287.298 445.624 287.298 445.631" style="fill:url(#40d87b61-46db-4333-a119-581907cea481)"/><path d="M809.268,713.92688h7.57523a3.41419,3.41419,0,0,1-1.22291-1.20659c-1.12706-1.79884-1.07818-4.56116-1.261-4.52471a8.247,8.247,0,0,0-.18008,3.61977,1.92272,1.92272,0,0,1,0,.90494c-.23745.64056-1.11359.39385-1.441.30165a2.75129,2.75129,0,0,1-1.441-.90494c-1.20955-1.37391-1.47442-3.69334-1.62119-3.61977-.17568.08808.44336,3.29264.3602,4.22306A1.69956,1.69956,0,0,1,809.268,713.92688Z" transform="translate(-521.96075 -268.30264)" style="fill:url(#62eab6bb-7417-44aa-8820-cb567c6b9ed0)"/><polygon points="291.392 445.631 291.401 445.624 291.392 445.624 291.392 445.631" style="fill:url(#8c476431-922a-43a2-b588-577ec48fe84b)"/><path d="M813.36205,713.92688h7.57523a3.41426,3.41426,0,0,1-1.2229-1.20659c-1.12706-1.79884-1.07818-4.56116-1.261-4.52471a8.247,8.247,0,0,0-.18008,3.61977,1.92272,1.92272,0,0,1,0,.90494c-.23745.64056-1.11359.39385-1.441.30165a2.75134,2.75134,0,0,1-1.441-.90494c-1.20954-1.37391-1.47442-3.69334-1.62118-3.61977-.17568.08808.44335,3.29264.36019,4.22306A1.69953,1.69953,0,0,1,813.36205,713.92688Z" transform="translate(-521.96075 -268.30264)" style="fill:url(#c6de1017-c5b0-4c91-ac17-f97da3d4c865)"/><polygon points="297.669 445.631 297.679 445.624 297.669 445.624 297.669 445.631" style="fill:url(#1ec37bc8-a5d9-433e-ab7a-c6be39f58e31)"/><path d="M819.63955,713.92688h7.57523a3.41419,3.41419,0,0,1-1.22291-1.20659c-1.127-1.79884-1.07818-4.56116-1.261-4.52471a8.247,8.247,0,0,0-.18008,3.61977,1.92272,1.92272,0,0,1,0,.90494c-.23745.64056-1.11359.39385-1.441.30165a2.75129,2.75129,0,0,1-1.441-.90494c-1.20955-1.37391-1.47442-3.69334-1.62119-3.61977-.17568.08808.44336,3.29264.3602,4.22306A1.69956,1.69956,0,0,1,819.63955,713.92688Z" transform="translate(-521.96075 -268.30264)" style="fill:url(#84fddb1b-8deb-4e9d-bd67-eae50418468b)"/><polygon points="362.57 445.631 362.561 445.624 362.57 445.624 362.57 445.631" style="fill:url(#922b4d58-dffd-47fa-aeca-674867e10ac4)"/><path d="M884.52166,713.92688h-7.57523a3.41426,3.41426,0,0,0,1.2229-1.20659c1.12706-1.79884,1.07818-4.56116,1.261-4.52471a8.247,8.247,0,0,1,.18008,3.61977,1.92272,1.92272,0,0,0,0,.90494c.23745.64056,1.11359.39385,1.441.30165a2.75134,2.75134,0,0,0,1.441-.90494c1.20954-1.37391,1.47442-3.69334,1.62118-3.61977.17568.08808-.44335,3.29264-.36019,4.22306A1.69953,1.69953,0,0,0,884.52166,713.92688Z" transform="translate(-521.96075 -268.30264)" style="fill:url(#e6800067-82a8-4616-993b-a3b204c3a230)"/><polygon points="360.717 445.631 360.727 445.624 360.717 445.624 360.717 445.631" style="fill:url(#6bbf698c-45a4-41ff-8495-c14f55f5967e)"/><path d="M882.68741,713.92688h7.57523a3.41426,3.41426,0,0,1-1.2229-1.20659c-1.12706-1.79884-1.07818-4.56116-1.261-4.52471a8.247,8.247,0,0,0-.18008,3.61977,1.92272,1.92272,0,0,1,0,.90494c-.23745.64056-1.11359.39385-1.441.30165a2.75134,2.75134,0,0,1-1.441-.90494c-1.20954-1.37391-1.47442-3.69334-1.62118-3.61977-.17568.08808.44335,3.29264.36019,4.22306A1.69953,1.69953,0,0,1,882.68741,713.92688Z" transform="translate(-521.96075 -268.30264)" style="fill:url(#73b262d1-4845-40dd-a04c-7c70e603c54d)"/><polygon points="364.811 445.631 364.821 445.624 364.811 445.624 364.811 445.631" style="fill:url(#fd19893b-ee37-4656-b2b0-b5cd03254462)"/><path d="M886.78143,713.92688h7.57523a3.41427,3.41427,0,0,1-1.22291-1.20659c-1.127-1.79884-1.07817-4.56116-1.26095-4.52471a8.24683,8.24683,0,0,0-.18008,3.61977,1.92272,1.92272,0,0,1,0,.90494c-.23745.64056-1.1136.39385-1.441.30165a2.7513,2.7513,0,0,1-1.441-.90494c-1.20955-1.37391-1.47442-3.69334-1.62118-3.61977-.17568.08808.44335,3.29264.36019,4.22306A1.69953,1.69953,0,0,1,886.78143,713.92688Z" transform="translate(-521.96075 -268.30264)" style="fill:url(#b324c605-eb4a-43be-bf88-3b83d4dfa568)"/><polygon points="371.089 445.631 371.098 445.624 371.089 445.624 371.089 445.631" style="fill:url(#0cce0354-bc7e-4d2c-99c8-441161f4090c)"/><path d="M893.05892,713.92688h7.57523a3.41426,3.41426,0,0,1-1.2229-1.20659c-1.12706-1.79884-1.07818-4.56116-1.261-4.52471a8.247,8.247,0,0,0-.18008,3.61977,1.92272,1.92272,0,0,1,0,.90494c-.23745.64056-1.11359.39385-1.441.30165a2.75134,2.75134,0,0,1-1.441-.90494c-1.20954-1.37391-1.47442-3.69334-1.62118-3.61977-.17568.08808.44335,3.29264.36019,4.22306A1.69953,1.69953,0,0,1,893.05892,713.92688Z" transform="translate(-521.96075 -268.30264)" style="fill:url(#e0c2d2ed-638d-4af0-88c3-bfca7351af97)"/><polygon points="261.369 445.631 261.379 445.624 261.369 445.624 261.369 445.631" style="fill:url(#37fd8420-c766-47c8-bd78-66b91bc095b3)"/><path d="M783.33926,713.92688h7.57523a3.41427,3.41427,0,0,1-1.22291-1.20659c-1.12705-1.79884-1.07818-4.56116-1.261-4.52471a8.24683,8.24683,0,0,0-.18008,3.61977,1.92272,1.92272,0,0,1,0,.90494c-.23745.64056-1.1136.39385-1.441.30165a2.75132,2.75132,0,0,1-1.441-.90494c-1.20955-1.37391-1.47442-3.69334-1.62118-3.61977-.17568.08808.44335,3.29264.36019,4.22306A1.69953,1.69953,0,0,1,783.33926,713.92688Z" transform="translate(-521.96075 -268.30264)" style="fill:url(#ad0161a0-e538-4d54-9b65-6363cf90035e)"/><polygon points="265.463 445.631 265.473 445.624 265.463 445.624 265.463 445.631" style="fill:url(#681fa74d-1d46-43e9-85e4-4e867931eaec)"/><path d="M787.43328,713.92688h7.57523a3.41419,3.41419,0,0,1-1.22291-1.20659c-1.12705-1.79884-1.07818-4.56116-1.261-4.52471a8.247,8.247,0,0,0-.18008,3.61977,1.92259,1.92259,0,0,1,0,.90494c-.23745.64056-1.11359.39385-1.441.30165a2.75129,2.75129,0,0,1-1.441-.90494c-1.20955-1.37391-1.47442-3.69334-1.62118-3.61977-.17569.08808.44335,3.29264.36019,4.22306A1.69953,1.69953,0,0,1,787.43328,713.92688Z" transform="translate(-521.96075 -268.30264)" style="fill:url(#1d503ac4-71e1-4c2c-8297-27818a448cb2)"/><polygon points="271.741 445.631 271.75 445.624 271.741 445.624 271.741 445.631" style="fill:url(#3bba293f-a0f4-4469-b646-3f5afb8ef2a4)"/><path d="M793.71077,713.92688H801.286a3.41427,3.41427,0,0,1-1.22291-1.20659c-1.127-1.79884-1.07817-4.56116-1.26095-4.52471a8.24683,8.24683,0,0,0-.18008,3.61977,1.92272,1.92272,0,0,1,0,.90494c-.23745.64056-1.1136.39385-1.441.30165a2.7513,2.7513,0,0,1-1.441-.90494c-1.20955-1.37391-1.47442-3.69334-1.62118-3.61977-.17568.08808.44335,3.29264.36019,4.22306A1.69953,1.69953,0,0,1,793.71077,713.92688Z" transform="translate(-521.96075 -268.30264)" style="fill:url(#26dce078-bf91-4d8f-b380-15290fbcb999)"/><polygon points="240.626 445.631 240.635 445.624 240.626 445.624 240.626 445.631" style="fill:url(#109a8ee5-68ad-425d-a076-df784ec429a8)"/><path d="M762.59624,713.92688h7.57523a3.41427,3.41427,0,0,1-1.22291-1.20659c-1.12705-1.79884-1.07818-4.56116-1.261-4.52471a8.24683,8.24683,0,0,0-.18008,3.61977,1.92272,1.92272,0,0,1,0,.90494c-.23746.64056-1.1136.39385-1.441.30165a2.75132,2.75132,0,0,1-1.441-.90494c-1.20955-1.37391-1.47442-3.69334-1.62118-3.61977-.17568.08808.44335,3.29264.36019,4.22306A1.69953,1.69953,0,0,1,762.59624,713.92688Z" transform="translate(-521.96075 -268.30264)" style="fill:url(#ea532ff7-2c02-4759-b36f-c868bb915bcd)"/><polygon points="252.032 445.631 252.022 445.624 252.032 445.624 252.032 445.631" style="fill:url(#fa63fcb1-e3a4-4f7f-aabf-7afc7adc2a52)"/><path d="M773.98319,713.92688H766.408a3.41427,3.41427,0,0,0,1.22291-1.20659c1.12705-1.79884,1.07817-4.56116,1.261-4.52471a8.24683,8.24683,0,0,1,.18008,3.61977,1.92272,1.92272,0,0,0,0,.90494c.23745.64056,1.1136.39385,1.441.30165a2.7513,2.7513,0,0,0,1.441-.90494c1.20955-1.37391,1.47442-3.69334,1.62118-3.61977.17568.08808-.44335,3.29264-.36019,4.22306A1.69953,1.69953,0,0,0,773.98319,713.92688Z" transform="translate(-521.96075 -268.30264)" style="fill:url(#1ed5e0ab-f503-4c7b-a693-c574cd6b7a7f)"/><polygon points="250.179 445.631 250.188 445.624 250.179 445.624 250.179 445.631" style="fill:url(#31dc53ab-7b9e-44df-b7b9-7bd6e0833cf4)"/><path d="M772.14894,713.92688h7.57524a3.41419,3.41419,0,0,1-1.22291-1.20659c-1.12706-1.79884-1.07818-4.56116-1.261-4.52471a8.247,8.247,0,0,0-.18008,3.61977,1.92272,1.92272,0,0,1,0,.90494c-.23745.64056-1.11359.39385-1.441.30165a2.75129,2.75129,0,0,1-1.441-.90494c-1.20955-1.37391-1.47442-3.69334-1.62119-3.61977-.17568.08808.44336,3.29264.3602,4.22306A1.69954,1.69954,0,0,1,772.14894,713.92688Z" transform="translate(-521.96075 -268.30264)" style="fill:url(#9021cac2-9c39-4eb9-a2f7-29cfa0d353bd)"/><polygon points="254.273 445.631 254.282 445.624 254.273 445.624 254.273 445.631" style="fill:url(#10f449fb-4a61-4aed-b0a2-9d59f703e12e)"/><path d="M776.243,713.92688h7.57523a3.41426,3.41426,0,0,1-1.2229-1.20659c-1.12706-1.79884-1.07818-4.56116-1.261-4.52471a8.247,8.247,0,0,0-.18008,3.61977,1.92272,1.92272,0,0,1,0,.90494c-.23745.64056-1.11359.39385-1.441.30165a2.75134,2.75134,0,0,1-1.441-.90494c-1.20954-1.37391-1.47442-3.69334-1.62118-3.61977-.17568.08808.44335,3.29264.36019,4.22306A1.69953,1.69953,0,0,1,776.243,713.92688Z" transform="translate(-521.96075 -268.30264)" style="fill:url(#8d0ff595-8075-49e0-ba3c-1fa40f88f264)"/><polygon points="260.55 445.631 260.56 445.624 260.55 445.624 260.55 445.631" style="fill:url(#a71b2d53-6b16-46fd-b104-97deecd69856)"/><path d="M782.52046,713.92688h7.57523a3.41419,3.41419,0,0,1-1.22291-1.20659c-1.12706-1.79884-1.07818-4.56116-1.261-4.52471a8.247,8.247,0,0,0-.18008,3.61977,1.92272,1.92272,0,0,1,0,.90494c-.23745.64056-1.11359.39385-1.441.30165a2.75129,2.75129,0,0,1-1.441-.90494c-1.20955-1.37391-1.47442-3.69334-1.62119-3.61977-.17568.08808.44336,3.29264.3602,4.22306A1.69956,1.69956,0,0,1,782.52046,713.92688Z" transform="translate(-521.96075 -268.30264)" style="fill:url(#6578ec73-e44b-416a-b7f5-c622e8853b8b)"/><polygon points="227.604 177.111 227.178 176.851 226.743 177.092 226.834 176.564 226.492 176.18 226.976 176.114 227.2 175.636 227.406 176.123 227.887 176.211 227.532 176.579 227.604 177.111" style="fill:#fff"/><polygon points="43.919 168.363 43.493 168.103 43.058 168.344 43.149 167.816 42.807 167.433 43.291 167.366 43.515 166.888 43.722 167.375 44.202 167.463 43.847 167.831 43.919 168.363" style="fill:#fff"/><polygon points="305.553 178.908 304.96 178.546 304.354 178.882 304.482 178.146 304.006 177.613 304.678 177.52 304.99 176.855 305.278 177.533 305.946 177.655 305.452 178.167 305.553 178.908" style="fill:#fff"/><polygon points="596.228 143.313 595.635 142.952 595.029 143.287 595.157 142.552 594.681 142.019 595.353 141.926 595.665 141.261 595.953 141.939 596.621 142.061 596.127 142.573 596.228 143.313" style="fill:#fff"/><polygon points="521.223 142.081 520.296 141.516 519.349 142.04 519.549 140.891 518.805 140.058 519.856 139.912 520.343 138.874 520.793 139.933 521.837 140.124 521.065 140.924 521.223 142.081" style="fill:#fff"/><polygon points="85.629 160.576 84.847 159.977 84.044 160.542 84.218 159.313 83.592 158.427 84.481 158.267 84.897 157.155 85.274 158.284 86.157 158.483 85.5 159.341 85.629 160.576" style="fill:#fff"/><path d="M892,673" transform="translate(-521.96075 -268.30264)" style="fill:url(#7476f407-81d0-43ae-ae24-adb1eecd6105)"/><polygon points="123.985 105.818 123.225 105.354 122.448 105.784 122.612 104.842 122.002 104.159 122.864 104.04 123.263 103.188 123.632 104.056 124.489 104.213 123.855 104.869 123.985 105.818" style="fill:#fff"/><polygon points="189.762 132.363 189.002 131.899 188.226 132.329 188.389 131.387 187.78 130.704 188.641 130.584 189.04 129.733 189.409 130.601 190.266 130.758 189.632 131.414 189.762 132.363" style="fill:#fff"/><polygon points="321.862 104.611 321.102 104.148 320.326 104.578 320.489 103.635 319.88 102.952 320.741 102.833 321.141 101.981 321.51 102.85 322.366 103.006 321.733 103.662 321.862 104.611" style="fill:#fff"/><polygon points="551.076 102.827 550.649 102.567 550.214 102.808 550.306 102.28 549.964 101.897 550.447 101.83 550.671 101.352 550.878 101.839 551.358 101.927 551.003 102.295 551.076 102.827" style="fill:#fff"/><polygon points="423.036 80.328 422.363 79.918 421.676 80.299 421.821 79.465 421.281 78.86 422.044 78.754 422.397 78 422.724 78.769 423.482 78.908 422.921 79.489 423.036 80.328" style="fill:#fff"/><polygon points="658.228 139.313 657.635 138.952 657.029 139.287 657.157 138.552 656.681 138.019 657.353 137.926 657.665 137.261 657.953 137.939 658.621 138.061 658.127 138.573 658.228 139.313" style="fill:#fff"/><polygon points="461.221 113.346 460.294 112.781 459.348 113.305 459.547 112.156 458.804 111.323 459.854 111.177 460.341 110.138 460.791 111.198 461.836 111.389 461.063 112.189 461.221 113.346" style="fill:#fff"/><polygon points="583.223 138.081 582.296 137.516 581.349 138.04 581.549 136.891 580.805 136.058 581.856 135.912 582.343 134.874 582.793 135.933 583.837 136.124 583.065 136.924 583.223 138.081" style="fill:#fff"/><polygon points="629.895 114.854 628.968 114.289 628.021 114.813 628.221 113.664 627.477 112.831 628.528 112.686 629.015 111.647 629.465 112.706 630.509 112.897 629.737 113.697 629.895 114.854" style="fill:#fff"/><polygon points="293.61 136.402 292.433 135.685 291.23 136.351 291.484 134.891 290.539 133.833 291.874 133.648 292.492 132.329 293.064 133.674 294.39 133.917 293.409 134.933 293.61 136.402" style="fill:#fff"/><polygon points="394.05 115.287 392.873 114.57 391.67 115.235 391.924 113.776 390.979 112.718 392.314 112.533 392.932 111.214 393.504 112.559 394.83 112.802 393.849 113.818 394.05 115.287" style="fill:#fff"/><polygon points="424.381 128.945 423.619 128.553 422.844 128.912 423.005 128.12 422.394 127.543 423.255 127.446 423.652 126.731 424.023 127.463 424.88 127.597 424.248 128.147 424.381 128.945" style="fill:#fff"/><polygon points="534.287 110.89 533.525 110.498 532.75 110.857 532.911 110.065 532.3 109.489 533.161 109.391 533.558 108.676 533.929 109.408 534.786 109.543 534.154 110.092 534.287 110.89" style="fill:#fff"/><polygon points="657.494 85.993 656.819 85.646 656.133 85.964 656.276 85.263 655.734 84.752 656.497 84.666 656.848 84.033 657.177 84.681 657.935 84.8 657.376 85.287 657.494 85.993" style="fill:#fff"/><polygon points="678.029 136.213 677.1 135.735 676.155 136.172 676.351 135.207 675.606 134.503 676.656 134.385 677.14 133.513 677.593 134.405 678.638 134.569 677.867 135.24 678.029 136.213" style="fill:#fff"/><polygon points="528.234 132.701 527.055 132.094 525.854 132.65 526.103 131.423 525.156 130.53 526.49 130.379 527.105 129.272 527.68 130.405 529.007 130.614 528.029 131.465 528.234 132.701" style="fill:#fff"/><polygon points="10.311 129.986 9.807 129.528 9.288 129.964 9.402 129.02 9 128.342 9.575 128.216 9.846 127.362 10.086 128.227 10.656 128.378 10.23 129.038 10.311 129.986" style="fill:#fff"/><polygon points="77.857 104.973 77.411 104.568 76.951 104.953 77.053 104.118 76.697 103.517 77.205 103.406 77.446 102.649 77.659 103.416 78.163 103.549 77.786 104.134 77.857 104.973" style="fill:#fff"/><polygon points="103.1 137.709 102.486 137.151 101.852 137.682 101.992 136.531 101.502 135.704 102.202 135.551 102.533 134.508 102.826 135.564 103.521 135.748 103.002 136.553 103.1 137.709" style="fill:#fff"/><polygon points="151.791 134.724 151.286 134.337 150.768 134.702 150.88 133.909 150.476 133.337 151.05 133.233 151.319 132.515 151.562 133.244 152.132 133.373 151.708 133.927 151.791 134.724" style="fill:#fff"/><polygon points="580.899 49.524 581.659 49.987 582.435 49.557 582.272 50.499 582.881 51.182 582.02 51.302 581.621 52.154 581.252 51.285 580.395 51.128 581.029 50.472 580.899 49.524" style="fill:#fff"/><polygon points="515.122 22.979 515.882 23.442 516.658 23.012 516.495 23.954 517.104 24.637 516.243 24.757 515.843 25.609 515.474 24.74 514.618 24.583 515.251 23.927 515.122 22.979" style="fill:#fff"/><polygon points="383.021 50.73 383.782 51.193 384.558 50.764 384.394 51.706 385.004 52.389 384.142 52.508 383.743 53.36 383.374 52.492 382.518 52.335 383.151 51.679 383.021 50.73" style="fill:#fff"/><polygon points="153.808 52.514 154.235 52.774 154.67 52.533 154.578 53.062 154.92 53.445 154.437 53.512 154.213 53.989 154.006 53.502 153.526 53.414 153.881 53.046 153.808 52.514" style="fill:#fff"/><polygon points="281.847 75.013 282.52 75.423 283.208 75.042 283.063 75.877 283.603 76.481 282.84 76.587 282.486 77.341 282.16 76.572 281.401 76.434 281.962 75.853 281.847 75.013" style="fill:#fff"/><polygon points="46.655 16.028 47.249 16.389 47.855 16.054 47.727 16.789 48.203 17.322 47.53 17.416 47.219 18.08 46.931 17.403 46.262 17.28 46.757 16.768 46.655 16.028" style="fill:#fff"/><polygon points="243.662 41.995 244.59 42.56 245.536 42.036 245.337 43.185 246.08 44.018 245.03 44.164 244.543 45.203 244.093 44.144 243.048 43.953 243.821 43.152 243.662 41.995" style="fill:#fff"/><polygon points="121.661 17.26 122.588 17.825 123.534 17.301 123.335 18.45 124.078 19.283 123.028 19.429 122.541 20.468 122.091 19.408 121.046 19.217 121.819 18.417 121.661 17.26" style="fill:#fff"/><polygon points="74.989 40.487 75.916 41.052 76.863 40.528 76.663 41.677 77.407 42.51 76.356 42.656 75.869 43.695 75.419 42.635 74.375 42.444 75.147 41.644 74.989 40.487" style="fill:#fff"/><polygon points="411.273 18.939 412.451 19.656 413.653 18.991 413.4 20.45 414.344 21.508 413.01 21.693 412.391 23.012 411.82 21.667 410.493 21.424 411.475 20.408 411.273 18.939" style="fill:#fff"/><polygon points="0.78 41.562 1.958 42.28 3.16 41.614 2.907 43.074 3.851 44.132 2.517 44.316 1.898 45.636 1.327 44.291 0 44.048 0.981 43.032 0.78 41.562" style="fill:#fff"/><polygon points="310.834 40.054 312.011 40.771 313.213 40.106 312.96 41.565 313.904 42.623 312.57 42.808 311.951 44.128 311.38 42.782 310.054 42.54 311.035 41.524 310.834 40.054" style="fill:#fff"/><polygon points="280.503 26.396 281.264 26.788 282.039 26.43 281.878 27.221 282.49 27.798 281.629 27.895 281.232 28.61 280.861 27.879 280.004 27.744 280.635 27.194 280.503 26.396" style="fill:#fff"/><polygon points="170.597 44.451 171.358 44.843 172.133 44.484 171.972 45.276 172.584 45.853 171.723 45.95 171.326 46.665 170.955 45.933 170.098 45.799 170.729 45.249 170.597 44.451" style="fill:#fff"/><polygon points="47.39 69.348 48.064 69.695 48.75 69.378 48.608 70.079 49.149 70.589 48.387 70.675 48.036 71.308 47.707 70.66 46.948 70.541 47.507 70.055 47.39 69.348" style="fill:#fff"/><polygon points="26.855 19.128 27.783 19.606 28.729 19.169 28.532 20.135 29.278 20.838 28.228 20.957 27.744 21.829 27.291 20.936 26.246 20.772 27.016 20.102 26.855 19.128" style="fill:#fff"/><polygon points="176.65 22.64 177.829 23.247 179.029 22.692 178.78 23.918 179.728 24.811 178.394 24.962 177.779 26.069 177.204 24.936 175.877 24.728 176.855 23.876 176.65 22.64" style="fill:#fff"/><polygon points="694.573 25.355 695.077 25.813 695.596 25.378 695.482 26.321 695.884 27 695.309 27.125 695.038 27.98 694.797 27.114 694.228 26.964 694.654 26.303 694.573 25.355" style="fill:#fff"/><polygon points="627.026 50.368 627.472 50.774 627.932 50.388 627.831 51.223 628.187 51.824 627.678 51.935 627.438 52.692 627.225 51.925 626.721 51.792 627.098 51.207 627.026 50.368" style="fill:#fff"/><polygon points="601.783 17.632 602.398 18.19 603.031 17.659 602.892 18.81 603.382 19.637 602.681 19.791 602.351 20.833 602.057 19.777 601.363 19.594 601.882 18.788 601.783 17.632" style="fill:#fff"/><polygon points="626.419 1.768 626.924 2.154 627.443 1.79 627.331 2.583 627.735 3.155 627.16 3.259 626.892 3.976 626.649 3.247 626.079 3.119 626.503 2.565 626.419 1.768" style="fill:#fff"/><polygon points="553.092 20.617 553.597 21.004 554.116 20.64 554.004 21.432 554.408 22.005 553.834 22.108 553.565 22.826 553.322 22.097 552.752 21.969 553.176 21.414 553.092 20.617" style="fill:#fff"/><polyline points="558.666 0.028 559.292 0.914 558.403 1.074 557.986 2.186 557.61 1.057 556.727 0.858 557.384 0" style="fill:#fff"/><circle cx="631.53925" cy="348.69736" r="26.5" style="fill:#fff"/><path d="M1177.93574,523.06779a115.79624,115.79624,0,0,0-15.68491,8.06245q-1.71817,1.04962-3.52084,2.23042a29.2505,29.2505,0,0,1-1.22887,9.56717,23.73072,23.73072,0,0,1-2.56861,5.604,1.84265,1.84265,0,0,1-1.67946.04286,3.22333,3.22333,0,0,1-1.55889-1.56877l5.37243-12.53465a144.59133,144.59133,0,0,0-15.66182,12.30719,172.95425,172.95425,0,0,0-25.7827,29.3915q6.51128,9.48777,13.02245,18.97552a162.50637,162.50637,0,0,0,24.26934-25.92263A178.553,178.553,0,0,0,1177.93574,523.06779Z" transform="translate(-521.96075 -268.30264)" style="fill:url(#e630b4f0-72f5-48ae-bd9b-0e4f7fc2c0b7)"/><path d="M1081.62752,601.81753a99.20874,99.20874,0,0,0,15.53059-4.69382q1.71288-.67065,3.51556-1.449a25.80125,25.80125,0,0,1,1.84059-8.767,19.29142,19.29142,0,0,1,2.8424-4.79522,1.80311,1.80311,0,0,1,1.60565.2686,3.6268,3.6268,0,0,1,1.37809,1.76133l-6.00186,10.79431a118.02973,118.02973,0,0,0,15.80489-8.68808,138.01255,138.01255,0,0,0,26.6557-22.88567q-5.55117-10.11593-11.10225-20.23182a130.017,130.017,0,0,0-24.96937,19.90332A143.9829,143.9829,0,0,0,1081.62752,601.81753Z" transform="translate(-521.96075 -268.30264)" style="fill:url(#cd9ca1fe-c19e-49d5-b3c4-545d535c50f9)"/><path d="M1160.96687,503.95458a89.49793,89.49793,0,0,0-8.69553,7.9667q-.94128.97837-1.92349,2.05536a21.00635,21.00635,0,0,1-.07753,6.29726,19.16081,19.16081,0,0,1-1.13458,4.02429,1.1673,1.1673,0,0,1-.9865.33215,1.52973,1.52973,0,0,1-1.02437-.713l2.31807-8.93363a118.19393,118.19393,0,0,0-8.39512,10.65747,144.34377,144.34377,0,0,0-13.20321,23.34182q4.477,4.84148,8.95389,9.68294a135.40386,135.40386,0,0,0,12.546-20.86469A145.89552,145.89552,0,0,0,1160.96687,503.95458Z" transform="translate(-521.96075 -268.30264)" style="fill:url(#623c5ad7-eda4-4f28-a98a-11d6666dec62)"/><path d="M1178,603.97159a121.54912,121.54912,0,0,1-15.3868-9.19484q-1.67976-1.17346-3.43939-2.48408a29.605,29.605,0,0,0-.897-9.64465,24.74937,24.74937,0,0,0-2.3719-5.784,1.86514,1.86514,0,0,0-1.67586-.16514,3.05091,3.05091,0,0,0-1.61109,1.45324l4.93287,12.91022a152.98253,152.98253,0,0,1-15.21717-13.43255,182.95336,182.95336,0,0,1-24.73543-31.2326q6.83068-9.00154,13.66125-18.00305a172.02333,172.02333,0,0,1,23.34375,27.65786A186.93784,186.93784,0,0,1,1178,603.97159Z" transform="translate(-521.96075 -268.30264)" style="fill:url(#dc80454c-692c-4819-913a-1da315faf81b)"/><path d="M1135.20055,528.19977c-2.54473,21.08457-4.8791,40.44985-5.12713,42.50748-9.90371,82.15868-13.802,114.78714-21.47517,178.23512-1.6671,13.78483-3.71415,30.68806-5.57355,46.01745q3.18932.27909,6.37865.55824a985.96846,985.96846,0,0,0,20.43529-108.16729,1228.67827,1228.67827,0,0,0,10.58829-158.89643Z" transform="translate(-521.96075 -268.30264)" style="fill:url(#576b767c-87bb-46ac-9411-b33e988bc69f)"/><path d="M1134.46283,478.68974a192.60773,192.60773,0,0,0-5.24752,19.95272q-.48731,2.33064-.95676,4.8452a36.65544,36.65544,0,0,1,4.28717,9.3459,38.32693,38.32693,0,0,1,1.393,6.99848,2.19568,2.19568,0,0,1-.99326,1.42185,1.78986,1.78986,0,0,1-1.76773-.08124l-3.34131-15.34642c-1.21474,6.91322-2.281,14.79051-3.00166,23.63076a309.27074,309.27074,0,0,0-.14016,46.85445q8.92693,2.89586,17.85378,5.79178a291.73963,291.73963,0,0,0,1.04877-42.58553A296.90849,296.90849,0,0,0,1134.46283,478.68974Z" transform="translate(-521.96075 -268.30264)" style="fill:url(#8e83cc6e-f4d6-4875-aeb6-720a25fe4360)"/><path d="M1092.07492,512.28463a110.224,110.224,0,0,1,12.60267,9.76687q1.35978,1.21456,2.77652,2.558a26.07407,26.07407,0,0,0-.12664,8.53206,22.17739,22.17739,0,0,0,1.5298,5.32284,1.66558,1.66558,0,0,0,1.45171.33265,2.61273,2.61273,0,0,0,1.548-1.0894l-3.09824-11.84026a138.90929,138.90929,0,0,1,12.05342,13.45239,165.66454,165.66454,0,0,1,18.7041,30.08251q-6.8319,7.10162-13.66371,14.20322a155.91112,155.91112,0,0,1-17.82362-26.80113A167.93176,167.93176,0,0,1,1092.07492,512.28463Z" transform="translate(-521.96075 -268.30264)" style="fill:url(#d732c07d-cf1a-41a8-b75c-9551ee9b400f)"/><path d="M1138.82746,568.29645a26.73889,26.73889,0,0,0-2.28737,2.9901q-.23772.35881-.481.75022a6.00114,6.00114,0,0,1,.51026,1.913,5.2283,5.2283,0,0,1-.04406,1.29444.399.399,0,0,1-.30822.166.5889.5889,0,0,1-.41022-.14809l.02938-2.86026a33.6013,33.6013,0,0,0-1.95556,3.7854,39.76747,39.76747,0,0,0-2.5147,7.94707l3.87977,2.34a37.50239,37.50239,0,0,0,2.50164-7.153A39.74881,39.74881,0,0,0,1138.82746,568.29645Z" transform="translate(-521.96075 -268.30264)" style="fill:url(#a324ab04-b904-4abc-a2e8-88ec69e7475e)"/><path d="M1134.205,566.3018a20.755,20.755,0,0,0-.99826,2.31466q-.09912.27236-.19821.56708a4.18847,4.18847,0,0,1,.47152,1.19037,4.08092,4.08092,0,0,1,.10006.86277.265.265,0,0,1-.15736.1552.2848.2848,0,0,1-.245-.03759l-.25933-1.89642a27.04805,27.04805,0,0,0-.73492,2.79192,32.27487,32.27487,0,0,0-.64806,5.62722l2.40805.97689a30.45325,30.45325,0,0,0,.7173-5.1A31.403,31.403,0,0,0,1134.205,566.3018Z" transform="translate(-521.96075 -268.30264)" style="fill:url(#4246ee5c-5847-473d-b446-f17385ada394)"/><path d="M1145.082,583.4899a22.91133,22.91133,0,0,1-3.56367-.28009q-.40214-.06244-.82966-.14316a5.7694,5.7694,0,0,0-.91058-1.72757,4.55906,4.55906,0,0,0-.88627-.86354.38393.38393,0,0,0-.32361.12662.70289.70289,0,0,0-.18672.42457l1.91119,1.96144a28.03786,28.03786,0,0,1-3.85918-1.09218,33.16277,33.16277,0,0,1-6.99825-3.541q.57249-2.33365,1.145-4.6673a31.21143,31.21143,0,0,1,6.46426,3.00028A34.233,34.233,0,0,1,1145.082,583.4899Z" transform="translate(-521.96075 -268.30264)" style="fill:url(#05e363b5-d4d5-40f9-b839-317ec68e57fa)"/><path d="M1127.33918,564.04837a40.85357,40.85357,0,0,0,.56618,4.24215q.08944.4837.19639,1.00028a6.72,6.72,0,0,1,1.51639,1.35255,7.29791,7.29791,0,0,1,.7984,1.18378.49357.49357,0,0,1-.07453.36056.37288.37288,0,0,1-.33418.151l-1.80394-2.56885c.3081,1.41306.71812,2.99328,1.26658,4.7219a61.53333,61.53333,0,0,0,3.58933,8.81578l3.75869-.59131a58.44329,58.44329,0,0,0-3.09139-8.09924A56.99655,56.99655,0,0,0,1127.33918,564.04837Z" transform="translate(-521.96075 -268.30264)" style="fill:url(#5706d68f-91d4-442a-be9b-58e78acd012f)"/><path d="M1122.06863,574.34711a20.36793,20.36793,0,0,1,3.09136.64944q.34594.10028.71241.21941a5.21287,5.21287,0,0,0,.63485,1.61484,4.15284,4.15284,0,0,0,.69449.8561.33306.33306,0,0,0,.29495-.07405.60411.60411,0,0,0,.2031-.35029l-1.48832-1.933a25.22411,25.22411,0,0,1,3.27386,1.39351,30.08607,30.08607,0,0,1,5.79071,3.89224l-1.43862,3.95365a28.273,28.273,0,0,1-5.3742-3.35858A31.18463,31.18463,0,0,1,1122.06863,574.34711Z" transform="translate(-521.96075 -268.30264)" style="fill:url(#74d15d16-ed92-44b0-87cf-a099ad379f48)"/></svg>