<svg id="54ee0277-d2d9-420b-a713-cd4920b6ebcd" data-name="Layer 1" xmlns="http://www.w3.org/2000/svg" xmlns:xlink="http://www.w3.org/1999/xlink" viewBox="0 0 708.99162 526.70897"><defs><linearGradient id="f60abe7c-0eeb-4e4e-85e1-dd7b3adae665" x1="685.27575" y1="609.95746" x2="778.07348" y2="609.95746" gradientUnits="userSpaceOnUse"><stop offset="0.18764" stop-color="#a644a3"/><stop offset="0.54113" stop-color="#cb65a2"/></linearGradient><linearGradient id="c8f67a41-fa85-4589-8f71-a9c404641d54" x1="127.01471" y1="335.32022" x2="163.315" y2="335.32022" gradientUnits="userSpaceOnUse"><stop offset="0" stop-color="#e9bed2"/><stop offset="0.5" stop-color="#df9dbb"/><stop offset="1" stop-color="#d98caf"/></linearGradient><linearGradient id="6c3448d9-0b35-40bc-87a3-888a4a31ef58" x1="138.20503" y1="484.18323" x2="310.69962" y2="484.18323" xlink:href="#c8f67a41-fa85-4589-8f71-a9c404641d54"/><linearGradient id="f497c3bf-bd75-464e-96ad-6e3987c8b3c4" x1="859.13502" y1="701.35663" x2="1010.6706" y2="701.35663" gradientUnits="userSpaceOnUse"><stop offset="0" stop-color="#e17da3"/><stop offset="1" stop-color="#d46da3"/></linearGradient><linearGradient id="ca5337cd-994c-45e5-8f32-515eb9b6b263" x1="703.0165" y1="699.30786" x2="760.60567" y2="699.30786" xlink:href="#c8f67a41-fa85-4589-8f71-a9c404641d54"/><linearGradient id="e7b147ec-46df-499f-a954-d71cb8bfbdf0" x1="731.81109" y1="683.49479" x2="749.87477" y2="683.49479" xlink:href="#c8f67a41-fa85-4589-8f71-a9c404641d54"/><linearGradient id="41c428bf-a8fa-42cb-84dc-1d8d4c117ed1" x1="759.51394" y1="708.44534" x2="759.51394" y2="708.44534" xlink:href="#c8f67a41-fa85-4589-8f71-a9c404641d54"/><linearGradient id="10185ed1-8099-4d80-a2b3-d46f2aba9df1" x1="302.78452" y1="445.87754" x2="302.79389" y2="445.87753" xlink:href="#f60abe7c-0eeb-4e4e-85e1-dd7b3adae665"/><linearGradient id="76364140-a67a-4e7f-88fb-c84c358f4843" x1="824.75335" y1="711.31366" x2="832.32858" y2="711.31026" xlink:href="#f60abe7c-0eeb-4e4e-85e1-dd7b3adae665"/><linearGradient id="984aeefd-380c-478f-805e-c120d63e928e" x1="1296.26345" y1="714.17942" x2="1296.27281" y2="714.17942" gradientTransform="matrix(-1, 0, 0, 1, 1623.82831, -268.30264)" xlink:href="#f60abe7c-0eeb-4e4e-85e1-dd7b3adae665"/><linearGradient id="edb7eb7e-3d99-4683-809d-074ce13963e6" x1="1296.27153" y1="711.31291" x2="1303.84676" y2="711.3095" gradientTransform="matrix(-1, 0, 0, 1, 2145.78906, 0)" xlink:href="#f60abe7c-0eeb-4e4e-85e1-dd7b3adae665"/><linearGradient id="7929abe8-8ba9-4ddd-b443-2496a1749f1d" x1="1457.18081" y1="714.17942" x2="1457.19018" y2="714.17942" gradientTransform="matrix(-1, 0, 0, 1, 1773.82831, -268.30264)" xlink:href="#f60abe7c-0eeb-4e4e-85e1-dd7b3adae665"/><linearGradient id="dac8ad82-57df-4a7f-88b0-fdc943c36cef" x1="1457.18889" y1="711.31291" x2="1464.76412" y2="711.3095" gradientTransform="matrix(-1, 0, 0, 1, 2295.78906, 0)" xlink:href="#f60abe7c-0eeb-4e4e-85e1-dd7b3adae665"/><linearGradient id="154fd267-1765-468b-9e0e-eef5395c2528" x1="314.79364" y1="445.87754" x2="314.80301" y2="445.87753" xlink:href="#f60abe7c-0eeb-4e4e-85e1-dd7b3adae665"/><linearGradient id="9b39bd81-6634-4a1f-81ec-2fc2740d29e2" x1="836.76247" y1="711.31366" x2="844.3377" y2="711.31026" xlink:href="#f60abe7c-0eeb-4e4e-85e1-dd7b3adae665"/><linearGradient id="45c39fdf-0cb7-4838-b0fb-fb1d47abd33e" x1="318.88766" y1="445.87754" x2="318.89702" y2="445.87753" xlink:href="#f60abe7c-0eeb-4e4e-85e1-dd7b3adae665"/><linearGradient id="7e4cf696-733b-403a-b810-7e85829b6a7c" x1="840.85649" y1="711.31366" x2="848.43172" y2="711.31026" xlink:href="#f60abe7c-0eeb-4e4e-85e1-dd7b3adae665"/><linearGradient id="f95c7cf0-3dba-4287-acd7-574a079f5612" x1="823.69278" y1="714.90563" x2="823.70215" y2="714.90562" gradientTransform="translate(-516.75777 -270.98076) rotate(0.13564)" xlink:href="#f60abe7c-0eeb-4e4e-85e1-dd7b3adae665"/><linearGradient id="3d12b4bb-d4e8-4b24-9b30-7541fdc9f25d" x1="823.70086" y1="712.0407" x2="831.27608" y2="712.03729" gradientTransform="translate(5.20299 -2.67812) rotate(0.13564)" xlink:href="#f60abe7c-0eeb-4e4e-85e1-dd7b3adae665"/><linearGradient id="c168fba2-38ec-4ca3-a471-9c300578669d" x1="325.16515" y1="445.87754" x2="325.17452" y2="445.87753" xlink:href="#f60abe7c-0eeb-4e4e-85e1-dd7b3adae665"/><linearGradient id="3f8af43b-857c-4ab0-813e-2b9735ed7bf9" x1="847.13398" y1="711.31366" x2="854.70921" y2="711.31026" xlink:href="#f60abe7c-0eeb-4e4e-85e1-dd7b3adae665"/><linearGradient id="17120690-7645-44e4-a84e-679adcd00eb1" x1="328.44036" y1="445.87754" x2="328.44973" y2="445.87753" xlink:href="#f60abe7c-0eeb-4e4e-85e1-dd7b3adae665"/><linearGradient id="6a7b46b7-ef39-4aa2-8a66-dcad2c7c7e92" x1="850.4092" y1="711.31366" x2="857.98443" y2="711.31026" xlink:href="#f60abe7c-0eeb-4e4e-85e1-dd7b3adae665"/><linearGradient id="3b654455-b650-43db-b799-9717bad2e0de" x1="1270.60761" y1="714.17942" x2="1270.61698" y2="714.17942" gradientTransform="matrix(-1, 0, 0, 1, 1623.82831, -268.30264)" xlink:href="#f60abe7c-0eeb-4e4e-85e1-dd7b3adae665"/><linearGradient id="ea02d520-1246-43b8-ae4b-d3dd4dac0f5a" x1="1270.61569" y1="711.31291" x2="1278.19092" y2="711.3095" gradientTransform="matrix(-1, 0, 0, 1, 2145.78906, 0)" xlink:href="#f60abe7c-0eeb-4e4e-85e1-dd7b3adae665"/><linearGradient id="9f772051-be5d-4760-a0d7-d9e4e52a492a" x1="1431.52497" y1="714.17942" x2="1431.53434" y2="714.17942" gradientTransform="matrix(-1, 0, 0, 1, 1773.82831, -268.30264)" xlink:href="#f60abe7c-0eeb-4e4e-85e1-dd7b3adae665"/><linearGradient id="525d50ef-d10b-488e-a2ba-6f6695a4801f" x1="1431.53305" y1="711.31291" x2="1439.10828" y2="711.3095" gradientTransform="matrix(-1, 0, 0, 1, 2295.78906, 0)" xlink:href="#f60abe7c-0eeb-4e4e-85e1-dd7b3adae665"/><linearGradient id="f813fae5-4a88-43e5-b7c0-62015b39af91" x1="340.44948" y1="445.87754" x2="340.45885" y2="445.87753" xlink:href="#f60abe7c-0eeb-4e4e-85e1-dd7b3adae665"/><linearGradient id="f1253393-7a47-4a7d-8e66-4424b41de82a" x1="862.41831" y1="711.31366" x2="869.99354" y2="711.31026" xlink:href="#f60abe7c-0eeb-4e4e-85e1-dd7b3adae665"/><linearGradient id="9784627f-fea6-410f-a02d-235679b5e412" x1="344.5435" y1="445.87754" x2="344.55286" y2="445.87753" xlink:href="#f60abe7c-0eeb-4e4e-85e1-dd7b3adae665"/><linearGradient id="b0a66694-274f-45a6-80a1-522fc8ece1d6" x1="866.51233" y1="711.31366" x2="874.08756" y2="711.31026" xlink:href="#f60abe7c-0eeb-4e4e-85e1-dd7b3adae665"/><linearGradient id="8f42da5a-9468-49b3-9069-c9ccb4124a34" x1="849.3485" y1="714.84489" x2="849.35787" y2="714.84489" gradientTransform="translate(-516.75777 -270.98076) rotate(0.13564)" xlink:href="#f60abe7c-0eeb-4e4e-85e1-dd7b3adae665"/><linearGradient id="e83f0709-733b-440f-8a86-262c52081801" x1="849.35658" y1="711.97996" x2="856.9318" y2="711.97656" gradientTransform="translate(5.20299 -2.67812) rotate(0.13564)" xlink:href="#f60abe7c-0eeb-4e4e-85e1-dd7b3adae665"/><linearGradient id="595e39ce-4419-481e-8747-466d83cd6323" x1="350.82099" y1="445.87754" x2="350.83036" y2="445.87753" xlink:href="#f60abe7c-0eeb-4e4e-85e1-dd7b3adae665"/><linearGradient id="7baa28f7-2689-4110-88a9-a9603961804c" x1="872.78982" y1="711.31366" x2="880.36505" y2="711.31026" xlink:href="#f60abe7c-0eeb-4e4e-85e1-dd7b3adae665"/><linearGradient id="99913d10-0f9f-45db-8be2-39eff871d74c" x1="1324.10276" y1="714.17942" x2="1324.11213" y2="714.17942" gradientTransform="matrix(-1, 0, 0, 1, 1623.82831, -268.30264)" xlink:href="#f60abe7c-0eeb-4e4e-85e1-dd7b3adae665"/><linearGradient id="f7f59eef-2a87-4818-866b-b7a26564ccc2" x1="1324.11084" y1="711.31291" x2="1331.68607" y2="711.3095" gradientTransform="matrix(-1, 0, 0, 1, 2145.78906, 0)" xlink:href="#f60abe7c-0eeb-4e4e-85e1-dd7b3adae665"/><linearGradient id="93cc8ad0-d3dc-4f27-9621-582896629e6b" x1="1485.02013" y1="714.17942" x2="1485.02949" y2="714.17942" gradientTransform="matrix(-1, 0, 0, 1, 1773.82831, -268.30264)" xlink:href="#f60abe7c-0eeb-4e4e-85e1-dd7b3adae665"/><linearGradient id="5c843ff2-905f-43c3-b3d0-98377a2c2241" x1="1485.0282" y1="711.31291" x2="1492.60343" y2="711.3095" gradientTransform="matrix(-1, 0, 0, 1, 2295.78906, 0)" xlink:href="#f60abe7c-0eeb-4e4e-85e1-dd7b3adae665"/><linearGradient id="90d9c5ce-29db-40b0-b179-c8d981d3ffd0" x1="286.95432" y1="445.87754" x2="286.96369" y2="445.87753" xlink:href="#f60abe7c-0eeb-4e4e-85e1-dd7b3adae665"/><linearGradient id="5eb7944a-cc01-411a-9d5b-158670943747" x1="808.92315" y1="711.31366" x2="816.49838" y2="711.31026" xlink:href="#f60abe7c-0eeb-4e4e-85e1-dd7b3adae665"/><linearGradient id="f62ed6ee-83ab-4cc5-9cb8-1d05ca84b9c6" x1="291.04834" y1="445.87754" x2="291.0577" y2="445.87753" xlink:href="#f60abe7c-0eeb-4e4e-85e1-dd7b3adae665"/><linearGradient id="9056bf2b-04d5-4c5b-8d55-5b0e5bef9587" x1="813.01717" y1="711.31366" x2="820.5924" y2="711.31026" xlink:href="#f60abe7c-0eeb-4e4e-85e1-dd7b3adae665"/><linearGradient id="99ddaca1-2890-49b7-9312-b4caa9c1fe16" x1="297.32583" y1="445.87754" x2="297.3352" y2="445.87753" xlink:href="#f60abe7c-0eeb-4e4e-85e1-dd7b3adae665"/><linearGradient id="73bd517e-b0da-4214-8ef8-d6a556f45c37" x1="819.29466" y1="711.31366" x2="826.86989" y2="711.31026" xlink:href="#f60abe7c-0eeb-4e4e-85e1-dd7b3adae665"/><linearGradient id="067828fb-6650-449b-98aa-ceda4c7a76d4" x1="1250.68339" y1="714.17942" x2="1250.69276" y2="714.17942" gradientTransform="matrix(-1, 0, 0, 1, 1623.82831, -268.30264)" xlink:href="#f60abe7c-0eeb-4e4e-85e1-dd7b3adae665"/><linearGradient id="c0f40d87-c683-4000-a29b-427a97d3f3d8" x1="1250.69147" y1="711.31291" x2="1258.2667" y2="711.3095" gradientTransform="matrix(-1, 0, 0, 1, 2145.78906, 0)" xlink:href="#f60abe7c-0eeb-4e4e-85e1-dd7b3adae665"/><linearGradient id="97d34bea-8840-4bc5-ac59-db2c61791fa9" x1="1411.60076" y1="714.17942" x2="1411.61012" y2="714.17942" gradientTransform="matrix(-1, 0, 0, 1, 1773.82831, -268.30264)" xlink:href="#f60abe7c-0eeb-4e4e-85e1-dd7b3adae665"/><linearGradient id="e66760c8-1b20-4d8e-87ba-16276a0882d3" x1="1411.60883" y1="711.31291" x2="1419.18406" y2="711.3095" gradientTransform="matrix(-1, 0, 0, 1, 2295.78906, 0)" xlink:href="#f60abe7c-0eeb-4e4e-85e1-dd7b3adae665"/><linearGradient id="fa621a09-ea3a-4d8c-9772-ccf8392bed17" x1="360.3737" y1="445.87754" x2="360.38306" y2="445.87753" xlink:href="#f60abe7c-0eeb-4e4e-85e1-dd7b3adae665"/><linearGradient id="99d4be6a-a11e-4353-9336-596a1b8c9604" x1="882.34253" y1="711.31366" x2="889.91776" y2="711.31026" xlink:href="#f60abe7c-0eeb-4e4e-85e1-dd7b3adae665"/><linearGradient id="6d884aa4-ac02-4ed8-86ec-88aa7142f40a" x1="364.46772" y1="445.87754" x2="364.47708" y2="445.87753" xlink:href="#f60abe7c-0eeb-4e4e-85e1-dd7b3adae665"/><linearGradient id="a61d6004-60a2-4575-a256-6ae60adba2a4" x1="886.43655" y1="711.31366" x2="894.01178" y2="711.31026" xlink:href="#f60abe7c-0eeb-4e4e-85e1-dd7b3adae665"/><linearGradient id="bbdc8675-10a6-48d3-ba48-370281fa1c27" x1="370.74521" y1="445.87754" x2="370.75458" y2="445.87753" xlink:href="#f60abe7c-0eeb-4e4e-85e1-dd7b3adae665"/><linearGradient id="e21520ca-cac0-4dbf-a216-81960c95779e" x1="892.71404" y1="711.31366" x2="900.28927" y2="711.31026" xlink:href="#f60abe7c-0eeb-4e4e-85e1-dd7b3adae665"/><linearGradient id="968bf4f4-4a8a-4369-b6bb-82034c6b8d38" x1="1350.03154" y1="714.17942" x2="1350.0409" y2="714.17942" gradientTransform="matrix(-1, 0, 0, 1, 1623.82831, -268.30264)" xlink:href="#f60abe7c-0eeb-4e4e-85e1-dd7b3adae665"/><linearGradient id="168d4479-79cb-42da-9a12-dcbed8322d5f" x1="1350.03961" y1="711.31291" x2="1357.61484" y2="711.3095" gradientTransform="matrix(-1, 0, 0, 1, 2145.78906, 0)" xlink:href="#f60abe7c-0eeb-4e4e-85e1-dd7b3adae665"/><linearGradient id="a60f8d4d-3d6b-4839-9830-d585795fa963" x1="1510.9489" y1="714.17942" x2="1510.95827" y2="714.17942" gradientTransform="matrix(-1, 0, 0, 1, 1773.82831, -268.30264)" xlink:href="#f60abe7c-0eeb-4e4e-85e1-dd7b3adae665"/><linearGradient id="b3661a42-8699-4303-8495-989d546522a1" x1="1510.95698" y1="711.31291" x2="1518.53221" y2="711.3095" gradientTransform="matrix(-1, 0, 0, 1, 2295.78906, 0)" xlink:href="#f60abe7c-0eeb-4e4e-85e1-dd7b3adae665"/><linearGradient id="9a25ae58-9896-4bff-8d2f-e8238c602cbf" x1="261.02555" y1="445.87754" x2="261.03491" y2="445.87753" xlink:href="#f60abe7c-0eeb-4e4e-85e1-dd7b3adae665"/><linearGradient id="16470ab4-4c98-4f17-a3a8-be69b00f9653" x1="782.99438" y1="711.31366" x2="790.56961" y2="711.31026" xlink:href="#f60abe7c-0eeb-4e4e-85e1-dd7b3adae665"/><linearGradient id="99993972-5bd8-4694-ada1-3b2179842f94" x1="265.11956" y1="445.87754" x2="265.12893" y2="445.87753" xlink:href="#f60abe7c-0eeb-4e4e-85e1-dd7b3adae665"/><linearGradient id="f0ef1640-2825-445f-b5b7-f277b471132c" x1="787.08839" y1="711.31366" x2="794.66362" y2="711.31026" xlink:href="#f60abe7c-0eeb-4e4e-85e1-dd7b3adae665"/><linearGradient id="342eea80-7942-4112-996b-0d2977d80649" x1="271.39706" y1="445.87754" x2="271.40642" y2="445.87753" xlink:href="#f60abe7c-0eeb-4e4e-85e1-dd7b3adae665"/><linearGradient id="71337b20-a274-4572-bf80-30ae44b21581" x1="793.36589" y1="711.31366" x2="800.94112" y2="711.31026" xlink:href="#f60abe7c-0eeb-4e4e-85e1-dd7b3adae665"/><linearGradient id="274172e9-cddf-4950-8df6-cd501e34d6f5" x1="1374.86857" y1="714.17942" x2="1374.87794" y2="714.17942" gradientTransform="matrix(-1, 0, 0, 1, 1623.82831, -268.30264)" xlink:href="#f60abe7c-0eeb-4e4e-85e1-dd7b3adae665"/><linearGradient id="9100cac0-1d51-4817-be94-6fec85a8277c" x1="1374.87665" y1="711.31291" x2="1382.45188" y2="711.3095" gradientTransform="matrix(-1, 0, 0, 1, 2145.78906, 0)" xlink:href="#f60abe7c-0eeb-4e4e-85e1-dd7b3adae665"/><linearGradient id="7d5ffa32-2e9c-476a-8530-86136b8e733f" x1="1535.78594" y1="714.17942" x2="1535.7953" y2="714.17942" gradientTransform="matrix(-1, 0, 0, 1, 1773.82831, -268.30264)" xlink:href="#f60abe7c-0eeb-4e4e-85e1-dd7b3adae665"/><linearGradient id="589848b6-dd57-47bf-89ef-797d7ff5ec6b" x1="1535.79401" y1="711.31291" x2="1543.36924" y2="711.3095" gradientTransform="matrix(-1, 0, 0, 1, 2295.78906, 0)" xlink:href="#f60abe7c-0eeb-4e4e-85e1-dd7b3adae665"/><linearGradient id="d4e10faf-b829-4845-bd1a-e42d16db42b2" x1="236.18851" y1="445.87754" x2="236.19787" y2="445.87753" xlink:href="#f60abe7c-0eeb-4e4e-85e1-dd7b3adae665"/><linearGradient id="4086378f-c450-4905-bb31-aeca50d09c2c" x1="758.15734" y1="711.31366" x2="765.73257" y2="711.31026" xlink:href="#f60abe7c-0eeb-4e4e-85e1-dd7b3adae665"/><linearGradient id="f1b2e347-ae3a-4969-952c-108406c6ceeb" x1="240.28252" y1="445.87754" x2="240.29189" y2="445.87753" xlink:href="#f60abe7c-0eeb-4e4e-85e1-dd7b3adae665"/><linearGradient id="866ec5e2-b954-44c8-ba1c-1aacf0fd8822" x1="762.25136" y1="711.31366" x2="769.82659" y2="711.31026" xlink:href="#f60abe7c-0eeb-4e4e-85e1-dd7b3adae665"/><linearGradient id="c13dfc1b-6014-4ae1-9e1c-89ef801dc92d" x1="246.56002" y1="445.87754" x2="246.56938" y2="445.87753" xlink:href="#f60abe7c-0eeb-4e4e-85e1-dd7b3adae665"/><linearGradient id="96cfce14-e2be-4b69-84d2-7c75c277c722" x1="768.52885" y1="711.31366" x2="776.10408" y2="711.31026" xlink:href="#f60abe7c-0eeb-4e4e-85e1-dd7b3adae665"/><linearGradient id="9221dfbe-b5ed-4142-b92a-a29c3b649682" x1="230.25461" y1="445.62778" x2="230.26397" y2="445.62777" xlink:href="#f60abe7c-0eeb-4e4e-85e1-dd7b3adae665"/><linearGradient id="3c3120d6-fdca-4d6d-a2c9-c7f689cce6ed" x1="752.22344" y1="711.0639" x2="759.79867" y2="711.06049" xlink:href="#f60abe7c-0eeb-4e4e-85e1-dd7b3adae665"/><linearGradient id="ab089216-b8cc-487c-ad70-cd51f1d838d5" x1="234.34863" y1="445.62778" x2="234.35799" y2="445.62777" xlink:href="#f60abe7c-0eeb-4e4e-85e1-dd7b3adae665"/><linearGradient id="b0221086-5ae3-4d11-b1a9-89b4ffe940d9" x1="756.31746" y1="711.0639" x2="763.89269" y2="711.06049" xlink:href="#f60abe7c-0eeb-4e4e-85e1-dd7b3adae665"/><linearGradient id="f10e9f3d-de50-414e-bcf4-bc528c8c66b3" x1="315.13724" y1="445.62778" x2="315.1466" y2="445.62777" xlink:href="#f60abe7c-0eeb-4e4e-85e1-dd7b3adae665"/><linearGradient id="b5952b10-e038-43b7-a430-9a8ea859fcd3" x1="837.10607" y1="711.0639" x2="844.6813" y2="711.06049" xlink:href="#f60abe7c-0eeb-4e4e-85e1-dd7b3adae665"/><linearGradient id="75f50668-4108-4d8d-a84b-01b9cb0c791f" x1="319.23125" y1="445.62778" x2="319.24062" y2="445.62777" xlink:href="#f60abe7c-0eeb-4e4e-85e1-dd7b3adae665"/><linearGradient id="8e695274-05b1-4e12-879d-e27914935fa8" x1="841.20008" y1="711.0639" x2="848.77531" y2="711.06049" xlink:href="#f60abe7c-0eeb-4e4e-85e1-dd7b3adae665"/><linearGradient id="310c2d02-d118-4527-a7c1-d8242661c8ea" x1="824.03578" y1="714.65505" x2="824.04515" y2="714.65505" gradientTransform="translate(-516.75777 -270.98076) rotate(0.13564)" xlink:href="#f60abe7c-0eeb-4e4e-85e1-dd7b3adae665"/><linearGradient id="c2b25464-418c-4add-8abb-da7913abd710" x1="824.04386" y1="711.79012" x2="831.61908" y2="711.78672" gradientTransform="translate(5.20299 -2.67812) rotate(0.13564)" xlink:href="#f60abe7c-0eeb-4e4e-85e1-dd7b3adae665"/><linearGradient id="4ac0a1d3-8b3a-4275-8118-bd56b3b60bb7" x1="325.50875" y1="445.62778" x2="325.51811" y2="445.62777" xlink:href="#f60abe7c-0eeb-4e4e-85e1-dd7b3adae665"/><linearGradient id="e573dcef-3a3f-4670-85b6-e529d5328cd9" x1="847.47758" y1="711.0639" x2="855.05281" y2="711.06049" xlink:href="#f60abe7c-0eeb-4e4e-85e1-dd7b3adae665"/><linearGradient id="18e1a0e2-b60a-4726-9d35-64a2a4c4f477" x1="340.79308" y1="445.62778" x2="340.80244" y2="445.62777" xlink:href="#f60abe7c-0eeb-4e4e-85e1-dd7b3adae665"/><linearGradient id="c365b7c7-112b-431e-aff2-89db832e4c71" x1="862.76191" y1="711.0639" x2="870.33714" y2="711.06049" xlink:href="#f60abe7c-0eeb-4e4e-85e1-dd7b3adae665"/><linearGradient id="9cfb0d2a-de86-499e-80e0-7044e0ae0bef" x1="344.88709" y1="445.62778" x2="344.89646" y2="445.62777" xlink:href="#f60abe7c-0eeb-4e4e-85e1-dd7b3adae665"/><linearGradient id="bac3913e-3d92-45e2-af91-a30b11380d23" x1="866.85593" y1="711.0639" x2="874.43116" y2="711.06049" xlink:href="#f60abe7c-0eeb-4e4e-85e1-dd7b3adae665"/><linearGradient id="436bc370-75c5-48b3-a453-da7872e6c764" x1="849.69151" y1="714.59432" x2="849.70087" y2="714.59431" gradientTransform="translate(-516.75777 -270.98076) rotate(0.13564)" xlink:href="#f60abe7c-0eeb-4e4e-85e1-dd7b3adae665"/><linearGradient id="18c217d7-9225-446d-bfb5-e8ff78f0ad4d" x1="849.69958" y1="711.72939" x2="857.2748" y2="711.72598" gradientTransform="translate(5.20299 -2.67812) rotate(0.13564)" xlink:href="#f60abe7c-0eeb-4e4e-85e1-dd7b3adae665"/><linearGradient id="8dd360d6-3cce-4507-981a-28407d00b139" x1="351.16459" y1="445.62778" x2="351.17395" y2="445.62777" xlink:href="#f60abe7c-0eeb-4e4e-85e1-dd7b3adae665"/><linearGradient id="a8c64509-0b82-4970-a528-44981e0f9358" x1="873.13342" y1="711.0639" x2="880.70865" y2="711.06049" xlink:href="#f60abe7c-0eeb-4e4e-85e1-dd7b3adae665"/><linearGradient id="d871d3b4-db00-4ea0-b138-e8d780866d1b" x1="1484.67653" y1="713.92966" x2="1484.6859" y2="713.92966" gradientTransform="matrix(-1, 0, 0, 1, 1773.82831, -268.30264)" xlink:href="#f60abe7c-0eeb-4e4e-85e1-dd7b3adae665"/><linearGradient id="426409b4-1af9-4884-8a19-8870ecbc9ebe" x1="1484.68461" y1="711.06314" x2="1492.25984" y2="711.05974" gradientTransform="matrix(-1, 0, 0, 1, 2295.78906, 0)" xlink:href="#f60abe7c-0eeb-4e4e-85e1-dd7b3adae665"/><linearGradient id="f431f5d7-fe7a-43d6-9b7d-187556695623" x1="287.29792" y1="445.62778" x2="287.30728" y2="445.62777" xlink:href="#f60abe7c-0eeb-4e4e-85e1-dd7b3adae665"/><linearGradient id="da8a5f2d-fcdf-46ca-85a6-3a0ef8d392fe" x1="809.26675" y1="711.0639" x2="816.84198" y2="711.06049" xlink:href="#f60abe7c-0eeb-4e4e-85e1-dd7b3adae665"/><linearGradient id="cc8af4c6-1557-4a3f-bf19-2e5733c5a710" x1="291.39193" y1="445.62778" x2="291.4013" y2="445.62777" xlink:href="#f60abe7c-0eeb-4e4e-85e1-dd7b3adae665"/><linearGradient id="1c9be960-0a8d-4046-8cd4-5a676f4ce9b4" x1="813.36077" y1="711.0639" x2="820.936" y2="711.06049" xlink:href="#f60abe7c-0eeb-4e4e-85e1-dd7b3adae665"/><linearGradient id="f11f3cb4-1519-4af6-94b2-18b9512da9b4" x1="297.66943" y1="445.62778" x2="297.67879" y2="445.62777" xlink:href="#f60abe7c-0eeb-4e4e-85e1-dd7b3adae665"/><linearGradient id="c8570c2b-694f-41b4-93a1-4cb1c1a61d37" x1="819.63826" y1="711.0639" x2="827.21349" y2="711.06049" xlink:href="#f60abe7c-0eeb-4e4e-85e1-dd7b3adae665"/><linearGradient id="abb09685-8ef6-4382-af4f-653efcdd66a2" x1="1411.25716" y1="713.92966" x2="1411.26653" y2="713.92966" gradientTransform="matrix(-1, 0, 0, 1, 1773.82831, -268.30264)" xlink:href="#f60abe7c-0eeb-4e4e-85e1-dd7b3adae665"/><linearGradient id="c69c9f4d-2ce7-4a54-b5a1-2f5ddb00950c" x1="1411.26524" y1="711.06314" x2="1418.84047" y2="711.05974" gradientTransform="matrix(-1, 0, 0, 1, 2295.78906, 0)" xlink:href="#f60abe7c-0eeb-4e4e-85e1-dd7b3adae665"/><linearGradient id="b4a9d121-9fb2-4d23-ac10-d6815ad3b4df" x1="360.71729" y1="445.62778" x2="360.72666" y2="445.62777" xlink:href="#f60abe7c-0eeb-4e4e-85e1-dd7b3adae665"/><linearGradient id="0cd417d1-907f-4ce3-85b2-a70a94508566" x1="882.68613" y1="711.0639" x2="890.26136" y2="711.06049" xlink:href="#f60abe7c-0eeb-4e4e-85e1-dd7b3adae665"/><linearGradient id="0f9e83a2-6b37-432f-b066-f5dc30f1acd8" x1="364.81131" y1="445.62778" x2="364.82068" y2="445.62777" xlink:href="#f60abe7c-0eeb-4e4e-85e1-dd7b3adae665"/><linearGradient id="491fca55-eff5-4067-9ebb-05ab2fc06e6b" x1="886.78014" y1="711.0639" x2="894.35537" y2="711.06049" xlink:href="#f60abe7c-0eeb-4e4e-85e1-dd7b3adae665"/><linearGradient id="dacd3f4f-ce17-48e1-84bf-eb6cd21f825a" x1="371.08881" y1="445.62778" x2="371.09817" y2="445.62777" xlink:href="#f60abe7c-0eeb-4e4e-85e1-dd7b3adae665"/><linearGradient id="e16a91be-9c0b-4d1e-ad36-da0d6226bdf0" x1="893.05764" y1="711.0639" x2="900.63287" y2="711.06049" xlink:href="#f60abe7c-0eeb-4e4e-85e1-dd7b3adae665"/><linearGradient id="6a3b7401-956b-40be-8ee0-9d69d316acda" x1="261.36914" y1="445.62778" x2="261.37851" y2="445.62777" xlink:href="#f60abe7c-0eeb-4e4e-85e1-dd7b3adae665"/><linearGradient id="c1339acb-c0f9-4f2e-b5ce-ec87f266d877" x1="783.33797" y1="711.0639" x2="790.9132" y2="711.06049" xlink:href="#f60abe7c-0eeb-4e4e-85e1-dd7b3adae665"/><linearGradient id="a96b3821-7e37-4321-8525-24e6d25e79a2" x1="265.46316" y1="445.62778" x2="265.47252" y2="445.62777" xlink:href="#f60abe7c-0eeb-4e4e-85e1-dd7b3adae665"/><linearGradient id="d23c0df5-84aa-45ff-b00e-3ef0e9702f10" x1="787.43199" y1="711.0639" x2="795.00722" y2="711.06049" xlink:href="#f60abe7c-0eeb-4e4e-85e1-dd7b3adae665"/><linearGradient id="38659a30-f4f5-4e77-a3ff-07965bd4acfd" x1="271.74065" y1="445.62778" x2="271.75002" y2="445.62777" xlink:href="#f60abe7c-0eeb-4e4e-85e1-dd7b3adae665"/><linearGradient id="ba497b05-f4e8-4588-9e41-4229cc93b35e" x1="793.70948" y1="711.0639" x2="801.28471" y2="711.06049" xlink:href="#f60abe7c-0eeb-4e4e-85e1-dd7b3adae665"/><linearGradient id="e8f15d32-a8fe-4dd0-920c-a38d4c882a44" x1="240.62612" y1="445.62778" x2="240.63549" y2="445.62777" xlink:href="#f60abe7c-0eeb-4e4e-85e1-dd7b3adae665"/><linearGradient id="39f1f1d0-9076-4746-9778-53d545dfe88f" x1="762.59495" y1="711.0639" x2="770.17018" y2="711.06049" xlink:href="#f60abe7c-0eeb-4e4e-85e1-dd7b3adae665"/><linearGradient id="844c95a8-cca4-4206-a64f-6e09ba2003a5" x1="1521.79562" y1="713.92966" x2="1521.80498" y2="713.92966" gradientTransform="matrix(-1, 0, 0, 1, 1773.82831, -268.30264)" xlink:href="#f60abe7c-0eeb-4e4e-85e1-dd7b3adae665"/><linearGradient id="c70d2b6a-e9fc-4058-b6f6-fb2e6aa55302" x1="1521.8037" y1="711.06314" x2="1529.37893" y2="711.05974" gradientTransform="matrix(-1, 0, 0, 1, 2295.78906, 0)" xlink:href="#f60abe7c-0eeb-4e4e-85e1-dd7b3adae665"/><linearGradient id="a87ce228-9b79-4e0a-8771-291b6bd1731b" x1="250.17883" y1="445.62778" x2="250.18819" y2="445.62777" xlink:href="#f60abe7c-0eeb-4e4e-85e1-dd7b3adae665"/><linearGradient id="3abbda91-ecd7-4a86-aa86-dec76ceca505" x1="772.14766" y1="711.0639" x2="779.72289" y2="711.06049" xlink:href="#f60abe7c-0eeb-4e4e-85e1-dd7b3adae665"/><linearGradient id="576f37e9-9671-4eea-a1aa-53e0e14ca64a" x1="254.27284" y1="445.62778" x2="254.28221" y2="445.62777" xlink:href="#f60abe7c-0eeb-4e4e-85e1-dd7b3adae665"/><linearGradient id="2158ec90-7a80-42c1-a14e-104f5231b99f" x1="776.24168" y1="711.0639" x2="783.81691" y2="711.06049" xlink:href="#f60abe7c-0eeb-4e4e-85e1-dd7b3adae665"/><linearGradient id="febecfb9-e4d6-46de-8780-67439c3500ef" x1="260.55034" y1="445.62778" x2="260.5597" y2="445.62777" xlink:href="#f60abe7c-0eeb-4e4e-85e1-dd7b3adae665"/><linearGradient id="04929d42-7559-466b-b90c-cbada377cdf7" x1="782.51917" y1="711.0639" x2="790.0944" y2="711.06049" xlink:href="#f60abe7c-0eeb-4e4e-85e1-dd7b3adae665"/><linearGradient id="46468d77-370f-4c35-911b-87ab62415942" x1="1002.86895" y1="1308.90397" x2="1067.84236" y2="1346.41638" gradientTransform="matrix(0.74445, 0.66768, -0.51111, 0.56988, 1104.21415, -936.21782)" gradientUnits="userSpaceOnUse"><stop offset="0" stop-color="#d26ca3"/><stop offset="1" stop-color="#4f1974"/></linearGradient><linearGradient id="b465496d-09b9-4ab0-83ed-9db93fb66ea1" x1="3250.53424" y1="862.59366" x2="3314.39056" y2="899.46112" gradientTransform="matrix(-0.65326, -0.75714, 0.52734, -0.45499, 2822.53351, 3409.84431)" xlink:href="#46468d77-370f-4c35-911b-87ab62415942"/><linearGradient id="c1c669f8-8f0f-47fe-836b-7a04127c13cf" x1="678.27849" y1="742.97779" x2="744.4698" y2="781.19336" gradientTransform="matrix(0.49256, 0.29438, -0.26437, 0.44235, 1045.13292, -68.87312)" xlink:href="#46468d77-370f-4c35-911b-87ab62415942"/><linearGradient id="bf34d9c0-2552-47c6-bf2a-dffa612d923e" x1="1382.13147" y1="1866.24821" x2="1447.72415" y2="1904.11816" gradientTransform="matrix(0.85838, -0.51302, -0.39272, -0.65709, 723.409, 2484.16499)" xlink:href="#46468d77-370f-4c35-911b-87ab62415942"/><linearGradient id="53b5ccea-bf02-41c4-b5e0-e220adfea209" x1="988.75009" y1="700.58225" x2="1115.80197" y2="773.93568" gradientTransform="translate(184.13183 -211.89341) rotate(6.14767)" xlink:href="#46468d77-370f-4c35-911b-87ab62415942"/><linearGradient id="deaff4ae-22e3-4a31-a995-255a123d54b6" x1="1153.84854" y1="460.57923" x2="1209.35583" y2="492.62638" gradientTransform="matrix(1, 0, 0, 1, 0, 0)" xlink:href="#46468d77-370f-4c35-911b-87ab62415942"/><linearGradient id="b6381c73-243c-4578-95de-52081fcdc20e" x1="2570.95409" y1="-233.49259" x2="2636.56062" y2="-195.61464" gradientTransform="matrix(-0.80411, 0.36184, 0.27469, 0.61517, 3298.74953, -315.51278)" xlink:href="#46468d77-370f-4c35-911b-87ab62415942"/><linearGradient id="f91bf34b-7f19-4eda-be04-a6689e98c185" x1="1092.42787" y1="807.95706" x2="1105.84239" y2="815.70194" gradientTransform="matrix(0.95445, 0.29837, -0.22841, 0.73064, 312.73528, -388.71777)" xlink:href="#46468d77-370f-4c35-911b-87ab62415942"/><linearGradient id="f2f2bb52-a3bf-40d2-a96a-7dbf7e870a36" x1="972.84933" y1="73.02402" x2="986.1001" y2="80.67436" gradientTransform="matrix(0.57032, 0.06334, -0.05688, 0.51218, 619.05255, 424.88357)" xlink:href="#46468d77-370f-4c35-911b-87ab62415942"/><linearGradient id="dae3e38d-92a7-44c9-8358-e1a0af9f572f" x1="1806.74784" y1="1962.6164" x2="1819.75289" y2="1970.12487" gradientTransform="matrix(0.56795, -0.82307, -0.63006, -0.43477, 1386.22215, 2881.09216)" xlink:href="#46468d77-370f-4c35-911b-87ab62415942"/><linearGradient id="fef01045-e672-4c40-9b45-52cf8e7fca3d" x1="1499.38937" y1="250.39643" x2="1509.89524" y2="256.462" gradientTransform="matrix(0.90976, -0.41514, 0.41514, 0.90976, -303.17461, 921.41493)" xlink:href="#46468d77-370f-4c35-911b-87ab62415942"/><linearGradient id="695ff5b1-8bc6-4e6f-8bb1-1fd37d954eb9" x1="2123.89255" y1="-325.78794" x2="2137.07972" y2="-318.17432" gradientTransform="matrix(-0.58133, 0.663, 0.50529, 0.44562, 2566.91099, -735.05887)" xlink:href="#46468d77-370f-4c35-911b-87ab62415942"/><linearGradient id="31b68211-486b-4255-999b-2464a0e8b931" x1="892" y1="673" x2="892" y2="673" gradientUnits="userSpaceOnUse"><stop offset="0" stop-color="#b76eff"/><stop offset="0.07808" stop-color="#a579f8"/><stop offset="0.23561" stop-color="#7496e7"/><stop offset="0.45619" stop-color="#28c4cc"/><stop offset="0.5639" stop-color="#00dcbe"/><stop offset="0.73862" stop-color="#00dcbe"/><stop offset="1" stop-color="#00dcbe"/></linearGradient></defs><title>house</title><rect x="758.92508" y="327.36244" width="3.77059" height="313.46526" transform="translate(-245.24545 976.60281) rotate(-90)" style="fill:#b76eff"/><rect x="395.58225" y="178.0111" width="78.87807" height="213.86802" style="fill:#8000ff"/><rect x="533.96004" y="178.0111" width="19.92422" height="344.783" style="fill:#8000ff"/><rect x="554.02072" y="176.50286" width="3.41168" height="346.44206" style="fill:#b76eff"/><rect x="394.76345" y="176.50286" width="159.39374" height="1.50824" style="fill:#b76eff"/><polygon points="533.96 522.794 533.96 260.964 474.46 260.964 474.46 370.161 474.46 522.794 533.96 522.794" style="fill:#ffbdff"/><polygon points="533.96 522.794 533.96 260.964 474.46 260.964 474.46 370.161 474.46 522.794 533.96 522.794" style="fill:#8000dd;opacity:0.15"/><polygon points="554.157 178.011 533.96 260.964 474.46 260.964 394.763 178.011 554.157 178.011" style="fill:#8000dd"/><rect x="743.71505" y="617.26878" width="346.29124" height="1.36467" transform="translate(1012.85103 -567.21219) rotate(90)" style="fill:#b76eff"/><polygon points="81.981 217.527 173.414 368.351 394.218 368.351 394.218 217.678 81.981 217.527" style="fill:#8000dd"/><polygon points="163.315 237.737 255.108 326.12 256.113 445.572 185.761 445.572 163.315 445.572 163.315 237.737" style="fill:url(#f60abe7c-0eeb-4e4e-85e1-dd7b3adae665)"/><polygon points="394.218 456.733 394.218 327.025 227.182 327.025 227.182 381.12 227.182 456.733 394.218 456.733" style="fill:#ffc4ff;opacity:0.9"/><polygon points="138.189 445.622 337.159 445.523 337.19 522.745 256.892 522.785 138.189 445.622" style="fill:url(#f60abe7c-0eeb-4e4e-85e1-dd7b3adae665)"/><rect x="127.01471" y="237.73728" width="36.30029" height="195.16588" style="fill:url(#c8f67a41-fa85-4589-8f71-a9c404641d54)"/><polygon points="127.015 432.903 163.315 432.903 181.602 445.572 138.205 445.572 127.015 432.903" style="fill:#9338a3"/><rect x="201.25289" y="283.28604" width="193.23762" height="1.50824" style="fill:#b76eff"/><rect x="201.25289" y="301.83736" width="193.23762" height="3.01647" style="fill:#b76eff"/><rect x="641.53898" y="632.20033" width="161.98466" height="1.36467" transform="translate(833.45322 -357.95129) rotate(90)" style="fill:#b76eff"/><rect x="664.8749" y="631.51801" width="161.98466" height="2.72934" transform="translate(-408.97594 1110.4475) rotate(-90.00002)" style="fill:#b76eff"/><polygon points="138.205 445.572 138.205 522.794 310.7 522.794 138.205 445.572" style="fill:url(#6c3448d9-0b35-40bc-87a3-888a4a31ef58)"/><polygon points="163.315 237.737 163.315 271.689 127.015 254.713 127.015 237.737 163.315 237.737" style="fill:#9338a3"/><polygon points="474.46 335.32 520.313 335.169 520.313 522.945 474.46 522.794 474.46 335.32" style="fill:#ffd4ff"/><polygon points="520.313 335.169 533.96 317.373 533.96 522.794 520.313 522.794 520.313 335.169" style="fill:#e8b4e9"/><polygon points="488.71 522.794 488.653 343.314 377.296 343.314 377.296 445.674 337.174 445.674 337.174 522.794 488.71 522.794" style="fill:url(#f497c3bf-bd75-464e-96ad-6e3987c8b3c4)"/><polygon points="488.71 359.849 533.96 398.086 533.96 522.794 488.653 522.794 488.71 359.849" style="opacity:0.1"/><polygon points="163.315 237.737 163.315 271.689 127.015 254.713 127.015 237.737 163.315 237.737" style="opacity:0.1"/><path d="M747.0132,680.33218a55.4692,55.4692,0,0,0-8.08492,8.54218c-2.47571,3.23756-4.04755,3.44931-4.43447-1.22864a24.96663,24.96663,0,0,0-3.04042-10.08083,14.92322,14.92322,0,0,0-4.11351,5.9299c-2.94864,7.82054,1.68585,15.47363,2.14618,16.2084a25.41687,25.41687,0,0,0-4.65006-13.24345,21.51148,21.51148,0,0,0-9.65781-7.51121c.83124,4.13226,1.832,8.49446,3.04042,13.04579,1.13472,4.27379,2.34155,8.29621,3.577,12.05746a43.2134,43.2134,0,0,0-5.5443-7.51121,39.92677,39.92677,0,0,0-13.23478-9.48784,106.64029,106.64029,0,0,0,7.15393,13.63877,101.14,101.14,0,0,0,16.6329,20.35933h6.97509A99.65983,99.65983,0,0,0,754.346,700.09851a104.34519,104.34519,0,0,0,6.25969-9.6855,60.92593,60.92593,0,0,0-11.26744,4.34859c-7.10151,3.58038-11.08571,8.45556-11.804,7.70887-.37267-.38741.17468-2.208,4.65006-8.89485Z" transform="translate(-521.96075 -268.30264)" style="fill:url(#ca5337cd-994c-45e5-8f32-515eb9b6b263)"/><path d="M749.87477,667.08873a116.00746,116.00746,0,0,1-6.08084,13.83644,111.22415,111.22415,0,0,1-11.98284,18.38269l.71539.593Z" transform="translate(-521.96075 -268.30264)" style="fill:url(#e7b147ec-46df-499f-a954-d71cb8bfbdf0)"/><ellipse cx="227.64574" cy="398.4896" rx="0.08942" ry="0.09883" style="fill:#f2f2f2"/><ellipse cx="227.64574" cy="398.00642" rx="0.14904" ry="0.14276" style="fill:#f2f2f2"/><ellipse cx="227.64574" cy="398.29193" rx="0.14904" ry="0.14276" style="fill:#f2f2f2"/><ellipse cx="227.34766" cy="397.72091" rx="0.14904" ry="0.14276" style="fill:#f2f2f2"/><ellipse cx="227.64574" cy="398.68726" rx="0.08942" ry="0.09883" style="fill:#f2f2f2"/><ellipse cx="227.94382" cy="397.72091" rx="0.14904" ry="0.14276" style="fill:#f2f2f2"/><ellipse cx="227.82459" cy="398.68726" rx="0.08942" ry="0.09883" style="fill:#f2f2f2"/><ellipse cx="227.34766" cy="398.00642" rx="0.14904" ry="0.14276" style="fill:#f2f2f2"/><ellipse cx="227.82459" cy="398.88492" rx="0.08942" ry="0.09883" style="fill:#f2f2f2"/><ellipse cx="227.64574" cy="398.88492" rx="0.08942" ry="0.09883" style="fill:#f2f2f2"/><ellipse cx="227.64574" cy="397.43539" rx="0.14904" ry="0.14276" style="fill:#f2f2f2"/><ellipse cx="227.82459" cy="398.4896" rx="0.08942" ry="0.09883" style="fill:#f2f2f2"/><ellipse cx="227.82459" cy="398.88492" rx="0.08942" ry="0.09883" style="fill:#f2f2f2"/><ellipse cx="227.94382" cy="398.57745" rx="0.14904" ry="0.14276" style="fill:#f2f2f2"/><ellipse cx="227.94382" cy="398.86296" rx="0.14904" ry="0.14276" style="fill:#f2f2f2"/><ellipse cx="227.64574" cy="398.29193" rx="0.14904" ry="0.14276" style="fill:#f2f2f2"/><ellipse cx="227.82459" cy="399.08259" rx="0.08942" ry="0.09883" style="fill:#f2f2f2"/><ellipse cx="228.24191" cy="398.29193" rx="0.14904" ry="0.14276" style="fill:#f2f2f2"/><ellipse cx="227.34766" cy="398.86296" rx="0.14904" ry="0.14276" style="fill:#f2f2f2"/><ellipse cx="227.64574" cy="398.57745" rx="0.14904" ry="0.14276" style="fill:#f2f2f2"/><ellipse cx="227.34766" cy="399.14847" rx="0.14904" ry="0.14276" style="fill:#f2f2f2"/><ellipse cx="227.82459" cy="399.28025" rx="0.08942" ry="0.09883" style="fill:#f2f2f2"/><ellipse cx="227.94382" cy="398.00642" rx="0.14904" ry="0.14276" style="fill:#f2f2f2"/><ellipse cx="227.34766" cy="398.57745" rx="0.14904" ry="0.14276" style="fill:#f2f2f2"/><ellipse cx="227.34766" cy="399.43399" rx="0.14904" ry="0.14276" style="fill:#f2f2f2"/><ellipse cx="228.24191" cy="399.43399" rx="0.14904" ry="0.14276" style="fill:#f2f2f2"/><ellipse cx="227.94382" cy="399.14847" rx="0.14904" ry="0.14276" style="fill:#f2f2f2"/><ellipse cx="228.53999" cy="399.14847" rx="0.14904" ry="0.14276" style="fill:#f2f2f2"/><ellipse cx="227.94383" cy="399.43399" rx="0.14904" ry="0.14276" style="fill:#f2f2f2"/><ellipse cx="228.24191" cy="398.86296" rx="0.14904" ry="0.14276" style="fill:#f2f2f2"/><ellipse cx="227.64574" cy="399.43399" rx="0.14904" ry="0.14276" style="fill:#f2f2f2"/><ellipse cx="228.53999" cy="399.43399" rx="0.14904" ry="0.14276" style="fill:#f2f2f2"/><ellipse cx="227.94382" cy="397.72091" rx="0.14904" ry="0.14276" style="fill:#f2f2f2"/><ellipse cx="227.94382" cy="398.00642" rx="0.14904" ry="0.14276" style="fill:#f2f2f2"/><ellipse cx="228.24191" cy="397.43539" rx="0.14904" ry="0.14276" style="fill:#f2f2f2"/><ellipse cx="227.94382" cy="397.14988" rx="0.14904" ry="0.14276" style="fill:#f2f2f2"/><ellipse cx="228.24191" cy="398.29193" rx="0.14904" ry="0.14276" style="fill:#f2f2f2"/><ellipse cx="228.24191" cy="398.57745" rx="0.14904" ry="0.14276" style="fill:#f2f2f2"/><ellipse cx="227.94382" cy="398.00642" rx="0.14904" ry="0.14276" style="fill:#f2f2f2"/><ellipse cx="228.53999" cy="398.00642" rx="0.14904" ry="0.14276" style="fill:#f2f2f2"/><ellipse cx="227.94383" cy="398.29193" rx="0.14904" ry="0.14276" style="fill:#f2f2f2"/><ellipse cx="228.24191" cy="397.72091" rx="0.14904" ry="0.14276" style="fill:#f2f2f2"/><ellipse cx="228.53999" cy="399.14847" rx="0.14904" ry="0.14276" style="fill:#f2f2f2"/><ellipse cx="228.24191" cy="398.86296" rx="0.14904" ry="0.14276" style="fill:#f2f2f2"/><ellipse cx="228.83807" cy="398.86296" rx="0.14904" ry="0.14276" style="fill:#f2f2f2"/><ellipse cx="228.24191" cy="399.14847" rx="0.14904" ry="0.14276" style="fill:#f2f2f2"/><ellipse cx="228.53999" cy="398.57745" rx="0.14904" ry="0.14276" style="fill:#f2f2f2"/><ellipse cx="227.94382" cy="399.14847" rx="0.14904" ry="0.14276" style="fill:#f2f2f2"/><ellipse cx="228.83807" cy="399.14847" rx="0.14904" ry="0.14276" style="fill:#f2f2f2"/><path d="M759.51394,708.44534Z" transform="translate(-521.96075 -268.30264)" style="fill:url(#41c428bf-a8fa-42cb-84dc-1d8d4c117ed1)"/><polygon points="302.785 445.881 302.794 445.874 302.785 445.874 302.785 445.881" style="fill:url(#10185ed1-8099-4d80-a2b3-d46f2aba9df1)"/><path d="M824.75464,714.17664h7.57523a3.41427,3.41427,0,0,1-1.22291-1.20659c-1.127-1.79884-1.07817-4.56116-1.26095-4.52471a8.24686,8.24686,0,0,0-.18008,3.61977,1.92272,1.92272,0,0,1,0,.90494c-.23745.64056-1.1136.39385-1.441.30165a2.7513,2.7513,0,0,1-1.441-.90494c-1.20955-1.37391-1.47442-3.69334-1.62118-3.61977-.17568.08808.44335,3.29264.36019,4.22306A1.69953,1.69953,0,0,1,824.75464,714.17664Z" transform="translate(-521.96075 -268.30264)" style="fill:url(#76364140-a67a-4e7f-88fb-c84c358f4843)"/><polygon points="327.564 445.881 327.555 445.874 327.564 445.874 327.564 445.881" style="fill:url(#984aeefd-380c-478f-805e-c120d63e928e)"/><path d="M849.51538,714.17664h-7.57523a3.41427,3.41427,0,0,0,1.22291-1.20659c1.12705-1.79884,1.07818-4.56116,1.26095-4.52471a8.24686,8.24686,0,0,1,.18008,3.61977,1.92272,1.92272,0,0,0,0,.90494c.23746.64056,1.1136.39385,1.441.30165a2.75132,2.75132,0,0,0,1.441-.90494c1.20955-1.37391,1.47442-3.69334,1.62118-3.61977.17569.08808-.44335,3.29264-.36019,4.22306A1.69953,1.69953,0,0,0,849.51538,714.17664Z" transform="translate(-521.96075 -268.30264)" style="fill:url(#edb7eb7e-3d99-4683-809d-074ce13963e6)"/><polygon points="316.647 445.881 316.637 445.874 316.647 445.874 316.647 445.881" style="fill:url(#7929abe8-8ba9-4ddd-b443-2496a1749f1d)"/><path d="M838.598,714.17664h-7.57523a3.41419,3.41419,0,0,0,1.22291-1.20659c1.12705-1.79884,1.07818-4.56116,1.261-4.52471a8.2471,8.2471,0,0,1,.18007,3.61977,1.92285,1.92285,0,0,0,0,.90494c.23746.64056,1.1136.39385,1.441.30165a2.75129,2.75129,0,0,0,1.441-.90494c1.20955-1.37391,1.47442-3.69334,1.62118-3.61977.17569.08808-.44335,3.29264-.36019,4.22306A1.69953,1.69953,0,0,0,838.598,714.17664Z" transform="translate(-521.96075 -268.30264)" style="fill:url(#dac8ad82-57df-4a7f-88b0-fdc943c36cef)"/><polygon points="314.794 445.881 314.803 445.874 314.794 445.874 314.794 445.881" style="fill:url(#154fd267-1765-468b-9e0e-eef5395c2528)"/><path d="M836.76376,714.17664H844.339a3.41427,3.41427,0,0,1-1.22291-1.20659c-1.12705-1.79884-1.07818-4.56116-1.26095-4.52471a8.24686,8.24686,0,0,0-.18008,3.61977,1.92272,1.92272,0,0,1,0,.90494c-.23746.64056-1.1136.39385-1.441.30165a2.75132,2.75132,0,0,1-1.441-.90494c-1.20955-1.37391-1.47442-3.69334-1.62118-3.61977-.17568.08808.44335,3.29264.36019,4.22306A1.69953,1.69953,0,0,1,836.76376,714.17664Z" transform="translate(-521.96075 -268.30264)" style="fill:url(#9b39bd81-6634-4a1f-81ec-2fc2740d29e2)"/><polygon points="318.888 445.881 318.897 445.874 318.888 445.874 318.888 445.881" style="fill:url(#45c39fdf-0cb7-4838-b0fb-fb1d47abd33e)"/><path d="M840.85778,714.17664H848.433a3.41419,3.41419,0,0,1-1.22291-1.20659c-1.12706-1.79884-1.07818-4.56116-1.261-4.52471a8.247,8.247,0,0,0-.18008,3.61977,1.92272,1.92272,0,0,1,0,.90494c-.23745.64056-1.11359.39385-1.441.30165a2.75129,2.75129,0,0,1-1.441-.90494c-1.20955-1.37391-1.47442-3.69334-1.62119-3.61977-.17568.08808.44336,3.29264.3602,4.22306A1.69956,1.69956,0,0,1,840.85778,714.17664Z" transform="translate(-521.96075 -268.30264)" style="fill:url(#7e4cf696-733b-403a-b810-7e85829b6a7c)"/><polygon points="305.235 445.871 305.244 445.864 305.235 445.864 305.235 445.871" style="fill:url(#f95c7cf0-3dba-4287-acd7-574a079f5612)"/><path d="M827.20493,714.16674l7.57521.01982a3.41667,3.41667,0,0,1-1.22032-1.20979c-1.1232-1.80178-1.0684-4.564-1.25126-4.528a8.24612,8.24612,0,0,0-.18783,3.61929,1.92274,1.92274,0,0,1-.00194.90494c-.23882.63994-1.11444.39094-1.44164.29788a2.753,2.753,0,0,1-1.4391-.90871c-1.2066-1.37707-1.4665-3.69719-1.61342-3.624-.17587.08761.4363,3.29379.35114,4.224A1.6985,1.6985,0,0,1,827.20493,714.16674Z" transform="translate(-521.96075 -268.30264)" style="fill:url(#3d12b4bb-d4e8-4b24-9b30-7541fdc9f25d)"/><polygon points="325.165 445.881 325.175 445.874 325.165 445.874 325.165 445.881" style="fill:url(#c168fba2-38ec-4ca3-a471-9c300578669d)"/><path d="M847.13527,714.17664h7.57523a3.41427,3.41427,0,0,1-1.22291-1.20659c-1.127-1.79884-1.07818-4.56116-1.26095-4.52471a8.24686,8.24686,0,0,0-.18008,3.61977,1.92272,1.92272,0,0,1,0,.90494c-.23745.64056-1.1136.39385-1.441.30165a2.75132,2.75132,0,0,1-1.441-.90494c-1.20955-1.37391-1.47442-3.69334-1.62118-3.61977-.17568.08808.44335,3.29264.36019,4.22306A1.69953,1.69953,0,0,1,847.13527,714.17664Z" transform="translate(-521.96075 -268.30264)" style="fill:url(#3f8af43b-857c-4ab0-813e-2b9735ed7bf9)"/><polygon points="328.44 445.881 328.45 445.874 328.44 445.874 328.44 445.881" style="fill:url(#17120690-7645-44e4-a84e-679adcd00eb1)"/><path d="M850.41048,714.17664h7.57523a3.41426,3.41426,0,0,1-1.2229-1.20659c-1.12706-1.79884-1.07818-4.56116-1.261-4.52471a8.247,8.247,0,0,0-.18008,3.61977,1.92272,1.92272,0,0,1,0,.90494c-.23745.64056-1.11359.39385-1.441.30165a2.75134,2.75134,0,0,1-1.441-.90494c-1.20954-1.37391-1.47442-3.69334-1.62118-3.61977-.17568.08808.44335,3.29264.36019,4.22306A1.69953,1.69953,0,0,1,850.41048,714.17664Z" transform="translate(-521.96075 -268.30264)" style="fill:url(#6a7b46b7-ef39-4aa2-8a66-dcad2c7c7e92)"/><polygon points="353.22 445.881 353.21 445.874 353.22 445.874 353.22 445.881" style="fill:url(#3b654455-b650-43db-b799-9717bad2e0de)"/><path d="M875.17122,714.17664H867.596a3.41419,3.41419,0,0,0,1.22291-1.20659c1.12705-1.79884,1.07818-4.56116,1.261-4.52471a8.247,8.247,0,0,1,.18008,3.61977,1.92272,1.92272,0,0,0,0,.90494c.23745.64056,1.11359.39385,1.441.30165a2.75129,2.75129,0,0,0,1.441-.90494c1.20955-1.37391,1.47442-3.69334,1.62119-3.61977.17568.08808-.44336,3.29264-.3602,4.22306A1.69956,1.69956,0,0,0,875.17122,714.17664Z" transform="translate(-521.96075 -268.30264)" style="fill:url(#ea02d520-1246-43b8-ae4b-d3dd4dac0f5a)"/><polygon points="342.302 445.881 342.293 445.874 342.302 445.874 342.302 445.881" style="fill:url(#9f772051-be5d-4760-a0d7-d9e4e52a492a)"/><path d="M864.25384,714.17664h-7.57523a3.41419,3.41419,0,0,0,1.22291-1.20659c1.12706-1.79884,1.07818-4.56116,1.261-4.52471a8.247,8.247,0,0,1,.18008,3.61977,1.92272,1.92272,0,0,0,0,.90494c.23745.64056,1.11359.39385,1.441.30165a2.75129,2.75129,0,0,0,1.441-.90494c1.20955-1.37391,1.47442-3.69334,1.62119-3.61977.17568.08808-.44336,3.29264-.3602,4.22306A1.69956,1.69956,0,0,0,864.25384,714.17664Z" transform="translate(-521.96075 -268.30264)" style="fill:url(#525d50ef-d10b-488e-a2ba-6f6695a4801f)"/><polygon points="340.449 445.881 340.459 445.874 340.449 445.874 340.449 445.881" style="fill:url(#f813fae5-4a88-43e5-b7c0-62015b39af91)"/><path d="M862.4196,714.17664h7.57523a3.41427,3.41427,0,0,1-1.22291-1.20659c-1.12705-1.79884-1.07817-4.56116-1.26095-4.52471a8.24686,8.24686,0,0,0-.18008,3.61977,1.92272,1.92272,0,0,1,0,.90494c-.23745.64056-1.1136.39385-1.441.30165a2.7513,2.7513,0,0,1-1.441-.90494c-1.20955-1.37391-1.47442-3.69334-1.62118-3.61977-.17568.08808.44335,3.29264.36019,4.22306A1.69953,1.69953,0,0,1,862.4196,714.17664Z" transform="translate(-521.96075 -268.30264)" style="fill:url(#f1253393-7a47-4a7d-8e66-4424b41de82a)"/><polygon points="344.544 445.881 344.553 445.874 344.544 445.874 344.544 445.881" style="fill:url(#9784627f-fea6-410f-a02d-235679b5e412)"/><path d="M866.51362,714.17664h7.57523a3.41427,3.41427,0,0,1-1.22291-1.20659c-1.12705-1.79884-1.07818-4.56116-1.261-4.52471a8.2471,8.2471,0,0,0-.18007,3.61977,1.92285,1.92285,0,0,1,0,.90494c-.23746.64056-1.1136.39385-1.441.30165a2.75132,2.75132,0,0,1-1.441-.90494c-1.20955-1.37391-1.47442-3.69334-1.62118-3.61977-.17569.08808.44335,3.29264.36019,4.22306A1.69953,1.69953,0,0,1,866.51362,714.17664Z" transform="translate(-521.96075 -268.30264)" style="fill:url(#b0a66694-274f-45a6-80a1-522fc8ece1d6)"/><polygon points="330.891 445.871 330.9 445.864 330.891 445.864 330.891 445.871" style="fill:url(#8f42da5a-9468-49b3-9069-c9ccb4124a34)"/><path d="M852.86077,714.16674l7.57521.01982a3.41667,3.41667,0,0,1-1.22032-1.20979c-1.1232-1.80178-1.0684-4.564-1.25126-4.528a8.24612,8.24612,0,0,0-.18783,3.61929,1.92261,1.92261,0,0,1-.00194.90494c-.23882.63994-1.11443.39094-1.44164.29788a2.753,2.753,0,0,1-1.4391-.90871c-1.2066-1.37707-1.4665-3.69719-1.61342-3.624-.17587.08761.4363,3.29379.35115,4.224A1.69852,1.69852,0,0,1,852.86077,714.16674Z" transform="translate(-521.96075 -268.30264)" style="fill:url(#e83f0709-733b-440f-8a86-262c52081801)"/><polygon points="350.821 445.881 350.83 445.874 350.821 445.874 350.821 445.881" style="fill:url(#595e39ce-4419-481e-8747-466d83cd6323)"/><path d="M872.79111,714.17664h7.57523a3.41427,3.41427,0,0,1-1.22291-1.20659c-1.127-1.79884-1.07817-4.56116-1.26095-4.52471a8.24686,8.24686,0,0,0-.18008,3.61977,1.92272,1.92272,0,0,1,0,.90494c-.23745.64056-1.1136.39385-1.441.30165a2.7513,2.7513,0,0,1-1.441-.90494c-1.20955-1.37391-1.47442-3.69334-1.62118-3.61977-.17568.08808.44335,3.29264.36019,4.22306A1.69953,1.69953,0,0,1,872.79111,714.17664Z" transform="translate(-521.96075 -268.30264)" style="fill:url(#7baa28f7-2689-4110-88a9-a9603961804c)"/><polygon points="299.725 445.881 299.715 445.874 299.725 445.874 299.725 445.881" style="fill:url(#99913d10-0f9f-45db-8be2-39eff871d74c)"/><path d="M821.67606,714.17664h-7.57523a3.41419,3.41419,0,0,0,1.22291-1.20659c1.12706-1.79884,1.07818-4.56116,1.261-4.52471a8.247,8.247,0,0,1,.18008,3.61977,1.92272,1.92272,0,0,0,0,.90494c.23745.64056,1.11359.39385,1.441.30165a2.75129,2.75129,0,0,0,1.441-.90494c1.20955-1.37391,1.47442-3.69334,1.62119-3.61977.17568.08808-.44336,3.29264-.3602,4.22306A1.69956,1.69956,0,0,0,821.67606,714.17664Z" transform="translate(-521.96075 -268.30264)" style="fill:url(#f7f59eef-2a87-4818-866b-b7a26564ccc2)"/><polygon points="288.807 445.881 288.798 445.874 288.807 445.874 288.807 445.881" style="fill:url(#93cc8ad0-d3dc-4f27-9621-582896629e6b)"/><path d="M810.75869,714.17664h-7.57524a3.41419,3.41419,0,0,0,1.22291-1.20659c1.12706-1.79884,1.07818-4.56116,1.261-4.52471a8.247,8.247,0,0,1,.18008,3.61977,1.92272,1.92272,0,0,0,0,.90494c.23745.64056,1.11359.39385,1.441.30165a2.75129,2.75129,0,0,0,1.441-.90494c1.20955-1.37391,1.47442-3.69334,1.62119-3.61977.17568.08808-.44336,3.29264-.3602,4.22306A1.69954,1.69954,0,0,0,810.75869,714.17664Z" transform="translate(-521.96075 -268.30264)" style="fill:url(#5c843ff2-905f-43c3-b3d0-98377a2c2241)"/><polygon points="286.954 445.881 286.964 445.874 286.954 445.874 286.954 445.881" style="fill:url(#90d9c5ce-29db-40b0-b179-c8d981d3ffd0)"/><path d="M808.92444,714.17664h7.57523a3.41427,3.41427,0,0,1-1.22291-1.20659c-1.127-1.79884-1.07817-4.56116-1.26095-4.52471a8.24686,8.24686,0,0,0-.18008,3.61977,1.92272,1.92272,0,0,1,0,.90494c-.23745.64056-1.1136.39385-1.441.30165a2.7513,2.7513,0,0,1-1.441-.90494c-1.20955-1.37391-1.47442-3.69334-1.62118-3.61977-.17568.08808.44335,3.29264.36019,4.22306A1.69953,1.69953,0,0,1,808.92444,714.17664Z" transform="translate(-521.96075 -268.30264)" style="fill:url(#5eb7944a-cc01-411a-9d5b-158670943747)"/><polygon points="291.048 445.881 291.058 445.874 291.048 445.874 291.048 445.881" style="fill:url(#f62ed6ee-83ab-4cc5-9cb8-1d05ca84b9c6)"/><path d="M813.01846,714.17664h7.57523a3.41427,3.41427,0,0,1-1.22291-1.20659c-1.127-1.79884-1.07818-4.56116-1.26095-4.52471a8.24686,8.24686,0,0,0-.18008,3.61977,1.92272,1.92272,0,0,1,0,.90494c-.23746.64056-1.1136.39385-1.441.30165a2.75132,2.75132,0,0,1-1.441-.90494c-1.20955-1.37391-1.47442-3.69334-1.62118-3.61977-.17569.08808.44335,3.29264.36019,4.22306A1.69953,1.69953,0,0,1,813.01846,714.17664Z" transform="translate(-521.96075 -268.30264)" style="fill:url(#9056bf2b-04d5-4c5b-8d55-5b0e5bef9587)"/><polygon points="297.326 445.881 297.335 445.874 297.326 445.874 297.326 445.881" style="fill:url(#99ddaca1-2890-49b7-9312-b4caa9c1fe16)"/><path d="M819.29595,714.17664h7.57523a3.41427,3.41427,0,0,1-1.22291-1.20659c-1.12705-1.79884-1.07817-4.56116-1.26095-4.52471a8.24686,8.24686,0,0,0-.18008,3.61977,1.92272,1.92272,0,0,1,0,.90494c-.23745.64056-1.1136.39385-1.441.30165a2.7513,2.7513,0,0,1-1.441-.90494c-1.20955-1.37391-1.47442-3.69334-1.62118-3.61977-.17568.08808.44335,3.29264.36019,4.22306A1.69953,1.69953,0,0,1,819.29595,714.17664Z" transform="translate(-521.96075 -268.30264)" style="fill:url(#73bd517e-b0da-4214-8ef8-d6a556f45c37)"/><polygon points="373.144 445.881 373.135 445.874 373.144 445.874 373.144 445.881" style="fill:url(#067828fb-6650-449b-98aa-ceda4c7a76d4)"/><path d="M895.09544,714.17664h-7.57523a3.41427,3.41427,0,0,0,1.22291-1.20659c1.12705-1.79884,1.07818-4.56116,1.26095-4.52471a8.24686,8.24686,0,0,1,.18008,3.61977,1.92272,1.92272,0,0,0,0,.90494c.23746.64056,1.1136.39385,1.441.30165a2.75132,2.75132,0,0,0,1.441-.90494c1.20955-1.37391,1.47442-3.69334,1.62118-3.61977.17568.08808-.44335,3.29264-.36019,4.22306A1.69953,1.69953,0,0,0,895.09544,714.17664Z" transform="translate(-521.96075 -268.30264)" style="fill:url(#c0f40d87-c683-4000-a29b-427a97d3f3d8)"/><polygon points="362.227 445.881 362.217 445.874 362.227 445.874 362.227 445.881" style="fill:url(#97d34bea-8840-4bc5-ac59-db2c61791fa9)"/><path d="M884.17806,714.17664h-7.57523a3.41427,3.41427,0,0,0,1.22291-1.20659c1.12705-1.79884,1.07818-4.56116,1.26095-4.52471a8.24686,8.24686,0,0,1,.18008,3.61977,1.92272,1.92272,0,0,0,0,.90494c.23746.64056,1.1136.39385,1.441.30165a2.75132,2.75132,0,0,0,1.441-.90494c1.20955-1.37391,1.47442-3.69334,1.62118-3.61977.17569.08808-.44335,3.29264-.36019,4.22306A1.69953,1.69953,0,0,0,884.17806,714.17664Z" transform="translate(-521.96075 -268.30264)" style="fill:url(#e66760c8-1b20-4d8e-87ba-16276a0882d3)"/><polygon points="360.374 445.881 360.383 445.874 360.374 445.874 360.374 445.881" style="fill:url(#fa621a09-ea3a-4d8c-9772-ccf8392bed17)"/><path d="M882.34382,714.17664h7.57523a3.41427,3.41427,0,0,1-1.22291-1.20659c-1.12705-1.79884-1.07818-4.56116-1.26095-4.52471a8.24686,8.24686,0,0,0-.18008,3.61977,1.92272,1.92272,0,0,1,0,.90494c-.23746.64056-1.1136.39385-1.441.30165a2.75132,2.75132,0,0,1-1.441-.90494c-1.20955-1.37391-1.47442-3.69334-1.62118-3.61977-.17569.08808.44335,3.29264.36019,4.22306A1.69953,1.69953,0,0,1,882.34382,714.17664Z" transform="translate(-521.96075 -268.30264)" style="fill:url(#99d4be6a-a11e-4353-9336-596a1b8c9604)"/><polygon points="364.468 445.881 364.477 445.874 364.468 445.874 364.468 445.881" style="fill:url(#6d884aa4-ac02-4ed8-86ec-88aa7142f40a)"/><path d="M886.43783,714.17664h7.57524a3.41419,3.41419,0,0,1-1.22291-1.20659c-1.12706-1.79884-1.07818-4.56116-1.261-4.52471a8.247,8.247,0,0,0-.18008,3.61977,1.92272,1.92272,0,0,1,0,.90494c-.23745.64056-1.11359.39385-1.441.30165a2.75129,2.75129,0,0,1-1.441-.90494c-1.20955-1.37391-1.47442-3.69334-1.62119-3.61977-.17568.08808.44336,3.29264.3602,4.22306A1.69954,1.69954,0,0,1,886.43783,714.17664Z" transform="translate(-521.96075 -268.30264)" style="fill:url(#a61d6004-60a2-4575-a256-6ae60adba2a4)"/><polygon points="370.745 445.881 370.755 445.874 370.745 445.874 370.745 445.881" style="fill:url(#bbdc8675-10a6-48d3-ba48-370281fa1c27)"/><path d="M892.71533,714.17664h7.57523a3.41427,3.41427,0,0,1-1.22291-1.20659c-1.127-1.79884-1.07818-4.56116-1.26095-4.52471a8.24686,8.24686,0,0,0-.18008,3.61977,1.92272,1.92272,0,0,1,0,.90494c-.23746.64056-1.1136.39385-1.441.30165a2.75132,2.75132,0,0,1-1.441-.90494c-1.20955-1.37391-1.47442-3.69334-1.62118-3.61977-.17568.08808.44335,3.29264.36019,4.22306A1.69953,1.69953,0,0,1,892.71533,714.17664Z" transform="translate(-521.96075 -268.30264)" style="fill:url(#e21520ca-cac0-4dbf-a216-81960c95779e)"/><polygon points="273.796 445.881 273.787 445.874 273.796 445.874 273.796 445.881" style="fill:url(#968bf4f4-4a8a-4369-b6bb-82034c6b8d38)"/><path d="M795.74729,714.17664h-7.57523a3.41426,3.41426,0,0,0,1.2229-1.20659c1.12706-1.79884,1.07818-4.56116,1.261-4.52471a8.247,8.247,0,0,1,.18008,3.61977,1.92272,1.92272,0,0,0,0,.90494c.23745.64056,1.11359.39385,1.441.30165a2.7513,2.7513,0,0,0,1.441-.90494c1.20955-1.37391,1.47442-3.69334,1.62118-3.61977.17568.08808-.44335,3.29264-.36019,4.22306A1.69953,1.69953,0,0,0,795.74729,714.17664Z" transform="translate(-521.96075 -268.30264)" style="fill:url(#168d4479-79cb-42da-9a12-dcbed8322d5f)"/><polygon points="262.879 445.881 262.869 445.874 262.879 445.874 262.879 445.881" style="fill:url(#a60f8d4d-3d6b-4839-9830-d585795fa963)"/><path d="M784.82991,714.17664h-7.57523a3.41427,3.41427,0,0,0,1.22291-1.20659c1.12705-1.79884,1.07817-4.56116,1.26095-4.52471a8.24686,8.24686,0,0,1,.18008,3.61977,1.92272,1.92272,0,0,0,0,.90494c.23745.64056,1.11359.39385,1.441.30165a2.7513,2.7513,0,0,0,1.441-.90494c1.20955-1.37391,1.47442-3.69334,1.62118-3.61977.17568.08808-.44335,3.29264-.36019,4.22306A1.69953,1.69953,0,0,0,784.82991,714.17664Z" transform="translate(-521.96075 -268.30264)" style="fill:url(#b3661a42-8699-4303-8495-989d546522a1)"/><polygon points="261.026 445.881 261.035 445.874 261.026 445.874 261.026 445.881" style="fill:url(#9a25ae58-9896-4bff-8d2f-e8238c602cbf)"/><path d="M782.99566,714.17664h7.57524a3.41419,3.41419,0,0,1-1.22291-1.20659c-1.12706-1.79884-1.07818-4.56116-1.261-4.52471a8.247,8.247,0,0,0-.18008,3.61977,1.92272,1.92272,0,0,1,0,.90494c-.23745.64056-1.11359.39385-1.441.30165a2.75134,2.75134,0,0,1-1.441-.90494c-1.20954-1.37391-1.47441-3.69334-1.62118-3.61977-.17568.08808.44335,3.29264.3602,4.22306A1.69954,1.69954,0,0,1,782.99566,714.17664Z" transform="translate(-521.96075 -268.30264)" style="fill:url(#16470ab4-4c98-4f17-a3a8-be69b00f9653)"/><polygon points="265.12 445.881 265.129 445.874 265.12 445.874 265.12 445.881" style="fill:url(#99993972-5bd8-4694-ada1-3b2179842f94)"/><path d="M787.08968,714.17664h7.57523a3.41427,3.41427,0,0,1-1.22291-1.20659c-1.12705-1.79884-1.07817-4.56116-1.26095-4.52471a8.24686,8.24686,0,0,0-.18008,3.61977,1.92272,1.92272,0,0,1,0,.90494c-.23745.64056-1.11359.39385-1.441.30165a2.7513,2.7513,0,0,1-1.441-.90494c-1.20955-1.37391-1.47442-3.69334-1.62118-3.61977-.17568.08808.44335,3.29264.36019,4.22306A1.69953,1.69953,0,0,1,787.08968,714.17664Z" transform="translate(-521.96075 -268.30264)" style="fill:url(#f0ef1640-2825-445f-b5b7-f277b471132c)"/><polygon points="271.397 445.881 271.406 445.874 271.397 445.874 271.397 445.881" style="fill:url(#342eea80-7942-4112-996b-0d2977d80649)"/><path d="M793.36717,714.17664h7.57524a3.41419,3.41419,0,0,1-1.22291-1.20659c-1.12706-1.79884-1.07818-4.56116-1.261-4.52471a8.247,8.247,0,0,0-.18008,3.61977,1.92272,1.92272,0,0,1,0,.90494c-.23745.64056-1.11359.39385-1.441.30165a2.75134,2.75134,0,0,1-1.441-.90494c-1.20954-1.37391-1.47441-3.69334-1.62118-3.61977-.17568.08808.44336,3.29264.3602,4.22306A1.69954,1.69954,0,0,1,793.36717,714.17664Z" transform="translate(-521.96075 -268.30264)" style="fill:url(#71337b20-a274-4572-bf80-30ae44b21581)"/><polygon points="248.959 445.881 248.949 445.874 248.959 445.874 248.959 445.881" style="fill:url(#274172e9-cddf-4950-8df6-cd501e34d6f5)"/><path d="M770.91025,714.17664H763.335a3.41427,3.41427,0,0,0,1.22291-1.20659c1.127-1.79884,1.07817-4.56116,1.26095-4.52471a8.24686,8.24686,0,0,1,.18008,3.61977,1.92272,1.92272,0,0,0,0,.90494c.23745.64056,1.1136.39385,1.441.30165a2.7513,2.7513,0,0,0,1.441-.90494c1.20955-1.37391,1.47442-3.69334,1.62118-3.61977.17568.08808-.44335,3.29264-.36019,4.22306A1.69953,1.69953,0,0,0,770.91025,714.17664Z" transform="translate(-521.96075 -268.30264)" style="fill:url(#9100cac0-1d51-4817-be94-6fec85a8277c)"/><polygon points="238.041 445.881 238.032 445.874 238.041 445.874 238.041 445.881" style="fill:url(#7d5ffa32-2e9c-476a-8530-86136b8e733f)"/><path d="M759.99287,714.17664h-7.57523a3.41427,3.41427,0,0,0,1.22291-1.20659c1.12705-1.79884,1.07817-4.56116,1.261-4.52471a8.24686,8.24686,0,0,1,.18008,3.61977,1.92272,1.92272,0,0,0,0,.90494c.23745.64056,1.1136.39385,1.441.30165a2.7513,2.7513,0,0,0,1.441-.90494c1.20955-1.37391,1.47442-3.69334,1.62118-3.61977.17568.08808-.44335,3.29264-.36019,4.22306A1.69953,1.69953,0,0,0,759.99287,714.17664Z" transform="translate(-521.96075 -268.30264)" style="fill:url(#589848b6-dd57-47bf-89ef-797d7ff5ec6b)"/><polygon points="236.189 445.881 236.198 445.874 236.189 445.874 236.189 445.881" style="fill:url(#d4e10faf-b829-4845-bd1a-e42d16db42b2)"/><path d="M758.15863,714.17664h7.57523a3.41419,3.41419,0,0,1-1.22291-1.20659c-1.12706-1.79884-1.07818-4.56116-1.261-4.52471a8.247,8.247,0,0,0-.18008,3.61977,1.92272,1.92272,0,0,1,0,.90494c-.23745.64056-1.11359.39385-1.441.30165a2.75129,2.75129,0,0,1-1.441-.90494c-1.20955-1.37391-1.47442-3.69334-1.62119-3.61977-.17568.08808.44336,3.29264.3602,4.22306A1.69956,1.69956,0,0,1,758.15863,714.17664Z" transform="translate(-521.96075 -268.30264)" style="fill:url(#4086378f-c450-4905-bb31-aeca50d09c2c)"/><polygon points="240.283 445.881 240.292 445.874 240.283 445.874 240.283 445.881" style="fill:url(#f1b2e347-ae3a-4969-952c-108406c6ceeb)"/><path d="M762.25264,714.17664h7.57523a3.41426,3.41426,0,0,1-1.2229-1.20659c-1.12706-1.79884-1.07818-4.56116-1.261-4.52471a8.247,8.247,0,0,0-.18008,3.61977,1.92272,1.92272,0,0,1,0,.90494c-.23745.64056-1.11359.39385-1.441.30165a2.75134,2.75134,0,0,1-1.441-.90494c-1.20954-1.37391-1.47442-3.69334-1.62118-3.61977-.17568.08808.44335,3.29264.36019,4.22306A1.69953,1.69953,0,0,1,762.25264,714.17664Z" transform="translate(-521.96075 -268.30264)" style="fill:url(#866ec5e2-b954-44c8-ba1c-1aacf0fd8822)"/><polygon points="246.56 445.881 246.569 445.874 246.56 445.874 246.56 445.881" style="fill:url(#c13dfc1b-6014-4ae1-9e1c-89ef801dc92d)"/><path d="M768.53014,714.17664h7.57523a3.41419,3.41419,0,0,1-1.22291-1.20659c-1.12705-1.79884-1.07818-4.56116-1.261-4.52471a8.247,8.247,0,0,0-.18008,3.61977,1.92272,1.92272,0,0,1,0,.90494c-.23745.64056-1.11359.39385-1.441.30165a2.75129,2.75129,0,0,1-1.441-.90494c-1.20955-1.37391-1.47442-3.69334-1.62119-3.61977-.17568.08808.44336,3.29264.3602,4.22306A1.69956,1.69956,0,0,1,768.53014,714.17664Z" transform="translate(-521.96075 -268.30264)" style="fill:url(#96cfce14-e2be-4b69-84d2-7c75c277c722)"/><polygon points="230.255 445.631 230.264 445.624 230.255 445.624 230.255 445.631" style="fill:url(#9221dfbe-b5ed-4142-b92a-a29c3b649682)"/><path d="M752.22473,713.92688H759.8a3.41427,3.41427,0,0,1-1.22291-1.20659c-1.127-1.79884-1.07818-4.56116-1.261-4.52471a8.24708,8.24708,0,0,0-.18007,3.61977,1.92285,1.92285,0,0,1,0,.90494c-.23746.64056-1.1136.39385-1.441.30165a2.75129,2.75129,0,0,1-1.441-.90494c-1.20955-1.37391-1.47442-3.69334-1.62118-3.61977-.17569.08808.44335,3.29264.36019,4.22306A1.69953,1.69953,0,0,1,752.22473,713.92688Z" transform="translate(-521.96075 -268.30264)" style="fill:url(#3c3120d6-fdca-4d6d-a2c9-c7f689cce6ed)"/><polygon points="234.349 445.631 234.358 445.624 234.349 445.624 234.349 445.631" style="fill:url(#ab089216-b8cc-487c-ad70-cd51f1d838d5)"/><path d="M756.31874,713.92688H763.894a3.41419,3.41419,0,0,1-1.22291-1.20659c-1.12706-1.79884-1.07818-4.56116-1.261-4.52471a8.247,8.247,0,0,0-.18008,3.61977,1.92272,1.92272,0,0,1,0,.90494c-.23745.64056-1.11359.39385-1.441.30165a2.75129,2.75129,0,0,1-1.441-.90494c-1.20955-1.37391-1.47442-3.69334-1.62119-3.61977-.17568.08808.44336,3.29264.3602,4.22306A1.69954,1.69954,0,0,1,756.31874,713.92688Z" transform="translate(-521.96075 -268.30264)" style="fill:url(#b0221086-5ae3-4d11-b1a9-89b4ffe940d9)"/><polygon points="315.137 445.631 315.147 445.624 315.137 445.624 315.137 445.631" style="fill:url(#f10e9f3d-de50-414e-bcf4-bc528c8c66b3)"/><path d="M837.10735,713.92688h7.57523a3.41426,3.41426,0,0,1-1.2229-1.20659c-1.12706-1.79884-1.07818-4.56116-1.261-4.52471a8.247,8.247,0,0,0-.18008,3.61977,1.92272,1.92272,0,0,1,0,.90494c-.23745.64056-1.11359.39385-1.441.30165a2.75134,2.75134,0,0,1-1.441-.90494c-1.20954-1.37391-1.47442-3.69334-1.62118-3.61977-.17568.08808.44335,3.29264.36019,4.22306A1.69953,1.69953,0,0,1,837.10735,713.92688Z" transform="translate(-521.96075 -268.30264)" style="fill:url(#b5952b10-e038-43b7-a430-9a8ea859fcd3)"/><polygon points="319.231 445.631 319.241 445.624 319.231 445.624 319.231 445.631" style="fill:url(#75f50668-4108-4d8d-a84b-01b9cb0c791f)"/><path d="M841.20137,713.92688h7.57523a3.41427,3.41427,0,0,1-1.22291-1.20659c-1.127-1.79884-1.07817-4.56116-1.26095-4.52471a8.24683,8.24683,0,0,0-.18008,3.61977,1.92272,1.92272,0,0,1,0,.90494c-.23745.64056-1.1136.39385-1.441.30165a2.7513,2.7513,0,0,1-1.441-.90494c-1.20955-1.37391-1.47442-3.69334-1.62118-3.61977-.17568.08808.44335,3.29264.36019,4.22306A1.69953,1.69953,0,0,1,841.20137,713.92688Z" transform="translate(-521.96075 -268.30264)" style="fill:url(#8e695274-05b1-4e12-879d-e27914935fa8)"/><polygon points="305.578 445.621 305.588 445.614 305.578 445.614 305.578 445.621" style="fill:url(#310c2d02-d118-4527-a7c1-d8242661c8ea)"/><path d="M827.54853,713.917l7.57521.01982a3.41646,3.41646,0,0,1-1.22032-1.20978c-1.1232-1.80178-1.06841-4.564-1.25126-4.528a8.24585,8.24585,0,0,0-.18784,3.61929,1.92261,1.92261,0,0,1-.00194.90494c-.23882.63993-1.11443.39093-1.44164.29787a2.75286,2.75286,0,0,1-1.43909-.90871c-1.2066-1.37707-1.46651-3.69718-1.61343-3.624-.17587.08762.4363,3.2938.35115,4.224A1.6985,1.6985,0,0,1,827.54853,713.917Z" transform="translate(-521.96075 -268.30264)" style="fill:url(#c2b25464-418c-4add-8abb-da7913abd710)"/><polygon points="325.509 445.631 325.518 445.624 325.509 445.624 325.509 445.631" style="fill:url(#4ac0a1d3-8b3a-4275-8118-bd56b3b60bb7)"/><path d="M847.47886,713.92688h7.57523a3.41426,3.41426,0,0,1-1.2229-1.20659c-1.12706-1.79884-1.07818-4.56116-1.261-4.52471a8.247,8.247,0,0,0-.18008,3.61977,1.92272,1.92272,0,0,1,0,.90494c-.23745.64056-1.11359.39385-1.441.30165a2.75134,2.75134,0,0,1-1.441-.90494c-1.20954-1.37391-1.47442-3.69334-1.62118-3.61977-.17568.08808.44335,3.29264.36019,4.22306A1.69953,1.69953,0,0,1,847.47886,713.92688Z" transform="translate(-521.96075 -268.30264)" style="fill:url(#e573dcef-3a3f-4670-85b6-e529d5328cd9)"/><polygon points="340.793 445.631 340.802 445.624 340.793 445.624 340.793 445.631" style="fill:url(#18e1a0e2-b60a-4726-9d35-64a2a4c4f477)"/><path d="M862.76319,713.92688h7.57524a3.41419,3.41419,0,0,1-1.22291-1.20659c-1.12706-1.79884-1.07818-4.56116-1.261-4.52471a8.247,8.247,0,0,0-.18008,3.61977,1.92272,1.92272,0,0,1,0,.90494c-.23745.64056-1.11359.39385-1.441.30165a2.75129,2.75129,0,0,1-1.441-.90494c-1.20955-1.37391-1.47442-3.69334-1.62119-3.61977-.17568.08808.44336,3.29264.3602,4.22306A1.69954,1.69954,0,0,1,862.76319,713.92688Z" transform="translate(-521.96075 -268.30264)" style="fill:url(#c365b7c7-112b-431e-aff2-89db832e4c71)"/><polygon points="344.887 445.631 344.896 445.624 344.887 445.624 344.887 445.631" style="fill:url(#9cfb0d2a-de86-499e-80e0-7044e0ae0bef)"/><path d="M866.85721,713.92688h7.57523a3.41426,3.41426,0,0,1-1.2229-1.20659c-1.12706-1.79884-1.07818-4.56116-1.261-4.52471a8.247,8.247,0,0,0-.18008,3.61977,1.92272,1.92272,0,0,1,0,.90494c-.23745.64056-1.11359.39385-1.441.30165a2.75134,2.75134,0,0,1-1.441-.90494c-1.20954-1.37391-1.47442-3.69334-1.62118-3.61977-.17568.08808.44335,3.29264.36019,4.22306A1.69953,1.69953,0,0,1,866.85721,713.92688Z" transform="translate(-521.96075 -268.30264)" style="fill:url(#bac3913e-3d92-45e2-af91-a30b11380d23)"/><polygon points="331.234 445.621 331.244 445.614 331.234 445.614 331.234 445.621" style="fill:url(#436bc370-75c5-48b3-a453-da7872e6c764)"/><path d="M853.20437,713.917l7.57521.01982a3.41654,3.41654,0,0,1-1.22032-1.20978c-1.1232-1.80178-1.06841-4.564-1.25126-4.528a8.24619,8.24619,0,0,0-.18784,3.61929,1.92274,1.92274,0,0,1-.00193.90494c-.23883.63993-1.11444.39093-1.44165.29787a2.75286,2.75286,0,0,1-1.43909-.90871c-1.2066-1.37707-1.46651-3.69718-1.61342-3.624-.17587.08762.43629,3.2938.35114,4.224A1.6985,1.6985,0,0,1,853.20437,713.917Z" transform="translate(-521.96075 -268.30264)" style="fill:url(#18c217d7-9225-446d-bfb5-e8ff78f0ad4d)"/><polygon points="351.165 445.631 351.174 445.624 351.165 445.624 351.165 445.631" style="fill:url(#8dd360d6-3cce-4507-981a-28407d00b139)"/><path d="M873.13471,713.92688h7.57523a3.41419,3.41419,0,0,1-1.22291-1.20659c-1.12706-1.79884-1.07818-4.56116-1.261-4.52471a8.247,8.247,0,0,0-.18008,3.61977,1.92272,1.92272,0,0,1,0,.90494c-.23745.64056-1.11359.39385-1.441.30165a2.75129,2.75129,0,0,1-1.441-.90494c-1.20955-1.37391-1.47442-3.69334-1.62119-3.61977-.17568.08808.44336,3.29264.3602,4.22306A1.69956,1.69956,0,0,1,873.13471,713.92688Z" transform="translate(-521.96075 -268.30264)" style="fill:url(#a8c64509-0b82-4970-a528-44981e0f9358)"/><polygon points="289.151 445.631 289.142 445.624 289.151 445.624 289.151 445.631" style="fill:url(#d871d3b4-db00-4ea0-b138-e8d780866d1b)"/><path d="M811.10228,713.92688h-7.57523a3.41427,3.41427,0,0,0,1.22291-1.20659c1.12705-1.79884,1.07817-4.56116,1.26095-4.52471a8.24683,8.24683,0,0,1,.18008,3.61977,1.92272,1.92272,0,0,0,0,.90494c.23745.64056,1.1136.39385,1.441.30165a2.7513,2.7513,0,0,0,1.441-.90494c1.20955-1.37391,1.47442-3.69334,1.62118-3.61977.17568.08808-.44335,3.29264-.36019,4.22306A1.69953,1.69953,0,0,0,811.10228,713.92688Z" transform="translate(-521.96075 -268.30264)" style="fill:url(#426409b4-1af9-4884-8a19-8870ecbc9ebe)"/><polygon points="287.298 445.631 287.307 445.624 287.298 445.624 287.298 445.631" style="fill:url(#f431f5d7-fe7a-43d6-9b7d-187556695623)"/><path d="M809.268,713.92688h7.57523a3.41419,3.41419,0,0,1-1.22291-1.20659c-1.12706-1.79884-1.07818-4.56116-1.261-4.52471a8.247,8.247,0,0,0-.18008,3.61977,1.92272,1.92272,0,0,1,0,.90494c-.23745.64056-1.11359.39385-1.441.30165a2.75129,2.75129,0,0,1-1.441-.90494c-1.20955-1.37391-1.47442-3.69334-1.62119-3.61977-.17568.08808.44336,3.29264.3602,4.22306A1.69956,1.69956,0,0,1,809.268,713.92688Z" transform="translate(-521.96075 -268.30264)" style="fill:url(#da8a5f2d-fcdf-46ca-85a6-3a0ef8d392fe)"/><polygon points="291.392 445.631 291.401 445.624 291.392 445.624 291.392 445.631" style="fill:url(#cc8af4c6-1557-4a3f-bf19-2e5733c5a710)"/><path d="M813.36205,713.92688h7.57523a3.41426,3.41426,0,0,1-1.2229-1.20659c-1.12706-1.79884-1.07818-4.56116-1.261-4.52471a8.247,8.247,0,0,0-.18008,3.61977,1.92272,1.92272,0,0,1,0,.90494c-.23745.64056-1.11359.39385-1.441.30165a2.75134,2.75134,0,0,1-1.441-.90494c-1.20954-1.37391-1.47442-3.69334-1.62118-3.61977-.17568.08808.44335,3.29264.36019,4.22306A1.69953,1.69953,0,0,1,813.36205,713.92688Z" transform="translate(-521.96075 -268.30264)" style="fill:url(#1c9be960-0a8d-4046-8cd4-5a676f4ce9b4)"/><polygon points="297.669 445.631 297.679 445.624 297.669 445.624 297.669 445.631" style="fill:url(#f11f3cb4-1519-4af6-94b2-18b9512da9b4)"/><path d="M819.63955,713.92688h7.57523a3.41419,3.41419,0,0,1-1.22291-1.20659c-1.127-1.79884-1.07818-4.56116-1.261-4.52471a8.247,8.247,0,0,0-.18008,3.61977,1.92272,1.92272,0,0,1,0,.90494c-.23745.64056-1.11359.39385-1.441.30165a2.75129,2.75129,0,0,1-1.441-.90494c-1.20955-1.37391-1.47442-3.69334-1.62119-3.61977-.17568.08808.44336,3.29264.3602,4.22306A1.69956,1.69956,0,0,1,819.63955,713.92688Z" transform="translate(-521.96075 -268.30264)" style="fill:url(#c8570c2b-694f-41b4-93a1-4cb1c1a61d37)"/><polygon points="362.57 445.631 362.561 445.624 362.57 445.624 362.57 445.631" style="fill:url(#abb09685-8ef6-4382-af4f-653efcdd66a2)"/><path d="M884.52166,713.92688h-7.57523a3.41426,3.41426,0,0,0,1.2229-1.20659c1.12706-1.79884,1.07818-4.56116,1.261-4.52471a8.247,8.247,0,0,1,.18008,3.61977,1.92272,1.92272,0,0,0,0,.90494c.23745.64056,1.11359.39385,1.441.30165a2.75134,2.75134,0,0,0,1.441-.90494c1.20954-1.37391,1.47442-3.69334,1.62118-3.61977.17568.08808-.44335,3.29264-.36019,4.22306A1.69953,1.69953,0,0,0,884.52166,713.92688Z" transform="translate(-521.96075 -268.30264)" style="fill:url(#c69c9f4d-2ce7-4a54-b5a1-2f5ddb00950c)"/><polygon points="360.717 445.631 360.727 445.624 360.717 445.624 360.717 445.631" style="fill:url(#b4a9d121-9fb2-4d23-ac10-d6815ad3b4df)"/><path d="M882.68741,713.92688h7.57523a3.41426,3.41426,0,0,1-1.2229-1.20659c-1.12706-1.79884-1.07818-4.56116-1.261-4.52471a8.247,8.247,0,0,0-.18008,3.61977,1.92272,1.92272,0,0,1,0,.90494c-.23745.64056-1.11359.39385-1.441.30165a2.75134,2.75134,0,0,1-1.441-.90494c-1.20954-1.37391-1.47442-3.69334-1.62118-3.61977-.17568.08808.44335,3.29264.36019,4.22306A1.69953,1.69953,0,0,1,882.68741,713.92688Z" transform="translate(-521.96075 -268.30264)" style="fill:url(#0cd417d1-907f-4ce3-85b2-a70a94508566)"/><polygon points="364.811 445.631 364.821 445.624 364.811 445.624 364.811 445.631" style="fill:url(#0f9e83a2-6b37-432f-b066-f5dc30f1acd8)"/><path d="M886.78143,713.92688h7.57523a3.41427,3.41427,0,0,1-1.22291-1.20659c-1.127-1.79884-1.07817-4.56116-1.26095-4.52471a8.24683,8.24683,0,0,0-.18008,3.61977,1.92272,1.92272,0,0,1,0,.90494c-.23745.64056-1.1136.39385-1.441.30165a2.7513,2.7513,0,0,1-1.441-.90494c-1.20955-1.37391-1.47442-3.69334-1.62118-3.61977-.17568.08808.44335,3.29264.36019,4.22306A1.69953,1.69953,0,0,1,886.78143,713.92688Z" transform="translate(-521.96075 -268.30264)" style="fill:url(#491fca55-eff5-4067-9ebb-05ab2fc06e6b)"/><polygon points="371.089 445.631 371.098 445.624 371.089 445.624 371.089 445.631" style="fill:url(#dacd3f4f-ce17-48e1-84bf-eb6cd21f825a)"/><path d="M893.05892,713.92688h7.57523a3.41426,3.41426,0,0,1-1.2229-1.20659c-1.12706-1.79884-1.07818-4.56116-1.261-4.52471a8.247,8.247,0,0,0-.18008,3.61977,1.92272,1.92272,0,0,1,0,.90494c-.23745.64056-1.11359.39385-1.441.30165a2.75134,2.75134,0,0,1-1.441-.90494c-1.20954-1.37391-1.47442-3.69334-1.62118-3.61977-.17568.08808.44335,3.29264.36019,4.22306A1.69953,1.69953,0,0,1,893.05892,713.92688Z" transform="translate(-521.96075 -268.30264)" style="fill:url(#e16a91be-9c0b-4d1e-ad36-da0d6226bdf0)"/><polygon points="261.369 445.631 261.379 445.624 261.369 445.624 261.369 445.631" style="fill:url(#6a3b7401-956b-40be-8ee0-9d69d316acda)"/><path d="M783.33926,713.92688h7.57523a3.41427,3.41427,0,0,1-1.22291-1.20659c-1.12705-1.79884-1.07818-4.56116-1.261-4.52471a8.24683,8.24683,0,0,0-.18008,3.61977,1.92272,1.92272,0,0,1,0,.90494c-.23745.64056-1.1136.39385-1.441.30165a2.75132,2.75132,0,0,1-1.441-.90494c-1.20955-1.37391-1.47442-3.69334-1.62118-3.61977-.17568.08808.44335,3.29264.36019,4.22306A1.69953,1.69953,0,0,1,783.33926,713.92688Z" transform="translate(-521.96075 -268.30264)" style="fill:url(#c1339acb-c0f9-4f2e-b5ce-ec87f266d877)"/><polygon points="265.463 445.631 265.473 445.624 265.463 445.624 265.463 445.631" style="fill:url(#a96b3821-7e37-4321-8525-24e6d25e79a2)"/><path d="M787.43328,713.92688h7.57523a3.41419,3.41419,0,0,1-1.22291-1.20659c-1.12705-1.79884-1.07818-4.56116-1.261-4.52471a8.247,8.247,0,0,0-.18008,3.61977,1.92259,1.92259,0,0,1,0,.90494c-.23745.64056-1.11359.39385-1.441.30165a2.75129,2.75129,0,0,1-1.441-.90494c-1.20955-1.37391-1.47442-3.69334-1.62118-3.61977-.17569.08808.44335,3.29264.36019,4.22306A1.69953,1.69953,0,0,1,787.43328,713.92688Z" transform="translate(-521.96075 -268.30264)" style="fill:url(#d23c0df5-84aa-45ff-b00e-3ef0e9702f10)"/><polygon points="271.741 445.631 271.75 445.624 271.741 445.624 271.741 445.631" style="fill:url(#38659a30-f4f5-4e77-a3ff-07965bd4acfd)"/><path d="M793.71077,713.92688H801.286a3.41427,3.41427,0,0,1-1.22291-1.20659c-1.127-1.79884-1.07817-4.56116-1.26095-4.52471a8.24683,8.24683,0,0,0-.18008,3.61977,1.92272,1.92272,0,0,1,0,.90494c-.23745.64056-1.1136.39385-1.441.30165a2.7513,2.7513,0,0,1-1.441-.90494c-1.20955-1.37391-1.47442-3.69334-1.62118-3.61977-.17568.08808.44335,3.29264.36019,4.22306A1.69953,1.69953,0,0,1,793.71077,713.92688Z" transform="translate(-521.96075 -268.30264)" style="fill:url(#ba497b05-f4e8-4588-9e41-4229cc93b35e)"/><polygon points="240.626 445.631 240.635 445.624 240.626 445.624 240.626 445.631" style="fill:url(#e8f15d32-a8fe-4dd0-920c-a38d4c882a44)"/><path d="M762.59624,713.92688h7.57523a3.41427,3.41427,0,0,1-1.22291-1.20659c-1.12705-1.79884-1.07818-4.56116-1.261-4.52471a8.24683,8.24683,0,0,0-.18008,3.61977,1.92272,1.92272,0,0,1,0,.90494c-.23746.64056-1.1136.39385-1.441.30165a2.75132,2.75132,0,0,1-1.441-.90494c-1.20955-1.37391-1.47442-3.69334-1.62118-3.61977-.17568.08808.44335,3.29264.36019,4.22306A1.69953,1.69953,0,0,1,762.59624,713.92688Z" transform="translate(-521.96075 -268.30264)" style="fill:url(#39f1f1d0-9076-4746-9778-53d545dfe88f)"/><polygon points="252.032 445.631 252.022 445.624 252.032 445.624 252.032 445.631" style="fill:url(#844c95a8-cca4-4206-a64f-6e09ba2003a5)"/><path d="M773.98319,713.92688H766.408a3.41427,3.41427,0,0,0,1.22291-1.20659c1.12705-1.79884,1.07817-4.56116,1.261-4.52471a8.24683,8.24683,0,0,1,.18008,3.61977,1.92272,1.92272,0,0,0,0,.90494c.23745.64056,1.1136.39385,1.441.30165a2.7513,2.7513,0,0,0,1.441-.90494c1.20955-1.37391,1.47442-3.69334,1.62118-3.61977.17568.08808-.44335,3.29264-.36019,4.22306A1.69953,1.69953,0,0,0,773.98319,713.92688Z" transform="translate(-521.96075 -268.30264)" style="fill:url(#c70d2b6a-e9fc-4058-b6f6-fb2e6aa55302)"/><polygon points="250.179 445.631 250.188 445.624 250.179 445.624 250.179 445.631" style="fill:url(#a87ce228-9b79-4e0a-8771-291b6bd1731b)"/><path d="M772.14894,713.92688h7.57524a3.41419,3.41419,0,0,1-1.22291-1.20659c-1.12706-1.79884-1.07818-4.56116-1.261-4.52471a8.247,8.247,0,0,0-.18008,3.61977,1.92272,1.92272,0,0,1,0,.90494c-.23745.64056-1.11359.39385-1.441.30165a2.75129,2.75129,0,0,1-1.441-.90494c-1.20955-1.37391-1.47442-3.69334-1.62119-3.61977-.17568.08808.44336,3.29264.3602,4.22306A1.69954,1.69954,0,0,1,772.14894,713.92688Z" transform="translate(-521.96075 -268.30264)" style="fill:url(#3abbda91-ecd7-4a86-aa86-dec76ceca505)"/><polygon points="254.273 445.631 254.282 445.624 254.273 445.624 254.273 445.631" style="fill:url(#576f37e9-9671-4eea-a1aa-53e0e14ca64a)"/><path d="M776.243,713.92688h7.57523a3.41426,3.41426,0,0,1-1.2229-1.20659c-1.12706-1.79884-1.07818-4.56116-1.261-4.52471a8.247,8.247,0,0,0-.18008,3.61977,1.92272,1.92272,0,0,1,0,.90494c-.23745.64056-1.11359.39385-1.441.30165a2.75134,2.75134,0,0,1-1.441-.90494c-1.20954-1.37391-1.47442-3.69334-1.62118-3.61977-.17568.08808.44335,3.29264.36019,4.22306A1.69953,1.69953,0,0,1,776.243,713.92688Z" transform="translate(-521.96075 -268.30264)" style="fill:url(#2158ec90-7a80-42c1-a14e-104f5231b99f)"/><polygon points="260.55 445.631 260.56 445.624 260.55 445.624 260.55 445.631" style="fill:url(#febecfb9-e4d6-46de-8780-67439c3500ef)"/><path d="M782.52046,713.92688h7.57523a3.41419,3.41419,0,0,1-1.22291-1.20659c-1.12706-1.79884-1.07818-4.56116-1.261-4.52471a8.247,8.247,0,0,0-.18008,3.61977,1.92272,1.92272,0,0,1,0,.90494c-.23745.64056-1.11359.39385-1.441.30165a2.75129,2.75129,0,0,1-1.441-.90494c-1.20955-1.37391-1.47442-3.69334-1.62119-3.61977-.17568.08808.44336,3.29264.3602,4.22306A1.69956,1.69956,0,0,1,782.52046,713.92688Z" transform="translate(-521.96075 -268.30264)" style="fill:url(#04929d42-7559-466b-b90c-cbada377cdf7)"/><polygon points="227.604 177.111 227.178 176.851 226.743 177.092 226.834 176.564 226.492 176.18 226.976 176.114 227.2 175.636 227.406 176.123 227.887 176.211 227.532 176.579 227.604 177.111" style="fill:#fff"/><polygon points="43.919 168.363 43.493 168.103 43.058 168.344 43.149 167.816 42.807 167.433 43.291 167.366 43.515 166.888 43.722 167.375 44.202 167.463 43.847 167.831 43.919 168.363" style="fill:#fff"/><polygon points="305.553 178.908 304.96 178.546 304.354 178.882 304.482 178.146 304.006 177.613 304.678 177.52 304.99 176.855 305.278 177.533 305.946 177.655 305.452 178.167 305.553 178.908" style="fill:#fff"/><polygon points="596.228 143.313 595.635 142.952 595.029 143.287 595.157 142.552 594.681 142.019 595.353 141.926 595.665 141.261 595.953 141.939 596.621 142.061 596.127 142.573 596.228 143.313" style="fill:#fff"/><polygon points="521.223 142.081 520.296 141.516 519.349 142.04 519.549 140.891 518.805 140.058 519.856 139.912 520.343 138.874 520.793 139.933 521.837 140.124 521.065 140.924 521.223 142.081" style="fill:#fff"/><polygon points="85.629 160.576 84.847 159.977 84.044 160.542 84.218 159.313 83.592 158.427 84.481 158.267 84.897 157.155 85.274 158.284 86.157 158.483 85.5 159.341 85.629 160.576" style="fill:#fff"/><path d="M1230.95237,469.66312a141.09778,141.09778,0,0,0-19.75091,8.467q-2.1777,1.12983-4.46929,2.4119a35.6421,35.6421,0,0,1-2.30693,11.52481,28.91624,28.91624,0,0,1-3.59858,6.59348,2.24528,2.24528,0,0,1-2.04508-.09066,3.92762,3.92762,0,0,1-1.76155-2.0394l7.59582-14.77969a176.18443,176.18443,0,0,0-20.08363,13.62862,210.74549,210.74549,0,0,0-33.8381,33.535q7.10826,12.0862,14.21639,24.17236a198.01422,198.01422,0,0,0,31.7037-29.44709A217.56785,217.56785,0,0,0,1230.95237,469.66312Z" transform="translate(-521.96075 -268.30264)" style="fill:url(#46468d77-370f-4c35-911b-87ab62415942)"/><path d="M1107.19245,557.20035a120.887,120.887,0,0,0,19.277-4.38545q2.13906-.66958,4.39646-1.46252a31.43925,31.43925,0,0,1,2.98249-10.50017,23.507,23.507,0,0,1,3.86263-5.58717,2.19715,2.19715,0,0,1,1.9289.463,4.41927,4.41927,0,0,1,1.52541,2.25811l-8.213,12.61073a143.81764,143.81764,0,0,0,19.94991-9.21729,168.169,168.169,0,0,0,34.34628-25.5527q-5.88783-12.76815-11.77553-25.53622a158.42693,158.42693,0,0,0-32.043,22.07087A175.44388,175.44388,0,0,0,1107.19245,557.20035Z" transform="translate(-521.96075 -268.30264)" style="fill:url(#b465496d-09b9-4ab0-83ed-9db93fb66ea1)"/><path d="M1211.95067,444.988a109.054,109.054,0,0,0-11.24692,8.94472q-1.22731,1.10924-2.51278,2.33487a25.59628,25.59628,0,0,1-.62949,7.648,23.34748,23.34748,0,0,1-1.72119,4.79524,1.42236,1.42236,0,0,1-1.22736.31989,1.864,1.864,0,0,1-1.18456-.9537l3.57706-10.66213a144.01886,144.01886,0,0,0-11.11047,12.241,175.88325,175.88325,0,0,0-18.033,27.25062q5.03041,6.26553,10.06076,12.531a164.9916,164.9916,0,0,0,17.02365-24.29542A177.7756,177.7756,0,0,0,1211.95067,444.988Z" transform="translate(-521.96075 -268.30264)" style="fill:url(#c1c669f8-8f0f-47fe-836b-7a04127c13cf)"/><path d="M1224.15376,568.01022a148.10872,148.10872,0,0,1-17.92168-12.48453q-1.94206-1.56916-3.96958-3.31184a36.07327,36.07327,0,0,0-.27053-11.79968,30.15731,30.15731,0,0,0-2.39149-7.23228,2.27271,2.27271,0,0,0-2.023-.34318,3.71762,3.71762,0,0,0-2.08187,1.62953l4.89874,16.11214a186.40968,186.40968,0,0,1-17.35529-17.62121,222.929,222.929,0,0,1-27.41213-40.06689q9.06807-10.36112,18.136-20.72221a209.6116,209.6116,0,0,1,26.02434,35.60337A227.78492,227.78492,0,0,1,1224.15376,568.01022Z" transform="translate(-521.96075 -268.30264)" style="fill:url(#bf34d9c0-2552-47c6-bf2a-dffa612d923e)"/><path d="M1178.56991,472.2688c-4.88537,25.41279-9.36892,48.7536-9.8453,51.23366-19.02171,99.02519-26.53357,138.355-41.25364,214.82619-3.19811,16.61429-7.12313,36.98682-10.68629,55.46222q3.853.61033,7.706,1.22074a1201.40618,1201.40618,0,0,0,34.034-129.74448,1497.15235,1497.15235,0,0,0,26.37646-192.24465Z" transform="translate(-521.96075 -268.30264)" style="fill:url(#53b5ccea-bf02-41c4-b5e0-e220adfea209)"/><path d="M1181.88147,412.02477A234.69183,234.69183,0,0,0,1173.807,435.832q-.79044,2.79156-1.57482,5.8082a44.665,44.665,0,0,1,4.41684,11.72469,46.70139,46.70139,0,0,1,1.09835,8.62532,2.67541,2.67541,0,0,1-1.32819,1.64389,2.18089,2.18089,0,0,1-2.14184-.249l-2.75707-18.93816c-2.06418,8.3-4.02988,17.78455-5.65722,28.469a376.84721,376.84721,0,0,0-4.15293,56.94145q10.60488,4.27879,21.20965,8.55767a355.487,355.487,0,0,0,4.89453-51.67519A361.78464,361.78464,0,0,0,1181.88147,412.02477Z" transform="translate(-521.96075 -268.30264)" style="fill:url(#deaff4ae-22e3-4a31-a995-255a123d54b6)"/><path d="M1127.50183,449.25772a134.30761,134.30761,0,0,1,14.48886,12.94321q1.54962,1.59193,3.15754,3.34536a31.77114,31.77114,0,0,0-.87916,10.36028,27.0236,27.0236,0,0,0,1.4071,6.60014,2.02955,2.02955,0,0,0,1.73634.52775,3.18357,3.18357,0,0,0,1.97429-1.19263l-2.75962-14.65563a169.26312,169.26312,0,0,1,13.508,17.37641,201.86328,201.86328,0,0,1,20.17857,38.15626q-8.90806,8.05158-17.816,16.10315a189.97906,189.97906,0,0,1-19.38722-34.09277A204.62632,204.62632,0,0,1,1127.50183,449.25772Z" transform="translate(-521.96075 -268.30264)" style="fill:url(#b6381c73-243c-4578-95de-52081fcdc20e)"/><path d="M1179.5704,521.31611a32.58315,32.58315,0,0,0-3.03455,3.44017q-.31946.416-.64844.871a7.31282,7.31282,0,0,1,.45765,2.36868,6.37151,6.37151,0,0,1-.16359,1.56969.4862.4862,0,0,1-.38877.17562.71753.71753,0,0,1-.486-.21488l.27882-3.47425a40.94364,40.94364,0,0,0-2.69881,4.43507,48.45786,48.45786,0,0,0-3.73221,9.44622q2.25858,1.58706,4.51712,3.17413a45.69692,45.69692,0,0,0,3.64884-8.48213A48.43454,48.43454,0,0,0,1179.5704,521.31611Z" transform="translate(-521.96075 -268.30264)" style="fill:url(#f91bf34b-7f19-4eda-be04-a6689e98c185)"/><path d="M1174.12119,518.49865a25.28861,25.28861,0,0,0-1.41017,2.72871q-.14362.32262-.28913.67245a5.104,5.104,0,0,1,.472,1.487,4.97235,4.97235,0,0,1,.04829,1.05724.32291.32291,0,0,1-.20447.17527.347.347,0,0,1-.29465-.06651l-.154-2.32722a32.95834,32.95834,0,0,0-1.13063,3.33122,39.32764,39.32764,0,0,0-1.26605,6.785l2.844,1.39213a37.10831,37.10831,0,0,0,1.3054-6.1383A38.26476,38.26476,0,0,0,1174.12119,518.49865Z" transform="translate(-521.96075 -268.30264)" style="fill:url(#f2f2bb52-a3bf-40d2-a96a-7dbf7e870a36)"/><path d="M1185.8816,540.316a27.9183,27.9183,0,0,1-4.308-.64336q-.4835-.1101-.99632-.24454a7.03015,7.03015,0,0,0-.96-2.17733,5.55491,5.55491,0,0,0-1.0039-1.125.46783.46783,0,0,0-.40412.1264.85642.85642,0,0,0-.263.50021l2.1564,2.54666a34.16527,34.16527,0,0,1-4.59815-1.65562,40.40874,40.40874,0,0,1-8.20566-4.899q.89424-2.788,1.78847-5.576a38.03111,38.03111,0,0,1,7.60254,4.19641A41.713,41.713,0,0,1,1185.8816,540.316Z" transform="translate(-521.96075 -268.30264)" style="fill:url(#dae3e38d-92a7-44c9-8358-e1a0af9f572f)"/><path d="M1165.967,515.17593a49.78106,49.78106,0,0,0,.32763,5.20462q.0676.59556.15369,1.23256a8.18869,8.18869,0,0,1,1.72827,1.773,8.892,8.892,0,0,1,.86987,1.5068.60138.60138,0,0,1-.12125.43193.45433.45433,0,0,1-.419.15516l-1.97441-3.27586c.2544,1.74381.61848,3.69948,1.13822,5.84729a74.9802,74.9802,0,0,0,3.61364,11.021l4.6191-.39928a71.21647,71.21647,0,0,0-3.06929-10.10771A69.45041,69.45041,0,0,0,1165.967,515.17593Z" transform="translate(-521.96075 -268.30264)" style="fill:url(#fef01045-e672-4c40-9b45-52cf8e7fca3d)"/><path d="M1158.6851,527.24645a24.81864,24.81864,0,0,1,3.70246,1.05218q.412.15129.84732.32725a6.35162,6.35162,0,0,0,.63442,2.01686,5.06069,5.06069,0,0,0,.77141,1.09966.40583.40583,0,0,0,.36482-.06495.736.736,0,0,0,.27664-.40852l-1.6448-2.47615a30.73425,30.73425,0,0,1,3.861,1.97214,36.66024,36.66024,0,0,1,6.708,5.22336q-1.04239,2.34177-2.08476,4.68354a34.45112,34.45112,0,0,1-6.24707-4.53928A37.99876,37.99876,0,0,1,1158.6851,527.24645Z" transform="translate(-521.96075 -268.30264)" style="fill:url(#695ff5b1-8bc6-4e6f-8bb1-1fd37d954eb9)"/><path d="M892,673" transform="translate(-521.96075 -268.30264)" style="fill:url(#31b68211-486b-4255-999b-2464a0e8b931)"/><polygon points="123.985 105.818 123.225 105.354 122.448 105.784 122.612 104.842 122.002 104.159 122.864 104.04 123.263 103.188 123.632 104.056 124.489 104.213 123.855 104.869 123.985 105.818" style="fill:#fff"/><polygon points="189.762 132.363 189.002 131.899 188.226 132.329 188.389 131.387 187.78 130.704 188.641 130.584 189.04 129.733 189.409 130.601 190.266 130.758 189.632 131.414 189.762 132.363" style="fill:#fff"/><polygon points="321.862 104.611 321.102 104.148 320.326 104.578 320.489 103.635 319.88 102.952 320.741 102.833 321.141 101.981 321.51 102.85 322.366 103.006 321.733 103.662 321.862 104.611" style="fill:#fff"/><polygon points="551.076 102.827 550.649 102.567 550.214 102.808 550.306 102.28 549.964 101.897 550.447 101.83 550.671 101.352 550.878 101.839 551.358 101.927 551.003 102.295 551.076 102.827" style="fill:#fff"/><polygon points="423.036 80.328 422.363 79.918 421.676 80.299 421.821 79.465 421.281 78.86 422.044 78.754 422.397 78 422.724 78.769 423.482 78.908 422.921 79.489 423.036 80.328" style="fill:#fff"/><polygon points="658.228 139.313 657.635 138.952 657.029 139.287 657.157 138.552 656.681 138.019 657.353 137.926 657.665 137.261 657.953 137.939 658.621 138.061 658.127 138.573 658.228 139.313" style="fill:#fff"/><polygon points="461.221 113.346 460.294 112.781 459.348 113.305 459.547 112.156 458.804 111.323 459.854 111.177 460.341 110.138 460.791 111.198 461.836 111.389 461.063 112.189 461.221 113.346" style="fill:#fff"/><polygon points="583.223 138.081 582.296 137.516 581.349 138.04 581.549 136.891 580.805 136.058 581.856 135.912 582.343 134.874 582.793 135.933 583.837 136.124 583.065 136.924 583.223 138.081" style="fill:#fff"/><polygon points="629.895 114.854 628.968 114.289 628.021 114.813 628.221 113.664 627.477 112.831 628.528 112.686 629.015 111.647 629.465 112.706 630.509 112.897 629.737 113.697 629.895 114.854" style="fill:#fff"/><polygon points="293.61 136.402 292.433 135.685 291.23 136.351 291.484 134.891 290.539 133.833 291.874 133.648 292.492 132.329 293.064 133.674 294.39 133.917 293.409 134.933 293.61 136.402" style="fill:#fff"/><polygon points="394.05 115.287 392.873 114.57 391.67 115.235 391.924 113.776 390.979 112.718 392.314 112.533 392.932 111.214 393.504 112.559 394.83 112.802 393.849 113.818 394.05 115.287" style="fill:#fff"/><polygon points="424.381 128.945 423.619 128.553 422.844 128.912 423.005 128.12 422.394 127.543 423.255 127.446 423.652 126.731 424.023 127.463 424.88 127.597 424.248 128.147 424.381 128.945" style="fill:#fff"/><polygon points="534.287 110.89 533.525 110.498 532.75 110.857 532.911 110.065 532.3 109.489 533.161 109.391 533.558 108.676 533.929 109.408 534.786 109.543 534.154 110.092 534.287 110.89" style="fill:#fff"/><polygon points="657.494 85.993 656.819 85.646 656.133 85.964 656.276 85.263 655.734 84.752 656.497 84.666 656.848 84.033 657.177 84.681 657.935 84.8 657.376 85.287 657.494 85.993" style="fill:#fff"/><polygon points="678.029 136.213 677.1 135.735 676.155 136.172 676.351 135.207 675.606 134.503 676.656 134.385 677.14 133.513 677.593 134.405 678.638 134.569 677.867 135.24 678.029 136.213" style="fill:#fff"/><polygon points="528.234 132.701 527.055 132.094 525.854 132.65 526.103 131.423 525.156 130.53 526.49 130.379 527.105 129.272 527.68 130.405 529.007 130.614 528.029 131.465 528.234 132.701" style="fill:#fff"/><polygon points="10.311 129.986 9.807 129.528 9.288 129.964 9.402 129.02 9 128.342 9.575 128.216 9.846 127.362 10.086 128.227 10.656 128.378 10.23 129.038 10.311 129.986" style="fill:#fff"/><polygon points="77.857 104.973 77.411 104.568 76.951 104.953 77.053 104.118 76.697 103.517 77.205 103.406 77.446 102.649 77.659 103.416 78.163 103.549 77.786 104.134 77.857 104.973" style="fill:#fff"/><polygon points="103.1 137.709 102.486 137.151 101.852 137.682 101.992 136.531 101.502 135.704 102.202 135.551 102.533 134.508 102.826 135.564 103.521 135.748 103.002 136.553 103.1 137.709" style="fill:#fff"/><polygon points="151.791 134.724 151.286 134.337 150.768 134.702 150.88 133.909 150.476 133.337 151.05 133.233 151.319 132.515 151.562 133.244 152.132 133.373 151.708 133.927 151.791 134.724" style="fill:#fff"/><polygon points="580.899 49.524 581.659 49.987 582.435 49.557 582.272 50.499 582.881 51.182 582.02 51.302 581.621 52.154 581.252 51.285 580.395 51.128 581.029 50.472 580.899 49.524" style="fill:#fff"/><polygon points="515.122 22.979 515.882 23.442 516.658 23.012 516.495 23.954 517.104 24.637 516.243 24.757 515.843 25.609 515.474 24.74 514.618 24.583 515.251 23.927 515.122 22.979" style="fill:#fff"/><polygon points="383.021 50.73 383.782 51.193 384.558 50.764 384.394 51.706 385.004 52.389 384.142 52.508 383.743 53.36 383.374 52.492 382.518 52.335 383.151 51.679 383.021 50.73" style="fill:#fff"/><polygon points="153.808 52.514 154.235 52.774 154.67 52.533 154.578 53.062 154.92 53.445 154.437 53.512 154.213 53.989 154.006 53.502 153.526 53.414 153.881 53.046 153.808 52.514" style="fill:#fff"/><polygon points="281.847 75.013 282.52 75.423 283.208 75.042 283.063 75.877 283.603 76.481 282.84 76.587 282.486 77.341 282.16 76.572 281.401 76.434 281.962 75.853 281.847 75.013" style="fill:#fff"/><polygon points="46.655 16.028 47.249 16.389 47.855 16.054 47.727 16.789 48.203 17.322 47.53 17.416 47.219 18.08 46.931 17.403 46.262 17.28 46.757 16.768 46.655 16.028" style="fill:#fff"/><polygon points="243.662 41.995 244.59 42.56 245.536 42.036 245.337 43.185 246.08 44.018 245.03 44.164 244.543 45.203 244.093 44.144 243.048 43.953 243.821 43.152 243.662 41.995" style="fill:#fff"/><polygon points="121.661 17.26 122.588 17.825 123.534 17.301 123.335 18.45 124.078 19.283 123.028 19.429 122.541 20.468 122.091 19.408 121.046 19.217 121.819 18.417 121.661 17.26" style="fill:#fff"/><polygon points="74.989 40.487 75.916 41.052 76.863 40.528 76.663 41.677 77.407 42.51 76.356 42.656 75.869 43.695 75.419 42.635 74.375 42.444 75.147 41.644 74.989 40.487" style="fill:#fff"/><polygon points="411.273 18.939 412.451 19.656 413.653 18.991 413.4 20.45 414.344 21.508 413.01 21.693 412.391 23.012 411.82 21.667 410.493 21.424 411.475 20.408 411.273 18.939" style="fill:#fff"/><polygon points="0.78 41.562 1.958 42.28 3.16 41.614 2.907 43.074 3.851 44.132 2.517 44.316 1.898 45.636 1.327 44.291 0 44.048 0.981 43.032 0.78 41.562" style="fill:#fff"/><polygon points="310.834 40.054 312.011 40.771 313.213 40.106 312.96 41.565 313.904 42.623 312.57 42.808 311.951 44.128 311.38 42.782 310.054 42.54 311.035 41.524 310.834 40.054" style="fill:#fff"/><polygon points="280.503 26.396 281.264 26.788 282.039 26.43 281.878 27.221 282.49 27.798 281.629 27.895 281.232 28.61 280.861 27.879 280.004 27.744 280.635 27.194 280.503 26.396" style="fill:#fff"/><polygon points="170.597 44.451 171.358 44.843 172.133 44.484 171.972 45.276 172.584 45.853 171.723 45.95 171.326 46.665 170.955 45.933 170.098 45.799 170.729 45.249 170.597 44.451" style="fill:#fff"/><polygon points="47.39 69.348 48.064 69.695 48.75 69.378 48.608 70.079 49.149 70.589 48.387 70.675 48.036 71.308 47.707 70.66 46.948 70.541 47.507 70.055 47.39 69.348" style="fill:#fff"/><polygon points="26.855 19.128 27.783 19.606 28.729 19.169 28.532 20.135 29.278 20.838 28.228 20.957 27.744 21.829 27.291 20.936 26.246 20.772 27.016 20.102 26.855 19.128" style="fill:#fff"/><polygon points="176.65 22.64 177.829 23.247 179.029 22.692 178.78 23.918 179.728 24.811 178.394 24.962 177.779 26.069 177.204 24.936 175.877 24.728 176.855 23.876 176.65 22.64" style="fill:#fff"/><polygon points="694.573 25.355 695.077 25.813 695.596 25.378 695.482 26.321 695.884 27 695.309 27.125 695.038 27.98 694.797 27.114 694.228 26.964 694.654 26.303 694.573 25.355" style="fill:#fff"/><polygon points="627.026 50.368 627.472 50.774 627.932 50.388 627.831 51.223 628.187 51.824 627.678 51.935 627.438 52.692 627.225 51.925 626.721 51.792 627.098 51.207 627.026 50.368" style="fill:#fff"/><polygon points="601.783 17.632 602.398 18.19 603.031 17.659 602.892 18.81 603.382 19.637 602.681 19.791 602.351 20.833 602.057 19.777 601.363 19.594 601.882 18.788 601.783 17.632" style="fill:#fff"/><polygon points="626.419 1.768 626.924 2.154 627.443 1.79 627.331 2.583 627.735 3.155 627.16 3.259 626.892 3.976 626.649 3.247 626.079 3.119 626.503 2.565 626.419 1.768" style="fill:#fff"/><polygon points="553.092 20.617 553.597 21.004 554.116 20.64 554.004 21.432 554.408 22.005 553.834 22.108 553.565 22.826 553.322 22.097 552.752 21.969 553.176 21.414 553.092 20.617" style="fill:#fff"/><polyline points="558.666 0.028 559.292 0.914 558.403 1.074 557.986 2.186 557.61 1.057 556.727 0.858 557.384 0" style="fill:#fff"/><circle cx="138.03925" cy="145.69736" r="34" style="fill:#fff"/></svg>