<svg id="cab4b581-de44-42d1-b2bc-0f53ebe8607c" data-name="Layer 1" xmlns="http://www.w3.org/2000/svg" xmlns:xlink="http://www.w3.org/1999/xlink" viewBox="0 0 695.88371 527.21542"><defs><linearGradient id="b26c98e5-dc39-4fa8-8f15-815c0c43d0e0" x1="685.27575" y1="609.95746" x2="778.07348" y2="609.95746" gradientUnits="userSpaceOnUse"><stop offset="0.18764" stop-color="#a644a3"/><stop offset="0.54113" stop-color="#cb65a2"/></linearGradient><linearGradient id="34f243e0-29ae-4f10-bb1c-e9f8186cbdfb" x1="127.01471" y1="335.32022" x2="163.315" y2="335.32022" gradientUnits="userSpaceOnUse"><stop offset="0" stop-color="#e9bed2"/><stop offset="0.5" stop-color="#df9dbb"/><stop offset="1" stop-color="#d98caf"/></linearGradient><linearGradient id="abb7516e-db97-4d17-ade1-11439549cc10" x1="138.20503" y1="484.18323" x2="310.69962" y2="484.18323" xlink:href="#34f243e0-29ae-4f10-bb1c-e9f8186cbdfb"/><linearGradient id="2c798c77-79c5-456c-bdc2-f1335a64a478" x1="859.13502" y1="701.35663" x2="1010.6706" y2="701.35663" gradientUnits="userSpaceOnUse"><stop offset="0" stop-color="#e17da3"/><stop offset="1" stop-color="#d46da3"/></linearGradient><linearGradient id="6cfbc136-2f06-40ab-8322-3df8b12bf18c" x1="703.0165" y1="699.30786" x2="760.60567" y2="699.30786" xlink:href="#34f243e0-29ae-4f10-bb1c-e9f8186cbdfb"/><linearGradient id="deb1a3da-c06b-4ed3-9430-b787c9d06145" x1="731.81109" y1="683.49479" x2="749.87477" y2="683.49479" xlink:href="#34f243e0-29ae-4f10-bb1c-e9f8186cbdfb"/><linearGradient id="15ee7d0e-db86-4b76-b5c7-49b96681a6fe" x1="759.51394" y1="708.44534" x2="759.51394" y2="708.44534" xlink:href="#34f243e0-29ae-4f10-bb1c-e9f8186cbdfb"/><linearGradient id="47c8302a-8dcf-43c7-bb27-3e36fb4fbf22" x1="302.78452" y1="445.87754" x2="302.79389" y2="445.87753" xlink:href="#b26c98e5-dc39-4fa8-8f15-815c0c43d0e0"/><linearGradient id="211a7ac8-3236-4b2e-a90e-87e29b6bad8c" x1="824.75335" y1="711.31366" x2="832.32858" y2="711.31026" xlink:href="#b26c98e5-dc39-4fa8-8f15-815c0c43d0e0"/><linearGradient id="e4d31062-f681-4bdb-b624-16f96dc52bc9" x1="1296.26345" y1="714.17942" x2="1296.27281" y2="714.17942" gradientTransform="matrix(-1, 0, 0, 1, 1623.82831, -268.30264)" xlink:href="#b26c98e5-dc39-4fa8-8f15-815c0c43d0e0"/><linearGradient id="08e2bf23-4ad5-42d3-ba69-74ea978253a2" x1="1296.27153" y1="711.31291" x2="1303.84676" y2="711.3095" gradientTransform="matrix(-1, 0, 0, 1, 2145.78906, 0)" xlink:href="#b26c98e5-dc39-4fa8-8f15-815c0c43d0e0"/><linearGradient id="1bc0a40d-6330-4de7-b595-9b0b55ed64d7" x1="1457.18081" y1="714.17942" x2="1457.19018" y2="714.17942" gradientTransform="matrix(-1, 0, 0, 1, 1773.82831, -268.30264)" xlink:href="#b26c98e5-dc39-4fa8-8f15-815c0c43d0e0"/><linearGradient id="ccd38aa4-e592-4843-8c13-1f25f389d418" x1="1457.18889" y1="711.31291" x2="1464.76412" y2="711.3095" gradientTransform="matrix(-1, 0, 0, 1, 2295.78906, 0)" xlink:href="#b26c98e5-dc39-4fa8-8f15-815c0c43d0e0"/><linearGradient id="f4c603b9-79df-415f-828d-899b3ed81e5d" x1="314.79364" y1="445.87754" x2="314.80301" y2="445.87753" xlink:href="#b26c98e5-dc39-4fa8-8f15-815c0c43d0e0"/><linearGradient id="079bdf65-1d02-4b5b-b6c3-993a13c79600" x1="836.76247" y1="711.31366" x2="844.3377" y2="711.31026" xlink:href="#b26c98e5-dc39-4fa8-8f15-815c0c43d0e0"/><linearGradient id="6498d064-13d9-46b2-bd3d-f57ee5dba682" x1="318.88766" y1="445.87754" x2="318.89702" y2="445.87753" xlink:href="#b26c98e5-dc39-4fa8-8f15-815c0c43d0e0"/><linearGradient id="fddebb3f-852c-4d1f-bf55-f122d5ede310" x1="840.85649" y1="711.31366" x2="848.43172" y2="711.31026" xlink:href="#b26c98e5-dc39-4fa8-8f15-815c0c43d0e0"/><linearGradient id="b49de7aa-654b-454b-9fd4-d2121d895777" x1="823.69278" y1="714.90563" x2="823.70215" y2="714.90562" gradientTransform="translate(-516.75777 -270.98076) rotate(0.13564)" xlink:href="#b26c98e5-dc39-4fa8-8f15-815c0c43d0e0"/><linearGradient id="3890427f-677b-4df7-b201-7cdaeae3cf5f" x1="823.70086" y1="712.0407" x2="831.27608" y2="712.03729" gradientTransform="translate(5.20299 -2.67812) rotate(0.13564)" xlink:href="#b26c98e5-dc39-4fa8-8f15-815c0c43d0e0"/><linearGradient id="0e8518f2-02ab-496a-b13e-3728c07dcb9a" x1="325.16515" y1="445.87754" x2="325.17452" y2="445.87753" xlink:href="#b26c98e5-dc39-4fa8-8f15-815c0c43d0e0"/><linearGradient id="658a39de-e66b-4c9f-a154-d48019e52de0" x1="847.13398" y1="711.31366" x2="854.70921" y2="711.31026" xlink:href="#b26c98e5-dc39-4fa8-8f15-815c0c43d0e0"/><linearGradient id="b6b664bc-f00e-4c11-86b6-6d1f822c38cf" x1="328.44036" y1="445.87754" x2="328.44973" y2="445.87753" xlink:href="#b26c98e5-dc39-4fa8-8f15-815c0c43d0e0"/><linearGradient id="a3fe3445-ae04-47c1-8851-04f578b45d12" x1="850.4092" y1="711.31366" x2="857.98443" y2="711.31026" xlink:href="#b26c98e5-dc39-4fa8-8f15-815c0c43d0e0"/><linearGradient id="68c7a682-d9eb-4317-a013-50623c12ace4" x1="1270.60761" y1="714.17942" x2="1270.61698" y2="714.17942" gradientTransform="matrix(-1, 0, 0, 1, 1623.82831, -268.30264)" xlink:href="#b26c98e5-dc39-4fa8-8f15-815c0c43d0e0"/><linearGradient id="9ff6a937-b2c7-479d-9186-3f657273408e" x1="1270.61569" y1="711.31291" x2="1278.19092" y2="711.3095" gradientTransform="matrix(-1, 0, 0, 1, 2145.78906, 0)" xlink:href="#b26c98e5-dc39-4fa8-8f15-815c0c43d0e0"/><linearGradient id="9e4eb307-0608-45a7-aef9-51c8643c6335" x1="1431.52497" y1="714.17942" x2="1431.53434" y2="714.17942" gradientTransform="matrix(-1, 0, 0, 1, 1773.82831, -268.30264)" xlink:href="#b26c98e5-dc39-4fa8-8f15-815c0c43d0e0"/><linearGradient id="9205354c-a102-4546-9f83-638df8348657" x1="1431.53305" y1="711.31291" x2="1439.10828" y2="711.3095" gradientTransform="matrix(-1, 0, 0, 1, 2295.78906, 0)" xlink:href="#b26c98e5-dc39-4fa8-8f15-815c0c43d0e0"/><linearGradient id="1d113729-cc68-49de-949e-fedfb9504a0b" x1="340.44948" y1="445.87754" x2="340.45885" y2="445.87753" xlink:href="#b26c98e5-dc39-4fa8-8f15-815c0c43d0e0"/><linearGradient id="d1c29ca7-b874-42ce-9fb3-21beb71404e9" x1="862.41831" y1="711.31366" x2="869.99354" y2="711.31026" xlink:href="#b26c98e5-dc39-4fa8-8f15-815c0c43d0e0"/><linearGradient id="42d3039f-ba0b-4546-ae9d-ced6dea5f2ef" x1="344.5435" y1="445.87754" x2="344.55286" y2="445.87753" xlink:href="#b26c98e5-dc39-4fa8-8f15-815c0c43d0e0"/><linearGradient id="f001a566-f15c-4b4d-a9ca-4ab9f2069aaf" x1="866.51233" y1="711.31366" x2="874.08756" y2="711.31026" xlink:href="#b26c98e5-dc39-4fa8-8f15-815c0c43d0e0"/><linearGradient id="5c4b1297-4a9c-4e40-9a72-3b435795cb27" x1="849.3485" y1="714.84489" x2="849.35787" y2="714.84489" gradientTransform="translate(-516.75777 -270.98076) rotate(0.13564)" xlink:href="#b26c98e5-dc39-4fa8-8f15-815c0c43d0e0"/><linearGradient id="d9533124-cba4-47b2-9fdd-131da4e10942" x1="849.35658" y1="711.97996" x2="856.9318" y2="711.97656" gradientTransform="translate(5.20299 -2.67812) rotate(0.13564)" xlink:href="#b26c98e5-dc39-4fa8-8f15-815c0c43d0e0"/><linearGradient id="a0c1725f-95d5-4596-9d6e-32d0ab509154" x1="350.82099" y1="445.87754" x2="350.83036" y2="445.87753" xlink:href="#b26c98e5-dc39-4fa8-8f15-815c0c43d0e0"/><linearGradient id="84b4bc64-9833-4755-a63d-96739c68203a" x1="872.78982" y1="711.31366" x2="880.36505" y2="711.31026" xlink:href="#b26c98e5-dc39-4fa8-8f15-815c0c43d0e0"/><linearGradient id="c2f0f22c-6d8f-4cfa-b2c9-13073913f2f4" x1="1324.10276" y1="714.17942" x2="1324.11213" y2="714.17942" gradientTransform="matrix(-1, 0, 0, 1, 1623.82831, -268.30264)" xlink:href="#b26c98e5-dc39-4fa8-8f15-815c0c43d0e0"/><linearGradient id="3904afe6-013c-45c9-9950-b7e9bd2ec9d8" x1="1324.11084" y1="711.31291" x2="1331.68607" y2="711.3095" gradientTransform="matrix(-1, 0, 0, 1, 2145.78906, 0)" xlink:href="#b26c98e5-dc39-4fa8-8f15-815c0c43d0e0"/><linearGradient id="bf82e37c-f7a2-4969-95e5-981ff16495c4" x1="1485.02013" y1="714.17942" x2="1485.02949" y2="714.17942" gradientTransform="matrix(-1, 0, 0, 1, 1773.82831, -268.30264)" xlink:href="#b26c98e5-dc39-4fa8-8f15-815c0c43d0e0"/><linearGradient id="28ee3c52-b136-4dc0-997a-ff8798bf5630" x1="1485.0282" y1="711.31291" x2="1492.60343" y2="711.3095" gradientTransform="matrix(-1, 0, 0, 1, 2295.78906, 0)" xlink:href="#b26c98e5-dc39-4fa8-8f15-815c0c43d0e0"/><linearGradient id="8932adc9-4169-40cd-9f4b-634b653836dd" x1="286.95432" y1="445.87754" x2="286.96369" y2="445.87753" xlink:href="#b26c98e5-dc39-4fa8-8f15-815c0c43d0e0"/><linearGradient id="8d5852b8-ce79-4250-a40e-484d72eff5e5" x1="808.92315" y1="711.31366" x2="816.49838" y2="711.31026" xlink:href="#b26c98e5-dc39-4fa8-8f15-815c0c43d0e0"/><linearGradient id="390485f0-8470-49bb-8f84-8b245b22cea4" x1="291.04834" y1="445.87754" x2="291.0577" y2="445.87753" xlink:href="#b26c98e5-dc39-4fa8-8f15-815c0c43d0e0"/><linearGradient id="a063ee65-0154-4e74-9724-0d1a5ea6efb2" x1="813.01717" y1="711.31366" x2="820.5924" y2="711.31026" xlink:href="#b26c98e5-dc39-4fa8-8f15-815c0c43d0e0"/><linearGradient id="95d6d8ce-9ab9-4c73-bc6e-3194ac16ef4b" x1="297.32583" y1="445.87754" x2="297.3352" y2="445.87753" xlink:href="#b26c98e5-dc39-4fa8-8f15-815c0c43d0e0"/><linearGradient id="2c315135-fdf9-4b8d-b5d1-74d71bc290a8" x1="819.29466" y1="711.31366" x2="826.86989" y2="711.31026" xlink:href="#b26c98e5-dc39-4fa8-8f15-815c0c43d0e0"/><linearGradient id="69affe1c-fbc1-42d5-9dd0-5cf4daa2f208" x1="1250.68339" y1="714.17942" x2="1250.69276" y2="714.17942" gradientTransform="matrix(-1, 0, 0, 1, 1623.82831, -268.30264)" xlink:href="#b26c98e5-dc39-4fa8-8f15-815c0c43d0e0"/><linearGradient id="b41800e2-f58c-4322-bd90-f95db28bdb75" x1="1250.69147" y1="711.31291" x2="1258.2667" y2="711.3095" gradientTransform="matrix(-1, 0, 0, 1, 2145.78906, 0)" xlink:href="#b26c98e5-dc39-4fa8-8f15-815c0c43d0e0"/><linearGradient id="62b29638-a4aa-4849-bbc1-ae922cb4327b" x1="1411.60076" y1="714.17942" x2="1411.61012" y2="714.17942" gradientTransform="matrix(-1, 0, 0, 1, 1773.82831, -268.30264)" xlink:href="#b26c98e5-dc39-4fa8-8f15-815c0c43d0e0"/><linearGradient id="4f01e75e-1423-456b-8d8d-77470ea0c437" x1="1411.60883" y1="711.31291" x2="1419.18406" y2="711.3095" gradientTransform="matrix(-1, 0, 0, 1, 2295.78906, 0)" xlink:href="#b26c98e5-dc39-4fa8-8f15-815c0c43d0e0"/><linearGradient id="bc8ddf58-5e8d-43f5-8844-a57bea68d9af" x1="360.3737" y1="445.87754" x2="360.38306" y2="445.87753" xlink:href="#b26c98e5-dc39-4fa8-8f15-815c0c43d0e0"/><linearGradient id="31cb3732-922e-46a4-a68c-6fe96629546d" x1="882.34253" y1="711.31366" x2="889.91776" y2="711.31026" xlink:href="#b26c98e5-dc39-4fa8-8f15-815c0c43d0e0"/><linearGradient id="94482bfd-f31d-4170-a340-e1f5c81d546b" x1="364.46772" y1="445.87754" x2="364.47708" y2="445.87753" xlink:href="#b26c98e5-dc39-4fa8-8f15-815c0c43d0e0"/><linearGradient id="007e8445-6160-4a9c-be77-38e4dea88d2d" x1="886.43655" y1="711.31366" x2="894.01178" y2="711.31026" xlink:href="#b26c98e5-dc39-4fa8-8f15-815c0c43d0e0"/><linearGradient id="e93e0c93-1112-42c3-8ae4-b4f90e5c855c" x1="370.74521" y1="445.87754" x2="370.75458" y2="445.87753" xlink:href="#b26c98e5-dc39-4fa8-8f15-815c0c43d0e0"/><linearGradient id="8f092bff-5726-4c4f-8d93-3e40779559a1" x1="892.71404" y1="711.31366" x2="900.28927" y2="711.31026" xlink:href="#b26c98e5-dc39-4fa8-8f15-815c0c43d0e0"/><linearGradient id="3d7524b1-d83b-4787-91f5-e7a2fb09e485" x1="1350.03154" y1="714.17942" x2="1350.0409" y2="714.17942" gradientTransform="matrix(-1, 0, 0, 1, 1623.82831, -268.30264)" xlink:href="#b26c98e5-dc39-4fa8-8f15-815c0c43d0e0"/><linearGradient id="f617da7d-7844-4301-9c7c-f5c06f003e89" x1="1350.03961" y1="711.31291" x2="1357.61484" y2="711.3095" gradientTransform="matrix(-1, 0, 0, 1, 2145.78906, 0)" xlink:href="#b26c98e5-dc39-4fa8-8f15-815c0c43d0e0"/><linearGradient id="f3c62f57-4c17-48ca-b808-efa2e9f948dc" x1="1510.9489" y1="714.17942" x2="1510.95827" y2="714.17942" gradientTransform="matrix(-1, 0, 0, 1, 1773.82831, -268.30264)" xlink:href="#b26c98e5-dc39-4fa8-8f15-815c0c43d0e0"/><linearGradient id="2bac5b60-6f3d-4223-b3ca-281d5ee84b83" x1="1510.95698" y1="711.31291" x2="1518.53221" y2="711.3095" gradientTransform="matrix(-1, 0, 0, 1, 2295.78906, 0)" xlink:href="#b26c98e5-dc39-4fa8-8f15-815c0c43d0e0"/><linearGradient id="d8fa38b4-11ca-4f80-ac99-3ee88ede82e7" x1="261.02555" y1="445.87754" x2="261.03491" y2="445.87753" xlink:href="#b26c98e5-dc39-4fa8-8f15-815c0c43d0e0"/><linearGradient id="ca02e410-4c14-4b98-b882-3f215d5bdf45" x1="782.99438" y1="711.31366" x2="790.56961" y2="711.31026" xlink:href="#b26c98e5-dc39-4fa8-8f15-815c0c43d0e0"/><linearGradient id="1eb71408-f0e8-4fbb-85ad-34c2e0b31808" x1="265.11956" y1="445.87754" x2="265.12893" y2="445.87753" xlink:href="#b26c98e5-dc39-4fa8-8f15-815c0c43d0e0"/><linearGradient id="ed7763f9-a788-443f-866d-1ada0ce0fa47" x1="787.08839" y1="711.31366" x2="794.66362" y2="711.31026" xlink:href="#b26c98e5-dc39-4fa8-8f15-815c0c43d0e0"/><linearGradient id="365cf0a5-d6a9-408c-ac4b-d4794667828c" x1="271.39706" y1="445.87754" x2="271.40642" y2="445.87753" xlink:href="#b26c98e5-dc39-4fa8-8f15-815c0c43d0e0"/><linearGradient id="531f7fc5-754a-4ad4-96dd-35a65a6437c9" x1="793.36589" y1="711.31366" x2="800.94112" y2="711.31026" xlink:href="#b26c98e5-dc39-4fa8-8f15-815c0c43d0e0"/><linearGradient id="12cd7e33-10b8-4804-afa9-c3bfd1790f8f" x1="1374.86857" y1="714.17942" x2="1374.87794" y2="714.17942" gradientTransform="matrix(-1, 0, 0, 1, 1623.82831, -268.30264)" xlink:href="#b26c98e5-dc39-4fa8-8f15-815c0c43d0e0"/><linearGradient id="feab554a-1da0-4aac-86bc-71a88f047ecb" x1="1374.87665" y1="711.31291" x2="1382.45188" y2="711.3095" gradientTransform="matrix(-1, 0, 0, 1, 2145.78906, 0)" xlink:href="#b26c98e5-dc39-4fa8-8f15-815c0c43d0e0"/><linearGradient id="50c9b564-2ef7-4b94-8fdd-4187c3355bf7" x1="1535.78594" y1="714.17942" x2="1535.7953" y2="714.17942" gradientTransform="matrix(-1, 0, 0, 1, 1773.82831, -268.30264)" xlink:href="#b26c98e5-dc39-4fa8-8f15-815c0c43d0e0"/><linearGradient id="cd34dc63-16e3-4508-858d-83075c07865c" x1="1535.79401" y1="711.31291" x2="1543.36924" y2="711.3095" gradientTransform="matrix(-1, 0, 0, 1, 2295.78906, 0)" xlink:href="#b26c98e5-dc39-4fa8-8f15-815c0c43d0e0"/><linearGradient id="8f294224-b94a-4898-ba4b-02ae183d1395" x1="236.18851" y1="445.87754" x2="236.19787" y2="445.87753" xlink:href="#b26c98e5-dc39-4fa8-8f15-815c0c43d0e0"/><linearGradient id="95abe131-f7c3-4aae-b843-44b5fc6000d9" x1="758.15734" y1="711.31366" x2="765.73257" y2="711.31026" xlink:href="#b26c98e5-dc39-4fa8-8f15-815c0c43d0e0"/><linearGradient id="4142e0a0-91ea-4798-b272-678a6367dc39" x1="240.28252" y1="445.87754" x2="240.29189" y2="445.87753" xlink:href="#b26c98e5-dc39-4fa8-8f15-815c0c43d0e0"/><linearGradient id="5dba76fa-578c-4532-b682-66c099baddd1" x1="762.25136" y1="711.31366" x2="769.82659" y2="711.31026" xlink:href="#b26c98e5-dc39-4fa8-8f15-815c0c43d0e0"/><linearGradient id="39fb9f59-928a-4086-8d10-13c4c6729c90" x1="246.56002" y1="445.87754" x2="246.56938" y2="445.87753" xlink:href="#b26c98e5-dc39-4fa8-8f15-815c0c43d0e0"/><linearGradient id="b2d143cb-c655-4e3d-b8a2-f5ee21e2fd60" x1="768.52885" y1="711.31366" x2="776.10408" y2="711.31026" xlink:href="#b26c98e5-dc39-4fa8-8f15-815c0c43d0e0"/><linearGradient id="da801269-fc75-4713-aef2-b825484d4703" x1="230.25461" y1="445.62778" x2="230.26397" y2="445.62777" xlink:href="#b26c98e5-dc39-4fa8-8f15-815c0c43d0e0"/><linearGradient id="84753598-2f27-4bd4-a2f5-8d07a88b5f6d" x1="752.22344" y1="711.0639" x2="759.79867" y2="711.06049" xlink:href="#b26c98e5-dc39-4fa8-8f15-815c0c43d0e0"/><linearGradient id="f6a6ff1c-e142-42ec-8ae5-d206bb362173" x1="234.34863" y1="445.62778" x2="234.35799" y2="445.62777" xlink:href="#b26c98e5-dc39-4fa8-8f15-815c0c43d0e0"/><linearGradient id="03fb2c0e-79bb-4f52-8c1e-55b35664dd6a" x1="756.31746" y1="711.0639" x2="763.89269" y2="711.06049" xlink:href="#b26c98e5-dc39-4fa8-8f15-815c0c43d0e0"/><linearGradient id="4bd77c30-a58d-4f9a-8c1b-68859ca556f8" x1="315.13724" y1="445.62778" x2="315.1466" y2="445.62777" xlink:href="#b26c98e5-dc39-4fa8-8f15-815c0c43d0e0"/><linearGradient id="01268f2f-c1d2-46d5-a3c5-5755ad432ff8" x1="837.10607" y1="711.0639" x2="844.6813" y2="711.06049" xlink:href="#b26c98e5-dc39-4fa8-8f15-815c0c43d0e0"/><linearGradient id="6e84ba90-2ff0-4fa9-8b00-69c6504783b0" x1="319.23125" y1="445.62778" x2="319.24062" y2="445.62777" xlink:href="#b26c98e5-dc39-4fa8-8f15-815c0c43d0e0"/><linearGradient id="da8730af-4814-420f-a179-6ed90eb9f27e" x1="841.20008" y1="711.0639" x2="848.77531" y2="711.06049" xlink:href="#b26c98e5-dc39-4fa8-8f15-815c0c43d0e0"/><linearGradient id="220a1835-6a4b-4c73-8fbe-00db62dfb2bc" x1="824.03578" y1="714.65505" x2="824.04515" y2="714.65505" gradientTransform="translate(-516.75777 -270.98076) rotate(0.13564)" xlink:href="#b26c98e5-dc39-4fa8-8f15-815c0c43d0e0"/><linearGradient id="c39c0c9e-d36c-4736-a8ce-a7d7385826e9" x1="824.04386" y1="711.79012" x2="831.61908" y2="711.78672" gradientTransform="translate(5.20299 -2.67812) rotate(0.13564)" xlink:href="#b26c98e5-dc39-4fa8-8f15-815c0c43d0e0"/><linearGradient id="c982eef7-9762-4a59-844f-5d40627c6508" x1="325.50875" y1="445.62778" x2="325.51811" y2="445.62777" xlink:href="#b26c98e5-dc39-4fa8-8f15-815c0c43d0e0"/><linearGradient id="f694a7af-d41a-4ec4-90ec-c7b7b78efc70" x1="847.47758" y1="711.0639" x2="855.05281" y2="711.06049" xlink:href="#b26c98e5-dc39-4fa8-8f15-815c0c43d0e0"/><linearGradient id="d7e1ac54-9537-4276-a245-50e509e6996b" x1="340.79308" y1="445.62778" x2="340.80244" y2="445.62777" xlink:href="#b26c98e5-dc39-4fa8-8f15-815c0c43d0e0"/><linearGradient id="21c5337d-db7e-48dc-97c1-3c7422aec873" x1="862.76191" y1="711.0639" x2="870.33714" y2="711.06049" xlink:href="#b26c98e5-dc39-4fa8-8f15-815c0c43d0e0"/><linearGradient id="4a502176-35af-42b5-9c82-1bdd9e42ab15" x1="344.88709" y1="445.62778" x2="344.89646" y2="445.62777" xlink:href="#b26c98e5-dc39-4fa8-8f15-815c0c43d0e0"/><linearGradient id="4d592881-e390-4c8f-8345-36237d3e3def" x1="866.85593" y1="711.0639" x2="874.43116" y2="711.06049" xlink:href="#b26c98e5-dc39-4fa8-8f15-815c0c43d0e0"/><linearGradient id="b080e290-4511-4d1f-9b12-9b382819f7be" x1="849.69151" y1="714.59432" x2="849.70087" y2="714.59431" gradientTransform="translate(-516.75777 -270.98076) rotate(0.13564)" xlink:href="#b26c98e5-dc39-4fa8-8f15-815c0c43d0e0"/><linearGradient id="e67cb702-e4bb-4602-b678-b99c27fd7d1b" x1="849.69958" y1="711.72939" x2="857.2748" y2="711.72598" gradientTransform="translate(5.20299 -2.67812) rotate(0.13564)" xlink:href="#b26c98e5-dc39-4fa8-8f15-815c0c43d0e0"/><linearGradient id="8f2ee06b-51cf-4df3-a8c3-93e1d98a4ce5" x1="351.16459" y1="445.62778" x2="351.17395" y2="445.62777" xlink:href="#b26c98e5-dc39-4fa8-8f15-815c0c43d0e0"/><linearGradient id="a9bc3e83-8b3e-4ca2-ad6e-808b27906d6a" x1="873.13342" y1="711.0639" x2="880.70865" y2="711.06049" xlink:href="#b26c98e5-dc39-4fa8-8f15-815c0c43d0e0"/><linearGradient id="2d981c1a-244e-473c-a014-8186a990cd9f" x1="1484.67653" y1="713.92966" x2="1484.6859" y2="713.92966" gradientTransform="matrix(-1, 0, 0, 1, 1773.82831, -268.30264)" xlink:href="#b26c98e5-dc39-4fa8-8f15-815c0c43d0e0"/><linearGradient id="3cb0821e-b797-4637-94e6-0119b90e0330" x1="1484.68461" y1="711.06314" x2="1492.25984" y2="711.05974" gradientTransform="matrix(-1, 0, 0, 1, 2295.78906, 0)" xlink:href="#b26c98e5-dc39-4fa8-8f15-815c0c43d0e0"/><linearGradient id="0381e870-b374-4478-84cf-c3d743b159ad" x1="287.29792" y1="445.62778" x2="287.30728" y2="445.62777" xlink:href="#b26c98e5-dc39-4fa8-8f15-815c0c43d0e0"/><linearGradient id="67cf8301-f741-4112-84d5-f0e0e87f756f" x1="809.26675" y1="711.0639" x2="816.84198" y2="711.06049" xlink:href="#b26c98e5-dc39-4fa8-8f15-815c0c43d0e0"/><linearGradient id="defc4c48-28f5-42b8-b7b5-e948bffec829" x1="291.39193" y1="445.62778" x2="291.4013" y2="445.62777" xlink:href="#b26c98e5-dc39-4fa8-8f15-815c0c43d0e0"/><linearGradient id="fe8aed7d-e29a-46dc-9099-4a2578b0af71" x1="813.36077" y1="711.0639" x2="820.936" y2="711.06049" xlink:href="#b26c98e5-dc39-4fa8-8f15-815c0c43d0e0"/><linearGradient id="c3ae2496-b54b-4f5a-a1b5-e8f88da3d518" x1="297.66943" y1="445.62778" x2="297.67879" y2="445.62777" xlink:href="#b26c98e5-dc39-4fa8-8f15-815c0c43d0e0"/><linearGradient id="1dbbc296-af34-455e-b417-29059d0c1bff" x1="819.63826" y1="711.0639" x2="827.21349" y2="711.06049" xlink:href="#b26c98e5-dc39-4fa8-8f15-815c0c43d0e0"/><linearGradient id="1b0c5e26-f0fc-4e0f-8dae-44d52969581f" x1="1411.25716" y1="713.92966" x2="1411.26653" y2="713.92966" gradientTransform="matrix(-1, 0, 0, 1, 1773.82831, -268.30264)" xlink:href="#b26c98e5-dc39-4fa8-8f15-815c0c43d0e0"/><linearGradient id="9e17afe6-6d06-43d4-9196-961d92639ea6" x1="1411.26524" y1="711.06314" x2="1418.84047" y2="711.05974" gradientTransform="matrix(-1, 0, 0, 1, 2295.78906, 0)" xlink:href="#b26c98e5-dc39-4fa8-8f15-815c0c43d0e0"/><linearGradient id="26ab1ada-670c-4f61-ab8f-66f2ece5a304" x1="360.71729" y1="445.62778" x2="360.72666" y2="445.62777" xlink:href="#b26c98e5-dc39-4fa8-8f15-815c0c43d0e0"/><linearGradient id="724543b0-783d-4677-b0e5-1ee5f7bc6333" x1="882.68613" y1="711.0639" x2="890.26136" y2="711.06049" xlink:href="#b26c98e5-dc39-4fa8-8f15-815c0c43d0e0"/><linearGradient id="89367230-b468-423a-93a3-6358470d6560" x1="364.81131" y1="445.62778" x2="364.82068" y2="445.62777" xlink:href="#b26c98e5-dc39-4fa8-8f15-815c0c43d0e0"/><linearGradient id="5a72cd17-7da6-42a0-bed1-56cdb75c44d6" x1="886.78014" y1="711.0639" x2="894.35537" y2="711.06049" xlink:href="#b26c98e5-dc39-4fa8-8f15-815c0c43d0e0"/><linearGradient id="8e22623d-268f-4fd6-80ff-a3444d3312f2" x1="371.08881" y1="445.62778" x2="371.09817" y2="445.62777" xlink:href="#b26c98e5-dc39-4fa8-8f15-815c0c43d0e0"/><linearGradient id="0c3ea8bd-afea-4d93-99b2-1df1207f9714" x1="893.05764" y1="711.0639" x2="900.63287" y2="711.06049" xlink:href="#b26c98e5-dc39-4fa8-8f15-815c0c43d0e0"/><linearGradient id="29905462-b004-43fb-a114-79598a1047a0" x1="261.36914" y1="445.62778" x2="261.37851" y2="445.62777" xlink:href="#b26c98e5-dc39-4fa8-8f15-815c0c43d0e0"/><linearGradient id="4809a9fa-e93a-4d4a-b4b4-61d4cdabefeb" x1="783.33797" y1="711.0639" x2="790.9132" y2="711.06049" xlink:href="#b26c98e5-dc39-4fa8-8f15-815c0c43d0e0"/><linearGradient id="c74b87ac-d957-49d5-b68a-50a5e17154b8" x1="265.46316" y1="445.62778" x2="265.47252" y2="445.62777" xlink:href="#b26c98e5-dc39-4fa8-8f15-815c0c43d0e0"/><linearGradient id="2229340f-92d7-477c-90dc-eeb895808221" x1="787.43199" y1="711.0639" x2="795.00722" y2="711.06049" xlink:href="#b26c98e5-dc39-4fa8-8f15-815c0c43d0e0"/><linearGradient id="19e09352-ced0-49de-b880-7ab1b8f75c3a" x1="271.74065" y1="445.62778" x2="271.75002" y2="445.62777" xlink:href="#b26c98e5-dc39-4fa8-8f15-815c0c43d0e0"/><linearGradient id="e4dcf818-908e-4552-bf7a-5d998799da9e" x1="793.70948" y1="711.0639" x2="801.28471" y2="711.06049" xlink:href="#b26c98e5-dc39-4fa8-8f15-815c0c43d0e0"/><linearGradient id="79e177ff-128b-483b-abe9-6a53bbace503" x1="240.62612" y1="445.62778" x2="240.63549" y2="445.62777" xlink:href="#b26c98e5-dc39-4fa8-8f15-815c0c43d0e0"/><linearGradient id="c6e2d6a0-7bf4-4810-aed9-17d59c3a8f39" x1="762.59495" y1="711.0639" x2="770.17018" y2="711.06049" xlink:href="#b26c98e5-dc39-4fa8-8f15-815c0c43d0e0"/><linearGradient id="96ca296b-766b-4468-925d-c53fe326928a" x1="1521.79562" y1="713.92966" x2="1521.80498" y2="713.92966" gradientTransform="matrix(-1, 0, 0, 1, 1773.82831, -268.30264)" xlink:href="#b26c98e5-dc39-4fa8-8f15-815c0c43d0e0"/><linearGradient id="7c122ea5-9b83-4c5f-992e-9c5535c6099c" x1="1521.8037" y1="711.06314" x2="1529.37893" y2="711.05974" gradientTransform="matrix(-1, 0, 0, 1, 2295.78906, 0)" xlink:href="#b26c98e5-dc39-4fa8-8f15-815c0c43d0e0"/><linearGradient id="f1fae0a6-1026-4575-aca7-a73f27813e16" x1="250.17883" y1="445.62778" x2="250.18819" y2="445.62777" xlink:href="#b26c98e5-dc39-4fa8-8f15-815c0c43d0e0"/><linearGradient id="c13dc565-0af7-4a4a-baa2-ca10718cff23" x1="772.14766" y1="711.0639" x2="779.72289" y2="711.06049" xlink:href="#b26c98e5-dc39-4fa8-8f15-815c0c43d0e0"/><linearGradient id="79193bbe-a6ca-4621-abe1-3e9a2829dbc6" x1="254.27284" y1="445.62778" x2="254.28221" y2="445.62777" xlink:href="#b26c98e5-dc39-4fa8-8f15-815c0c43d0e0"/><linearGradient id="d0fb1d52-925a-4924-9926-39119a43e657" x1="776.24168" y1="711.0639" x2="783.81691" y2="711.06049" xlink:href="#b26c98e5-dc39-4fa8-8f15-815c0c43d0e0"/><linearGradient id="2a4eb843-42f9-48c4-bbb1-f3ecb7c02e93" x1="260.55034" y1="445.62778" x2="260.5597" y2="445.62777" xlink:href="#b26c98e5-dc39-4fa8-8f15-815c0c43d0e0"/><linearGradient id="9ac71926-9861-4fe1-af71-1edca901d91b" x1="782.51917" y1="711.0639" x2="790.0944" y2="711.06049" xlink:href="#b26c98e5-dc39-4fa8-8f15-815c0c43d0e0"/><linearGradient id="1e658969-23a8-45c5-9574-440ba1f21972" x1="892" y1="673" x2="892" y2="673" gradientUnits="userSpaceOnUse"><stop offset="0" stop-color="#b76eff"/><stop offset="0.07808" stop-color="#a579f8"/><stop offset="0.23561" stop-color="#7496e7"/><stop offset="0.45619" stop-color="#28c4cc"/><stop offset="0.5639" stop-color="#00dcbe"/><stop offset="0.73862" stop-color="#00dcbe"/><stop offset="1" stop-color="#00dcbe"/></linearGradient><linearGradient id="b2ed75aa-289d-488b-8d65-dcff9aff7a69" x1="249.97958" y1="2230.55511" x2="303.30176" y2="2261.34069" gradientTransform="matrix(0.78921, 0.61412, -0.47011, 0.60415, 1989.57678, -967.33405)" gradientUnits="userSpaceOnUse"><stop offset="0" stop-color="#d26ca3"/><stop offset="1" stop-color="#4f1974"/></linearGradient><linearGradient id="bbba1d2d-db5e-4dc8-b956-33ae0cd20e2e" x1="3914.52562" y1="-261.5544" x2="3966.93104" y2="-231.29812" gradientTransform="matrix(-0.70448, -0.70972, 0.49432, -0.49066, 4006.87637, 3248.27739)" xlink:href="#b2ed75aa-289d-488b-8d65-dcff9aff7a69"/><linearGradient id="575df8ee-0d82-4bfe-bf8d-62f432c64569" x1="-841.74097" y1="1813.55076" x2="-787.41929" y2="1844.9134" gradientTransform="matrix(0.5119, 0.25931, -0.23287, 0.45972, 1991.14238, -97.98086)" xlink:href="#b2ed75aa-289d-488b-8d65-dcff9aff7a69"/><linearGradient id="ce8a98a9-4837-4e7f-b3a7-59ab0c1fd59b" x1="492.25134" y1="2545.66762" x2="546.08174" y2="2576.74662" gradientTransform="matrix(0.8205, -0.57164, -0.4376, -0.6281, 1848.29309, 2471.2805)" xlink:href="#b2ed75aa-289d-488b-8d65-dcff9aff7a69"/><linearGradient id="618d0348-7bd5-46b3-8c0f-7be741758ad5" x1="-20.61242" y1="811.91243" x2="83.65613" y2="872.11191" gradientTransform="translate(1122.26205 -180.59236) rotate(2.14767)" xlink:href="#b2ed75aa-289d-488b-8d65-dcff9aff7a69"/><linearGradient id="66f3b4f0-b4c6-4b13-b9b5-c61d82594f01" x1="127.30772" y1="486.48133" x2="172.86127" y2="512.78168" gradientTransform="translate(953.35969 43.62927) rotate(-4)" xlink:href="#b2ed75aa-289d-488b-8d65-dcff9aff7a69"/><linearGradient id="549e32ee-0edf-4fd1-af00-2ffac7dede15" x1="3647.5722" y1="-827.7265" x2="3701.41396" y2="-796.64094" gradientTransform="matrix(-0.77691, 0.41705, 0.31694, 0.59451, 4222.06458, -501.22407)" xlink:href="#b2ed75aa-289d-488b-8d65-dcff9aff7a69"/><linearGradient id="6714e0f8-69c5-4272-bded-70224e87b5ff" x1="113.88072" y1="1226.58566" x2="124.88971" y2="1232.9417" gradientTransform="matrix(0.97294, 0.23107, -0.17688, 0.74479, 1238.21758, -365.95691)" xlink:href="#b2ed75aa-289d-488b-8d65-dcff9aff7a69"/><linearGradient id="e0c0d37d-f3ca-46b0-aa7f-748e1449181f" x1="-807.29737" y1="321.5573" x2="-796.42276" y2="327.83575" gradientTransform="matrix(0.57335, 0.0234, -0.02101, 0.5149, 1600.54264, 424.29492)" xlink:href="#b2ed75aa-289d-488b-8d65-dcff9aff7a69"/><linearGradient id="2eaf105a-f4fa-4507-b543-811c8f7dbf70" x1="1212.00586" y1="3062.02382" x2="1222.67881" y2="3068.18584" gradientTransform="matrix(0.50915, -0.86068, -0.65885, -0.38976, 2537.1799, 2821.00527)" xlink:href="#b2ed75aa-289d-488b-8d65-dcff9aff7a69"/><linearGradient id="d58f0a1f-e035-4372-8ee1-e5e9faac9953" x1="557.86287" y1="-163.81088" x2="566.4848" y2="-158.833" gradientTransform="matrix(0.87858, -0.47759, 0.47759, 0.87858, 715.19826, 983.94808)" xlink:href="#b2ed75aa-289d-488b-8d65-dcff9aff7a69"/><linearGradient id="1b65573c-292a-494d-a4c1-7a86eba3626b" x1="2907.54329" y1="-1460.68694" x2="2918.3657" y2="-1454.43861" gradientTransform="matrix(-0.53367, 0.70194, 0.53514, 0.40929, 3462.7427, -868.69769)" xlink:href="#b2ed75aa-289d-488b-8d65-dcff9aff7a69"/></defs><title>house</title><rect x="758.92508" y="327.36244" width="3.77059" height="313.46526" transform="translate(-245.24545 976.60281) rotate(-90)" style="fill:#b76eff"/><rect x="395.58225" y="178.0111" width="78.87807" height="213.86802" style="fill:#8000ff"/><rect x="533.96004" y="178.0111" width="19.92422" height="344.783" style="fill:#8000ff"/><rect x="554.02072" y="176.50286" width="3.41168" height="346.44206" style="fill:#b76eff"/><rect x="394.76345" y="176.50286" width="159.39374" height="1.50824" style="fill:#b76eff"/><polygon points="533.96 522.794 533.96 260.964 474.46 260.964 474.46 370.161 474.46 522.794 533.96 522.794" style="fill:#ffbdff"/><polygon points="533.96 522.794 533.96 260.964 474.46 260.964 474.46 370.161 474.46 522.794 533.96 522.794" style="fill:#8000dd;opacity:0.15"/><polygon points="554.157 178.011 533.96 260.964 474.46 260.964 394.763 178.011 554.157 178.011" style="fill:#8000dd"/><rect x="743.71505" y="617.26878" width="346.29124" height="1.36467" transform="translate(1012.85103 -567.21219) rotate(90)" style="fill:#b76eff"/><polygon points="81.981 217.527 173.414 368.351 394.218 368.351 394.218 217.678 81.981 217.527" style="fill:#8000dd"/><polygon points="163.315 237.737 255.108 326.12 256.113 445.572 185.761 445.572 163.315 445.572 163.315 237.737" style="fill:url(#b26c98e5-dc39-4fa8-8f15-815c0c43d0e0)"/><polygon points="394.218 456.733 394.218 327.025 227.182 327.025 227.182 381.12 227.182 456.733 394.218 456.733" style="fill:#ffc4ff;opacity:0.9"/><polygon points="138.189 445.622 337.159 445.523 337.19 522.745 256.892 522.785 138.189 445.622" style="fill:url(#b26c98e5-dc39-4fa8-8f15-815c0c43d0e0)"/><rect x="127.01471" y="237.73728" width="36.30029" height="195.16588" style="fill:url(#34f243e0-29ae-4f10-bb1c-e9f8186cbdfb)"/><polygon points="127.015 432.903 163.315 432.903 181.602 445.572 138.205 445.572 127.015 432.903" style="fill:#9338a3"/><rect x="201.25289" y="283.28604" width="193.23762" height="1.50824" style="fill:#b76eff"/><rect x="201.25289" y="301.83736" width="193.23762" height="3.01647" style="fill:#b76eff"/><rect x="641.53898" y="632.20033" width="161.98466" height="1.36467" transform="translate(833.45322 -357.95129) rotate(90)" style="fill:#b76eff"/><rect x="664.8749" y="631.51801" width="161.98466" height="2.72934" transform="translate(-408.97594 1110.4475) rotate(-90.00002)" style="fill:#b76eff"/><polygon points="138.205 445.572 138.205 522.794 310.7 522.794 138.205 445.572" style="fill:url(#abb7516e-db97-4d17-ade1-11439549cc10)"/><polygon points="163.315 237.737 163.315 271.689 127.015 254.713 127.015 237.737 163.315 237.737" style="fill:#9338a3"/><polygon points="474.46 335.32 520.313 335.169 520.313 522.945 474.46 522.794 474.46 335.32" style="fill:#ffd4ff"/><polygon points="520.313 335.169 533.96 317.373 533.96 522.794 520.313 522.794 520.313 335.169" style="fill:#e8b4e9"/><polygon points="488.71 522.794 488.653 343.314 377.296 343.314 377.296 445.674 337.174 445.674 337.174 522.794 488.71 522.794" style="fill:url(#2c798c77-79c5-456c-bdc2-f1335a64a478)"/><polygon points="488.71 359.849 533.96 398.086 533.96 522.794 488.653 522.794 488.71 359.849" style="opacity:0.1"/><polygon points="163.315 237.737 163.315 271.689 127.015 254.713 127.015 237.737 163.315 237.737" style="opacity:0.1"/><path d="M747.0132,680.33218a55.4692,55.4692,0,0,0-8.08492,8.54218c-2.47571,3.23756-4.04755,3.44931-4.43447-1.22864a24.96663,24.96663,0,0,0-3.04042-10.08083,14.92322,14.92322,0,0,0-4.11351,5.9299c-2.94864,7.82054,1.68585,15.47363,2.14618,16.2084a25.41687,25.41687,0,0,0-4.65006-13.24345,21.51148,21.51148,0,0,0-9.65781-7.51121c.83124,4.13226,1.832,8.49446,3.04042,13.04579,1.13472,4.27379,2.34155,8.29621,3.577,12.05746a43.2134,43.2134,0,0,0-5.5443-7.51121,39.92677,39.92677,0,0,0-13.23478-9.48784,106.64029,106.64029,0,0,0,7.15393,13.63877,101.14,101.14,0,0,0,16.6329,20.35933h6.97509A99.65983,99.65983,0,0,0,754.346,700.09851a104.34519,104.34519,0,0,0,6.25969-9.6855,60.92593,60.92593,0,0,0-11.26744,4.34859c-7.10151,3.58038-11.08571,8.45556-11.804,7.70887-.37267-.38741.17468-2.208,4.65006-8.89485Z" transform="translate(-521.96075 -268.30264)" style="fill:url(#6cfbc136-2f06-40ab-8322-3df8b12bf18c)"/><path d="M749.87477,667.08873a116.00746,116.00746,0,0,1-6.08084,13.83644,111.22415,111.22415,0,0,1-11.98284,18.38269l.71539.593Z" transform="translate(-521.96075 -268.30264)" style="fill:url(#deb1a3da-c06b-4ed3-9430-b787c9d06145)"/><ellipse cx="227.64574" cy="398.4896" rx="0.08942" ry="0.09883" style="fill:#f2f2f2"/><ellipse cx="227.64574" cy="398.00642" rx="0.14904" ry="0.14276" style="fill:#f2f2f2"/><ellipse cx="227.64574" cy="398.29193" rx="0.14904" ry="0.14276" style="fill:#f2f2f2"/><ellipse cx="227.34766" cy="397.72091" rx="0.14904" ry="0.14276" style="fill:#f2f2f2"/><ellipse cx="227.64574" cy="398.68726" rx="0.08942" ry="0.09883" style="fill:#f2f2f2"/><ellipse cx="227.94382" cy="397.72091" rx="0.14904" ry="0.14276" style="fill:#f2f2f2"/><ellipse cx="227.82459" cy="398.68726" rx="0.08942" ry="0.09883" style="fill:#f2f2f2"/><ellipse cx="227.34766" cy="398.00642" rx="0.14904" ry="0.14276" style="fill:#f2f2f2"/><ellipse cx="227.82459" cy="398.88492" rx="0.08942" ry="0.09883" style="fill:#f2f2f2"/><ellipse cx="227.64574" cy="398.88492" rx="0.08942" ry="0.09883" style="fill:#f2f2f2"/><ellipse cx="227.64574" cy="397.43539" rx="0.14904" ry="0.14276" style="fill:#f2f2f2"/><ellipse cx="227.82459" cy="398.4896" rx="0.08942" ry="0.09883" style="fill:#f2f2f2"/><ellipse cx="227.82459" cy="398.88492" rx="0.08942" ry="0.09883" style="fill:#f2f2f2"/><ellipse cx="227.94382" cy="398.57745" rx="0.14904" ry="0.14276" style="fill:#f2f2f2"/><ellipse cx="227.94382" cy="398.86296" rx="0.14904" ry="0.14276" style="fill:#f2f2f2"/><ellipse cx="227.64574" cy="398.29193" rx="0.14904" ry="0.14276" style="fill:#f2f2f2"/><ellipse cx="227.82459" cy="399.08259" rx="0.08942" ry="0.09883" style="fill:#f2f2f2"/><ellipse cx="228.24191" cy="398.29193" rx="0.14904" ry="0.14276" style="fill:#f2f2f2"/><ellipse cx="227.34766" cy="398.86296" rx="0.14904" ry="0.14276" style="fill:#f2f2f2"/><ellipse cx="227.64574" cy="398.57745" rx="0.14904" ry="0.14276" style="fill:#f2f2f2"/><ellipse cx="227.34766" cy="399.14847" rx="0.14904" ry="0.14276" style="fill:#f2f2f2"/><ellipse cx="227.82459" cy="399.28025" rx="0.08942" ry="0.09883" style="fill:#f2f2f2"/><ellipse cx="227.94382" cy="398.00642" rx="0.14904" ry="0.14276" style="fill:#f2f2f2"/><ellipse cx="227.34766" cy="398.57745" rx="0.14904" ry="0.14276" style="fill:#f2f2f2"/><ellipse cx="227.34766" cy="399.43399" rx="0.14904" ry="0.14276" style="fill:#f2f2f2"/><ellipse cx="228.24191" cy="399.43399" rx="0.14904" ry="0.14276" style="fill:#f2f2f2"/><ellipse cx="227.94382" cy="399.14847" rx="0.14904" ry="0.14276" style="fill:#f2f2f2"/><ellipse cx="228.53999" cy="399.14847" rx="0.14904" ry="0.14276" style="fill:#f2f2f2"/><ellipse cx="227.94383" cy="399.43399" rx="0.14904" ry="0.14276" style="fill:#f2f2f2"/><ellipse cx="228.24191" cy="398.86296" rx="0.14904" ry="0.14276" style="fill:#f2f2f2"/><ellipse cx="227.64574" cy="399.43399" rx="0.14904" ry="0.14276" style="fill:#f2f2f2"/><ellipse cx="228.53999" cy="399.43399" rx="0.14904" ry="0.14276" style="fill:#f2f2f2"/><ellipse cx="227.94382" cy="397.72091" rx="0.14904" ry="0.14276" style="fill:#f2f2f2"/><ellipse cx="227.94382" cy="398.00642" rx="0.14904" ry="0.14276" style="fill:#f2f2f2"/><ellipse cx="228.24191" cy="397.43539" rx="0.14904" ry="0.14276" style="fill:#f2f2f2"/><ellipse cx="227.94382" cy="397.14988" rx="0.14904" ry="0.14276" style="fill:#f2f2f2"/><ellipse cx="228.24191" cy="398.29193" rx="0.14904" ry="0.14276" style="fill:#f2f2f2"/><ellipse cx="228.24191" cy="398.57745" rx="0.14904" ry="0.14276" style="fill:#f2f2f2"/><ellipse cx="227.94382" cy="398.00642" rx="0.14904" ry="0.14276" style="fill:#f2f2f2"/><ellipse cx="228.53999" cy="398.00642" rx="0.14904" ry="0.14276" style="fill:#f2f2f2"/><ellipse cx="227.94383" cy="398.29193" rx="0.14904" ry="0.14276" style="fill:#f2f2f2"/><ellipse cx="228.24191" cy="397.72091" rx="0.14904" ry="0.14276" style="fill:#f2f2f2"/><ellipse cx="228.53999" cy="399.14847" rx="0.14904" ry="0.14276" style="fill:#f2f2f2"/><ellipse cx="228.24191" cy="398.86296" rx="0.14904" ry="0.14276" style="fill:#f2f2f2"/><ellipse cx="228.83807" cy="398.86296" rx="0.14904" ry="0.14276" style="fill:#f2f2f2"/><ellipse cx="228.24191" cy="399.14847" rx="0.14904" ry="0.14276" style="fill:#f2f2f2"/><ellipse cx="228.53999" cy="398.57745" rx="0.14904" ry="0.14276" style="fill:#f2f2f2"/><ellipse cx="227.94382" cy="399.14847" rx="0.14904" ry="0.14276" style="fill:#f2f2f2"/><ellipse cx="228.83807" cy="399.14847" rx="0.14904" ry="0.14276" style="fill:#f2f2f2"/><path d="M759.51394,708.44534" transform="translate(-521.96075 -268.30264)" style="fill:url(#15ee7d0e-db86-4b76-b5c7-49b96681a6fe)"/><polygon points="302.785 445.881 302.794 445.874 302.785 445.874 302.785 445.881" style="fill:url(#47c8302a-8dcf-43c7-bb27-3e36fb4fbf22)"/><path d="M824.75464,714.17664h7.57523a3.41427,3.41427,0,0,1-1.22291-1.20659c-1.127-1.79884-1.07817-4.56116-1.26095-4.52471a8.24686,8.24686,0,0,0-.18008,3.61977,1.92272,1.92272,0,0,1,0,.90494c-.23745.64056-1.1136.39385-1.441.30165a2.7513,2.7513,0,0,1-1.441-.90494c-1.20955-1.37391-1.47442-3.69334-1.62118-3.61977-.17568.08808.44335,3.29264.36019,4.22306A1.69953,1.69953,0,0,1,824.75464,714.17664Z" transform="translate(-521.96075 -268.30264)" style="fill:url(#211a7ac8-3236-4b2e-a90e-87e29b6bad8c)"/><polygon points="327.564 445.881 327.555 445.874 327.564 445.874 327.564 445.881" style="fill:url(#e4d31062-f681-4bdb-b624-16f96dc52bc9)"/><path d="M849.51538,714.17664h-7.57523a3.41427,3.41427,0,0,0,1.22291-1.20659c1.12705-1.79884,1.07818-4.56116,1.26095-4.52471a8.24686,8.24686,0,0,1,.18008,3.61977,1.92272,1.92272,0,0,0,0,.90494c.23746.64056,1.1136.39385,1.441.30165a2.75132,2.75132,0,0,0,1.441-.90494c1.20955-1.37391,1.47442-3.69334,1.62118-3.61977.17569.08808-.44335,3.29264-.36019,4.22306A1.69953,1.69953,0,0,0,849.51538,714.17664Z" transform="translate(-521.96075 -268.30264)" style="fill:url(#08e2bf23-4ad5-42d3-ba69-74ea978253a2)"/><polygon points="316.647 445.881 316.637 445.874 316.647 445.874 316.647 445.881" style="fill:url(#1bc0a40d-6330-4de7-b595-9b0b55ed64d7)"/><path d="M838.598,714.17664h-7.57523a3.41419,3.41419,0,0,0,1.22291-1.20659c1.12705-1.79884,1.07818-4.56116,1.261-4.52471a8.2471,8.2471,0,0,1,.18007,3.61977,1.92285,1.92285,0,0,0,0,.90494c.23746.64056,1.1136.39385,1.441.30165a2.75129,2.75129,0,0,0,1.441-.90494c1.20955-1.37391,1.47442-3.69334,1.62118-3.61977.17569.08808-.44335,3.29264-.36019,4.22306A1.69953,1.69953,0,0,0,838.598,714.17664Z" transform="translate(-521.96075 -268.30264)" style="fill:url(#ccd38aa4-e592-4843-8c13-1f25f389d418)"/><polygon points="314.794 445.881 314.803 445.874 314.794 445.874 314.794 445.881" style="fill:url(#f4c603b9-79df-415f-828d-899b3ed81e5d)"/><path d="M836.76376,714.17664H844.339a3.41427,3.41427,0,0,1-1.22291-1.20659c-1.12705-1.79884-1.07818-4.56116-1.26095-4.52471a8.24686,8.24686,0,0,0-.18008,3.61977,1.92272,1.92272,0,0,1,0,.90494c-.23746.64056-1.1136.39385-1.441.30165a2.75132,2.75132,0,0,1-1.441-.90494c-1.20955-1.37391-1.47442-3.69334-1.62118-3.61977-.17568.08808.44335,3.29264.36019,4.22306A1.69953,1.69953,0,0,1,836.76376,714.17664Z" transform="translate(-521.96075 -268.30264)" style="fill:url(#079bdf65-1d02-4b5b-b6c3-993a13c79600)"/><polygon points="318.888 445.881 318.897 445.874 318.888 445.874 318.888 445.881" style="fill:url(#6498d064-13d9-46b2-bd3d-f57ee5dba682)"/><path d="M840.85778,714.17664H848.433a3.41419,3.41419,0,0,1-1.22291-1.20659c-1.12706-1.79884-1.07818-4.56116-1.261-4.52471a8.247,8.247,0,0,0-.18008,3.61977,1.92272,1.92272,0,0,1,0,.90494c-.23745.64056-1.11359.39385-1.441.30165a2.75129,2.75129,0,0,1-1.441-.90494c-1.20955-1.37391-1.47442-3.69334-1.62119-3.61977-.17568.08808.44336,3.29264.3602,4.22306A1.69956,1.69956,0,0,1,840.85778,714.17664Z" transform="translate(-521.96075 -268.30264)" style="fill:url(#fddebb3f-852c-4d1f-bf55-f122d5ede310)"/><polygon points="305.235 445.871 305.244 445.864 305.235 445.864 305.235 445.871" style="fill:url(#b49de7aa-654b-454b-9fd4-d2121d895777)"/><path d="M827.20493,714.16674l7.57521.01982a3.41667,3.41667,0,0,1-1.22032-1.20979c-1.1232-1.80178-1.0684-4.564-1.25126-4.528a8.24612,8.24612,0,0,0-.18783,3.61929,1.92274,1.92274,0,0,1-.00194.90494c-.23882.63994-1.11444.39094-1.44164.29788a2.753,2.753,0,0,1-1.4391-.90871c-1.2066-1.37707-1.4665-3.69719-1.61342-3.624-.17587.08761.4363,3.29379.35114,4.224A1.6985,1.6985,0,0,1,827.20493,714.16674Z" transform="translate(-521.96075 -268.30264)" style="fill:url(#3890427f-677b-4df7-b201-7cdaeae3cf5f)"/><polygon points="325.165 445.881 325.175 445.874 325.165 445.874 325.165 445.881" style="fill:url(#0e8518f2-02ab-496a-b13e-3728c07dcb9a)"/><path d="M847.13527,714.17664h7.57523a3.41427,3.41427,0,0,1-1.22291-1.20659c-1.127-1.79884-1.07818-4.56116-1.26095-4.52471a8.24686,8.24686,0,0,0-.18008,3.61977,1.92272,1.92272,0,0,1,0,.90494c-.23745.64056-1.1136.39385-1.441.30165a2.75132,2.75132,0,0,1-1.441-.90494c-1.20955-1.37391-1.47442-3.69334-1.62118-3.61977-.17568.08808.44335,3.29264.36019,4.22306A1.69953,1.69953,0,0,1,847.13527,714.17664Z" transform="translate(-521.96075 -268.30264)" style="fill:url(#658a39de-e66b-4c9f-a154-d48019e52de0)"/><polygon points="328.44 445.881 328.45 445.874 328.44 445.874 328.44 445.881" style="fill:url(#b6b664bc-f00e-4c11-86b6-6d1f822c38cf)"/><path d="M850.41048,714.17664h7.57523a3.41426,3.41426,0,0,1-1.2229-1.20659c-1.12706-1.79884-1.07818-4.56116-1.261-4.52471a8.247,8.247,0,0,0-.18008,3.61977,1.92272,1.92272,0,0,1,0,.90494c-.23745.64056-1.11359.39385-1.441.30165a2.75134,2.75134,0,0,1-1.441-.90494c-1.20954-1.37391-1.47442-3.69334-1.62118-3.61977-.17568.08808.44335,3.29264.36019,4.22306A1.69953,1.69953,0,0,1,850.41048,714.17664Z" transform="translate(-521.96075 -268.30264)" style="fill:url(#a3fe3445-ae04-47c1-8851-04f578b45d12)"/><polygon points="353.22 445.881 353.21 445.874 353.22 445.874 353.22 445.881" style="fill:url(#68c7a682-d9eb-4317-a013-50623c12ace4)"/><path d="M875.17122,714.17664H867.596a3.41419,3.41419,0,0,0,1.22291-1.20659c1.12705-1.79884,1.07818-4.56116,1.261-4.52471a8.247,8.247,0,0,1,.18008,3.61977,1.92272,1.92272,0,0,0,0,.90494c.23745.64056,1.11359.39385,1.441.30165a2.75129,2.75129,0,0,0,1.441-.90494c1.20955-1.37391,1.47442-3.69334,1.62119-3.61977.17568.08808-.44336,3.29264-.3602,4.22306A1.69956,1.69956,0,0,0,875.17122,714.17664Z" transform="translate(-521.96075 -268.30264)" style="fill:url(#9ff6a937-b2c7-479d-9186-3f657273408e)"/><polygon points="342.302 445.881 342.293 445.874 342.302 445.874 342.302 445.881" style="fill:url(#9e4eb307-0608-45a7-aef9-51c8643c6335)"/><path d="M864.25384,714.17664h-7.57523a3.41419,3.41419,0,0,0,1.22291-1.20659c1.12706-1.79884,1.07818-4.56116,1.261-4.52471a8.247,8.247,0,0,1,.18008,3.61977,1.92272,1.92272,0,0,0,0,.90494c.23745.64056,1.11359.39385,1.441.30165a2.75129,2.75129,0,0,0,1.441-.90494c1.20955-1.37391,1.47442-3.69334,1.62119-3.61977.17568.08808-.44336,3.29264-.3602,4.22306A1.69956,1.69956,0,0,0,864.25384,714.17664Z" transform="translate(-521.96075 -268.30264)" style="fill:url(#9205354c-a102-4546-9f83-638df8348657)"/><polygon points="340.449 445.881 340.459 445.874 340.449 445.874 340.449 445.881" style="fill:url(#1d113729-cc68-49de-949e-fedfb9504a0b)"/><path d="M862.4196,714.17664h7.57523a3.41427,3.41427,0,0,1-1.22291-1.20659c-1.12705-1.79884-1.07817-4.56116-1.26095-4.52471a8.24686,8.24686,0,0,0-.18008,3.61977,1.92272,1.92272,0,0,1,0,.90494c-.23745.64056-1.1136.39385-1.441.30165a2.7513,2.7513,0,0,1-1.441-.90494c-1.20955-1.37391-1.47442-3.69334-1.62118-3.61977-.17568.08808.44335,3.29264.36019,4.22306A1.69953,1.69953,0,0,1,862.4196,714.17664Z" transform="translate(-521.96075 -268.30264)" style="fill:url(#d1c29ca7-b874-42ce-9fb3-21beb71404e9)"/><polygon points="344.544 445.881 344.553 445.874 344.544 445.874 344.544 445.881" style="fill:url(#42d3039f-ba0b-4546-ae9d-ced6dea5f2ef)"/><path d="M866.51362,714.17664h7.57523a3.41427,3.41427,0,0,1-1.22291-1.20659c-1.12705-1.79884-1.07818-4.56116-1.261-4.52471a8.2471,8.2471,0,0,0-.18007,3.61977,1.92285,1.92285,0,0,1,0,.90494c-.23746.64056-1.1136.39385-1.441.30165a2.75132,2.75132,0,0,1-1.441-.90494c-1.20955-1.37391-1.47442-3.69334-1.62118-3.61977-.17569.08808.44335,3.29264.36019,4.22306A1.69953,1.69953,0,0,1,866.51362,714.17664Z" transform="translate(-521.96075 -268.30264)" style="fill:url(#f001a566-f15c-4b4d-a9ca-4ab9f2069aaf)"/><polygon points="330.891 445.871 330.9 445.864 330.891 445.864 330.891 445.871" style="fill:url(#5c4b1297-4a9c-4e40-9a72-3b435795cb27)"/><path d="M852.86077,714.16674l7.57521.01982a3.41667,3.41667,0,0,1-1.22032-1.20979c-1.1232-1.80178-1.0684-4.564-1.25126-4.528a8.24612,8.24612,0,0,0-.18783,3.61929,1.92261,1.92261,0,0,1-.00194.90494c-.23882.63994-1.11443.39094-1.44164.29788a2.753,2.753,0,0,1-1.4391-.90871c-1.2066-1.37707-1.4665-3.69719-1.61342-3.624-.17587.08761.4363,3.29379.35115,4.224A1.69852,1.69852,0,0,1,852.86077,714.16674Z" transform="translate(-521.96075 -268.30264)" style="fill:url(#d9533124-cba4-47b2-9fdd-131da4e10942)"/><polygon points="350.821 445.881 350.83 445.874 350.821 445.874 350.821 445.881" style="fill:url(#a0c1725f-95d5-4596-9d6e-32d0ab509154)"/><path d="M872.79111,714.17664h7.57523a3.41427,3.41427,0,0,1-1.22291-1.20659c-1.127-1.79884-1.07817-4.56116-1.26095-4.52471a8.24686,8.24686,0,0,0-.18008,3.61977,1.92272,1.92272,0,0,1,0,.90494c-.23745.64056-1.1136.39385-1.441.30165a2.7513,2.7513,0,0,1-1.441-.90494c-1.20955-1.37391-1.47442-3.69334-1.62118-3.61977-.17568.08808.44335,3.29264.36019,4.22306A1.69953,1.69953,0,0,1,872.79111,714.17664Z" transform="translate(-521.96075 -268.30264)" style="fill:url(#84b4bc64-9833-4755-a63d-96739c68203a)"/><polygon points="299.725 445.881 299.715 445.874 299.725 445.874 299.725 445.881" style="fill:url(#c2f0f22c-6d8f-4cfa-b2c9-13073913f2f4)"/><path d="M821.67606,714.17664h-7.57523a3.41419,3.41419,0,0,0,1.22291-1.20659c1.12706-1.79884,1.07818-4.56116,1.261-4.52471a8.247,8.247,0,0,1,.18008,3.61977,1.92272,1.92272,0,0,0,0,.90494c.23745.64056,1.11359.39385,1.441.30165a2.75129,2.75129,0,0,0,1.441-.90494c1.20955-1.37391,1.47442-3.69334,1.62119-3.61977.17568.08808-.44336,3.29264-.3602,4.22306A1.69956,1.69956,0,0,0,821.67606,714.17664Z" transform="translate(-521.96075 -268.30264)" style="fill:url(#3904afe6-013c-45c9-9950-b7e9bd2ec9d8)"/><polygon points="288.807 445.881 288.798 445.874 288.807 445.874 288.807 445.881" style="fill:url(#bf82e37c-f7a2-4969-95e5-981ff16495c4)"/><path d="M810.75869,714.17664h-7.57524a3.41419,3.41419,0,0,0,1.22291-1.20659c1.12706-1.79884,1.07818-4.56116,1.261-4.52471a8.247,8.247,0,0,1,.18008,3.61977,1.92272,1.92272,0,0,0,0,.90494c.23745.64056,1.11359.39385,1.441.30165a2.75129,2.75129,0,0,0,1.441-.90494c1.20955-1.37391,1.47442-3.69334,1.62119-3.61977.17568.08808-.44336,3.29264-.3602,4.22306A1.69954,1.69954,0,0,0,810.75869,714.17664Z" transform="translate(-521.96075 -268.30264)" style="fill:url(#28ee3c52-b136-4dc0-997a-ff8798bf5630)"/><polygon points="286.954 445.881 286.964 445.874 286.954 445.874 286.954 445.881" style="fill:url(#8932adc9-4169-40cd-9f4b-634b653836dd)"/><path d="M808.92444,714.17664h7.57523a3.41427,3.41427,0,0,1-1.22291-1.20659c-1.127-1.79884-1.07817-4.56116-1.26095-4.52471a8.24686,8.24686,0,0,0-.18008,3.61977,1.92272,1.92272,0,0,1,0,.90494c-.23745.64056-1.1136.39385-1.441.30165a2.7513,2.7513,0,0,1-1.441-.90494c-1.20955-1.37391-1.47442-3.69334-1.62118-3.61977-.17568.08808.44335,3.29264.36019,4.22306A1.69953,1.69953,0,0,1,808.92444,714.17664Z" transform="translate(-521.96075 -268.30264)" style="fill:url(#8d5852b8-ce79-4250-a40e-484d72eff5e5)"/><polygon points="291.048 445.881 291.058 445.874 291.048 445.874 291.048 445.881" style="fill:url(#390485f0-8470-49bb-8f84-8b245b22cea4)"/><path d="M813.01846,714.17664h7.57523a3.41427,3.41427,0,0,1-1.22291-1.20659c-1.127-1.79884-1.07818-4.56116-1.26095-4.52471a8.24686,8.24686,0,0,0-.18008,3.61977,1.92272,1.92272,0,0,1,0,.90494c-.23746.64056-1.1136.39385-1.441.30165a2.75132,2.75132,0,0,1-1.441-.90494c-1.20955-1.37391-1.47442-3.69334-1.62118-3.61977-.17569.08808.44335,3.29264.36019,4.22306A1.69953,1.69953,0,0,1,813.01846,714.17664Z" transform="translate(-521.96075 -268.30264)" style="fill:url(#a063ee65-0154-4e74-9724-0d1a5ea6efb2)"/><polygon points="297.326 445.881 297.335 445.874 297.326 445.874 297.326 445.881" style="fill:url(#95d6d8ce-9ab9-4c73-bc6e-3194ac16ef4b)"/><path d="M819.29595,714.17664h7.57523a3.41427,3.41427,0,0,1-1.22291-1.20659c-1.12705-1.79884-1.07817-4.56116-1.26095-4.52471a8.24686,8.24686,0,0,0-.18008,3.61977,1.92272,1.92272,0,0,1,0,.90494c-.23745.64056-1.1136.39385-1.441.30165a2.7513,2.7513,0,0,1-1.441-.90494c-1.20955-1.37391-1.47442-3.69334-1.62118-3.61977-.17568.08808.44335,3.29264.36019,4.22306A1.69953,1.69953,0,0,1,819.29595,714.17664Z" transform="translate(-521.96075 -268.30264)" style="fill:url(#2c315135-fdf9-4b8d-b5d1-74d71bc290a8)"/><polygon points="373.144 445.881 373.135 445.874 373.144 445.874 373.144 445.881" style="fill:url(#69affe1c-fbc1-42d5-9dd0-5cf4daa2f208)"/><path d="M895.09544,714.17664h-7.57523a3.41427,3.41427,0,0,0,1.22291-1.20659c1.12705-1.79884,1.07818-4.56116,1.26095-4.52471a8.24686,8.24686,0,0,1,.18008,3.61977,1.92272,1.92272,0,0,0,0,.90494c.23746.64056,1.1136.39385,1.441.30165a2.75132,2.75132,0,0,0,1.441-.90494c1.20955-1.37391,1.47442-3.69334,1.62118-3.61977.17568.08808-.44335,3.29264-.36019,4.22306A1.69953,1.69953,0,0,0,895.09544,714.17664Z" transform="translate(-521.96075 -268.30264)" style="fill:url(#b41800e2-f58c-4322-bd90-f95db28bdb75)"/><polygon points="362.227 445.881 362.217 445.874 362.227 445.874 362.227 445.881" style="fill:url(#62b29638-a4aa-4849-bbc1-ae922cb4327b)"/><path d="M884.17806,714.17664h-7.57523a3.41427,3.41427,0,0,0,1.22291-1.20659c1.12705-1.79884,1.07818-4.56116,1.26095-4.52471a8.24686,8.24686,0,0,1,.18008,3.61977,1.92272,1.92272,0,0,0,0,.90494c.23746.64056,1.1136.39385,1.441.30165a2.75132,2.75132,0,0,0,1.441-.90494c1.20955-1.37391,1.47442-3.69334,1.62118-3.61977.17569.08808-.44335,3.29264-.36019,4.22306A1.69953,1.69953,0,0,0,884.17806,714.17664Z" transform="translate(-521.96075 -268.30264)" style="fill:url(#4f01e75e-1423-456b-8d8d-77470ea0c437)"/><polygon points="360.374 445.881 360.383 445.874 360.374 445.874 360.374 445.881" style="fill:url(#bc8ddf58-5e8d-43f5-8844-a57bea68d9af)"/><path d="M882.34382,714.17664h7.57523a3.41427,3.41427,0,0,1-1.22291-1.20659c-1.12705-1.79884-1.07818-4.56116-1.26095-4.52471a8.24686,8.24686,0,0,0-.18008,3.61977,1.92272,1.92272,0,0,1,0,.90494c-.23746.64056-1.1136.39385-1.441.30165a2.75132,2.75132,0,0,1-1.441-.90494c-1.20955-1.37391-1.47442-3.69334-1.62118-3.61977-.17569.08808.44335,3.29264.36019,4.22306A1.69953,1.69953,0,0,1,882.34382,714.17664Z" transform="translate(-521.96075 -268.30264)" style="fill:url(#31cb3732-922e-46a4-a68c-6fe96629546d)"/><polygon points="364.468 445.881 364.477 445.874 364.468 445.874 364.468 445.881" style="fill:url(#94482bfd-f31d-4170-a340-e1f5c81d546b)"/><path d="M886.43783,714.17664h7.57524a3.41419,3.41419,0,0,1-1.22291-1.20659c-1.12706-1.79884-1.07818-4.56116-1.261-4.52471a8.247,8.247,0,0,0-.18008,3.61977,1.92272,1.92272,0,0,1,0,.90494c-.23745.64056-1.11359.39385-1.441.30165a2.75129,2.75129,0,0,1-1.441-.90494c-1.20955-1.37391-1.47442-3.69334-1.62119-3.61977-.17568.08808.44336,3.29264.3602,4.22306A1.69954,1.69954,0,0,1,886.43783,714.17664Z" transform="translate(-521.96075 -268.30264)" style="fill:url(#007e8445-6160-4a9c-be77-38e4dea88d2d)"/><polygon points="370.745 445.881 370.755 445.874 370.745 445.874 370.745 445.881" style="fill:url(#e93e0c93-1112-42c3-8ae4-b4f90e5c855c)"/><path d="M892.71533,714.17664h7.57523a3.41427,3.41427,0,0,1-1.22291-1.20659c-1.127-1.79884-1.07818-4.56116-1.26095-4.52471a8.24686,8.24686,0,0,0-.18008,3.61977,1.92272,1.92272,0,0,1,0,.90494c-.23746.64056-1.1136.39385-1.441.30165a2.75132,2.75132,0,0,1-1.441-.90494c-1.20955-1.37391-1.47442-3.69334-1.62118-3.61977-.17568.08808.44335,3.29264.36019,4.22306A1.69953,1.69953,0,0,1,892.71533,714.17664Z" transform="translate(-521.96075 -268.30264)" style="fill:url(#8f092bff-5726-4c4f-8d93-3e40779559a1)"/><polygon points="273.796 445.881 273.787 445.874 273.796 445.874 273.796 445.881" style="fill:url(#3d7524b1-d83b-4787-91f5-e7a2fb09e485)"/><path d="M795.74729,714.17664h-7.57523a3.41426,3.41426,0,0,0,1.2229-1.20659c1.12706-1.79884,1.07818-4.56116,1.261-4.52471a8.247,8.247,0,0,1,.18008,3.61977,1.92272,1.92272,0,0,0,0,.90494c.23745.64056,1.11359.39385,1.441.30165a2.7513,2.7513,0,0,0,1.441-.90494c1.20955-1.37391,1.47442-3.69334,1.62118-3.61977.17568.08808-.44335,3.29264-.36019,4.22306A1.69953,1.69953,0,0,0,795.74729,714.17664Z" transform="translate(-521.96075 -268.30264)" style="fill:url(#f617da7d-7844-4301-9c7c-f5c06f003e89)"/><polygon points="262.879 445.881 262.869 445.874 262.879 445.874 262.879 445.881" style="fill:url(#f3c62f57-4c17-48ca-b808-efa2e9f948dc)"/><path d="M784.82991,714.17664h-7.57523a3.41427,3.41427,0,0,0,1.22291-1.20659c1.12705-1.79884,1.07817-4.56116,1.26095-4.52471a8.24686,8.24686,0,0,1,.18008,3.61977,1.92272,1.92272,0,0,0,0,.90494c.23745.64056,1.11359.39385,1.441.30165a2.7513,2.7513,0,0,0,1.441-.90494c1.20955-1.37391,1.47442-3.69334,1.62118-3.61977.17568.08808-.44335,3.29264-.36019,4.22306A1.69953,1.69953,0,0,0,784.82991,714.17664Z" transform="translate(-521.96075 -268.30264)" style="fill:url(#2bac5b60-6f3d-4223-b3ca-281d5ee84b83)"/><polygon points="261.026 445.881 261.035 445.874 261.026 445.874 261.026 445.881" style="fill:url(#d8fa38b4-11ca-4f80-ac99-3ee88ede82e7)"/><path d="M782.99566,714.17664h7.57524a3.41419,3.41419,0,0,1-1.22291-1.20659c-1.12706-1.79884-1.07818-4.56116-1.261-4.52471a8.247,8.247,0,0,0-.18008,3.61977,1.92272,1.92272,0,0,1,0,.90494c-.23745.64056-1.11359.39385-1.441.30165a2.75134,2.75134,0,0,1-1.441-.90494c-1.20954-1.37391-1.47441-3.69334-1.62118-3.61977-.17568.08808.44335,3.29264.3602,4.22306A1.69954,1.69954,0,0,1,782.99566,714.17664Z" transform="translate(-521.96075 -268.30264)" style="fill:url(#ca02e410-4c14-4b98-b882-3f215d5bdf45)"/><polygon points="265.12 445.881 265.129 445.874 265.12 445.874 265.12 445.881" style="fill:url(#1eb71408-f0e8-4fbb-85ad-34c2e0b31808)"/><path d="M787.08968,714.17664h7.57523a3.41427,3.41427,0,0,1-1.22291-1.20659c-1.12705-1.79884-1.07817-4.56116-1.26095-4.52471a8.24686,8.24686,0,0,0-.18008,3.61977,1.92272,1.92272,0,0,1,0,.90494c-.23745.64056-1.11359.39385-1.441.30165a2.7513,2.7513,0,0,1-1.441-.90494c-1.20955-1.37391-1.47442-3.69334-1.62118-3.61977-.17568.08808.44335,3.29264.36019,4.22306A1.69953,1.69953,0,0,1,787.08968,714.17664Z" transform="translate(-521.96075 -268.30264)" style="fill:url(#ed7763f9-a788-443f-866d-1ada0ce0fa47)"/><polygon points="271.397 445.881 271.406 445.874 271.397 445.874 271.397 445.881" style="fill:url(#365cf0a5-d6a9-408c-ac4b-d4794667828c)"/><path d="M793.36717,714.17664h7.57524a3.41419,3.41419,0,0,1-1.22291-1.20659c-1.12706-1.79884-1.07818-4.56116-1.261-4.52471a8.247,8.247,0,0,0-.18008,3.61977,1.92272,1.92272,0,0,1,0,.90494c-.23745.64056-1.11359.39385-1.441.30165a2.75134,2.75134,0,0,1-1.441-.90494c-1.20954-1.37391-1.47441-3.69334-1.62118-3.61977-.17568.08808.44336,3.29264.3602,4.22306A1.69954,1.69954,0,0,1,793.36717,714.17664Z" transform="translate(-521.96075 -268.30264)" style="fill:url(#531f7fc5-754a-4ad4-96dd-35a65a6437c9)"/><polygon points="248.959 445.881 248.949 445.874 248.959 445.874 248.959 445.881" style="fill:url(#12cd7e33-10b8-4804-afa9-c3bfd1790f8f)"/><path d="M770.91025,714.17664H763.335a3.41427,3.41427,0,0,0,1.22291-1.20659c1.127-1.79884,1.07817-4.56116,1.26095-4.52471a8.24686,8.24686,0,0,1,.18008,3.61977,1.92272,1.92272,0,0,0,0,.90494c.23745.64056,1.1136.39385,1.441.30165a2.7513,2.7513,0,0,0,1.441-.90494c1.20955-1.37391,1.47442-3.69334,1.62118-3.61977.17568.08808-.44335,3.29264-.36019,4.22306A1.69953,1.69953,0,0,0,770.91025,714.17664Z" transform="translate(-521.96075 -268.30264)" style="fill:url(#feab554a-1da0-4aac-86bc-71a88f047ecb)"/><polygon points="238.041 445.881 238.032 445.874 238.041 445.874 238.041 445.881" style="fill:url(#50c9b564-2ef7-4b94-8fdd-4187c3355bf7)"/><path d="M759.99287,714.17664h-7.57523a3.41427,3.41427,0,0,0,1.22291-1.20659c1.12705-1.79884,1.07817-4.56116,1.261-4.52471a8.24686,8.24686,0,0,1,.18008,3.61977,1.92272,1.92272,0,0,0,0,.90494c.23745.64056,1.1136.39385,1.441.30165a2.7513,2.7513,0,0,0,1.441-.90494c1.20955-1.37391,1.47442-3.69334,1.62118-3.61977.17568.08808-.44335,3.29264-.36019,4.22306A1.69953,1.69953,0,0,0,759.99287,714.17664Z" transform="translate(-521.96075 -268.30264)" style="fill:url(#cd34dc63-16e3-4508-858d-83075c07865c)"/><polygon points="236.189 445.881 236.198 445.874 236.189 445.874 236.189 445.881" style="fill:url(#8f294224-b94a-4898-ba4b-02ae183d1395)"/><path d="M758.15863,714.17664h7.57523a3.41419,3.41419,0,0,1-1.22291-1.20659c-1.12706-1.79884-1.07818-4.56116-1.261-4.52471a8.247,8.247,0,0,0-.18008,3.61977,1.92272,1.92272,0,0,1,0,.90494c-.23745.64056-1.11359.39385-1.441.30165a2.75129,2.75129,0,0,1-1.441-.90494c-1.20955-1.37391-1.47442-3.69334-1.62119-3.61977-.17568.08808.44336,3.29264.3602,4.22306A1.69956,1.69956,0,0,1,758.15863,714.17664Z" transform="translate(-521.96075 -268.30264)" style="fill:url(#95abe131-f7c3-4aae-b843-44b5fc6000d9)"/><polygon points="240.283 445.881 240.292 445.874 240.283 445.874 240.283 445.881" style="fill:url(#4142e0a0-91ea-4798-b272-678a6367dc39)"/><path d="M762.25264,714.17664h7.57523a3.41426,3.41426,0,0,1-1.2229-1.20659c-1.12706-1.79884-1.07818-4.56116-1.261-4.52471a8.247,8.247,0,0,0-.18008,3.61977,1.92272,1.92272,0,0,1,0,.90494c-.23745.64056-1.11359.39385-1.441.30165a2.75134,2.75134,0,0,1-1.441-.90494c-1.20954-1.37391-1.47442-3.69334-1.62118-3.61977-.17568.08808.44335,3.29264.36019,4.22306A1.69953,1.69953,0,0,1,762.25264,714.17664Z" transform="translate(-521.96075 -268.30264)" style="fill:url(#5dba76fa-578c-4532-b682-66c099baddd1)"/><polygon points="246.56 445.881 246.569 445.874 246.56 445.874 246.56 445.881" style="fill:url(#39fb9f59-928a-4086-8d10-13c4c6729c90)"/><path d="M768.53014,714.17664h7.57523a3.41419,3.41419,0,0,1-1.22291-1.20659c-1.12705-1.79884-1.07818-4.56116-1.261-4.52471a8.247,8.247,0,0,0-.18008,3.61977,1.92272,1.92272,0,0,1,0,.90494c-.23745.64056-1.11359.39385-1.441.30165a2.75129,2.75129,0,0,1-1.441-.90494c-1.20955-1.37391-1.47442-3.69334-1.62119-3.61977-.17568.08808.44336,3.29264.3602,4.22306A1.69956,1.69956,0,0,1,768.53014,714.17664Z" transform="translate(-521.96075 -268.30264)" style="fill:url(#b2d143cb-c655-4e3d-b8a2-f5ee21e2fd60)"/><polygon points="230.255 445.631 230.264 445.624 230.255 445.624 230.255 445.631" style="fill:url(#da801269-fc75-4713-aef2-b825484d4703)"/><path d="M752.22473,713.92688H759.8a3.41427,3.41427,0,0,1-1.22291-1.20659c-1.127-1.79884-1.07818-4.56116-1.261-4.52471a8.24708,8.24708,0,0,0-.18007,3.61977,1.92285,1.92285,0,0,1,0,.90494c-.23746.64056-1.1136.39385-1.441.30165a2.75129,2.75129,0,0,1-1.441-.90494c-1.20955-1.37391-1.47442-3.69334-1.62118-3.61977-.17569.08808.44335,3.29264.36019,4.22306A1.69953,1.69953,0,0,1,752.22473,713.92688Z" transform="translate(-521.96075 -268.30264)" style="fill:url(#84753598-2f27-4bd4-a2f5-8d07a88b5f6d)"/><polygon points="234.349 445.631 234.358 445.624 234.349 445.624 234.349 445.631" style="fill:url(#f6a6ff1c-e142-42ec-8ae5-d206bb362173)"/><path d="M756.31874,713.92688H763.894a3.41419,3.41419,0,0,1-1.22291-1.20659c-1.12706-1.79884-1.07818-4.56116-1.261-4.52471a8.247,8.247,0,0,0-.18008,3.61977,1.92272,1.92272,0,0,1,0,.90494c-.23745.64056-1.11359.39385-1.441.30165a2.75129,2.75129,0,0,1-1.441-.90494c-1.20955-1.37391-1.47442-3.69334-1.62119-3.61977-.17568.08808.44336,3.29264.3602,4.22306A1.69954,1.69954,0,0,1,756.31874,713.92688Z" transform="translate(-521.96075 -268.30264)" style="fill:url(#03fb2c0e-79bb-4f52-8c1e-55b35664dd6a)"/><polygon points="315.137 445.631 315.147 445.624 315.137 445.624 315.137 445.631" style="fill:url(#4bd77c30-a58d-4f9a-8c1b-68859ca556f8)"/><path d="M837.10735,713.92688h7.57523a3.41426,3.41426,0,0,1-1.2229-1.20659c-1.12706-1.79884-1.07818-4.56116-1.261-4.52471a8.247,8.247,0,0,0-.18008,3.61977,1.92272,1.92272,0,0,1,0,.90494c-.23745.64056-1.11359.39385-1.441.30165a2.75134,2.75134,0,0,1-1.441-.90494c-1.20954-1.37391-1.47442-3.69334-1.62118-3.61977-.17568.08808.44335,3.29264.36019,4.22306A1.69953,1.69953,0,0,1,837.10735,713.92688Z" transform="translate(-521.96075 -268.30264)" style="fill:url(#01268f2f-c1d2-46d5-a3c5-5755ad432ff8)"/><polygon points="319.231 445.631 319.241 445.624 319.231 445.624 319.231 445.631" style="fill:url(#6e84ba90-2ff0-4fa9-8b00-69c6504783b0)"/><path d="M841.20137,713.92688h7.57523a3.41427,3.41427,0,0,1-1.22291-1.20659c-1.127-1.79884-1.07817-4.56116-1.26095-4.52471a8.24683,8.24683,0,0,0-.18008,3.61977,1.92272,1.92272,0,0,1,0,.90494c-.23745.64056-1.1136.39385-1.441.30165a2.7513,2.7513,0,0,1-1.441-.90494c-1.20955-1.37391-1.47442-3.69334-1.62118-3.61977-.17568.08808.44335,3.29264.36019,4.22306A1.69953,1.69953,0,0,1,841.20137,713.92688Z" transform="translate(-521.96075 -268.30264)" style="fill:url(#da8730af-4814-420f-a179-6ed90eb9f27e)"/><polygon points="305.578 445.621 305.588 445.614 305.578 445.614 305.578 445.621" style="fill:url(#220a1835-6a4b-4c73-8fbe-00db62dfb2bc)"/><path d="M827.54853,713.917l7.57521.01982a3.41646,3.41646,0,0,1-1.22032-1.20978c-1.1232-1.80178-1.06841-4.564-1.25126-4.528a8.24585,8.24585,0,0,0-.18784,3.61929,1.92261,1.92261,0,0,1-.00194.90494c-.23882.63993-1.11443.39093-1.44164.29787a2.75286,2.75286,0,0,1-1.43909-.90871c-1.2066-1.37707-1.46651-3.69718-1.61343-3.624-.17587.08762.4363,3.2938.35115,4.224A1.6985,1.6985,0,0,1,827.54853,713.917Z" transform="translate(-521.96075 -268.30264)" style="fill:url(#c39c0c9e-d36c-4736-a8ce-a7d7385826e9)"/><polygon points="325.509 445.631 325.518 445.624 325.509 445.624 325.509 445.631" style="fill:url(#c982eef7-9762-4a59-844f-5d40627c6508)"/><path d="M847.47886,713.92688h7.57523a3.41426,3.41426,0,0,1-1.2229-1.20659c-1.12706-1.79884-1.07818-4.56116-1.261-4.52471a8.247,8.247,0,0,0-.18008,3.61977,1.92272,1.92272,0,0,1,0,.90494c-.23745.64056-1.11359.39385-1.441.30165a2.75134,2.75134,0,0,1-1.441-.90494c-1.20954-1.37391-1.47442-3.69334-1.62118-3.61977-.17568.08808.44335,3.29264.36019,4.22306A1.69953,1.69953,0,0,1,847.47886,713.92688Z" transform="translate(-521.96075 -268.30264)" style="fill:url(#f694a7af-d41a-4ec4-90ec-c7b7b78efc70)"/><polygon points="340.793 445.631 340.802 445.624 340.793 445.624 340.793 445.631" style="fill:url(#d7e1ac54-9537-4276-a245-50e509e6996b)"/><path d="M862.76319,713.92688h7.57524a3.41419,3.41419,0,0,1-1.22291-1.20659c-1.12706-1.79884-1.07818-4.56116-1.261-4.52471a8.247,8.247,0,0,0-.18008,3.61977,1.92272,1.92272,0,0,1,0,.90494c-.23745.64056-1.11359.39385-1.441.30165a2.75129,2.75129,0,0,1-1.441-.90494c-1.20955-1.37391-1.47442-3.69334-1.62119-3.61977-.17568.08808.44336,3.29264.3602,4.22306A1.69954,1.69954,0,0,1,862.76319,713.92688Z" transform="translate(-521.96075 -268.30264)" style="fill:url(#21c5337d-db7e-48dc-97c1-3c7422aec873)"/><polygon points="344.887 445.631 344.896 445.624 344.887 445.624 344.887 445.631" style="fill:url(#4a502176-35af-42b5-9c82-1bdd9e42ab15)"/><path d="M866.85721,713.92688h7.57523a3.41426,3.41426,0,0,1-1.2229-1.20659c-1.12706-1.79884-1.07818-4.56116-1.261-4.52471a8.247,8.247,0,0,0-.18008,3.61977,1.92272,1.92272,0,0,1,0,.90494c-.23745.64056-1.11359.39385-1.441.30165a2.75134,2.75134,0,0,1-1.441-.90494c-1.20954-1.37391-1.47442-3.69334-1.62118-3.61977-.17568.08808.44335,3.29264.36019,4.22306A1.69953,1.69953,0,0,1,866.85721,713.92688Z" transform="translate(-521.96075 -268.30264)" style="fill:url(#4d592881-e390-4c8f-8345-36237d3e3def)"/><polygon points="331.234 445.621 331.244 445.614 331.234 445.614 331.234 445.621" style="fill:url(#b080e290-4511-4d1f-9b12-9b382819f7be)"/><path d="M853.20437,713.917l7.57521.01982a3.41654,3.41654,0,0,1-1.22032-1.20978c-1.1232-1.80178-1.06841-4.564-1.25126-4.528a8.24619,8.24619,0,0,0-.18784,3.61929,1.92274,1.92274,0,0,1-.00193.90494c-.23883.63993-1.11444.39093-1.44165.29787a2.75286,2.75286,0,0,1-1.43909-.90871c-1.2066-1.37707-1.46651-3.69718-1.61342-3.624-.17587.08762.43629,3.2938.35114,4.224A1.6985,1.6985,0,0,1,853.20437,713.917Z" transform="translate(-521.96075 -268.30264)" style="fill:url(#e67cb702-e4bb-4602-b678-b99c27fd7d1b)"/><polygon points="351.165 445.631 351.174 445.624 351.165 445.624 351.165 445.631" style="fill:url(#8f2ee06b-51cf-4df3-a8c3-93e1d98a4ce5)"/><path d="M873.13471,713.92688h7.57523a3.41419,3.41419,0,0,1-1.22291-1.20659c-1.12706-1.79884-1.07818-4.56116-1.261-4.52471a8.247,8.247,0,0,0-.18008,3.61977,1.92272,1.92272,0,0,1,0,.90494c-.23745.64056-1.11359.39385-1.441.30165a2.75129,2.75129,0,0,1-1.441-.90494c-1.20955-1.37391-1.47442-3.69334-1.62119-3.61977-.17568.08808.44336,3.29264.3602,4.22306A1.69956,1.69956,0,0,1,873.13471,713.92688Z" transform="translate(-521.96075 -268.30264)" style="fill:url(#a9bc3e83-8b3e-4ca2-ad6e-808b27906d6a)"/><polygon points="289.151 445.631 289.142 445.624 289.151 445.624 289.151 445.631" style="fill:url(#2d981c1a-244e-473c-a014-8186a990cd9f)"/><path d="M811.10228,713.92688h-7.57523a3.41427,3.41427,0,0,0,1.22291-1.20659c1.12705-1.79884,1.07817-4.56116,1.26095-4.52471a8.24683,8.24683,0,0,1,.18008,3.61977,1.92272,1.92272,0,0,0,0,.90494c.23745.64056,1.1136.39385,1.441.30165a2.7513,2.7513,0,0,0,1.441-.90494c1.20955-1.37391,1.47442-3.69334,1.62118-3.61977.17568.08808-.44335,3.29264-.36019,4.22306A1.69953,1.69953,0,0,0,811.10228,713.92688Z" transform="translate(-521.96075 -268.30264)" style="fill:url(#3cb0821e-b797-4637-94e6-0119b90e0330)"/><polygon points="287.298 445.631 287.307 445.624 287.298 445.624 287.298 445.631" style="fill:url(#0381e870-b374-4478-84cf-c3d743b159ad)"/><path d="M809.268,713.92688h7.57523a3.41419,3.41419,0,0,1-1.22291-1.20659c-1.12706-1.79884-1.07818-4.56116-1.261-4.52471a8.247,8.247,0,0,0-.18008,3.61977,1.92272,1.92272,0,0,1,0,.90494c-.23745.64056-1.11359.39385-1.441.30165a2.75129,2.75129,0,0,1-1.441-.90494c-1.20955-1.37391-1.47442-3.69334-1.62119-3.61977-.17568.08808.44336,3.29264.3602,4.22306A1.69956,1.69956,0,0,1,809.268,713.92688Z" transform="translate(-521.96075 -268.30264)" style="fill:url(#67cf8301-f741-4112-84d5-f0e0e87f756f)"/><polygon points="291.392 445.631 291.401 445.624 291.392 445.624 291.392 445.631" style="fill:url(#defc4c48-28f5-42b8-b7b5-e948bffec829)"/><path d="M813.36205,713.92688h7.57523a3.41426,3.41426,0,0,1-1.2229-1.20659c-1.12706-1.79884-1.07818-4.56116-1.261-4.52471a8.247,8.247,0,0,0-.18008,3.61977,1.92272,1.92272,0,0,1,0,.90494c-.23745.64056-1.11359.39385-1.441.30165a2.75134,2.75134,0,0,1-1.441-.90494c-1.20954-1.37391-1.47442-3.69334-1.62118-3.61977-.17568.08808.44335,3.29264.36019,4.22306A1.69953,1.69953,0,0,1,813.36205,713.92688Z" transform="translate(-521.96075 -268.30264)" style="fill:url(#fe8aed7d-e29a-46dc-9099-4a2578b0af71)"/><polygon points="297.669 445.631 297.679 445.624 297.669 445.624 297.669 445.631" style="fill:url(#c3ae2496-b54b-4f5a-a1b5-e8f88da3d518)"/><path d="M819.63955,713.92688h7.57523a3.41419,3.41419,0,0,1-1.22291-1.20659c-1.127-1.79884-1.07818-4.56116-1.261-4.52471a8.247,8.247,0,0,0-.18008,3.61977,1.92272,1.92272,0,0,1,0,.90494c-.23745.64056-1.11359.39385-1.441.30165a2.75129,2.75129,0,0,1-1.441-.90494c-1.20955-1.37391-1.47442-3.69334-1.62119-3.61977-.17568.08808.44336,3.29264.3602,4.22306A1.69956,1.69956,0,0,1,819.63955,713.92688Z" transform="translate(-521.96075 -268.30264)" style="fill:url(#1dbbc296-af34-455e-b417-29059d0c1bff)"/><polygon points="362.57 445.631 362.561 445.624 362.57 445.624 362.57 445.631" style="fill:url(#1b0c5e26-f0fc-4e0f-8dae-44d52969581f)"/><path d="M884.52166,713.92688h-7.57523a3.41426,3.41426,0,0,0,1.2229-1.20659c1.12706-1.79884,1.07818-4.56116,1.261-4.52471a8.247,8.247,0,0,1,.18008,3.61977,1.92272,1.92272,0,0,0,0,.90494c.23745.64056,1.11359.39385,1.441.30165a2.75134,2.75134,0,0,0,1.441-.90494c1.20954-1.37391,1.47442-3.69334,1.62118-3.61977.17568.08808-.44335,3.29264-.36019,4.22306A1.69953,1.69953,0,0,0,884.52166,713.92688Z" transform="translate(-521.96075 -268.30264)" style="fill:url(#9e17afe6-6d06-43d4-9196-961d92639ea6)"/><polygon points="360.717 445.631 360.727 445.624 360.717 445.624 360.717 445.631" style="fill:url(#26ab1ada-670c-4f61-ab8f-66f2ece5a304)"/><path d="M882.68741,713.92688h7.57523a3.41426,3.41426,0,0,1-1.2229-1.20659c-1.12706-1.79884-1.07818-4.56116-1.261-4.52471a8.247,8.247,0,0,0-.18008,3.61977,1.92272,1.92272,0,0,1,0,.90494c-.23745.64056-1.11359.39385-1.441.30165a2.75134,2.75134,0,0,1-1.441-.90494c-1.20954-1.37391-1.47442-3.69334-1.62118-3.61977-.17568.08808.44335,3.29264.36019,4.22306A1.69953,1.69953,0,0,1,882.68741,713.92688Z" transform="translate(-521.96075 -268.30264)" style="fill:url(#724543b0-783d-4677-b0e5-1ee5f7bc6333)"/><polygon points="364.811 445.631 364.821 445.624 364.811 445.624 364.811 445.631" style="fill:url(#89367230-b468-423a-93a3-6358470d6560)"/><path d="M886.78143,713.92688h7.57523a3.41427,3.41427,0,0,1-1.22291-1.20659c-1.127-1.79884-1.07817-4.56116-1.26095-4.52471a8.24683,8.24683,0,0,0-.18008,3.61977,1.92272,1.92272,0,0,1,0,.90494c-.23745.64056-1.1136.39385-1.441.30165a2.7513,2.7513,0,0,1-1.441-.90494c-1.20955-1.37391-1.47442-3.69334-1.62118-3.61977-.17568.08808.44335,3.29264.36019,4.22306A1.69953,1.69953,0,0,1,886.78143,713.92688Z" transform="translate(-521.96075 -268.30264)" style="fill:url(#5a72cd17-7da6-42a0-bed1-56cdb75c44d6)"/><polygon points="371.089 445.631 371.098 445.624 371.089 445.624 371.089 445.631" style="fill:url(#8e22623d-268f-4fd6-80ff-a3444d3312f2)"/><path d="M893.05892,713.92688h7.57523a3.41426,3.41426,0,0,1-1.2229-1.20659c-1.12706-1.79884-1.07818-4.56116-1.261-4.52471a8.247,8.247,0,0,0-.18008,3.61977,1.92272,1.92272,0,0,1,0,.90494c-.23745.64056-1.11359.39385-1.441.30165a2.75134,2.75134,0,0,1-1.441-.90494c-1.20954-1.37391-1.47442-3.69334-1.62118-3.61977-.17568.08808.44335,3.29264.36019,4.22306A1.69953,1.69953,0,0,1,893.05892,713.92688Z" transform="translate(-521.96075 -268.30264)" style="fill:url(#0c3ea8bd-afea-4d93-99b2-1df1207f9714)"/><polygon points="261.369 445.631 261.379 445.624 261.369 445.624 261.369 445.631" style="fill:url(#29905462-b004-43fb-a114-79598a1047a0)"/><path d="M783.33926,713.92688h7.57523a3.41427,3.41427,0,0,1-1.22291-1.20659c-1.12705-1.79884-1.07818-4.56116-1.261-4.52471a8.24683,8.24683,0,0,0-.18008,3.61977,1.92272,1.92272,0,0,1,0,.90494c-.23745.64056-1.1136.39385-1.441.30165a2.75132,2.75132,0,0,1-1.441-.90494c-1.20955-1.37391-1.47442-3.69334-1.62118-3.61977-.17568.08808.44335,3.29264.36019,4.22306A1.69953,1.69953,0,0,1,783.33926,713.92688Z" transform="translate(-521.96075 -268.30264)" style="fill:url(#4809a9fa-e93a-4d4a-b4b4-61d4cdabefeb)"/><polygon points="265.463 445.631 265.473 445.624 265.463 445.624 265.463 445.631" style="fill:url(#c74b87ac-d957-49d5-b68a-50a5e17154b8)"/><path d="M787.43328,713.92688h7.57523a3.41419,3.41419,0,0,1-1.22291-1.20659c-1.12705-1.79884-1.07818-4.56116-1.261-4.52471a8.247,8.247,0,0,0-.18008,3.61977,1.92259,1.92259,0,0,1,0,.90494c-.23745.64056-1.11359.39385-1.441.30165a2.75129,2.75129,0,0,1-1.441-.90494c-1.20955-1.37391-1.47442-3.69334-1.62118-3.61977-.17569.08808.44335,3.29264.36019,4.22306A1.69953,1.69953,0,0,1,787.43328,713.92688Z" transform="translate(-521.96075 -268.30264)" style="fill:url(#2229340f-92d7-477c-90dc-eeb895808221)"/><polygon points="271.741 445.631 271.75 445.624 271.741 445.624 271.741 445.631" style="fill:url(#19e09352-ced0-49de-b880-7ab1b8f75c3a)"/><path d="M793.71077,713.92688H801.286a3.41427,3.41427,0,0,1-1.22291-1.20659c-1.127-1.79884-1.07817-4.56116-1.26095-4.52471a8.24683,8.24683,0,0,0-.18008,3.61977,1.92272,1.92272,0,0,1,0,.90494c-.23745.64056-1.1136.39385-1.441.30165a2.7513,2.7513,0,0,1-1.441-.90494c-1.20955-1.37391-1.47442-3.69334-1.62118-3.61977-.17568.08808.44335,3.29264.36019,4.22306A1.69953,1.69953,0,0,1,793.71077,713.92688Z" transform="translate(-521.96075 -268.30264)" style="fill:url(#e4dcf818-908e-4552-bf7a-5d998799da9e)"/><polygon points="240.626 445.631 240.635 445.624 240.626 445.624 240.626 445.631" style="fill:url(#79e177ff-128b-483b-abe9-6a53bbace503)"/><path d="M762.59624,713.92688h7.57523a3.41427,3.41427,0,0,1-1.22291-1.20659c-1.12705-1.79884-1.07818-4.56116-1.261-4.52471a8.24683,8.24683,0,0,0-.18008,3.61977,1.92272,1.92272,0,0,1,0,.90494c-.23746.64056-1.1136.39385-1.441.30165a2.75132,2.75132,0,0,1-1.441-.90494c-1.20955-1.37391-1.47442-3.69334-1.62118-3.61977-.17568.08808.44335,3.29264.36019,4.22306A1.69953,1.69953,0,0,1,762.59624,713.92688Z" transform="translate(-521.96075 -268.30264)" style="fill:url(#c6e2d6a0-7bf4-4810-aed9-17d59c3a8f39)"/><polygon points="252.032 445.631 252.022 445.624 252.032 445.624 252.032 445.631" style="fill:url(#96ca296b-766b-4468-925d-c53fe326928a)"/><path d="M773.98319,713.92688H766.408a3.41427,3.41427,0,0,0,1.22291-1.20659c1.12705-1.79884,1.07817-4.56116,1.261-4.52471a8.24683,8.24683,0,0,1,.18008,3.61977,1.92272,1.92272,0,0,0,0,.90494c.23745.64056,1.1136.39385,1.441.30165a2.7513,2.7513,0,0,0,1.441-.90494c1.20955-1.37391,1.47442-3.69334,1.62118-3.61977.17568.08808-.44335,3.29264-.36019,4.22306A1.69953,1.69953,0,0,0,773.98319,713.92688Z" transform="translate(-521.96075 -268.30264)" style="fill:url(#7c122ea5-9b83-4c5f-992e-9c5535c6099c)"/><polygon points="250.179 445.631 250.188 445.624 250.179 445.624 250.179 445.631" style="fill:url(#f1fae0a6-1026-4575-aca7-a73f27813e16)"/><path d="M772.14894,713.92688h7.57524a3.41419,3.41419,0,0,1-1.22291-1.20659c-1.12706-1.79884-1.07818-4.56116-1.261-4.52471a8.247,8.247,0,0,0-.18008,3.61977,1.92272,1.92272,0,0,1,0,.90494c-.23745.64056-1.11359.39385-1.441.30165a2.75129,2.75129,0,0,1-1.441-.90494c-1.20955-1.37391-1.47442-3.69334-1.62119-3.61977-.17568.08808.44336,3.29264.3602,4.22306A1.69954,1.69954,0,0,1,772.14894,713.92688Z" transform="translate(-521.96075 -268.30264)" style="fill:url(#c13dc565-0af7-4a4a-baa2-ca10718cff23)"/><polygon points="254.273 445.631 254.282 445.624 254.273 445.624 254.273 445.631" style="fill:url(#79193bbe-a6ca-4621-abe1-3e9a2829dbc6)"/><path d="M776.243,713.92688h7.57523a3.41426,3.41426,0,0,1-1.2229-1.20659c-1.12706-1.79884-1.07818-4.56116-1.261-4.52471a8.247,8.247,0,0,0-.18008,3.61977,1.92272,1.92272,0,0,1,0,.90494c-.23745.64056-1.11359.39385-1.441.30165a2.75134,2.75134,0,0,1-1.441-.90494c-1.20954-1.37391-1.47442-3.69334-1.62118-3.61977-.17568.08808.44335,3.29264.36019,4.22306A1.69953,1.69953,0,0,1,776.243,713.92688Z" transform="translate(-521.96075 -268.30264)" style="fill:url(#d0fb1d52-925a-4924-9926-39119a43e657)"/><polygon points="260.55 445.631 260.56 445.624 260.55 445.624 260.55 445.631" style="fill:url(#2a4eb843-42f9-48c4-bbb1-f3ecb7c02e93)"/><path d="M782.52046,713.92688h7.57523a3.41419,3.41419,0,0,1-1.22291-1.20659c-1.12706-1.79884-1.07818-4.56116-1.261-4.52471a8.247,8.247,0,0,0-.18008,3.61977,1.92272,1.92272,0,0,1,0,.90494c-.23745.64056-1.11359.39385-1.441.30165a2.75129,2.75129,0,0,1-1.441-.90494c-1.20955-1.37391-1.47442-3.69334-1.62119-3.61977-.17568.08808.44336,3.29264.3602,4.22306A1.69956,1.69956,0,0,1,782.52046,713.92688Z" transform="translate(-521.96075 -268.30264)" style="fill:url(#9ac71926-9861-4fe1-af71-1edca901d91b)"/><polygon points="227.604 177.111 227.178 176.851 226.743 177.092 226.834 176.564 226.492 176.18 226.976 176.114 227.2 175.636 227.406 176.123 227.887 176.211 227.532 176.579 227.604 177.111" style="fill:#fff"/><polygon points="43.919 168.363 43.493 168.103 43.058 168.344 43.149 167.816 42.807 167.433 43.291 167.366 43.515 166.888 43.722 167.375 44.202 167.463 43.847 167.831 43.919 168.363" style="fill:#fff"/><polygon points="305.553 178.908 304.96 178.546 304.354 178.882 304.482 178.146 304.006 177.613 304.678 177.52 304.99 176.855 305.278 177.533 305.946 177.655 305.452 178.167 305.553 178.908" style="fill:#fff"/><polygon points="596.228 143.313 595.635 142.952 595.029 143.287 595.157 142.552 594.681 142.019 595.353 141.926 595.665 141.261 595.953 141.939 596.621 142.061 596.127 142.573 596.228 143.313" style="fill:#fff"/><polygon points="521.223 142.081 520.296 141.516 519.349 142.04 519.549 140.891 518.805 140.058 519.856 139.912 520.343 138.874 520.793 139.933 521.837 140.124 521.065 140.924 521.223 142.081" style="fill:#fff"/><polygon points="85.629 160.576 84.847 159.977 84.044 160.542 84.218 159.313 83.592 158.427 84.481 158.267 84.897 157.155 85.274 158.284 86.157 158.483 85.5 159.341 85.629 160.576" style="fill:#fff"/><path d="M892,673" transform="translate(-521.96075 -268.30264)" style="fill:url(#1e658969-23a8-45c5-9574-440ba1f21972)"/><polygon points="123.985 105.818 123.225 105.354 122.448 105.784 122.612 104.842 122.002 104.159 122.864 104.04 123.263 103.188 123.632 104.056 124.489 104.213 123.855 104.869 123.985 105.818" style="fill:#fff"/><polygon points="189.762 132.363 189.002 131.899 188.226 132.329 188.389 131.387 187.78 130.704 188.641 130.584 189.04 129.733 189.409 130.601 190.266 130.758 189.632 131.414 189.762 132.363" style="fill:#fff"/><polygon points="321.862 104.611 321.102 104.148 320.326 104.578 320.489 103.635 319.88 102.952 320.741 102.833 321.141 101.981 321.51 102.85 322.366 103.006 321.733 103.662 321.862 104.611" style="fill:#fff"/><polygon points="551.076 102.827 550.649 102.567 550.214 102.808 550.306 102.28 549.964 101.897 550.447 101.83 550.671 101.352 550.878 101.839 551.358 101.927 551.003 102.295 551.076 102.827" style="fill:#fff"/><polygon points="423.036 80.328 422.363 79.918 421.676 80.299 421.821 79.465 421.281 78.86 422.044 78.754 422.397 78 422.724 78.769 423.482 78.908 422.921 79.489 423.036 80.328" style="fill:#fff"/><polygon points="658.228 139.313 657.635 138.952 657.029 139.287 657.157 138.552 656.681 138.019 657.353 137.926 657.665 137.261 657.953 137.939 658.621 138.061 658.127 138.573 658.228 139.313" style="fill:#fff"/><polygon points="461.221 113.346 460.294 112.781 459.348 113.305 459.547 112.156 458.804 111.323 459.854 111.177 460.341 110.138 460.791 111.198 461.836 111.389 461.063 112.189 461.221 113.346" style="fill:#fff"/><polygon points="583.223 138.081 582.296 137.516 581.349 138.04 581.549 136.891 580.805 136.058 581.856 135.912 582.343 134.874 582.793 135.933 583.837 136.124 583.065 136.924 583.223 138.081" style="fill:#fff"/><polygon points="629.895 114.854 628.968 114.289 628.021 114.813 628.221 113.664 627.477 112.831 628.528 112.686 629.015 111.647 629.465 112.706 630.509 112.897 629.737 113.697 629.895 114.854" style="fill:#fff"/><polygon points="293.61 136.402 292.433 135.685 291.23 136.351 291.484 134.891 290.539 133.833 291.874 133.648 292.492 132.329 293.064 133.674 294.39 133.917 293.409 134.933 293.61 136.402" style="fill:#fff"/><polygon points="394.05 115.287 392.873 114.57 391.67 115.235 391.924 113.776 390.979 112.718 392.314 112.533 392.932 111.214 393.504 112.559 394.83 112.802 393.849 113.818 394.05 115.287" style="fill:#fff"/><polygon points="424.381 128.945 423.619 128.553 422.844 128.912 423.005 128.12 422.394 127.543 423.255 127.446 423.652 126.731 424.023 127.463 424.88 127.597 424.248 128.147 424.381 128.945" style="fill:#fff"/><polygon points="534.287 110.89 533.525 110.498 532.75 110.857 532.911 110.065 532.3 109.489 533.161 109.391 533.558 108.676 533.929 109.408 534.786 109.543 534.154 110.092 534.287 110.89" style="fill:#fff"/><polygon points="657.494 85.993 656.819 85.646 656.133 85.964 656.276 85.263 655.734 84.752 656.497 84.666 656.848 84.033 657.177 84.681 657.935 84.8 657.376 85.287 657.494 85.993" style="fill:#fff"/><polygon points="678.029 136.213 677.1 135.735 676.155 136.172 676.351 135.207 675.606 134.503 676.656 134.385 677.14 133.513 677.593 134.405 678.638 134.569 677.867 135.24 678.029 136.213" style="fill:#fff"/><polygon points="528.234 132.701 527.055 132.094 525.854 132.65 526.103 131.423 525.156 130.53 526.49 130.379 527.105 129.272 527.68 130.405 529.007 130.614 528.029 131.465 528.234 132.701" style="fill:#fff"/><polygon points="10.311 129.986 9.807 129.528 9.288 129.964 9.402 129.02 9 128.342 9.575 128.216 9.846 127.362 10.086 128.227 10.656 128.378 10.23 129.038 10.311 129.986" style="fill:#fff"/><polygon points="77.857 104.973 77.411 104.568 76.951 104.953 77.053 104.118 76.697 103.517 77.205 103.406 77.446 102.649 77.659 103.416 78.163 103.549 77.786 104.134 77.857 104.973" style="fill:#fff"/><polygon points="103.1 137.709 102.486 137.151 101.852 137.682 101.992 136.531 101.502 135.704 102.202 135.551 102.533 134.508 102.826 135.564 103.521 135.748 103.002 136.553 103.1 137.709" style="fill:#fff"/><polygon points="151.791 134.724 151.286 134.337 150.768 134.702 150.88 133.909 150.476 133.337 151.05 133.233 151.319 132.515 151.562 133.244 152.132 133.373 151.708 133.927 151.791 134.724" style="fill:#fff"/><polygon points="580.899 49.524 581.659 49.987 582.435 49.557 582.272 50.499 582.881 51.182 582.02 51.302 581.621 52.154 581.252 51.285 580.395 51.128 581.029 50.472 580.899 49.524" style="fill:#fff"/><polygon points="515.122 22.979 515.882 23.442 516.658 23.012 516.495 23.954 517.104 24.637 516.243 24.757 515.843 25.609 515.474 24.74 514.618 24.583 515.251 23.927 515.122 22.979" style="fill:#fff"/><polygon points="383.021 50.73 383.782 51.193 384.558 50.764 384.394 51.706 385.004 52.389 384.142 52.508 383.743 53.36 383.374 52.492 382.518 52.335 383.151 51.679 383.021 50.73" style="fill:#fff"/><polygon points="153.808 52.514 154.235 52.774 154.67 52.533 154.578 53.062 154.92 53.445 154.437 53.512 154.213 53.989 154.006 53.502 153.526 53.414 153.881 53.046 153.808 52.514" style="fill:#fff"/><polygon points="281.847 75.013 282.52 75.423 283.208 75.042 283.063 75.877 283.603 76.481 282.84 76.587 282.486 77.341 282.16 76.572 281.401 76.434 281.962 75.853 281.847 75.013" style="fill:#fff"/><polygon points="46.655 16.028 47.249 16.389 47.855 16.054 47.727 16.789 48.203 17.322 47.53 17.416 47.219 18.08 46.931 17.403 46.262 17.28 46.757 16.768 46.655 16.028" style="fill:#fff"/><polygon points="243.662 41.995 244.59 42.56 245.536 42.036 245.337 43.185 246.08 44.018 245.03 44.164 244.543 45.203 244.093 44.144 243.048 43.953 243.821 43.152 243.662 41.995" style="fill:#fff"/><polygon points="121.661 17.26 122.588 17.825 123.534 17.301 123.335 18.45 124.078 19.283 123.028 19.429 122.541 20.468 122.091 19.408 121.046 19.217 121.819 18.417 121.661 17.26" style="fill:#fff"/><polygon points="74.989 40.487 75.916 41.052 76.863 40.528 76.663 41.677 77.407 42.51 76.356 42.656 75.869 43.695 75.419 42.635 74.375 42.444 75.147 41.644 74.989 40.487" style="fill:#fff"/><polygon points="411.273 18.939 412.451 19.656 413.653 18.991 413.4 20.45 414.344 21.508 413.01 21.693 412.391 23.012 411.82 21.667 410.493 21.424 411.475 20.408 411.273 18.939" style="fill:#fff"/><polygon points="0.78 41.562 1.958 42.28 3.16 41.614 2.907 43.074 3.851 44.132 2.517 44.316 1.898 45.636 1.327 44.291 0 44.048 0.981 43.032 0.78 41.562" style="fill:#fff"/><polygon points="310.834 40.054 312.011 40.771 313.213 40.106 312.96 41.565 313.904 42.623 312.57 42.808 311.951 44.128 311.38 42.782 310.054 42.54 311.035 41.524 310.834 40.054" style="fill:#fff"/><polygon points="280.503 26.396 281.264 26.788 282.039 26.43 281.878 27.221 282.49 27.798 281.629 27.895 281.232 28.61 280.861 27.879 280.004 27.744 280.635 27.194 280.503 26.396" style="fill:#fff"/><polygon points="170.597 44.451 171.358 44.843 172.133 44.484 171.972 45.276 172.584 45.853 171.723 45.95 171.326 46.665 170.955 45.933 170.098 45.799 170.729 45.249 170.597 44.451" style="fill:#fff"/><polygon points="47.39 69.348 48.064 69.695 48.75 69.378 48.608 70.079 49.149 70.589 48.387 70.675 48.036 71.308 47.707 70.66 46.948 70.541 47.507 70.055 47.39 69.348" style="fill:#fff"/><polygon points="26.855 19.128 27.783 19.606 28.729 19.169 28.532 20.135 29.278 20.838 28.228 20.957 27.744 21.829 27.291 20.936 26.246 20.772 27.016 20.102 26.855 19.128" style="fill:#fff"/><polygon points="176.65 22.64 177.829 23.247 179.029 22.692 178.78 23.918 179.728 24.811 178.394 24.962 177.779 26.069 177.204 24.936 175.877 24.728 176.855 23.876 176.65 22.64" style="fill:#fff"/><polygon points="694.573 25.355 695.077 25.813 695.596 25.378 695.482 26.321 695.884 27 695.309 27.125 695.038 27.98 694.797 27.114 694.228 26.964 694.654 26.303 694.573 25.355" style="fill:#fff"/><polygon points="627.026 50.368 627.472 50.774 627.932 50.388 627.831 51.223 628.187 51.824 627.678 51.935 627.438 52.692 627.225 51.925 626.721 51.792 627.098 51.207 627.026 50.368" style="fill:#fff"/><polygon points="601.783 17.632 602.398 18.19 603.031 17.659 602.892 18.81 603.382 19.637 602.681 19.791 602.351 20.833 602.057 19.777 601.363 19.594 601.882 18.788 601.783 17.632" style="fill:#fff"/><polygon points="626.419 1.768 626.924 2.154 627.443 1.79 627.331 2.583 627.735 3.155 627.16 3.259 626.892 3.976 626.649 3.247 626.079 3.119 626.503 2.565 626.419 1.768" style="fill:#fff"/><polygon points="553.092 20.617 553.597 21.004 554.116 20.64 554.004 21.432 554.408 22.005 553.834 22.108 553.565 22.826 553.322 22.097 552.752 21.969 553.176 21.414 553.092 20.617" style="fill:#fff"/><polyline points="558.666 0.028 559.292 0.914 558.403 1.074 557.986 2.186 557.61 1.057 556.727 0.858 557.384 0" style="fill:#fff"/><circle cx="631.53925" cy="348.69736" r="26.5" style="fill:#fff"/><path d="M1177.93574,523.06779a115.79624,115.79624,0,0,0-15.68491,8.06245q-1.71817,1.04962-3.52084,2.23042a29.2505,29.2505,0,0,1-1.22887,9.56717,23.73072,23.73072,0,0,1-2.56861,5.604,1.84265,1.84265,0,0,1-1.67946.04286,3.22333,3.22333,0,0,1-1.55889-1.56877l5.37243-12.53465a144.59133,144.59133,0,0,0-15.66182,12.30719,172.95425,172.95425,0,0,0-25.7827,29.3915q6.51128,9.48777,13.02245,18.97552a162.50637,162.50637,0,0,0,24.26934-25.92263A178.553,178.553,0,0,0,1177.93574,523.06779Z" transform="translate(-521.96075 -268.30264)" style="fill:url(#b2ed75aa-289d-488b-8d65-dcff9aff7a69)"/><path d="M1081.62752,601.81753a99.20874,99.20874,0,0,0,15.53059-4.69382q1.71288-.67065,3.51556-1.449a25.80125,25.80125,0,0,1,1.84059-8.767,19.29142,19.29142,0,0,1,2.8424-4.79522,1.80311,1.80311,0,0,1,1.60565.2686,3.6268,3.6268,0,0,1,1.37809,1.76133l-6.00186,10.79431a118.02973,118.02973,0,0,0,15.80489-8.68808,138.01255,138.01255,0,0,0,26.6557-22.88567q-5.55117-10.11593-11.10225-20.23182a130.017,130.017,0,0,0-24.96937,19.90332A143.9829,143.9829,0,0,0,1081.62752,601.81753Z" transform="translate(-521.96075 -268.30264)" style="fill:url(#bbba1d2d-db5e-4dc8-b956-33ae0cd20e2e)"/><path d="M1160.96687,503.95458a89.49793,89.49793,0,0,0-8.69553,7.9667q-.94128.97837-1.92349,2.05536a21.00635,21.00635,0,0,1-.07753,6.29726,19.16081,19.16081,0,0,1-1.13458,4.02429,1.1673,1.1673,0,0,1-.9865.33215,1.52973,1.52973,0,0,1-1.02437-.713l2.31807-8.93363a118.19393,118.19393,0,0,0-8.39512,10.65747,144.34377,144.34377,0,0,0-13.20321,23.34182q4.477,4.84148,8.95389,9.68294a135.40386,135.40386,0,0,0,12.546-20.86469A145.89552,145.89552,0,0,0,1160.96687,503.95458Z" transform="translate(-521.96075 -268.30264)" style="fill:url(#575df8ee-0d82-4bfe-bf8d-62f432c64569)"/><path d="M1178,603.97159a121.54912,121.54912,0,0,1-15.3868-9.19484q-1.67976-1.17346-3.43939-2.48408a29.605,29.605,0,0,0-.897-9.64465,24.74937,24.74937,0,0,0-2.3719-5.784,1.86514,1.86514,0,0,0-1.67586-.16514,3.05091,3.05091,0,0,0-1.61109,1.45324l4.93287,12.91022a152.98253,152.98253,0,0,1-15.21717-13.43255,182.95336,182.95336,0,0,1-24.73543-31.2326q6.83068-9.00154,13.66125-18.00305a172.02333,172.02333,0,0,1,23.34375,27.65786A186.93784,186.93784,0,0,1,1178,603.97159Z" transform="translate(-521.96075 -268.30264)" style="fill:url(#ce8a98a9-4837-4e7f-b3a7-59ab0c1fd59b)"/><path d="M1135.20055,528.19977c-2.54473,21.08457-4.8791,40.44985-5.12713,42.50748-9.90371,82.15868-13.802,114.78714-21.47517,178.23512-1.6671,13.78483-3.71415,30.68806-5.57355,46.01745q3.18932.27909,6.37865.55824a985.96846,985.96846,0,0,0,20.43529-108.16729,1228.67827,1228.67827,0,0,0,10.58829-158.89643Z" transform="translate(-521.96075 -268.30264)" style="fill:url(#618d0348-7bd5-46b3-8c0f-7be741758ad5)"/><path d="M1134.46283,478.68974a192.60773,192.60773,0,0,0-5.24752,19.95272q-.48731,2.33064-.95676,4.8452a36.65544,36.65544,0,0,1,4.28717,9.3459,38.32693,38.32693,0,0,1,1.393,6.99848,2.19568,2.19568,0,0,1-.99326,1.42185,1.78986,1.78986,0,0,1-1.76773-.08124l-3.34131-15.34642c-1.21474,6.91322-2.281,14.79051-3.00166,23.63076a309.27074,309.27074,0,0,0-.14016,46.85445q8.92693,2.89586,17.85378,5.79178a291.73963,291.73963,0,0,0,1.04877-42.58553A296.90849,296.90849,0,0,0,1134.46283,478.68974Z" transform="translate(-521.96075 -268.30264)" style="fill:url(#66f3b4f0-b4c6-4b13-b9b5-c61d82594f01)"/><path d="M1092.07492,512.28463a110.224,110.224,0,0,1,12.60267,9.76687q1.35978,1.21456,2.77652,2.558a26.07407,26.07407,0,0,0-.12664,8.53206,22.17739,22.17739,0,0,0,1.5298,5.32284,1.66558,1.66558,0,0,0,1.45171.33265,2.61273,2.61273,0,0,0,1.548-1.0894l-3.09824-11.84026a138.90929,138.90929,0,0,1,12.05342,13.45239,165.66454,165.66454,0,0,1,18.7041,30.08251q-6.8319,7.10162-13.66371,14.20322a155.91112,155.91112,0,0,1-17.82362-26.80113A167.93176,167.93176,0,0,1,1092.07492,512.28463Z" transform="translate(-521.96075 -268.30264)" style="fill:url(#549e32ee-0edf-4fd1-af00-2ffac7dede15)"/><path d="M1138.82746,568.29645a26.73889,26.73889,0,0,0-2.28737,2.9901q-.23772.35881-.481.75022a6.00114,6.00114,0,0,1,.51026,1.913,5.2283,5.2283,0,0,1-.04406,1.29444.399.399,0,0,1-.30822.166.5889.5889,0,0,1-.41022-.14809l.02938-2.86026a33.6013,33.6013,0,0,0-1.95556,3.7854,39.76747,39.76747,0,0,0-2.5147,7.94707l3.87977,2.34a37.50239,37.50239,0,0,0,2.50164-7.153A39.74881,39.74881,0,0,0,1138.82746,568.29645Z" transform="translate(-521.96075 -268.30264)" style="fill:url(#6714e0f8-69c5-4272-bded-70224e87b5ff)"/><path d="M1134.205,566.3018a20.755,20.755,0,0,0-.99826,2.31466q-.09912.27236-.19821.56708a4.18847,4.18847,0,0,1,.47152,1.19037,4.08092,4.08092,0,0,1,.10006.86277.265.265,0,0,1-.15736.1552.2848.2848,0,0,1-.245-.03759l-.25933-1.89642a27.04805,27.04805,0,0,0-.73492,2.79192,32.27487,32.27487,0,0,0-.64806,5.62722l2.40805.97689a30.45325,30.45325,0,0,0,.7173-5.1A31.403,31.403,0,0,0,1134.205,566.3018Z" transform="translate(-521.96075 -268.30264)" style="fill:url(#e0c0d37d-f3ca-46b0-aa7f-748e1449181f)"/><path d="M1145.082,583.4899a22.91133,22.91133,0,0,1-3.56367-.28009q-.40214-.06244-.82966-.14316a5.7694,5.7694,0,0,0-.91058-1.72757,4.55906,4.55906,0,0,0-.88627-.86354.38393.38393,0,0,0-.32361.12662.70289.70289,0,0,0-.18672.42457l1.91119,1.96144a28.03786,28.03786,0,0,1-3.85918-1.09218,33.16277,33.16277,0,0,1-6.99825-3.541q.57249-2.33365,1.145-4.6673a31.21143,31.21143,0,0,1,6.46426,3.00028A34.233,34.233,0,0,1,1145.082,583.4899Z" transform="translate(-521.96075 -268.30264)" style="fill:url(#2eaf105a-f4fa-4507-b543-811c8f7dbf70)"/><path d="M1127.33918,564.04837a40.85357,40.85357,0,0,0,.56618,4.24215q.08944.4837.19639,1.00028a6.72,6.72,0,0,1,1.51639,1.35255,7.29791,7.29791,0,0,1,.7984,1.18378.49357.49357,0,0,1-.07453.36056.37288.37288,0,0,1-.33418.151l-1.80394-2.56885c.3081,1.41306.71812,2.99328,1.26658,4.7219a61.53333,61.53333,0,0,0,3.58933,8.81578l3.75869-.59131a58.44329,58.44329,0,0,0-3.09139-8.09924A56.99655,56.99655,0,0,0,1127.33918,564.04837Z" transform="translate(-521.96075 -268.30264)" style="fill:url(#d58f0a1f-e035-4372-8ee1-e5e9faac9953)"/><path d="M1122.06863,574.34711a20.36793,20.36793,0,0,1,3.09136.64944q.34594.10028.71241.21941a5.21287,5.21287,0,0,0,.63485,1.61484,4.15284,4.15284,0,0,0,.69449.8561.33306.33306,0,0,0,.29495-.07405.60411.60411,0,0,0,.2031-.35029l-1.48832-1.933a25.22411,25.22411,0,0,1,3.27386,1.39351,30.08607,30.08607,0,0,1,5.79071,3.89224l-1.43862,3.95365a28.273,28.273,0,0,1-5.3742-3.35858A31.18463,31.18463,0,0,1,1122.06863,574.34711Z" transform="translate(-521.96075 -268.30264)" style="fill:url(#1b65573c-292a-494d-a4c1-7a86eba3626b)"/></svg>