<svg id="3245d153-c281-421f-9f05-476200743d96" data-name="Layer 1" xmlns="http://www.w3.org/2000/svg" viewBox="0 0 106.00749 106.11406"><title>plant</title><path d="M952.29538,1400.78345c-11.48229-8.70211-29.15192-13.89751-47.26613-13.89751-22.4072,0-40.66406,7.823-50.09274,21.46168a42.4584,42.4584,0,0,0-7.27885,22.54654c-.35831,7.61726.92229,16.04069,3.802,25.10443,9.83674-29.48369,37.30331-52.57432,68.97331-52.57432,0,0-29.633,7.79973-48.26473,31.952-.01.01327-.25877.32181-.68674.9024a69.851,69.851,0,0,0-9.442,17.13882A102.08822,102.08822,0,0,0,854.07726,1493h13.27047a77.44735,77.44735,0,0,1,1.48961-27.24429,117.49856,117.49856,0,0,0,15.63927,1.17112c12.19888,0,20.87777-2.64082,27.30732-8.30732,5.75939-5.07927,8.93767-11.9003,12.29842-19.12276,5.13567-11.03108,10.95478-23.53519,27.85141-33.19278a3.31937,3.31937,0,0,0,.35831-5.52715Z" transform="translate(-847.59885 -1386.88594)" style="fill:#00dcbe"/></svg>