<svg id="a3e8329b-a124-4dfd-9d23-85b54886aa57" data-name="Layer 1" xmlns="http://www.w3.org/2000/svg" xmlns:xlink="http://www.w3.org/1999/xlink" viewBox="0 0 1651.34788 1553.25592"><defs><linearGradient id="4e220ddc-660e-4173-a6ad-62ae23449734" x1="1389.93682" y1="1968" x2="1389.93682" y2="2172.35115" gradientUnits="userSpaceOnUse"><stop offset="0" stop-color="#b76eff"/><stop offset="0.08327" stop-color="#b271fd"/><stop offset="0.17846" stop-color="#a479f8"/><stop offset="0.27952" stop-color="#8e87f0"/><stop offset="0.38467" stop-color="#6d9ae5"/><stop offset="0.49303" stop-color="#44b3d6"/><stop offset="0.6025" stop-color="#13d1c5"/><stop offset="0.63946" stop-color="#00dcbe"/><stop offset="1" stop-color="#00dcbe"/></linearGradient><linearGradient id="54b7ffbb-1f51-4e83-9df7-3a798ea4190c" x1="1325.99485" y1="1967.2915" x2="1350.99877" y2="1967.2915" gradientUnits="userSpaceOnUse"><stop offset="0" stop-color="#fff"/><stop offset="1" stop-color="#00dcbe"/></linearGradient><linearGradient id="880446ea-4fdb-4bd5-8891-4b302c1aeacb" x1="1297.50987" y1="2030.42954" x2="1305.36784" y2="2030.42954" gradientTransform="matrix(1.58152, -1.10738, 0.57358, 0.81915, -1931.77539, 1798.18036)" xlink:href="#54b7ffbb-1f51-4e83-9df7-3a798ea4190c"/><linearGradient id="ac566d8a-4ec1-4b3f-9798-3b6c0f78a838" x1="1324.52535" y1="2002.03002" x2="1331.35973" y2="2002.03002" gradientTransform="translate(-839.79275 892.51682) rotate(-29.29521)" xlink:href="#54b7ffbb-1f51-4e83-9df7-3a798ea4190c"/><linearGradient id="ee652a3b-b068-4d17-a429-38695ee4b094" x1="1320.00146" y1="1999.79611" x2="1327.85943" y2="1999.79611" gradientTransform="matrix(1.58152, -1.10738, 0.57358, 0.81915, -1931.77539, 1798.18036)" xlink:href="#54b7ffbb-1f51-4e83-9df7-3a798ea4190c"/><linearGradient id="b3fb0c0f-65c9-49d8-a435-fedc5a12165d" x1="1315.37521" y1="2014.29532" x2="1323.23318" y2="2014.29532" gradientTransform="matrix(1.58152, -1.10738, 0.57358, 0.81915, -1931.77539, 1798.18036)" xlink:href="#54b7ffbb-1f51-4e83-9df7-3a798ea4190c"/><linearGradient id="f2aa7232-2c36-4298-bd2e-e762ce888b6a" x1="250.51781" y1="839" x2="250.51781" y2="1330.35115" gradientUnits="userSpaceOnUse"><stop offset="0" stop-color="#b76eff"/><stop offset="0.06153" stop-color="#af73fc"/><stop offset="0.15768" stop-color="#9980f4"/><stop offset="0.2764" stop-color="#7496e7"/><stop offset="0.41312" stop-color="#42b4d5"/><stop offset="0.56327" stop-color="#02dbbf"/><stop offset="0.56839" stop-color="#00dcbe"/><stop offset="1" stop-color="#00dcbe"/></linearGradient><linearGradient id="5c003ee4-e1ff-4f8c-be80-69511e2d948c" x1="-281.19278" y1="1027.38486" x2="-490.08138" y2="1670.27788" gradientTransform="matrix(-1, 0, 0, 1, 517.96453, 0)" gradientUnits="userSpaceOnUse"><stop offset="0" stop-color="#b76eff"/><stop offset="0.06307" stop-color="#a17bf7"/><stop offset="0.27137" stop-color="#5ca4df"/><stop offset="0.44573" stop-color="#2ac3cd"/><stop offset="0.57732" stop-color="#0cd5c2"/><stop offset="0.6509" stop-color="#00dcbe"/><stop offset="0.84571" stop-color="#00dcbe"/></linearGradient></defs><title>river2</title><path d="M1280,1193c-474.899-131.79639-816.07782,131.863-921-8-89.436-119.21973,117.018-342.33936,10-467-43.98578-51.2373-122.60016-64.49316-189-62.76758C169.32767,657.53076,161.30147,665.9953,160,676c-1.56627,12.04028,6.87578,24.24469,20,27.32446C270.12613,722.0376,304.13116,769.58575,311,783c44.37427,86.65918-60.0058,178.47681-131,354.918-26.68419,40.50659-75.96852,127.49316-84,248.082-10.68378,160.41211,58.47652,277.49976,84,316.584C429.719,1996.79785,1341.8269,1734.49023,1411,1942c12.22607,36.67627,2.60876,101.49561-126,220,51.71887-4.72852,123.33325-19.00244,195-62,54.63232-32.77734,101.90186-77.81812,140-130.17529,18.7334-18.3075,132.076-132.84656,126-311.82471-5.4845-161.55627-104.431-262.51831-126-283.54736C1550.96106,1318.1947,1437.00171,1236.5719,1280,1193Z" transform="translate(-94.88763 -655.08748)" style="fill:#00dcbe"/><path d="M1415,1968c.11938-.00708,2.90259,56.99146,2.87341,124.7207-.01184,27.55371-.4989,75.61524-15.47839,79.4834-1.49561.38623-8.6665-.02148-23.0083-.83642-5.59448-.31788-10.2218-.6211-13.38672-.83692q-2.00005-44.76525-4-89.53076c8.31189-10.11084,14.20117-18.37451,18-24,3.42566-5.073,6.5144-10.01929,9-14,3.92761-6.28979,5.31665-8.76392,6-10,2.56238-4.63574,4.23987-8.22021,6-12,1.87952-4.03613,3.82764-8.2417,6-14a119.1577,119.1577,0,0,0,4-12c.3252-1.20532,1.2168-5.80347,3-15a50.85512,50.85512,0,0,0,1-8C1415.10242,1969.55078,1414.98035,1968.00122,1415,1968Z" transform="translate(-94.88763 -655.08748)" style="fill:url(#4e220ddc-660e-4173-a6ad-62ae23449734)"/><path d="M1343,1952c.1311-2.7522-7.29736-6.86377-13-5-3.46509,1.13257-5.13672,4.09326-7,7-1.57068,2.4502-16.44727,25.65845-27,24-2.99841-.47119-4.23523-2.72778-7-2-3.24854.85522-4.14478,4.65649-6,8-6.51343,11.73877-19.6604,8.4895-24,19-2.25671,5.46558.86609,7.39209-2,12-4.08386,6.56592-11.34473,4.13452-16,10-3.9668,4.9978-1.25146,9.98462-2,21-.72095,10.60986-3.82227,14.55151-7,25-5.21277,17.1394-4.52893,31.72241-4,43,.788,16.80151,1.86426,39.7522,15,46,2.2489,1.06958,3.27893.90186,13,1,34.17725.345,39.12854,2.59692,44-2,3.373-3.18311,2.76062-5.9248,6-26,2.73145-16.92749,8.182-24.5,5-27-2.73413-2.14819-9.34216.87158-14,3-6.89026,3.14868-7.73572,5.58862-10,5-4.5199-1.1748-3.02515-11.38452-10-27-4.82349-10.79883-8.23059-11.9436-10-12-3.41516-.10864-5.00867,3.70166-7,3-1.8158-.63965-2.16833-4.39868-1-22,.86743-13.06787,1.40259-16.13159,4-19,3.67859-4.0625,9.25024-5.25635,9-6-.30933-.91919-8.34192,2.33032-10,0-1.65723-2.3291,3.89893-9.04395,8-14,6.78674-8.2019,8.10181-7.27954,12-13,5.25354-7.70947,4.39062-11.62329,9-14,4.957-2.55591,10.44067-.34229,11-2,.4845-1.43579-5.18274-3.10864-5-5,.349-3.61182,20.89368.09888,28-10,3.275-4.6543.727-8.02246,5-13C1335.298,1953.82861,1342.869,1954.75049,1343,1952Z" transform="translate(-94.88763 -655.08748)" style="fill:#00dcbe"/><path d="M1227.267,2087.88794c3.12353-6.65039,31.042-63.79932,84.33435-64.87256,45.28576-.91211,45.08056,92.791,95.14636,101.63355C1433.92,2129.448,1455.14111,2108.32422,1459,2114c4.877,7.17334-29.58521,48.24072-78.20129,71.19678-38.20948,18.042-120.36756,41.52246-153.53174,0C1199.06293,2149.88477,1225.5127,2091.62305,1227.267,2087.88794Z" transform="translate(-94.88763 -655.08748)" style="fill:#999"/><path d="M1350.99792,1966.92719c.07142,3.42311-4.40527,5.89453-6.87377,6.78746-7.54285,2.72842-17.86377-1.49516-18.12415-5.44279-.27881-4.2271,10.82983-10.36247,18.749-7.56641C1347.16284,1961.55766,1350.93311,1963.82334,1350.99792,1966.92719Z" transform="translate(-94.88763 -655.08748)" style="fill:url(#54b7ffbb-1f51-4e83-9df7-3a798ea4190c)"/><path d="M1297.2393,2015.77084c.65255.85637-1.127,3.05055-2.19291,4.1395-3.25714,3.32741-9.14822,5.832-9.98923,4.90633-.90055-.99117,3.51474-6.4366,7.95477-8.4728C1294.36527,2015.72321,1296.64759,2014.99436,1297.2393,2015.77084Z" transform="translate(-94.88763 -655.08748)" style="fill:url(#880446ea-4fdb-4bd5-8891-4b302c1aeacb)"/><path d="M1300.863,1986.974c.47484.80644-.26175,1.9943-.73076,2.5373-1.43313,1.6592-4.45827,2.03276-5.0483,1.12657-.63182-.97035,1.19565-3.91859,3.45735-4.31123C1299.23068,1986.207,1300.43245,1986.24278,1300.863,1986.974Z" transform="translate(-94.88763 -655.08748)" style="fill:url(#ac566d8a-4ec1-4b3f-9798-3b6c0f78a838)"/><path d="M1315.2393,1965.77084c.65255.85637-1.127,3.05055-2.19291,4.1395-3.25714,3.32741-9.14822,5.832-9.98923,4.90633-.90055-.99117,3.51474-6.4366,7.95477-8.4728C1312.36527,1965.72321,1314.64759,1964.99436,1315.2393,1965.77084Z" transform="translate(-94.88763 -655.08748)" style="fill:url(#ee652a3b-b068-4d17-a429-38695ee4b094)"/><path d="M1316.2393,1982.77084c.65255.85637-1.127,3.05055-2.19291,4.1395-3.25714,3.32741-9.14822,5.832-9.98923,4.90633-.90055-.99117,3.51474-6.4366,7.95477-8.4728C1313.36527,1982.72321,1315.64759,1981.99436,1316.2393,1982.77084Z" transform="translate(-94.88763 -655.08748)" style="fill:url(#b3fb0c0f-65c9-49d8-a435-fedc5a12165d)"/><path d="M321,839c.79382.0271-11.89375,142.48315-17,301-2.62561,81.50854-3.70238,181.4082-37,190-3.57532.92261-20.71688-.05176-55-2-13.37307-.76-24.4344-1.48389-32-2V1138c13.97611-34.37109,27.15012-61.71631,37-81,9.01781-17.65479,17.79047-33.52759,28-52,8.21409-14.86206,7.79225-13.79321,31-55,0,0,26.2878-46.67554,37-77,2.30046-6.51221,4-13,4-13,.93521-3.519,2.06146-8.283,3-14C320.79556,841.15381,320.90237,838.99658,321,839Z" transform="translate(-94.88763 -655.08748)" style="fill:url(#f2aa7232-2c36-4298-bd2e-e762ce888b6a)"/><path d="M351,1173l66,363q496,1.99987,992,4c32.38892-263.32056,12.30481-293.42725,3-298-.826-.406-7.85645-3.70142-15-7-26.2793-12.13452-45.94812-20.551-47-21-22.50989-9.609-82.82385-26.08325-164-43-58.09277-10.13965-102.97534-12.604-130-14-21.06494-1.08813-64.58191-2.77-121.99976.00024C816.09747,1162.689,721.75067,1183.186,696,1189c-90.59167,19.79395-161.80225,32.20825-201,37a227.50767,227.50767,0,0,1-55,0c-19.50757-2.36279-34.95926-4.68433-52-15a108.26132,108.26132,0,0,1-24-20A106.9692,106.9692,0,0,1,351,1173Z" transform="translate(-94.88763 -655.08748)" style="fill:url(#5c003ee4-e1ff-4f8c-be80-69511e2d948c)"/></svg>