<svg id="341f53bb-11b9-4fe0-93c5-14e4567cec9c" data-name="Layer 1" xmlns="http://www.w3.org/2000/svg" xmlns:xlink="http://www.w3.org/1999/xlink" viewBox="0 0 1468.39308 1746.66336"><defs><linearGradient id="85ac09d8-a87b-40e9-acdc-de014d4413c0" x1="1271.38053" y1="146.73373" x2="1361.23209" y2="198.60955" gradientTransform="matrix(-1.10338, 0.05634, 0.07096, 1.07222, 2661.72741, -108.59479)" gradientUnits="userSpaceOnUse"><stop offset="0" stop-color="#d26ca3"/><stop offset="0.9986" stop-color="#4f1974"/></linearGradient><linearGradient id="5aef7db6-fddc-414f-a576-6e55efeb26e1" x1="1084.57165" y1="92.18656" x2="1306.87798" y2="220.53518" gradientTransform="matrix(-1.00166, 0.07591, 0.04515, 1.06725, 2543.35273, -131.36771)" xlink:href="#85ac09d8-a87b-40e9-acdc-de014d4413c0"/><linearGradient id="057f33d0-01e2-4aea-a3ef-b579d9594ca0" x1="1243.01136" y1="-19.17852" x2="1424.82243" y2="85.79015" gradientTransform="matrix(0.99996, 0.0092, -0.00786, 0.85445, 20.1769, 93.9472)" xlink:href="#85ac09d8-a87b-40e9-acdc-de014d4413c0"/><linearGradient id="82c19bb8-5c55-46be-a1d4-a7bd8463ed3e" x1="1291" y1="491" x2="1291" y2="491" gradientTransform="matrix(1, 0, 0, 1, 0, 0)" xlink:href="#85ac09d8-a87b-40e9-acdc-de014d4413c0"/><linearGradient id="7eadceab-a25c-4316-b162-6e2a945cf328" x1="523.40292" y1="977.67137" x2="627.32139" y2="1279.47251" gradientUnits="userSpaceOnUse"><stop offset="0" stop-color="#b76eff"/><stop offset="0.07995" stop-color="#af73fc"/><stop offset="0.20491" stop-color="#9980f4"/><stop offset="0.35918" stop-color="#7496e7"/><stop offset="0.53684" stop-color="#42b4d5"/><stop offset="0.73197" stop-color="#02dbbf"/><stop offset="0.73862" stop-color="#00dcbe"/><stop offset="1" stop-color="#00dcbe"/></linearGradient><linearGradient id="2a84540a-06b0-42d5-8fd6-d325e2da84e0" x1="692.57745" y1="570.49038" x2="783.44701" y2="756.80058" gradientUnits="userSpaceOnUse"><stop offset="0" stop-color="#b76eff"/><stop offset="0.07808" stop-color="#a579f8"/><stop offset="0.23561" stop-color="#7496e7"/><stop offset="0.45619" stop-color="#28c4cc"/><stop offset="0.5639" stop-color="#00dcbe"/><stop offset="0.73862" stop-color="#00dcbe"/><stop offset="1" stop-color="#00dcbe"/></linearGradient><linearGradient id="73449f19-5328-4abc-b1d1-3a123c49fae6" x1="956.82256" y1="411.12601" x2="1004.13883" y2="587.71272" gradientTransform="matrix(-1, 0, 0, 1, 1993.84281, 0)" gradientUnits="userSpaceOnUse"><stop offset="0" stop-color="#b76eff"/><stop offset="0.07716" stop-color="#b172fd"/><stop offset="0.17984" stop-color="#a07cf7"/><stop offset="0.29696" stop-color="#858ced"/><stop offset="0.4247" stop-color="#5ea4df"/><stop offset="0.55954" stop-color="#2dc1ce"/><stop offset="0.66795" stop-color="#00dcbe"/><stop offset="0.67298" stop-color="#00dcbe"/><stop offset="1" stop-color="#00dcbe"/></linearGradient><linearGradient id="726ab2a4-030a-4b43-80a7-7ae1a3cf55d3" x1="941.31116" y1="859.9564" x2="929.77767" y2="1071.3018" gradientTransform="matrix(-0.97815, -0.20791, -0.32492, 1.52863, 2356.33353, -411.69635)" gradientUnits="userSpaceOnUse"><stop offset="0" stop-color="#b76eff"/><stop offset="0.14286" stop-color="#b370fe"/><stop offset="0.27076" stop-color="#a977fa"/><stop offset="0.39292" stop-color="#9682f3"/><stop offset="0.51154" stop-color="#7d91ea"/><stop offset="0.62765" stop-color="#5ba5de"/><stop offset="0.74185" stop-color="#33bed0"/><stop offset="0.85259" stop-color="#03dabf"/><stop offset="0.86" stop-color="#00dcbe"/></linearGradient><linearGradient id="990b0f94-f7b3-4651-83b3-d00d81a8bd23" x1="737.45017" y1="1155.85745" x2="709.29592" y2="1342.65692" gradientTransform="matrix(-0.97815, -0.20791, -0.29815, 1.40267, 2356.48326, -412.40083)" gradientUnits="userSpaceOnUse"><stop offset="0" stop-color="#b76eff"/><stop offset="0.15855" stop-color="#b370fe"/><stop offset="0.3005" stop-color="#a977fa"/><stop offset="0.43608" stop-color="#9682f3"/><stop offset="0.56773" stop-color="#7d91ea"/><stop offset="0.6966" stop-color="#5ba5de"/><stop offset="0.82334" stop-color="#33bed0"/><stop offset="0.94624" stop-color="#03dabf"/><stop offset="0.95447" stop-color="#00dcbe"/></linearGradient><linearGradient id="b9ae9971-9d76-4f6d-aef4-3e90c503b7a9" x1="7.42908" y1="1288.34455" x2="62.74537" y2="1320.28142" gradientTransform="matrix(-0.74445, 0.66768, 0.51111, 0.56988, 604.33266, 5.05954)" gradientUnits="userSpaceOnUse"><stop offset="0" stop-color="#d26ca3"/><stop offset="1" stop-color="#4f1974"/></linearGradient><linearGradient id="70fbab18-799d-4e2a-a72c-81f50e45218e" x1="4076.28562" y1="4735.29955" x2="4131.60191" y2="4767.23642" gradientTransform="matrix(0.65326, -0.75714, -0.52734, -0.45499, 1119.99987, 6051.13108)" xlink:href="#b9ae9971-9d76-4f6d-aef4-3e90c503b7a9"/><linearGradient id="862cbdc9-4007-4092-aa52-27e0bbc46aee" x1="-402.01028" y1="-459.39869" x2="-346.69399" y2="-427.46182" gradientTransform="matrix(-0.49256, 0.29438, 0.26437, 0.44235, 1179.77241, 1048.66705)" xlink:href="#b9ae9971-9d76-4f6d-aef4-3e90c503b7a9"/><linearGradient id="9b0451f9-a930-4fd4-8e51-63df70b5a370" x1="2377.40411" y1="5376.16273" x2="2432.7204" y2="5408.09961" gradientTransform="matrix(-0.85838, -0.51302, 0.39272, -0.65709, 1190.64352, 5555.21395)" xlink:href="#b9ae9971-9d76-4f6d-aef4-3e90c503b7a9"/><linearGradient id="4c9306ce-4959-4358-b5a6-6e185a562a4a" x1="1017.61917" y1="919.29978" x2="1124.46398" y2="980.98666" gradientTransform="matrix(-0.99425, 0.10709, 0.10709, 0.99425, 2250.72226, -181.63867)" xlink:href="#b9ae9971-9d76-4f6d-aef4-3e90c503b7a9"/><linearGradient id="228a1130-1ac3-4fac-99cd-0d4b5ac65a6e" x1="1355.35126" y1="727.71558" x2="1403.61044" y2="755.57803" gradientTransform="matrix(-1, 0, 0, 1, 2638.25628, 0)" xlink:href="#b9ae9971-9d76-4f6d-aef4-3e90c503b7a9"/><linearGradient id="e3ebe404-22e3-48c2-a574-f1b94171a4aa" x1="1241.34658" y1="-318.71474" x2="1296.66287" y2="-286.77787" gradientTransform="matrix(0.80411, 0.36184, -0.27469, 0.61517, 188.63729, 484.25532)" xlink:href="#b9ae9971-9d76-4f6d-aef4-3e90c503b7a9"/><linearGradient id="13ee648f-cc44-4af0-8388-5249ef4770c5" x1="1131.57326" y1="-1282.39013" x2="1142.92422" y2="-1275.83665" gradientTransform="matrix(-0.57032, 0.06334, 0.05688, 0.51218, 1987.96176, 1367.52398)" xlink:href="#b9ae9971-9d76-4f6d-aef4-3e90c503b7a9"/><linearGradient id="b79ff04b-d287-43ea-a7fb-1fc2e048681a" x1="3201.96352" y1="4691.05556" x2="3213.53328" y2="4697.73536" gradientTransform="matrix(-0.56795, -0.82307, 0.63006, -0.43477, 127.01712, 5471.908)" xlink:href="#b9ae9971-9d76-4f6d-aef4-3e90c503b7a9"/><linearGradient id="38bf94e7-79d3-4c8c-92a3-0c3f642f3cf4" x1="2349.43004" y1="814.63952" x2="2359.33287" y2="820.35692" gradientTransform="matrix(-0.90976, -0.41514, -0.41514, 0.90976, 3750.17098, 1018.96057)" xlink:href="#b9ae9971-9d76-4f6d-aef4-3e90c503b7a9"/><linearGradient id="c129a908-cd73-4e23-89ca-e226a6c9ac95" x1="1220.35987" y1="135.06578" x2="1240.59979" y2="135.06578" gradientUnits="userSpaceOnUse"><stop offset="0" stop-color="#e9bed2"/><stop offset="0.5" stop-color="#df9dbb"/><stop offset="1" stop-color="#d98caf"/></linearGradient><linearGradient id="1e607606-b430-41f7-bcd0-7126388ea6a5" x1="1247.61952" y1="113.58719" x2="1274.22005" y2="128.94501" xlink:href="#c129a908-cd73-4e23-89ca-e226a6c9ac95"/><linearGradient id="b847e1c2-3233-41ab-95ed-d97ac6d6093a" x1="-1856.32648" y1="-567.3149" x2="-1834.74797" y2="-554.85655" gradientTransform="matrix(-1, 0, 0, 1, -642, 720)" xlink:href="#c129a908-cd73-4e23-89ca-e226a6c9ac95"/></defs><title>river</title><path d="M1259.15629,105.44216q-8.58151,7.32336-17.163,14.64672-6.06219-2.14731-12.1244-4.29463l-4.94989,6.49922-15.68793,3.0802-11.93882,14.7064-20.04613-7.31422q-2.72967,8.468-5.45927,16.93609c-.14143,5.01944-.46461,10.29621-1.025,15.79907q-.48911,4.80273-1.15319,9.30753l85.64513.63486q2.38836-15.01845,4.77671-30.03687Q1259.59345,125.42434,1259.15629,105.44216Z" transform="translate(22.65679 -13)" style="fill:url(#85ac09d8-a87b-40e9-acdc-de014d4413c0)"/><path d="M1249.06958,187.50421q-6.37812-5.66949-12.75623-11.33887c-119.77307-25.19336-181.93737-1.09985-216.70617,26.60181-37.48261,29.86383-32.441,54.89545-80.51123,97.27771-72.65772,64.06049-145.49451,57.85962-148.74109,89.1712-3.76343,36.29718,93.33429,52.15436,95.52173,90.52234,4.29217,75.28272-363.57434,118.651-367.0763,204.01294-3.13922,76.52137,289.67,110.0647,292.02356,189.15113C814.03906,980.94421,177.2,1011.65894,168.099,1155.278c-2.88263,45.48963,57.96515,83.27649,80.51117,97.27771,132.05444,82.0066,261.6748-11.47741,472.15033-20.26611,260.50091-10.87781,515.651,113.38013,517.182,204.01294,1.17933,69.814-148.53173,95.71594-143.28259,162.12939,7.59351,96.07374,329.70313,153.42847,343.87818,118.895,9.5896-23.36181-129.70288-69.40649-128.2721-151.3208,1.21289-69.43274,102.027-78.55163,115.99085-148.61865,24.79467-124.41382-269.39808-214.39709-263.36719-376.95117,3.76721-101.54,116.91211-142.28088,98.251-212.11951-21.25927-79.56238-218.80285-62.64258-233.34594-132.40576-13.43561-64.45019,146.744-119.28906,135.095-186.44891-14.35193-82.74225-275.2724-102.05329-271.55463-137.81,1.46045-14.04675,41.55414-9.40436,83.2403-44.58563,39.91485-33.6864,39.99048-68.43524,62.77148-97.27771C1061.9823,198.59845,1116.46643,170.31464,1249.06958,187.50421Z" transform="translate(22.65679 -13)" style="fill:#00dcbe"/><path d="M1439,13q-19.57965,18.437-39.15918,36.87393-13.50714-5.02578-27.01428-10.05163l-11.39453,16.244-35.33692,8.28986-27.43994,36.78958L1254,84q-6.50005,21-13,42c-.53979,12.38232-1.49878,25.40717-3,39q-1.31031,11.86341-3,23l192.14148-2.23022,12.04907-74.27137Q1439.09535,62.24923,1439,13Z" transform="translate(22.65679 -13)" style="fill:url(#5aef7db6-fddc-414f-a576-6e55efeb26e1)"/><path d="M1275,72l22.31689,5.63553q13.27405-4.706,26.54786-9.41214l11.90979,12.3851,35.47192,4.8053,28.59949,27.966Q1419.423,99.18991,1439,85V188q-82.07154-.22924-164.14307-.45856-7.28887-29.34137-14.57776-58.6828Q1267.63966,100.42932,1275,72Z" transform="translate(22.65679 -13)" style="fill:url(#057f33d0-01e2-4aea-a3ef-b579d9594ca0)"/><path d="M1291,491" transform="translate(22.65679 -13)" style="fill:url(#82c19bb8-5c55-46be-a1d4-a7bd8463ed3e)"/><path d="M810,882l-39,348c-12.08051.248-29.3241.77258-50,2a1254.75894,1254.75894,0,0,0-162,20c-25.75732,4.97437-58.82544,12.24927-97,23-79.5914,1.27856-113.92023-20.54614-130-43-27.22849-38.022-12.80527-92.756-55-124-18.89795-13.99341-34.14966-12.16541-35-20-2.2095-20.3573,99.21591-46.94287,190-71,65.25488-17.29211,163.6582-43.5188,287-77,5.85077-1.74414,13.79211-4.32715,23-8a258.46834,258.46834,0,0,0,26-12C776.96271,915.006,793.21423,904.2511,810,882Z" transform="translate(22.65679 -13)" style="fill:url(#7eadceab-a25c-4316-b162-6e2a945cf328)"/><path d="M1400,114l39.11646-28.60159.24694-14.15277A178.19486,178.19486,0,0,1,1419,90a178.22255,178.22255,0,0,1-25.69739,16.84235Q1396.65124,110.42114,1400,114Z" transform="translate(22.65679 -13)" style="fill:#00dcbe"/><g id="612ec5b1-a8c0-4bd5-9479-08ecabe15d83" data-name="secondrock"><path d="M1.92493,1137.615c5.56561-11.85022,55.313-113.68237,150.27321-115.59485,92.51768-1.863,171.13929,92.26319,169.539,181.09851-.14306,7.94141-1.73764,67.38037-46.23791,107.88843C231.00879,1351.50623,172.0481,1347.25623,113,1343c-53.33455-3.84436-86.98-6.26965-111.07507-31.99292C-41.5491,1264.59521-18.12,1180.29443,1.92493,1137.615Z" transform="translate(22.65679 -13)" style="fill:#e6e6e6"/><path d="M367.571,1338.33618C346.17966,1370.97913,308.40164,1374.46887,281,1377c-22.4527,2.0741-50.53557,4.66809-69-14-18.54008-18.74463-16.04582-47.46411-14.992-59.59839.71577-8.24158,3.90863-36.6,24.65971-57.53931,38.092-38.4375,115.966-41.17175,145.9033,0C386.48593,1271.87537,385.4086,1311.11633,367.571,1338.33618Z" transform="translate(22.65679 -13)" style="fill:#f2f2f2"/><path d="M364.22421,1288.875c1.99335-4.16272,18.93363-38.20654,50.52561-38.86584,32.98666-.68836,62.94622,35.417,57.00326,60.88989C467.34137,1329.80872,444.152,1338.54114,427,1345c-16.16953,6.08887-46.95236,17.68079-62.77579,2.17383C349.24069,1332.49,357.42725,1303.06921,364.22421,1288.875Z" transform="translate(22.65679 -13)" style="fill:gray"/></g><path d="M1263.66273,1705.34213c1.242-1.30472,11.63579-11.89812,23.44173-8.33266,12.32712,3.72288,19.09309,20.73789,13.815,29.47625-3.91817,6.48688-13.57888,6.93143-20.72438,7.26022-6.73621.30994-19.56035.90008-23.56351-6.76425C1252.84087,1719.72419,1259.4279,1709.791,1263.66273,1705.34213Z" transform="translate(22.65679 -13)" style="fill:#e6e6e6"/><path d="M1315.387,1666.53781c3.68066-4.04841,34.467-36.93485,68.61734-26.66921,35.658,10.7189,54.44393,62.30969,38.634,89.26436-11.73638,20.00965-39.85782,21.87376-60.6577,23.2525-19.60849,1.29971-56.93836,3.77428-68.17935-19.4144C1283.157,1711.01325,1302.83659,1680.34226,1315.387,1666.53781Z" transform="translate(22.65679 -13)" style="fill:gray"/><path d="M1366.62814,1701.83384c2.5149-2.642,23.562-24.09322,47.46853-16.87331,24.96192,7.5387,38.66273,41.9934,27.97477,59.68822-7.93415,13.13566-27.49669,14.03585-41.966,14.70164-13.64056.62762-39.60891,1.82261-47.71514-13.69733C1344.71431,1730.95692,1358.05279,1710.84268,1366.62814,1701.83384Z" transform="translate(22.65679 -13)" style="fill:#e6e6e6"/><path d="M793.77767,845.713c-.857-.90037-8.02968-8.21072-16.17678-5.75025-8.50676,2.56911-13.17586,14.31092-9.53351,20.34113,2.70388,4.4765,9.37059,4.78327,14.30159,5.01017,4.64856.21388,13.4983.62112,16.26083-4.66791C801.24568,855.63787,796.70007,848.78315,793.77767,845.713Z" transform="translate(22.65679 -13)" style="fill:#e6e6e6"/><path d="M758.08352,818.93475c-2.54-2.79375-23.78513-25.4882-47.3518-18.404-24.60706,7.397-37.571,42.999-26.66077,61.6,8.0991,13.80836,27.50528,15.09475,41.859,16.0462,13.53153.89691,39.29232,2.60457,47.04956-13.39759C780.325,849.62659,766.74438,828.461,758.08352,818.93475Z" transform="translate(22.65679 -13)" style="fill:gray"/><path d="M722.72278,843.292c-1.73549-1.82321-16.25978-16.62637-32.75733-11.644-17.22585,5.20234-26.68057,28.979-19.305,41.18995,5.47524,9.06473,18.97506,9.68593,28.96014,10.14539,9.41314.43311,27.33351,1.25776,32.9275-9.45233C737.84519,863.38941,728.6405,849.50888,722.72278,843.292Z" transform="translate(22.65679 -13)" style="fill:#e6e6e6"/><path d="M885,488c-3.96753,41.87976-7.99084,84.12421-12,126-2.98462,31.17419-6.98981,72.82825-10,104q-139.52994,12.89721-279.05981,25.79431c-40.95-13.30493-67.44971-40.27514-64.93238-62.79431,2.48011-22.18665,30.42487-39.07336,51.99219-51,8.05359-4.45361,16.75293-8.2146,33-15,35.91663-15,62.94775-25.29968,127-46,.00012-.00006,16.38733-5.51019,47-16,3.89508-1.33472,43.58649-15.05573,70-30a105.59165,105.59165,0,0,0,10.4707-6.58337A102.10873,102.10873,0,0,0,885,488Z" transform="translate(22.65679 -13)" style="fill:url(#2a84540a-06b0-42d5-8fd6-d325e2da84e0)"/><path d="M891,372q10.42117,56.02231,22,113.44067,8.84492,43.81239,18,86.54236,97,3.00852,194,6.017a96.80118,96.80118,0,0,0,27-29c5.5199-9.18842,12.67908-21.10559,12-35-1.14941-23.52045-24.11707-39.55475-41-51-8.21216-5.56714-23.15588-14.73108-68-29-58.4267-18.59076-126.99988-38-127-38a72.49317,72.49317,0,0,1-15-6A75.833,75.833,0,0,1,891,372Z" transform="translate(22.65679 -13)" style="fill:url(#73449f19-5328-4abc-b1d1-3a123c49fae6)"/><path d="M1026.99988,691.00073c-.0885.01282,20.40637,137.00952,28.35693,190.13941,9.14014,61.07885,15.22486,112.23791,19.14331,148.43982q44.25-.29,88.49988-.58a174.884,174.884,0,0,1,11-37c8.23059-19.46667,18.05518-32.73987,31-50,18.049-24.0658,19.81226-21.73877,34-42,22.05029-31.4895,23.69263-45.53821,24-52a63.57526,63.57526,0,0,0-6-31c-11.17847-22.93726-34.5592-31.98914-63-43-9.33423-3.61377-22.88953-7.40918-50-15-11.80615-3.30566-21.963-5.99707-43-12-.00012,0-30.76257-8.7782-50-21a64.11627,64.11627,0,0,1-8-6,52.56439,52.56439,0,0,1-11-13A39.75313,39.75313,0,0,1,1026.99988,691.00073Z" transform="translate(22.65679 -13)" style="fill:url(#726ab2a4-030a-4b43-80a7-7ae1a3cf55d3)"/><path d="M1163,1056c-1.1488.1272,2.92761,57.26416,14,150,5.65332,47.349,11.05261,86.57568,15,114l198,3c-9.1394-9.16565-23.57886-23.32715-42-40-20.979-18.98792-28.86731-24.71057-64-55-39.28162-33.86646-48.48975-43.1532-55-50-21.65356-22.773-31.87488-37.2572-38-47-6.01282-9.56409-13.87854-22.05823-20-40C1164.08057,1070.71948,1163.58313,1055.93542,1163,1056Z" transform="translate(22.65679 -13)" style="fill:url(#990b0f94-f7b3-4651-83b3-d00d81a8bd23)"/><path d="M1211.25628,735.2028a143.41212,143.41212,0,0,1,18.95037,7.35055q2.08944.98085,4.28815,2.09387a28.38152,28.38152,0,0,0,2.21342,10.00514,24.50151,24.50151,0,0,0,3.45272,5.72406,2.35621,2.35621,0,0,0,1.9622-.0787,3.49776,3.49776,0,0,0,1.69014-1.77049l-7.28794-12.83083a171.07757,171.07757,0,0,1,19.2696,11.83154,193.77337,193.77337,0,0,1,32.46658,29.113q-6.82014,10.49252-13.64017,20.985a184.33044,184.33044,0,0,1-30.4187-25.56416A187.14874,187.14874,0,0,1,1211.25628,735.2028Z" transform="translate(22.65679 -13)" style="fill:url(#b9ae9971-9d76-4f6d-aef4-3e90c503b7a9)"/><path d="M1330,811.19732a126.49063,126.49063,0,0,1-18.49566-3.80718q-2.05236-.58129-4.21826-1.26967a25.33043,25.33043,0,0,0-2.86161-9.11561,20.5148,20.5148,0,0,0-3.70607-4.85045,2.28758,2.28758,0,0,0-1.85072.40193,3.80979,3.80979,0,0,0-1.46358,1.96035l7.8801,10.94787a145.28148,145.28148,0,0,1-19.14131-8.00189,161.05415,161.05415,0,0,1-32.95416-22.1833q5.64918-11.08453,11.29825-22.169A153.68086,153.68086,0,0,1,1295.2312,772.271,155.89032,155.89032,0,0,1,1330,811.19732Z" transform="translate(22.65679 -13)" style="fill:url(#70fbab18-799d-4e2a-a72c-81f50e45218e)"/><path d="M1229.48781,713.78132a103.74793,103.74793,0,0,1,10.79106,7.76527q1.17757.963,2.41093,2.027a20.17161,20.17161,0,0,0,.604,6.6395,19.06008,19.06008,0,0,0,1.65143,4.16294,1.45957,1.45957,0,0,0,1.17761.27771,1.74421,1.74421,0,0,0,1.13655-.82794l-3.43207-9.25622a130.56356,130.56356,0,0,1,10.66013,10.62687,152.22835,152.22835,0,0,1,17.30212,23.65734q-4.82653,5.43936-9.653,10.8787a144.21626,144.21626,0,0,1-16.33366-21.09182A146.59307,146.59307,0,0,1,1229.48781,713.78132Z" transform="translate(22.65679 -13)" style="fill:url(#862cbdc9-4007-4092-aa52-27e0bbc46aee)"/><path d="M1217.77933,820.58179a143.40929,143.40929,0,0,0,17.19529-10.83831q1.86335-1.36225,3.80868-2.87514a28.38132,28.38132,0,0,1,.25957-10.24376,24.50127,24.50127,0,0,1,2.29456-6.27863,2.35616,2.35616,0,0,1,1.941-.29793,3.49775,3.49775,0,0,1,1.99748,1.41466l-4.70018,13.98759a171.07914,171.07914,0,0,0,16.65185-15.29767,193.77376,193.77376,0,0,0,26.30107-34.78365q-8.70053-8.99489-17.40092-17.98976a184.33158,184.33158,0,0,0-24.96952,30.90869A187.14873,187.14873,0,0,0,1217.77933,820.58179Z" transform="translate(22.65679 -13)" style="fill:url(#9b0451f9-a930-4fd4-8e51-63df70b5a370)"/><path d="M1261.51559,737.4649c4.68736,22.06185,8.98918,42.32492,9.44626,44.478,18.25073,85.96767,25.45811,120.11141,39.58155,186.49907,3.06849,14.42351,6.83442,32.10971,10.25316,48.14893q-3.69686.52984-7.39371,1.05977a964.46238,964.46238,0,0,1-32.65449-112.63628A1183.22373,1183.22373,0,0,1,1255.441,738.1192Z" transform="translate(22.65679 -13)" style="fill:url(#4c9306ce-4959-4358-b5a6-6e185a562a4a)"/><path d="M1258.33825,685.16469a190.81584,190.81584,0,0,1,7.74724,20.668q.75842,2.42346,1.511,5.04233a36.59863,36.59863,0,0,0-5.29165,17.66664,2.361,2.361,0,0,0,1.27436,1.42713,2.26829,2.26829,0,0,0,2.055-.21618l2.64531-16.441a249.43125,249.43125,0,0,1,5.42792,24.715,296.584,296.584,0,0,1,3.98461,49.43311q-10.175,3.7146-20.35,7.42926a280.199,280.199,0,0,1-4.69614-44.86127A285.04145,285.04145,0,0,1,1258.33825,685.16469Z" transform="translate(22.65679 -13)" style="fill:url(#228a1130-1ac3-4fac-99cd-0d4b5ac65a6e)"/><path d="M1310.51379,717.48808a125.68346,125.68346,0,0,0-13.9016,11.23651q-1.48682,1.382-3.02955,2.90423a25.05831,25.05831,0,0,1,.84352,8.99417,21.56079,21.56079,0,0,1-1.35007,5.72984,2.06772,2.06772,0,0,1-1.666.45816,3.09244,3.09244,0,0,1-1.89427-1.03536l2.64777-12.72313a149.99408,149.99408,0,0,0-12.96046,15.08515,170.07681,170.07681,0,0,0-19.3607,33.12494q8.547,6.98989,17.0939,13.97978a161.741,161.741,0,0,0,18.60143-29.59728A164.59248,164.59248,0,0,0,1310.51379,717.48808Z" transform="translate(22.65679 -13)" style="fill:url(#e3ebe404-22e3-48c2-a574-f1b94171a4aa)"/><path d="M1265.784,777.59885a21.28947,21.28947,0,0,1,1.353,2.3689q.1378.28008.27741.58378a4.13915,4.13915,0,0,0-.45284,1.29094,3.91122,3.91122,0,0,0-.04633.91783.29948.29948,0,0,0,.19618.15216.35789.35789,0,0,0,.2827-.05774l.1478-2.02035a26.792,26.792,0,0,1,1.0848,2.892,31.23669,31.23669,0,0,1,1.21473,5.89034l-2.72876,1.20856a29.59283,29.59283,0,0,1-1.25249-5.32889A30.08084,30.08084,0,0,1,1265.784,777.59885Z" transform="translate(22.65679 -13)" style="fill:url(#13ee648f-cc44-4af0-8388-5249ef4770c5)"/><path d="M1254.32349,796.5583a29.99525,29.99525,0,0,0,4.213-.56929q.47284-.09742.97437-.21638a5.936,5.936,0,0,1,.93884-1.92667,5.12432,5.12432,0,0,1,.98178-.99547.49275.49275,0,0,1,.39521.11184.73159.73159,0,0,1,.25725.44263l-2.10888,2.25347a35.78163,35.78163,0,0,0,4.49682-1.465,40.52934,40.52934,0,0,0,8.02483-4.335q-.87455-2.467-1.74905-4.934a38.55473,38.55473,0,0,0-7.435,3.7133A39.14349,39.14349,0,0,0,1254.32349,796.5583Z" transform="translate(22.65679 -13)" style="fill:url(#b79ff04b-d287-43ea-a7fb-1fc2e048681a)"/><path d="M1273.60765,774.71427a39.1555,39.1555,0,0,1-.31436,4.51833q-.06486.517-.14746,1.07a7.50983,7.50983,0,0,0-2.49282,2.84729.48446.48446,0,0,0,.11633.375.46542.46542,0,0,0,.402.1347l1.89439-2.8439a51.1845,51.1845,0,0,1-1.09209,5.07626,60.86005,60.86005,0,0,1-3.46717,9.56778l-4.43188-.34663a57.497,57.497,0,0,1,2.94488-8.7749A58.4906,58.4906,0,0,1,1273.60765,774.71427Z" transform="translate(22.65679 -13)" style="fill:url(#38bf94e7-79d3-4c8c-92a3-0c3f642f3cf4)"/><g style="opacity:0.1"><path d="M949.31621,901.28305a143.40889,143.40889,0,0,1,19.417,6.01073q2.15277.83271,4.42376,1.78964a28.38143,28.38143,0,0,0,2.906,9.82636,24.50116,24.50116,0,0,0,3.8436,5.46927,2.35615,2.35615,0,0,0,1.95192-.21539,3.49777,3.49777,0,0,0,1.56253-1.88407L975.2557,909.9884a171.077,171.077,0,0,1,20.048,10.45854,193.77378,193.77378,0,0,1,34.41832,26.77737q-6.07161,10.9427-12.14311,21.88534a184.33064,184.33064,0,0,1-32.12786-23.38A187.14857,187.14857,0,0,1,949.31621,901.28305Z" transform="translate(22.65679 -13)"/><path d="M1073.07178,968.8093a126.48993,126.48993,0,0,1-18.71618-2.50772q-2.08793-.43671-4.29656-.97232a25.33053,25.33053,0,0,0-3.4905-8.89379,20.51513,20.51513,0,0,0-4.03539-4.58011,2.28757,2.28757,0,0,0-1.81818.53,3.80969,3.80969,0,0,0-1.32327,2.05767l8.62459,10.37151a145.28126,145.28126,0,0,1-19.65286-6.64717,161.0536,161.0536,0,0,1-34.42132-19.83049q4.86221-11.4516,9.7243-22.90313a153.68085,153.68085,0,0,1,32.0059,16.96931A155.89046,155.89046,0,0,1,1073.07178,968.8093Z" transform="translate(22.65679 -13)"/><path d="M966.009,878.642a103.74879,103.74879,0,0,1,11.30645,6.9936q1.24188.87849,2.54645,1.85388a20.17169,20.17169,0,0,0,1.06566,6.58119,19.06012,19.06012,0,0,0,1.93779,4.0376,1.45954,1.45954,0,0,0,1.19412.19489,1.74421,1.74421,0,0,0,1.076-.90521l-4.0694-8.99426a130.56314,130.56314,0,0,1,11.37546,9.85738,152.22866,152.22866,0,0,1,18.91023,22.39277q-4.43535,5.76279-8.87061,11.52556a144.21593,144.21593,0,0,1-17.76516-19.90106A146.593,146.593,0,0,1,966.009,878.642Z" transform="translate(22.65679 -13)"/><path d="M961.7791,985.999a143.41065,143.41065,0,0,0,16.39736-12.01139q1.76379-1.48893,3.59884-3.13382a28.38141,28.38141,0,0,1-.45563-10.23692,24.50162,24.50162,0,0,1,1.851-6.42339,2.35617,2.35617,0,0,1,1.91553-.4326,3.49776,3.49776,0,0,1,2.09131,1.27187l-3.713,14.28138a171.07964,171.07964,0,0,0,15.54418-16.422,193.77392,193.77392,0,0,0,23.81061-36.53358q-9.30678-8.36605-18.61343-16.73211a184.33059,184.33059,0,0,0-22.75262,32.57518A187.14856,187.14856,0,0,0,961.7791,985.999Z" transform="translate(22.65679 -13)"/><path d="M999.61088,900.03372c6.2149,21.68113,11.91972,41.59477,12.52587,43.71067,24.20307,84.48514,33.77465,118.043,52.49465,183.28369,4.06715,14.17434,9.05763,31.55475,13.58688,47.31642q-3.65088.78644-7.30176,1.57295a964.46243,964.46243,0,0,1-40.43207-110.084,1183.22516,1183.22516,0,0,1-36.88774-164.72323Z" transform="translate(22.65679 -13)"/><path d="M992.793,848.08255a190.81536,190.81536,0,0,1,9.1701,20.07725q.9256,2.36466,1.859,4.92464a36.59872,36.59872,0,0,0-4.0464,17.99274,2.361,2.361,0,0,0,1.37081,1.33476,2.26831,2.26831,0,0,0,2.03494-.359l1.492-16.58544a249.4323,249.4323,0,0,1,7.13873,24.27618,296.58646,296.58646,0,0,1,7.42319,49.03474q-9.89115,4.41533-19.78218,8.8307a280.199,280.199,0,0,1-7.81407-44.42439A285.04151,285.04151,0,0,1,992.793,848.08255Z" transform="translate(22.65679 -13)"/><path d="M1047.09621,876.68762a125.685,125.685,0,0,0-13.08392,12.17886q-1.38678,1.48237-2.81958,3.10849a25.0585,25.0585,0,0,1,1.46887,8.91342,21.561,21.561,0,0,1-.94709,5.81006,2.06774,2.06774,0,0,1-1.62994.57326,3.09241,3.09241,0,0,1-1.96188-.90071l1.7538-12.87683a149.99434,149.99434,0,0,0-11.87661,15.95247,170.07747,170.07747,0,0,0-17.00285,34.39479q9.01378,6.37667,18.02744,12.75332A161.74161,161.74161,0,0,0,1035.516,925.772,164.59261,164.59261,0,0,0,1047.09621,876.68762Z" transform="translate(22.65679 -13)"/><path d="M1006.66849,939.77216a21.28879,21.28879,0,0,1,1.515,2.26874q.157.26979.31745.563a4.13927,4.13927,0,0,0-.36168,1.31938,3.91114,3.91114,0,0,0,.0178.91883.29951.29951,0,0,0,.20632.1381.35789.35789,0,0,0,.278-.07732l.0065-2.02574a26.78983,26.78983,0,0,1,1.28389,2.80925,31.23808,31.23808,0,0,1,1.62267,5.79125l-2.63782,1.396a29.59263,29.59263,0,0,1-1.62116-5.22854A30.08137,30.08137,0,0,1,1006.66849,939.77216Z" transform="translate(22.65679 -13)"/><path d="M996.55845,959.48487a29.9951,29.9951,0,0,0,4.163-.86179q.46489-.13017.9569-.28383a5.936,5.936,0,0,1,.80216-1.98746,5.12459,5.12459,0,0,1,.90994-1.06154.49282.49282,0,0,1,.40206.084.7316.7316,0,0,1,.2875.4236l-1.94655,2.39509a35.78358,35.78358,0,0,0,4.38367-1.77512,40.52964,40.52964,0,0,0,7.70289-4.88424q-1.04451-2.4-2.089-4.8a38.5547,38.5547,0,0,0-7.15786,4.22289A39.1434,39.1434,0,0,0,996.55845,959.48487Z" transform="translate(22.65679 -13)"/><path d="M1014.27187,936.34885a39.15686,39.15686,0,0,1,.00159,4.52926q-.02865.52029-.07246,1.07771a7.51016,7.51016,0,0,0-2.28814,3.01425.4845.4845,0,0,0,.14221.36595.46544.46544,0,0,0,.41047.10633l1.69139-2.96913a51.18559,51.18559,0,0,1-.73532,5.14009,60.85929,60.85929,0,0,1-2.79132,9.78632l-4.44526-.03663a57.49719,57.49719,0,0,1,2.32561-8.959A58.491,58.491,0,0,1,1014.27187,936.34885Z" transform="translate(22.65679 -13)"/></g><path d="M1222.38386,74.04808a7.84031,7.84031,0,0,1,15.51727,0q1.34933,25.87988,2.69866,51.75978v76.98723h-20.23992Q1221.37188,138.4216,1222.38386,74.04808Z" transform="translate(22.65679 -13)" style="fill:url(#c129a908-cd73-4e23-89ca-e226a6c9ac95)"/><path d="M1261.96414,127.48555a79.688,79.688,0,0,0-21.36435-1.73983v13.92676c17.429,3.88532,32.78645-4.64016,36.88162-17.40641,2.90431-9.05389-.59246-17.94491-2.024-21.12644-.0849-.17357-2.20675-4.33445-6.52175-4.47383a7.60871,7.60871,0,0,0-6.97153,4.47383,148.69656,148.69656,0,0,0-.56668,15.50072C1261.45766,120.48681,1261.66376,124.1106,1261.96414,127.48555Z" transform="translate(22.65679 -13)" style="fill:url(#1e607606-b430-41f7-bcd0-7126388ea6a5)"/><path d="M1265.76593,100.22a1.11953,1.11953,0,0,1,1.01376-1.33593,1.22786,1.22786,0,0,1,.85171,1.30158c-.20011,7.2068-.17956,13.04911-.12056,17.12659.08674,5.9947.263,8.6188-1.58828,10.68707-.64218.71746-2.11626,2.02489-10.41474,2.70656a88.02966,88.02966,0,0,1-11.19279.20612c-.6408-.12166-1.101-.51718-1.11252-.8477-.01322-.38041.56092-.87762,1.447-.805q10.442-1.25507,20.884-2.51017Z" transform="translate(22.65679 -13)" style="opacity:0.1"/><path d="M1268.95442,104.14148a1.12633,1.12633,0,0,1,1.08448-1.356,1.33478,1.33478,0,0,1,.94726,1.36783c-.11059,7.44882-.00111,13.492.12393,17.71075.18385,6.20245.415,8.921-1.571,11.01319-.6889.72574-2.27528,2.04059-11.30554,2.53494a100.9434,100.9434,0,0,1-12.19043-.071c-.6999-.14211-1.20717-.56287-1.22461-.905-.02008-.39378.598-.89347,1.56434-.79589l22.7138-2.066Z" transform="translate(22.65679 -13)" style="opacity:0.1"/><path d="M1203.39013,165.26459a52.66509,52.66509,0,0,1,10.31678-1.73982,51.52867,51.52867,0,0,1,6.87785,0v13.92675c-14.02732,3.88533-26.38745-4.64016-29.68336-17.4064-2.33747-9.05389.47683-17.94492,1.629-21.12644.06832-.17358,1.776-4.33445,5.24888-4.47384,2.31819-.09305,4.49413,1.64307,5.61088,4.47384.335,4.67914.527,9.87252.45608,15.50071C1203.79776,158.26585,1203.63188,161.88964,1203.39013,165.26459Z" transform="translate(22.65679 -13)" style="fill:url(#b847e1c2-3233-41ab-95ed-d97ac6d6093a)"/><path d="M1200.33034,137.999c.059-.8355-.42856-1.39612-.8159-1.33593-.34067.05294-.70334.60163-.68548,1.30158.16106,7.2068.14452,13.04911.097,17.12659-.0698,5.9947-.21166,8.61881,1.2783,10.68708.51684.71745,1.70322,2.02489,8.38207,2.70656a57.06524,57.06524,0,0,0,9.00827.20611,1.09187,1.09187,0,0,0,.89538-.8477.97993.97993,0,0,0-1.16456-.805l-16.80807-2.51016Z" transform="translate(22.65679 -13)" style="opacity:0.1"/><path d="M1197.86913,141.87816c.08-.8654-.44082-1.434-.864-1.36289-.37219.06255-.77762.63828-.77125,1.36174.04059,7.44934-.08678,13.49163-.21483,17.70951-.18827,6.20111-.39194,8.91811,1.19278,11.02293.54971.73013,1.8179,2.05507,9.0823,2.60711a65.42166,65.42166,0,0,0,9.81141.0069,1.22319,1.22319,0,0,0,.99146-.89717c.01871-.39365-.47546-.89727-1.25383-.80587q-9.1334-1.10551-18.2668-2.21107Z" transform="translate(22.65679 -13)" style="opacity:0.1"/><path d="M1237.90113,74.04808c1.18361.03423-2.85011,45.15479.67467,80.28047a192.55552,192.55552,0,0,1-.89956,39.51887c-.21278,1.61886-.95242,7.24583-1.34932,7.20784-.45037-.04308-.2484-7.35988,0-13.67005q.22488-12.55156.44977-25.10318a496.07147,496.07147,0,0,1-.89955-64.3735C1235.99518,95.57167,1237.08366,74.02445,1237.90113,74.04808Z" transform="translate(22.65679 -13)" style="opacity:0.1"/><path d="M1230.90107,74.04808c-1.18361.03423,2.85012,45.15479-.67466,80.28047a192.55508,192.55508,0,0,0,.89955,39.51887c.21279,1.61886.95243,7.24583,1.34933,7.20784.45037-.04308.24839-7.35988,0-13.67005q-.22488-12.55156-.44978-25.10318a496.06938,496.06938,0,0,0,.89956-64.3735C1232.807,95.57167,1231.71855,74.02445,1230.90107,74.04808Z" transform="translate(22.65679 -13)" style="opacity:0.1"/><path d="M1225.75718,72.05971c1.18362.03423-2.85011,45.15479.67467,80.28047a192.55552,192.55552,0,0,1-.89956,39.51887c-.21278,1.61886-.95242,7.24583-1.34932,7.20784-.45037-.04308-.2484-7.35988,0-13.67005q.22488-12.55156.44977-25.10318a496.07147,496.07147,0,0,1-.89955-64.3735C1223.85124,93.5833,1224.93971,72.03608,1225.75718,72.05971Z" transform="translate(22.65679 -13)" style="opacity:0.1"/><text x="22.65679" y="-13"></text></svg>