<svg id="9baf6ee4-c3e0-456b-beae-20a49ab63d5f" data-name="Layer 1" xmlns="http://www.w3.org/2000/svg" xmlns:xlink="http://www.w3.org/1999/xlink" viewBox="0 0 1468.39308 1734.18203"><defs><linearGradient id="8cb4d0b7-be31-4d79-a345-109e355a71c0" x1="1271.38053" y1="146.73373" x2="1361.23209" y2="198.60955" gradientTransform="matrix(-1.10338, 0.05634, 0.07096, 1.07222, 2661.72741, -108.59479)" gradientUnits="userSpaceOnUse"><stop offset="0" stop-color="#d26ca3"/><stop offset="0.9986" stop-color="#4f1974"/></linearGradient><linearGradient id="97b08eee-c3e4-4c54-bfa8-1db569a1371f" x1="1099.69324" y1="103.50926" x2="1305.7555" y2="222.47937" gradientTransform="matrix(-0.98481, 0.07915, 0.04087, 1.06643, 2521.9651, -135.48226)" xlink:href="#8cb4d0b7-be31-4d79-a345-109e355a71c0"/><linearGradient id="a56c73c3-166e-420f-9b8b-4755a32881d0" x1="1244.41696" y1="-23.82133" x2="1422.30744" y2="78.88378" gradientTransform="matrix(0.99996, 0.0092, -0.00786, 0.85445, 20.1769, 93.9472)" xlink:href="#8cb4d0b7-be31-4d79-a345-109e355a71c0"/><linearGradient id="09eb0ccd-40c6-4971-a87b-616f598ddfa5" x1="1291" y1="491" x2="1291" y2="491" gradientTransform="matrix(1, 0, 0, 1, 0, 0)" xlink:href="#8cb4d0b7-be31-4d79-a345-109e355a71c0"/><linearGradient id="1c24e16b-3e14-4c25-9a80-a4984fb2cf5f" x1="523.40292" y1="977.67137" x2="627.32139" y2="1279.47251" gradientUnits="userSpaceOnUse"><stop offset="0" stop-color="#b76eff"/><stop offset="0.07995" stop-color="#af73fc"/><stop offset="0.20491" stop-color="#9980f4"/><stop offset="0.35918" stop-color="#7496e7"/><stop offset="0.53684" stop-color="#42b4d5"/><stop offset="0.73197" stop-color="#02dbbf"/><stop offset="0.73862" stop-color="#00dcbe"/><stop offset="1" stop-color="#00dcbe"/></linearGradient><linearGradient id="383dbaea-91ca-417d-94cb-a63caadbf707" x1="692.57745" y1="570.49038" x2="783.44701" y2="756.80058" gradientUnits="userSpaceOnUse"><stop offset="0" stop-color="#b76eff"/><stop offset="0.07808" stop-color="#a579f8"/><stop offset="0.23561" stop-color="#7496e7"/><stop offset="0.45619" stop-color="#28c4cc"/><stop offset="0.5639" stop-color="#00dcbe"/><stop offset="0.73862" stop-color="#00dcbe"/><stop offset="1" stop-color="#00dcbe"/></linearGradient><linearGradient id="2ac18164-8a31-4651-a370-c8ab8c89f440" x1="956.82256" y1="411.12601" x2="1004.13883" y2="587.71272" gradientTransform="matrix(-1, 0, 0, 1, 1993.84281, 0)" gradientUnits="userSpaceOnUse"><stop offset="0" stop-color="#b76eff"/><stop offset="0.07716" stop-color="#b172fd"/><stop offset="0.17984" stop-color="#a07cf7"/><stop offset="0.29696" stop-color="#858ced"/><stop offset="0.4247" stop-color="#5ea4df"/><stop offset="0.55954" stop-color="#2dc1ce"/><stop offset="0.66795" stop-color="#00dcbe"/><stop offset="0.67298" stop-color="#00dcbe"/><stop offset="1" stop-color="#00dcbe"/></linearGradient><linearGradient id="91eb2fe1-0796-4637-9858-76ac0acad5dc" x1="941.31116" y1="859.9564" x2="929.77767" y2="1071.3018" gradientTransform="matrix(-0.97815, -0.20791, -0.32492, 1.52863, 2356.33353, -411.69635)" gradientUnits="userSpaceOnUse"><stop offset="0" stop-color="#b76eff"/><stop offset="0.14286" stop-color="#b370fe"/><stop offset="0.27076" stop-color="#a977fa"/><stop offset="0.39292" stop-color="#9682f3"/><stop offset="0.51154" stop-color="#7d91ea"/><stop offset="0.62765" stop-color="#5ba5de"/><stop offset="0.74185" stop-color="#33bed0"/><stop offset="0.85259" stop-color="#03dabf"/><stop offset="0.86" stop-color="#00dcbe"/></linearGradient><linearGradient id="556dbf8b-012d-44ba-9e0c-f6fd2a23f680" x1="737.45017" y1="1155.85745" x2="709.29592" y2="1342.65692" gradientTransform="matrix(-0.97815, -0.20791, -0.29815, 1.40267, 2356.48326, -412.40083)" gradientUnits="userSpaceOnUse"><stop offset="0" stop-color="#b76eff"/><stop offset="0.15855" stop-color="#b370fe"/><stop offset="0.3005" stop-color="#a977fa"/><stop offset="0.43608" stop-color="#9682f3"/><stop offset="0.56773" stop-color="#7d91ea"/><stop offset="0.6966" stop-color="#5ba5de"/><stop offset="0.82334" stop-color="#33bed0"/><stop offset="0.94624" stop-color="#03dabf"/><stop offset="0.95447" stop-color="#00dcbe"/></linearGradient><linearGradient id="5329c0b9-0512-4980-8bd2-da2f64c80869" x1="7.42908" y1="1288.34455" x2="62.74537" y2="1320.28142" gradientTransform="matrix(-0.74445, 0.66768, 0.51111, 0.56988, 604.33266, 5.05954)" gradientUnits="userSpaceOnUse"><stop offset="0" stop-color="#d26ca3"/><stop offset="1" stop-color="#4f1974"/></linearGradient><linearGradient id="7ca2671b-1847-4d2b-82a6-1f17a8356cea" x1="4076.28562" y1="4735.29955" x2="4131.60191" y2="4767.23642" gradientTransform="matrix(0.65326, -0.75714, -0.52734, -0.45499, 1119.99987, 6051.13108)" xlink:href="#5329c0b9-0512-4980-8bd2-da2f64c80869"/><linearGradient id="f7180cbe-a448-4549-8440-b6630b66a878" x1="-402.01028" y1="-459.39869" x2="-346.69399" y2="-427.46182" gradientTransform="matrix(-0.49256, 0.29438, 0.26437, 0.44235, 1179.77241, 1048.66705)" xlink:href="#5329c0b9-0512-4980-8bd2-da2f64c80869"/><linearGradient id="24e44bd9-fb7e-400f-834c-39279eae7677" x1="2377.40411" y1="5376.16273" x2="2432.7204" y2="5408.09961" gradientTransform="matrix(-0.85838, -0.51302, 0.39272, -0.65709, 1190.64352, 5555.21395)" xlink:href="#5329c0b9-0512-4980-8bd2-da2f64c80869"/><linearGradient id="ab3bf688-709c-45b0-9bb1-dc1a02b07a1c" x1="1017.61917" y1="919.29978" x2="1124.46398" y2="980.98666" gradientTransform="matrix(-0.99425, 0.10709, 0.10709, 0.99425, 2250.72226, -181.63867)" xlink:href="#5329c0b9-0512-4980-8bd2-da2f64c80869"/><linearGradient id="b04ffe29-187b-465b-af7a-58b2c340e1de" x1="1355.35126" y1="727.71558" x2="1403.61044" y2="755.57803" gradientTransform="matrix(-1, 0, 0, 1, 2638.25628, 0)" xlink:href="#5329c0b9-0512-4980-8bd2-da2f64c80869"/><linearGradient id="41de2f98-b114-4531-bccc-0fe675062391" x1="1241.34658" y1="-318.71474" x2="1296.66287" y2="-286.77787" gradientTransform="matrix(0.80411, 0.36184, -0.27469, 0.61517, 188.63729, 484.25532)" xlink:href="#5329c0b9-0512-4980-8bd2-da2f64c80869"/><linearGradient id="b1e64ff2-aa47-4a83-9238-983e324b0407" x1="1131.57326" y1="-1282.39013" x2="1142.92422" y2="-1275.83665" gradientTransform="matrix(-0.57032, 0.06334, 0.05688, 0.51218, 1987.96176, 1367.52398)" xlink:href="#5329c0b9-0512-4980-8bd2-da2f64c80869"/><linearGradient id="7116d933-d341-4002-971a-533c6258f325" x1="3201.96352" y1="4691.05556" x2="3213.53328" y2="4697.73536" gradientTransform="matrix(-0.56795, -0.82307, 0.63006, -0.43477, 127.01712, 5471.908)" xlink:href="#5329c0b9-0512-4980-8bd2-da2f64c80869"/><linearGradient id="49ef085f-c8ca-41df-a606-e04f877fc54a" x1="2349.43004" y1="814.63952" x2="2359.33287" y2="820.35692" gradientTransform="matrix(-0.90976, -0.41514, -0.41514, 0.90976, 3750.17098, 1018.96057)" xlink:href="#5329c0b9-0512-4980-8bd2-da2f64c80869"/><linearGradient id="4c4beaab-8654-41db-ab72-38287966c8c6" x1="1220.35987" y1="135.06578" x2="1240.59979" y2="135.06578" gradientUnits="userSpaceOnUse"><stop offset="0" stop-color="#e9bed2"/><stop offset="0.5" stop-color="#df9dbb"/><stop offset="1" stop-color="#d98caf"/></linearGradient><linearGradient id="d19ad2fd-5ad4-4626-abf4-effe7ba415ee" x1="1247.61952" y1="113.58719" x2="1274.22005" y2="128.94501" xlink:href="#4c4beaab-8654-41db-ab72-38287966c8c6"/><linearGradient id="89fe3508-8ad0-425f-a516-24c98e2f6518" x1="-1856.32648" y1="-567.3149" x2="-1834.74797" y2="-554.85655" gradientTransform="matrix(-1, 0, 0, 1, -642, 720)" xlink:href="#4c4beaab-8654-41db-ab72-38287966c8c6"/><linearGradient id="010ca51c-40b5-41dc-b571-35c7e4c0265b" x1="1437" y1="88" x2="1437" y2="88" gradientTransform="matrix(1, 0, 0, 1, 0, 0)" xlink:href="#8cb4d0b7-be31-4d79-a345-109e355a71c0"/><linearGradient id="fe916efa-f36f-47fd-a376-f4c7754fcdf0" x1="680.18116" y1="477.79447" x2="843.54419" y2="477.79447" gradientTransform="matrix(1, 0, 0, 1, 0, 0)" xlink:href="#5329c0b9-0512-4980-8bd2-da2f64c80869"/><linearGradient id="ae0c1ee5-10f6-4aa2-bff9-1fc30d0ab042" x1="675.55675" y1="345.15202" x2="708.60769" y2="345.15202" gradientTransform="matrix(1.07049, 0.25718, -0.22048, 0.99847, 136.4014, -96.17907)" xlink:href="#4c4beaab-8654-41db-ab72-38287966c8c6"/><linearGradient id="f99fbab0-01ab-45b3-8490-27657230198f" x1="782.45319" y1="426.87951" x2="822.18861" y2="426.87951" gradientTransform="matrix(1, 0, 0, 1, 0, 0)" xlink:href="#5329c0b9-0512-4980-8bd2-da2f64c80869"/><linearGradient id="cffd2968-cdce-4015-bce5-541a58ca8fc8" x1="678.50627" y1="350.40148" x2="711.55721" y2="350.40148" gradientTransform="matrix(1.07049, 0.25718, -0.22048, 0.99847, 136.4014, -96.17907)" xlink:href="#4c4beaab-8654-41db-ab72-38287966c8c6"/><linearGradient id="eeebdfee-99b0-46f7-a298-6b02aa29a618" x1="784.45319" y1="432.87951" x2="824.18861" y2="432.87951" gradientTransform="matrix(1, 0, 0, 1, 0, 0)" xlink:href="#5329c0b9-0512-4980-8bd2-da2f64c80869"/></defs><title>river</title><path d="M1259.15629,105.44216q-8.58151,7.32336-17.163,14.64672-6.06219-2.14731-12.1244-4.29463l-4.94989,6.49922-15.68793,3.0802-11.93882,14.7064-20.04613-7.31422q-2.72967,8.468-5.45927,16.93609c-.14143,5.01944-.46461,10.29621-1.025,15.79907q-.48911,4.80273-1.15319,9.30753l85.64513.63486q2.38836-15.01845,4.77671-30.03687Q1259.59345,125.42434,1259.15629,105.44216Z" transform="translate(22.65679 -25.48133)" style="fill:url(#8cb4d0b7-be31-4d79-a345-109e355a71c0)"/><path d="M1249.06958,187.50421q-6.37812-5.66949-12.75623-11.33887c-119.77307-25.19336-181.93737-1.09985-216.70617,26.60181-37.48261,29.86383-32.441,54.89545-80.51123,97.27771-72.65772,64.06049-145.49451,57.85962-148.74109,89.1712-3.76343,36.29718,93.33429,52.15436,95.52173,90.52234,4.29217,75.28272-363.57434,118.651-367.0763,204.01294-3.13922,76.52137,289.67,110.0647,292.02356,189.15113C814.03906,980.94421,177.2,1011.65894,168.099,1155.278c-2.88263,45.48963,57.96515,83.27649,80.51117,97.27771,132.05444,82.0066,261.6748-11.47741,472.15033-20.26611,260.50091-10.87781,515.651,113.38013,517.182,204.01294,1.17933,69.814-148.53173,95.71594-143.28259,162.12939,7.59351,96.07374,329.70313,153.42847,343.87818,118.895,9.5896-23.36181-129.70288-69.40649-128.2721-151.3208,1.21289-69.43274,102.027-78.55163,115.99085-148.61865,24.79467-124.41382-269.39808-214.39709-263.36719-376.95117,3.76721-101.54,116.91211-142.28088,98.251-212.11951-21.25927-79.56238-218.80285-62.64258-233.34594-132.40576-13.43561-64.45019,146.744-119.28906,135.095-186.44891-14.35193-82.74225-275.2724-102.05329-271.55463-137.81,1.46045-14.04675,41.55414-9.40436,83.2403-44.58563,39.91485-33.6864,39.99048-68.43524,62.77148-97.27771C1061.9823,198.59845,1116.46643,170.31464,1249.06958,187.50421Z" transform="translate(22.65679 -25.48133)" style="fill:#00dcbe"/><path d="M1392.1792,49.41717q-12.83426-4.97968-25.66851-9.95942l-10.89414,16.27-33.64679,8.39693-26.22739,36.85356q-21.21418-8.4965-42.42873-16.993-6.25307,21.0074-12.506,42.01479c-.55433,12.37622-1.50947,25.39588-2.98243,38.9849q-1.28532,11.86006-2.92965,22.995l194.26752-.649c12.84289-71.32158,15.40392-125.8969,7.68-135.93826-1.45879-1.89653-21.38623-25.737-21.46608-25.82816l-.073-.08317h0s-3.64965,3.77768-10.94884,11.333Q1398.26715,43.11578,1392.1792,49.41717Z" transform="translate(22.65679 -25.48133)" style="fill:url(#97b08eee-c3e4-4c54-bfa8-1db569a1371f)"/><path d="M1386.49756,120.018,1441,76a46.17359,46.17359,0,0,0-2-18,200.32742,200.32742,0,0,1-27.15637,28.33093,200.3422,200.3422,0,0,1-34.26123,23.65556Q1382.03992,115.00222,1386.49756,120.018Z" transform="translate(22.65679 -25.48133)" style="fill:#00dcbe"/><path d="M1273.717,72q10.80048,2.81777,21.60108,5.63553,12.84832-4.706,25.69616-9.41214l11.52783,12.3851,34.33411,4.8053,27.68213,27.966Q1417.77924,94.68988,1441,76c.02734,2.72794.0448,6.5032,0,11-.13135,13.18817-.70215,22.1153-1,28-1.70312,33.65222,1.81421,40.11786-3,59a114.80289,114.80289,0,0,1-4.54333,14q-79.439-.22924-158.87818-.45856-7.05506-29.34137-14.11011-58.6828Q1266.59266,100.42932,1273.717,72Z" transform="translate(22.65679 -25.48133)" style="fill:url(#a56c73c3-166e-420f-9b8b-4755a32881d0)"/><path d="M1291,491" transform="translate(22.65679 -25.48133)" style="fill:url(#09eb0ccd-40c6-4971-a87b-616f598ddfa5)"/><path d="M810,882l-39,348c-12.08051.248-29.3241.77258-50,2a1254.75894,1254.75894,0,0,0-162,20c-25.75732,4.97437-58.82544,12.24927-97,23-79.5914,1.27856-113.92023-20.54614-130-43-27.22849-38.022-12.80527-92.756-55-124-18.89795-13.99341-34.14966-12.16541-35-20-2.2095-20.3573,99.21591-46.94287,190-71,65.25488-17.29211,163.6582-43.5188,287-77,5.85077-1.74414,13.79211-4.32715,23-8a258.46834,258.46834,0,0,0,26-12C776.96271,915.006,793.21423,904.2511,810,882Z" transform="translate(22.65679 -25.48133)" style="fill:url(#1c24e16b-3e14-4c25-9a80-a4984fb2cf5f)"/><g id="cf65a6c5-774d-445e-934d-82dd57152232" data-name="secondrock"><path d="M1.92493,1137.615c5.56561-11.85022,55.313-113.68237,150.27321-115.59485,92.51768-1.863,171.13929,92.26319,169.539,181.09851-.14306,7.94141-1.73764,67.38037-46.23791,107.88843C231.00879,1351.50623,172.0481,1347.25623,113,1343c-53.33455-3.84436-86.98-6.26965-111.07507-31.99292C-41.5491,1264.59521-18.12,1180.29443,1.92493,1137.615Z" transform="translate(22.65679 -25.48133)" style="fill:#e6e6e6"/><path d="M367.571,1338.33618C346.17966,1370.97913,308.40164,1374.46887,281,1377c-22.4527,2.0741-50.53557,4.66809-69-14-18.54008-18.74463-16.04582-47.46411-14.992-59.59839.71577-8.24158,3.90863-36.6,24.65971-57.53931,38.092-38.4375,115.966-41.17175,145.9033,0C386.48593,1271.87537,385.4086,1311.11633,367.571,1338.33618Z" transform="translate(22.65679 -25.48133)" style="fill:#f2f2f2"/><path d="M364.22421,1288.875c1.99335-4.16272,18.93363-38.20654,50.52561-38.86584,32.98666-.68836,62.94622,35.417,57.00326,60.88989C467.34137,1329.80872,444.152,1338.54114,427,1345c-16.16953,6.08887-46.95236,17.68079-62.77579,2.17383C349.24069,1332.49,357.42725,1303.06921,364.22421,1288.875Z" transform="translate(22.65679 -25.48133)" style="fill:gray"/></g><path d="M1263.66273,1705.34213c1.242-1.30472,11.63579-11.89812,23.44173-8.33266,12.32712,3.72288,19.09309,20.73789,13.815,29.47625-3.91817,6.48688-13.57888,6.93143-20.72438,7.26022-6.73621.30994-19.56035.90008-23.56351-6.76425C1252.84087,1719.72419,1259.4279,1709.791,1263.66273,1705.34213Z" transform="translate(22.65679 -25.48133)" style="fill:#e6e6e6"/><path d="M1315.387,1666.53781c3.68066-4.04841,34.467-36.93485,68.61734-26.66921,35.658,10.7189,54.44393,62.30969,38.634,89.26436-11.73638,20.00965-39.85782,21.87376-60.6577,23.2525-19.60849,1.29971-56.93836,3.77428-68.17935-19.4144C1283.157,1711.01325,1302.83659,1680.34226,1315.387,1666.53781Z" transform="translate(22.65679 -25.48133)" style="fill:gray"/><path d="M1366.62814,1701.83384c2.5149-2.642,23.562-24.09322,47.46853-16.87331,24.96192,7.5387,38.66273,41.9934,27.97477,59.68822-7.93415,13.13566-27.49669,14.03585-41.966,14.70164-13.64056.62762-39.60891,1.82261-47.71514-13.69733C1344.71431,1730.95692,1358.05279,1710.84268,1366.62814,1701.83384Z" transform="translate(22.65679 -25.48133)" style="fill:#e6e6e6"/><path d="M793.77767,845.713c-.857-.90037-8.02968-8.21072-16.17678-5.75025-8.50676,2.56911-13.17586,14.31092-9.53351,20.34113,2.70388,4.4765,9.37059,4.78327,14.30159,5.01017,4.64856.21388,13.4983.62112,16.26083-4.66791C801.24568,855.63787,796.70007,848.78315,793.77767,845.713Z" transform="translate(22.65679 -25.48133)" style="fill:#e6e6e6"/><path d="M758.08352,818.93475c-2.54-2.79375-23.78513-25.4882-47.3518-18.404-24.60706,7.397-37.571,42.999-26.66077,61.6,8.0991,13.80836,27.50528,15.09475,41.859,16.0462,13.53153.89691,39.29232,2.60457,47.04956-13.39759C780.325,849.62659,766.74438,828.461,758.08352,818.93475Z" transform="translate(22.65679 -25.48133)" style="fill:gray"/><path d="M722.72278,843.292c-1.73549-1.82321-16.25978-16.62637-32.75733-11.644-17.22585,5.20234-26.68057,28.979-19.305,41.18995,5.47524,9.06473,18.97506,9.68593,28.96014,10.14539,9.41314.43311,27.33351,1.25776,32.9275-9.45233C737.84519,863.38941,728.6405,849.50888,722.72278,843.292Z" transform="translate(22.65679 -25.48133)" style="fill:#e6e6e6"/><path d="M885,488c-3.96753,41.87976-7.99084,84.12421-12,126-2.98462,31.17419-6.98981,72.82825-10,104q-139.52994,12.89721-279.05981,25.79431c-40.95-13.30493-67.44971-40.27514-64.93238-62.79431,2.48011-22.18665,30.42487-39.07336,51.99219-51,8.05359-4.45361,16.75293-8.2146,33-15,35.91663-15,62.94775-25.29968,127-46,.00012-.00006,16.38733-5.51019,47-16,3.89508-1.33472,43.58649-15.05573,70-30a105.59165,105.59165,0,0,0,10.4707-6.58337A102.10873,102.10873,0,0,0,885,488Z" transform="translate(22.65679 -25.48133)" style="fill:url(#383dbaea-91ca-417d-94cb-a63caadbf707)"/><path d="M891,372q10.42117,56.02231,22,113.44067,8.84492,43.81239,18,86.54236,97,3.00852,194,6.017a96.80118,96.80118,0,0,0,27-29c5.5199-9.18842,12.67908-21.10559,12-35-1.14941-23.52045-24.11707-39.55475-41-51-8.21216-5.56714-23.15588-14.73108-68-29-58.4267-18.59076-126.99988-38-127-38a72.49317,72.49317,0,0,1-15-6A75.833,75.833,0,0,1,891,372Z" transform="translate(22.65679 -25.48133)" style="fill:url(#2ac18164-8a31-4651-a370-c8ab8c89f440)"/><path d="M1026.99988,691.00073c-.0885.01282,20.40637,137.00952,28.35693,190.13941,9.14014,61.07885,15.22486,112.23791,19.14331,148.43982q44.25-.29,88.49988-.58a174.884,174.884,0,0,1,11-37c8.23059-19.46667,18.05518-32.73987,31-50,18.049-24.0658,19.81226-21.73877,34-42,22.05029-31.4895,23.69263-45.53821,24-52a63.57526,63.57526,0,0,0-6-31c-11.17847-22.93726-34.5592-31.98914-63-43-9.33423-3.61377-22.88953-7.40918-50-15-11.80615-3.30566-21.963-5.99707-43-12-.00012,0-30.76257-8.7782-50-21a64.11627,64.11627,0,0,1-8-6,52.56439,52.56439,0,0,1-11-13A39.75313,39.75313,0,0,1,1026.99988,691.00073Z" transform="translate(22.65679 -25.48133)" style="fill:url(#91eb2fe1-0796-4637-9858-76ac0acad5dc)"/><path d="M1163,1056c-1.1488.1272,2.92761,57.26416,14,150,5.65332,47.349,11.05261,86.57568,15,114l198,3c-9.1394-9.16565-23.57886-23.32715-42-40-20.979-18.98792-28.86731-24.71057-64-55-39.28162-33.86646-48.48975-43.1532-55-50-21.65356-22.773-31.87488-37.2572-38-47-6.01282-9.56409-13.87854-22.05823-20-40C1164.08057,1070.71948,1163.58313,1055.93542,1163,1056Z" transform="translate(22.65679 -25.48133)" style="fill:url(#556dbf8b-012d-44ba-9e0c-f6fd2a23f680)"/><path d="M1211.25628,735.2028a143.41212,143.41212,0,0,1,18.95037,7.35055q2.08944.98085,4.28815,2.09387a28.38152,28.38152,0,0,0,2.21342,10.00514,24.50151,24.50151,0,0,0,3.45272,5.72406,2.35621,2.35621,0,0,0,1.9622-.0787,3.49776,3.49776,0,0,0,1.69014-1.77049l-7.28794-12.83083a171.07757,171.07757,0,0,1,19.2696,11.83154,193.77337,193.77337,0,0,1,32.46658,29.113q-6.82014,10.49252-13.64017,20.985a184.33044,184.33044,0,0,1-30.4187-25.56416A187.14874,187.14874,0,0,1,1211.25628,735.2028Z" transform="translate(22.65679 -25.48133)" style="fill:url(#5329c0b9-0512-4980-8bd2-da2f64c80869)"/><path d="M1330,811.19732a126.49063,126.49063,0,0,1-18.49566-3.80718q-2.05236-.58129-4.21826-1.26967a25.33043,25.33043,0,0,0-2.86161-9.11561,20.5148,20.5148,0,0,0-3.70607-4.85045,2.28758,2.28758,0,0,0-1.85072.40193,3.80979,3.80979,0,0,0-1.46358,1.96035l7.8801,10.94787a145.28148,145.28148,0,0,1-19.14131-8.00189,161.05415,161.05415,0,0,1-32.95416-22.1833q5.64918-11.08453,11.29825-22.169A153.68086,153.68086,0,0,1,1295.2312,772.271,155.89032,155.89032,0,0,1,1330,811.19732Z" transform="translate(22.65679 -25.48133)" style="fill:url(#7ca2671b-1847-4d2b-82a6-1f17a8356cea)"/><path d="M1229.48781,713.78132a103.74793,103.74793,0,0,1,10.79106,7.76527q1.17757.963,2.41093,2.027a20.17161,20.17161,0,0,0,.604,6.6395,19.06008,19.06008,0,0,0,1.65143,4.16294,1.45957,1.45957,0,0,0,1.17761.27771,1.74421,1.74421,0,0,0,1.13655-.82794l-3.43207-9.25622a130.56356,130.56356,0,0,1,10.66013,10.62687,152.22835,152.22835,0,0,1,17.30212,23.65734q-4.82653,5.43936-9.653,10.8787a144.21626,144.21626,0,0,1-16.33366-21.09182A146.59307,146.59307,0,0,1,1229.48781,713.78132Z" transform="translate(22.65679 -25.48133)" style="fill:url(#f7180cbe-a448-4549-8440-b6630b66a878)"/><path d="M1217.77933,820.58179a143.40929,143.40929,0,0,0,17.19529-10.83831q1.86335-1.36225,3.80868-2.87514a28.38132,28.38132,0,0,1,.25957-10.24376,24.50127,24.50127,0,0,1,2.29456-6.27863,2.35616,2.35616,0,0,1,1.941-.29793,3.49775,3.49775,0,0,1,1.99748,1.41466l-4.70018,13.98759a171.07914,171.07914,0,0,0,16.65185-15.29767,193.77376,193.77376,0,0,0,26.30107-34.78365q-8.70053-8.99489-17.40092-17.98976a184.33158,184.33158,0,0,0-24.96952,30.90869A187.14873,187.14873,0,0,0,1217.77933,820.58179Z" transform="translate(22.65679 -25.48133)" style="fill:url(#24e44bd9-fb7e-400f-834c-39279eae7677)"/><path d="M1261.51559,737.4649c4.68736,22.06185,8.98918,42.32492,9.44626,44.478,18.25073,85.96767,25.45811,120.11141,39.58155,186.49907,3.06849,14.42351,6.83442,32.10971,10.25316,48.14893q-3.69686.52984-7.39371,1.05977a964.46238,964.46238,0,0,1-32.65449-112.63628A1183.22373,1183.22373,0,0,1,1255.441,738.1192Z" transform="translate(22.65679 -25.48133)" style="fill:url(#ab3bf688-709c-45b0-9bb1-dc1a02b07a1c)"/><path d="M1258.33825,685.16469a190.81584,190.81584,0,0,1,7.74724,20.668q.75842,2.42346,1.511,5.04233a36.59863,36.59863,0,0,0-5.29165,17.66664,2.361,2.361,0,0,0,1.27436,1.42713,2.26829,2.26829,0,0,0,2.055-.21618l2.64531-16.441a249.43125,249.43125,0,0,1,5.42792,24.715,296.584,296.584,0,0,1,3.98461,49.43311q-10.175,3.7146-20.35,7.42926a280.199,280.199,0,0,1-4.69614-44.86127A285.04145,285.04145,0,0,1,1258.33825,685.16469Z" transform="translate(22.65679 -25.48133)" style="fill:url(#b04ffe29-187b-465b-af7a-58b2c340e1de)"/><path d="M1310.51379,717.48808a125.68346,125.68346,0,0,0-13.9016,11.23651q-1.48682,1.382-3.02955,2.90423a25.05831,25.05831,0,0,1,.84352,8.99417,21.56079,21.56079,0,0,1-1.35007,5.72984,2.06772,2.06772,0,0,1-1.666.45816,3.09244,3.09244,0,0,1-1.89427-1.03536l2.64777-12.72313a149.99408,149.99408,0,0,0-12.96046,15.08515,170.07681,170.07681,0,0,0-19.3607,33.12494q8.547,6.98989,17.0939,13.97978a161.741,161.741,0,0,0,18.60143-29.59728A164.59248,164.59248,0,0,0,1310.51379,717.48808Z" transform="translate(22.65679 -25.48133)" style="fill:url(#41de2f98-b114-4531-bccc-0fe675062391)"/><path d="M1265.784,777.59885a21.28947,21.28947,0,0,1,1.353,2.3689q.1378.28008.27741.58378a4.13915,4.13915,0,0,0-.45284,1.29094,3.91122,3.91122,0,0,0-.04633.91783.29948.29948,0,0,0,.19618.15216.35789.35789,0,0,0,.2827-.05774l.1478-2.02035a26.792,26.792,0,0,1,1.0848,2.892,31.23669,31.23669,0,0,1,1.21473,5.89034l-2.72876,1.20856a29.59283,29.59283,0,0,1-1.25249-5.32889A30.08084,30.08084,0,0,1,1265.784,777.59885Z" transform="translate(22.65679 -25.48133)" style="fill:url(#b1e64ff2-aa47-4a83-9238-983e324b0407)"/><path d="M1254.32349,796.5583a29.99525,29.99525,0,0,0,4.213-.56929q.47284-.09742.97437-.21638a5.936,5.936,0,0,1,.93884-1.92667,5.12432,5.12432,0,0,1,.98178-.99547.49275.49275,0,0,1,.39521.11184.73159.73159,0,0,1,.25725.44263l-2.10888,2.25347a35.78163,35.78163,0,0,0,4.49682-1.465,40.52934,40.52934,0,0,0,8.02483-4.335q-.87455-2.467-1.74905-4.934a38.55473,38.55473,0,0,0-7.435,3.7133A39.14349,39.14349,0,0,0,1254.32349,796.5583Z" transform="translate(22.65679 -25.48133)" style="fill:url(#7116d933-d341-4002-971a-533c6258f325)"/><path d="M1273.60765,774.71427a39.1555,39.1555,0,0,1-.31436,4.51833q-.06486.517-.14746,1.07a7.50983,7.50983,0,0,0-2.49282,2.84729.48446.48446,0,0,0,.11633.375.46542.46542,0,0,0,.402.1347l1.89439-2.8439a51.1845,51.1845,0,0,1-1.09209,5.07626,60.86005,60.86005,0,0,1-3.46717,9.56778l-4.43188-.34663a57.497,57.497,0,0,1,2.94488-8.7749A58.4906,58.4906,0,0,1,1273.60765,774.71427Z" transform="translate(22.65679 -25.48133)" style="fill:url(#49ef085f-c8ca-41df-a606-e04f877fc54a)"/><g style="opacity:0.1"><path d="M949.31621,901.28305a143.40889,143.40889,0,0,1,19.417,6.01073q2.15277.83271,4.42376,1.78964a28.38143,28.38143,0,0,0,2.906,9.82636,24.50116,24.50116,0,0,0,3.8436,5.46927,2.35615,2.35615,0,0,0,1.95192-.21539,3.49777,3.49777,0,0,0,1.56253-1.88407L975.2557,909.9884a171.077,171.077,0,0,1,20.048,10.45854,193.77378,193.77378,0,0,1,34.41832,26.77737q-6.07161,10.9427-12.14311,21.88534a184.33064,184.33064,0,0,1-32.12786-23.38A187.14857,187.14857,0,0,1,949.31621,901.28305Z" transform="translate(22.65679 -25.48133)"/><path d="M1073.07178,968.8093a126.48993,126.48993,0,0,1-18.71618-2.50772q-2.08793-.43671-4.29656-.97232a25.33053,25.33053,0,0,0-3.4905-8.89379,20.51513,20.51513,0,0,0-4.03539-4.58011,2.28757,2.28757,0,0,0-1.81818.53,3.80969,3.80969,0,0,0-1.32327,2.05767l8.62459,10.37151a145.28126,145.28126,0,0,1-19.65286-6.64717,161.0536,161.0536,0,0,1-34.42132-19.83049q4.86221-11.4516,9.7243-22.90313a153.68085,153.68085,0,0,1,32.0059,16.96931A155.89046,155.89046,0,0,1,1073.07178,968.8093Z" transform="translate(22.65679 -25.48133)"/><path d="M966.009,878.642a103.74879,103.74879,0,0,1,11.30645,6.9936q1.24188.87849,2.54645,1.85388a20.17169,20.17169,0,0,0,1.06566,6.58119,19.06012,19.06012,0,0,0,1.93779,4.0376,1.45954,1.45954,0,0,0,1.19412.19489,1.74421,1.74421,0,0,0,1.076-.90521l-4.0694-8.99426a130.56314,130.56314,0,0,1,11.37546,9.85738,152.22866,152.22866,0,0,1,18.91023,22.39277q-4.43535,5.76279-8.87061,11.52556a144.21593,144.21593,0,0,1-17.76516-19.90106A146.593,146.593,0,0,1,966.009,878.642Z" transform="translate(22.65679 -25.48133)"/><path d="M961.7791,985.999a143.41065,143.41065,0,0,0,16.39736-12.01139q1.76379-1.48893,3.59884-3.13382a28.38141,28.38141,0,0,1-.45563-10.23692,24.50162,24.50162,0,0,1,1.851-6.42339,2.35617,2.35617,0,0,1,1.91553-.4326,3.49776,3.49776,0,0,1,2.09131,1.27187l-3.713,14.28138a171.07964,171.07964,0,0,0,15.54418-16.422,193.77392,193.77392,0,0,0,23.81061-36.53358q-9.30678-8.36605-18.61343-16.73211a184.33059,184.33059,0,0,0-22.75262,32.57518A187.14856,187.14856,0,0,0,961.7791,985.999Z" transform="translate(22.65679 -25.48133)"/><path d="M999.61088,900.03372c6.2149,21.68113,11.91972,41.59477,12.52587,43.71067,24.20307,84.48514,33.77465,118.043,52.49465,183.28369,4.06715,14.17434,9.05763,31.55475,13.58688,47.31642q-3.65088.78644-7.30176,1.57295a964.46243,964.46243,0,0,1-40.43207-110.084,1183.22516,1183.22516,0,0,1-36.88774-164.72323Z" transform="translate(22.65679 -25.48133)"/><path d="M992.793,848.08255a190.81536,190.81536,0,0,1,9.1701,20.07725q.9256,2.36466,1.859,4.92464a36.59872,36.59872,0,0,0-4.0464,17.99274,2.361,2.361,0,0,0,1.37081,1.33476,2.26831,2.26831,0,0,0,2.03494-.359l1.492-16.58544a249.4323,249.4323,0,0,1,7.13873,24.27618,296.58646,296.58646,0,0,1,7.42319,49.03474q-9.89115,4.41533-19.78218,8.8307a280.199,280.199,0,0,1-7.81407-44.42439A285.04151,285.04151,0,0,1,992.793,848.08255Z" transform="translate(22.65679 -25.48133)"/><path d="M1047.09621,876.68762a125.685,125.685,0,0,0-13.08392,12.17886q-1.38678,1.48237-2.81958,3.10849a25.0585,25.0585,0,0,1,1.46887,8.91342,21.561,21.561,0,0,1-.94709,5.81006,2.06774,2.06774,0,0,1-1.62994.57326,3.09241,3.09241,0,0,1-1.96188-.90071l1.7538-12.87683a149.99434,149.99434,0,0,0-11.87661,15.95247,170.07747,170.07747,0,0,0-17.00285,34.39479q9.01378,6.37667,18.02744,12.75332A161.74161,161.74161,0,0,0,1035.516,925.772,164.59261,164.59261,0,0,0,1047.09621,876.68762Z" transform="translate(22.65679 -25.48133)"/><path d="M1006.66849,939.77216a21.28879,21.28879,0,0,1,1.515,2.26874q.157.26979.31745.563a4.13927,4.13927,0,0,0-.36168,1.31938,3.91114,3.91114,0,0,0,.0178.91883.29951.29951,0,0,0,.20632.1381.35789.35789,0,0,0,.278-.07732l.0065-2.02574a26.78983,26.78983,0,0,1,1.28389,2.80925,31.23808,31.23808,0,0,1,1.62267,5.79125l-2.63782,1.396a29.59263,29.59263,0,0,1-1.62116-5.22854A30.08137,30.08137,0,0,1,1006.66849,939.77216Z" transform="translate(22.65679 -25.48133)"/><path d="M996.55845,959.48487a29.9951,29.9951,0,0,0,4.163-.86179q.46489-.13017.9569-.28383a5.936,5.936,0,0,1,.80216-1.98746,5.12459,5.12459,0,0,1,.90994-1.06154.49282.49282,0,0,1,.40206.084.7316.7316,0,0,1,.2875.4236l-1.94655,2.39509a35.78358,35.78358,0,0,0,4.38367-1.77512,40.52964,40.52964,0,0,0,7.70289-4.88424q-1.04451-2.4-2.089-4.8a38.5547,38.5547,0,0,0-7.15786,4.22289A39.1434,39.1434,0,0,0,996.55845,959.48487Z" transform="translate(22.65679 -25.48133)"/><path d="M1014.27187,936.34885a39.15686,39.15686,0,0,1,.00159,4.52926q-.02865.52029-.07246,1.07771a7.51016,7.51016,0,0,0-2.28814,3.01425.4845.4845,0,0,0,.14221.36595.46544.46544,0,0,0,.41047.10633l1.69139-2.96913a51.18559,51.18559,0,0,1-.73532,5.14009,60.85929,60.85929,0,0,1-2.79132,9.78632l-4.44526-.03663a57.49719,57.49719,0,0,1,2.32561-8.959A58.491,58.491,0,0,1,1014.27187,936.34885Z" transform="translate(22.65679 -25.48133)"/></g><path d="M1222.38386,74.04808a7.84031,7.84031,0,0,1,15.51727,0q1.34933,25.87988,2.69866,51.75978v76.98723h-20.23992Q1221.37188,138.4216,1222.38386,74.04808Z" transform="translate(22.65679 -25.48133)" style="fill:url(#4c4beaab-8654-41db-ab72-38287966c8c6)"/><path d="M1261.96414,127.48555a79.688,79.688,0,0,0-21.36435-1.73983v13.92676c17.429,3.88532,32.78645-4.64016,36.88162-17.40641,2.90431-9.05389-.59246-17.94491-2.024-21.12644-.0849-.17357-2.20675-4.33445-6.52175-4.47383a7.60871,7.60871,0,0,0-6.97153,4.47383,148.69656,148.69656,0,0,0-.56668,15.50072C1261.45766,120.48681,1261.66376,124.1106,1261.96414,127.48555Z" transform="translate(22.65679 -25.48133)" style="fill:url(#d19ad2fd-5ad4-4626-abf4-effe7ba415ee)"/><path d="M1265.76593,100.22a1.11953,1.11953,0,0,1,1.01376-1.33593,1.22786,1.22786,0,0,1,.85171,1.30158c-.20011,7.2068-.17956,13.04911-.12056,17.12659.08674,5.9947.263,8.6188-1.58828,10.68707-.64218.71746-2.11626,2.02489-10.41474,2.70656a88.02966,88.02966,0,0,1-11.19279.20612c-.6408-.12166-1.101-.51718-1.11252-.8477-.01322-.38041.56092-.87762,1.447-.805q10.442-1.25507,20.884-2.51017Z" transform="translate(22.65679 -25.48133)" style="opacity:0.1"/><path d="M1268.95442,104.14148a1.12633,1.12633,0,0,1,1.08448-1.356,1.33478,1.33478,0,0,1,.94726,1.36783c-.11059,7.44882-.00111,13.492.12393,17.71075.18385,6.20245.415,8.921-1.571,11.01319-.6889.72574-2.27528,2.04059-11.30554,2.53494a100.9434,100.9434,0,0,1-12.19043-.071c-.6999-.14211-1.20717-.56287-1.22461-.905-.02008-.39378.598-.89347,1.56434-.79589l22.7138-2.066Z" transform="translate(22.65679 -25.48133)" style="opacity:0.1"/><path d="M1203.39013,165.26459a52.66509,52.66509,0,0,1,10.31678-1.73982,51.52867,51.52867,0,0,1,6.87785,0v13.92675c-14.02732,3.88533-26.38745-4.64016-29.68336-17.4064-2.33747-9.05389.47683-17.94492,1.629-21.12644.06832-.17358,1.776-4.33445,5.24888-4.47384,2.31819-.09305,4.49413,1.64307,5.61088,4.47384.335,4.67914.527,9.87252.45608,15.50071C1203.79776,158.26585,1203.63188,161.88964,1203.39013,165.26459Z" transform="translate(22.65679 -25.48133)" style="fill:url(#89fe3508-8ad0-425f-a516-24c98e2f6518)"/><path d="M1200.33034,137.999c.059-.8355-.42856-1.39612-.8159-1.33593-.34067.05294-.70334.60163-.68548,1.30158.16106,7.2068.14452,13.04911.097,17.12659-.0698,5.9947-.21166,8.61881,1.2783,10.68708.51684.71745,1.70322,2.02489,8.38207,2.70656a57.06524,57.06524,0,0,0,9.00827.20611,1.09187,1.09187,0,0,0,.89538-.8477.97993.97993,0,0,0-1.16456-.805l-16.80807-2.51016Z" transform="translate(22.65679 -25.48133)" style="opacity:0.1"/><path d="M1197.86913,141.87816c.08-.8654-.44082-1.434-.864-1.36289-.37219.06255-.77762.63828-.77125,1.36174.04059,7.44934-.08678,13.49163-.21483,17.70951-.18827,6.20111-.39194,8.91811,1.19278,11.02293.54971.73013,1.8179,2.05507,9.0823,2.60711a65.42166,65.42166,0,0,0,9.81141.0069,1.22319,1.22319,0,0,0,.99146-.89717c.01871-.39365-.47546-.89727-1.25383-.80587q-9.1334-1.10551-18.2668-2.21107Z" transform="translate(22.65679 -25.48133)" style="opacity:0.1"/><path d="M1237.90113,74.04808c1.18361.03423-2.85011,45.15479.67467,80.28047a192.55552,192.55552,0,0,1-.89956,39.51887c-.21278,1.61886-.95242,7.24583-1.34932,7.20784-.45037-.04308-.2484-7.35988,0-13.67005q.22488-12.55156.44977-25.10318a496.07147,496.07147,0,0,1-.89955-64.3735C1235.99518,95.57167,1237.08366,74.02445,1237.90113,74.04808Z" transform="translate(22.65679 -25.48133)" style="opacity:0.1"/><path d="M1233.03619,98.014c-.91524.04424,1.57436,36.60371-1.63863,65.15746a164,164,0,0,0,.14527,32.05727c.14192,1.31076.63525,5.86678.94253,5.83043.34867-.04123.2944-5.976.19024-11.09332q.00087-10.18255.00173-20.36512a423.65277,423.65277,0,0,0,1.59108-52.252C1234.2097,115.454,1233.66832,97.98348,1233.03619,98.014Z" transform="translate(22.65679 -25.48133)" style="opacity:0.1"/><path d="M1225.75718,72.05971c1.18362.03423-2.85011,45.15479.67467,80.28047a192.55552,192.55552,0,0,1-.89956,39.51887c-.21278,1.61886-.95242,7.24583-1.34932,7.20784-.45037-.04308-.2484-7.35988,0-13.67005q.22488-12.55156.44977-25.10318a496.07147,496.07147,0,0,1-.89955-64.3735C1223.85124,93.5833,1224.93971,72.03608,1225.75718,72.05971Z" transform="translate(22.65679 -25.48133)" style="opacity:0.1"/><text x="22.65679" y="-25.48133"></text><path d="M1437,88" transform="translate(22.65679 -25.48133)" style="fill:url(#010ca51c-40b5-41dc-b571-35c7e4c0265b)"/><path d="M841.5,437.5c-1.72623-2.11719-2.78384-1.50159-6-4-1.6066-1.248-1.17514-1.27148-5-5-2.65619-2.58929-3.20569-3.045-3.62329-3.52527-.00006-.00006-.18619-.2276-.37671-.47473A29.9919,29.9919,0,0,1,823,418c-1.27411-2.93427-5.45663-5.56323-8.5-5.5-6.83121.14191-7.55023,13.832-19.89981,19.55017a29.57654,29.57654,0,0,1-6.45844,1.90479,90.03044,90.03044,0,0,1-32.29217.95239c-19.53571-3.06384-22.65164-9.506-35.06006-7.6192-6.43967.97925-11.13464,2.43091-14.76215,5.71441-1.63073,1.47608-4.23117,4.31287-6.45843,10.47632-5.41852,14.99463,3.866,24.17591-.92264,35.23865-2.71939,6.28241-7.00491,4.68787-11.99423,11.42877-4.93494,6.66748-1.55634,14.18-5.5358,27.61951a19.97648,19.97648,0,0,0-.92264,6.66675c.107,2.94763-.12555,6.16375,1.84528,7.6192,1.44122,1.06427,3.8038,1.06384,4.61316,0,.68127-.89557.149-2.396,0-2.85724-1.54773-4.79254-.98071-19.01312,4.61316-28.57184,3.11041-5.315,7.12478-8.07764,11.99423-11.42877,2.70377-1.86072,10.27243-7.06946,12.91687-4.762a3.76561,3.76561,0,0,1,.92264,2.85717c.081,7.10572-3.75842,12.56342-5.5358,17.14313-4.51834,11.64233.82633,26.53314,5.5358,27.61951.87457.20166,2.91745.202,3.69055-.95239.64633-.96515.15979-2.37092,0-2.85724-1.397-4.25177-.95837-8.93824-1.84528-13.3335-2.2713-11.25616,2.26456-22.28882,6.45844-26.66711a6.77338,6.77338,0,0,1,2.76788-1.90479c3.32279-1.12567,6.053,1.37592,10.149,2.85718,3.38736,1.225,5.9953,1.13251,11.07159.95239,9.83667-.34894,11.86957-3.90851,15.68479-1.90478,3.28979,1.72778,4.64624,5.88067,6.45843,11.42877a43.2591,43.2591,0,0,1,1.84525,8.57153c1.19659,10.30835-1.241,15.70618,0,27.61951.27258,2.61658.71737,5.49725,2.76791,6.66675,1.8588,1.06018,4.753.55224,5.5358-.9524.77618-1.49194-.85486-3.32684-1.84528-5.71435-1.55-3.73657-.7258-7.253.92264-14.28595,2.75739-11.76392,6.72879-15.56726,6.45844-20.9527a15.9101,15.9101,0,0,1,.92263-5.71442c.45169-1.26879.986-2.76971,1.84528-2.85717.29333-.02979,1.37408.02881,3.69052,5.71441a74.7115,74.7115,0,0,1,2.76792,8.57154c1.90466,6.33734,3.19906,5.52581,4.61315,10.47638,1.5607,5.46374.0701,6.75372,1.84528,15.23834,1.08075,5.16565,2.1037,6.936,3.69052,7.61914,1.60013.68884,3.85895.309,4.61316-.95239.69434-1.16114-.19064-2.56031-.92261-4.762-.99411-2.99011-.40838-3.55719-.92263-11.42877-.288-4.40753-.70044-7.73267-.92264-9.524-1.07489-8.66485-1.82447-8.64447-1.84528-12.3811-.01926-3.46167.61923-4.35113,1.5838-7.9613.31107-1.16431.46811-1.86615.58637-2.35053,1.384-5.66809,5.48016-12.36908,6.73541-19.81085,1.18582-7.03015-1.188-8.649,1-15a21.66313,21.66313,0,0,1,4-7c1.79529-2.09564,3.008-3.55817,5-4a3.639,3.639,0,0,1,.74738-.09332c3.06134-.04315,5.32428,1.055,8.25262,2.09332,3.52673,1.25049,5.46,1.936,7,1,1.65485-1.00586,1.92117-3.31622,2-4A8.274,8.274,0,0,0,841.5,437.5Z" transform="translate(22.65679 -25.48133)" style="stroke:#42210b;stroke-miterlimit:10;stroke-width:0.2px;fill:url(#fe916efa-f36f-47fd-a376-f4c7754fcdf0)"/><path d="M806.97836,419.32921c-4.28918.175-9.508,2.67581-10.86667,7.06074-1.16472,3.759.63361,8.08964,3.24488,10.60074,3.237,3.11282,7.11593,2.84545,7.67469,5.19509.39775,1.67247-1.1588,3.52666-2.65227,4.41869-4.3706,2.61055-12.77544-.28673-17.2818-5.24391-6.28574-6.91458-4.062-17.232-3.80179-18.36047.015-.06512.02755-.11749.03683-.15635.1582-.66054,3.30075-12.82548,15.23682-15.93853a23.537,23.537,0,0,1,14.85776,1.08051c1.78771.77812,8.40473,3.65817,8.51051,8.094A5.66485,5.66485,0,0,1,818.791,421.153C815.312,422.77812,812.48864,419.10439,806.97836,419.32921Z" transform="translate(22.65679 -25.48133)" style="stroke-miterlimit:10;stroke-width:0.5px;fill:url(#ae0c1ee5-10f6-4aa2-bff9-1fc30d0ab042);stroke:url(#f99fbab0-01ab-45b3-8490-27657230198f)"/><path d="M808.97836,425.32921c-4.28918.175-9.508,2.67581-10.86667,7.06074-1.16472,3.759.63361,8.08964,3.24488,10.60074,3.237,3.11282,7.11593,2.84545,7.67469,5.19509.39775,1.67247-1.1588,3.52666-2.65227,4.41869-4.3706,2.61055-12.77544-.28673-17.2818-5.24391-6.28574-6.91458-4.062-17.232-3.80179-18.36047.015-.06512.02755-.11749.03683-.15635.1582-.66054,3.30075-12.82548,15.23682-15.93853a23.537,23.537,0,0,1,14.85776,1.08051c1.78771.77812,8.40473,3.65817,8.51051,8.094A5.66485,5.66485,0,0,1,820.791,427.153C817.312,428.77812,814.48864,425.10439,808.97836,425.32921Z" transform="translate(22.65679 -25.48133)" style="stroke-miterlimit:10;stroke-width:0.5px;fill:url(#cffd2968-cdce-4015-bce5-541a58ca8fc8);stroke:url(#eeebdfee-99b0-46f7-a298-6b02aa29a618)"/></svg>